M48
; DRILL file {KiCad (6.0.5)} date Wed Jun  8 19:34:25 2022
; FORMAT={-:-/ absolute / metric / decimal}
; #@! TF.CreationDate,2022-06-08T19:34:25-04:00
; #@! TF.GenerationSoftware,Kicad,Pcbnew,(6.0.5)
; #@! TF.FileFunction,Plated,1,4,PTH
FMAT,2
METRIC
; #@! TA.AperFunction,Plated,PTH,ViaDrill
T1C0.400
; #@! TA.AperFunction,Plated,PTH,ComponentDrill
T2C0.800
; #@! TA.AperFunction,Plated,PTH,ComponentDrill
T3C1.000
; #@! TA.AperFunction,Plated,PTH,ComponentDrill
T4C1.500
; #@! TA.AperFunction,Plated,PTH,ComponentDrill
T5C2.500
%
G90
G05
T1
X125.244Y-94.298
X126.98Y-93.86
X126.98Y-94.86
X127.98Y-111.86
X128.48Y-106.36
X129.9Y-99.6
X132.98Y-106.36
X133.0Y-101.5
X133.0Y-103.75
X134.98Y-93.36
X135.98Y-91.36
X135.98Y-106.36
X137.98Y-89.86
X138.48Y-107.36
X139.48Y-89.86
X140.48Y-107.36
X141.98Y-83.36
X142.48Y-94.86
X142.98Y-89.36
X143.98Y-88.36
X143.98Y-101.36
X143.98Y-102.36
X144.068Y-108.413
X144.48Y-96.86
X144.98Y-115.36
X145.48Y-89.36
X147.341Y-105.837
X147.526Y-109.795
X148.48Y-79.86
X148.98Y-84.36
X148.98Y-85.86
X149.0Y-92.5
X150.7Y-87.7
X151.88Y-97.06
X152.8Y-91.0
X153.08Y-100.96
X158.6Y-118.4
X158.98Y-96.86
X160.4Y-122.0
T2
X131.48Y-81.36
X131.48Y-83.36
X131.48Y-85.36
X155.48Y-106.157
X157.48Y-106.157
X159.48Y-106.157
T3
X123.48Y-90.54
X123.48Y-93.08
X123.48Y-95.62
X123.48Y-98.16
X123.48Y-102.54
X123.48Y-105.08
X123.48Y-107.62
X123.48Y-110.16
X123.48Y-114.335
X123.48Y-116.875
X123.48Y-119.415
X127.23Y-114.335
X127.23Y-116.875
X127.23Y-119.415
X130.98Y-114.335
X130.98Y-116.875
X130.98Y-119.415
X134.73Y-114.335
X134.73Y-116.875
X134.73Y-119.415
X138.48Y-114.335
X138.48Y-116.875
X138.48Y-119.415
X142.23Y-114.335
X142.23Y-116.875
X142.23Y-119.415
X155.715Y-81.805
X155.715Y-84.345
X155.715Y-86.885
X158.255Y-81.805
X158.255Y-84.345
X158.255Y-86.885
X162.425Y-112.06
X162.425Y-114.6
T4
X131.48Y-79.26
X131.48Y-87.46
X153.38Y-106.157
X161.58Y-106.157
T5
X122.48Y-78.36
X165.48Y-78.36
X165.48Y-121.36
T0
M30
