%FSLAX45Y45*%
G04 Gerber Fmt 4.5, Leading zero omitted, Abs format (unit mm)*
G04 Created by KiCad (PCBNEW (6.0.5)) date 2022-06-08 19:34:26*
%MOMM*%
%LPD*%
G01*
G04 APERTURE LIST*
%TA.AperFunction,Profile*%
%ADD10C,0.200000*%
%TD*%
%ADD11C,0.200000*%
%ADD12C,0.100000*%
G04 APERTURE END LIST*
D10*
X11898000Y-7486000D02*
X16898000Y-7486000D01*
X16898000Y-7486000D02*
X16898000Y-12486000D01*
X16898000Y-12486000D02*
X11898000Y-12486000D01*
X11898000Y-12486000D02*
X11898000Y-7486000D01*
D11*
D12*
X16448000Y-9416000D02*
X16548000Y-9516000D01*
X16548000Y-9416000D02*
X16448000Y-9516000D01*
X16448000Y-9856000D02*
X16548000Y-9956000D01*
X16548000Y-9856000D02*
X16448000Y-9956000D01*
D11*
X12145619Y-12806476D02*
X12145619Y-12606476D01*
X12193238Y-12606476D01*
X12221809Y-12616000D01*
X12240857Y-12635048D01*
X12250381Y-12654095D01*
X12259905Y-12692190D01*
X12259905Y-12720762D01*
X12250381Y-12758857D01*
X12240857Y-12777905D01*
X12221809Y-12796952D01*
X12193238Y-12806476D01*
X12145619Y-12806476D01*
X12345619Y-12806476D02*
X12345619Y-12673143D01*
X12345619Y-12711238D02*
X12355143Y-12692190D01*
X12364667Y-12682667D01*
X12383714Y-12673143D01*
X12402762Y-12673143D01*
X12469428Y-12806476D02*
X12469428Y-12673143D01*
X12469428Y-12606476D02*
X12459905Y-12616000D01*
X12469428Y-12625524D01*
X12478952Y-12616000D01*
X12469428Y-12606476D01*
X12469428Y-12625524D01*
X12593238Y-12806476D02*
X12574190Y-12796952D01*
X12564667Y-12777905D01*
X12564667Y-12606476D01*
X12698000Y-12806476D02*
X12678952Y-12796952D01*
X12669428Y-12777905D01*
X12669428Y-12606476D01*
X12926571Y-12806476D02*
X12926571Y-12606476D01*
X12993238Y-12749333D01*
X13059905Y-12606476D01*
X13059905Y-12806476D01*
X13240857Y-12806476D02*
X13240857Y-12701714D01*
X13231333Y-12682667D01*
X13212286Y-12673143D01*
X13174190Y-12673143D01*
X13155143Y-12682667D01*
X13240857Y-12796952D02*
X13221809Y-12806476D01*
X13174190Y-12806476D01*
X13155143Y-12796952D01*
X13145619Y-12777905D01*
X13145619Y-12758857D01*
X13155143Y-12739809D01*
X13174190Y-12730286D01*
X13221809Y-12730286D01*
X13240857Y-12720762D01*
X13336095Y-12673143D02*
X13336095Y-12873143D01*
X13336095Y-12682667D02*
X13355143Y-12673143D01*
X13393238Y-12673143D01*
X13412286Y-12682667D01*
X13421809Y-12692190D01*
X13431333Y-12711238D01*
X13431333Y-12768381D01*
X13421809Y-12787428D01*
X13412286Y-12796952D01*
X13393238Y-12806476D01*
X13355143Y-12806476D01*
X13336095Y-12796952D01*
X13517048Y-12787428D02*
X13526571Y-12796952D01*
X13517048Y-12806476D01*
X13507524Y-12796952D01*
X13517048Y-12787428D01*
X13517048Y-12806476D01*
X13517048Y-12682667D02*
X13526571Y-12692190D01*
X13517048Y-12701714D01*
X13507524Y-12692190D01*
X13517048Y-12682667D01*
X13517048Y-12701714D01*
D12*
X11788000Y-13086000D02*
X11888000Y-13186000D01*
X11888000Y-13086000D02*
X11788000Y-13186000D01*
D11*
X12250381Y-13226476D02*
X12136095Y-13226476D01*
X12193238Y-13226476D02*
X12193238Y-13026476D01*
X12174190Y-13055048D01*
X12155143Y-13074095D01*
X12136095Y-13083619D01*
X12336095Y-13207428D02*
X12345619Y-13216952D01*
X12336095Y-13226476D01*
X12326571Y-13216952D01*
X12336095Y-13207428D01*
X12336095Y-13226476D01*
X12469428Y-13026476D02*
X12488476Y-13026476D01*
X12507524Y-13036000D01*
X12517048Y-13045524D01*
X12526571Y-13064571D01*
X12536095Y-13102667D01*
X12536095Y-13150286D01*
X12526571Y-13188381D01*
X12517048Y-13207428D01*
X12507524Y-13216952D01*
X12488476Y-13226476D01*
X12469428Y-13226476D01*
X12450381Y-13216952D01*
X12440857Y-13207428D01*
X12431333Y-13188381D01*
X12421809Y-13150286D01*
X12421809Y-13102667D01*
X12431333Y-13064571D01*
X12440857Y-13045524D01*
X12450381Y-13036000D01*
X12469428Y-13026476D01*
X12659905Y-13026476D02*
X12678952Y-13026476D01*
X12698000Y-13036000D01*
X12707524Y-13045524D01*
X12717048Y-13064571D01*
X12726571Y-13102667D01*
X12726571Y-13150286D01*
X12717048Y-13188381D01*
X12707524Y-13207428D01*
X12698000Y-13216952D01*
X12678952Y-13226476D01*
X12659905Y-13226476D01*
X12640857Y-13216952D01*
X12631333Y-13207428D01*
X12621809Y-13188381D01*
X12612286Y-13150286D01*
X12612286Y-13102667D01*
X12621809Y-13064571D01*
X12631333Y-13045524D01*
X12640857Y-13036000D01*
X12659905Y-13026476D01*
X12850381Y-13026476D02*
X12869428Y-13026476D01*
X12888476Y-13036000D01*
X12898000Y-13045524D01*
X12907524Y-13064571D01*
X12917048Y-13102667D01*
X12917048Y-13150286D01*
X12907524Y-13188381D01*
X12898000Y-13207428D01*
X12888476Y-13216952D01*
X12869428Y-13226476D01*
X12850381Y-13226476D01*
X12831333Y-13216952D01*
X12821809Y-13207428D01*
X12812286Y-13188381D01*
X12802762Y-13150286D01*
X12802762Y-13102667D01*
X12812286Y-13064571D01*
X12821809Y-13045524D01*
X12831333Y-13036000D01*
X12850381Y-13026476D01*
X13002762Y-13226476D02*
X13002762Y-13093143D01*
X13002762Y-13112190D02*
X13012286Y-13102667D01*
X13031333Y-13093143D01*
X13059905Y-13093143D01*
X13078952Y-13102667D01*
X13088476Y-13121714D01*
X13088476Y-13226476D01*
X13088476Y-13121714D02*
X13098000Y-13102667D01*
X13117048Y-13093143D01*
X13145619Y-13093143D01*
X13164667Y-13102667D01*
X13174190Y-13121714D01*
X13174190Y-13226476D01*
X13269428Y-13226476D02*
X13269428Y-13093143D01*
X13269428Y-13112190D02*
X13278952Y-13102667D01*
X13298000Y-13093143D01*
X13326571Y-13093143D01*
X13345619Y-13102667D01*
X13355143Y-13121714D01*
X13355143Y-13226476D01*
X13355143Y-13121714D02*
X13364667Y-13102667D01*
X13383714Y-13093143D01*
X13412286Y-13093143D01*
X13431333Y-13102667D01*
X13440857Y-13121714D01*
X13440857Y-13226476D01*
X13831333Y-13016952D02*
X13659905Y-13274095D01*
X14088476Y-13026476D02*
X14107524Y-13026476D01*
X14126571Y-13036000D01*
X14136095Y-13045524D01*
X14145619Y-13064571D01*
X14155143Y-13102667D01*
X14155143Y-13150286D01*
X14145619Y-13188381D01*
X14136095Y-13207428D01*
X14126571Y-13216952D01*
X14107524Y-13226476D01*
X14088476Y-13226476D01*
X14069428Y-13216952D01*
X14059905Y-13207428D01*
X14050381Y-13188381D01*
X14040857Y-13150286D01*
X14040857Y-13102667D01*
X14050381Y-13064571D01*
X14059905Y-13045524D01*
X14069428Y-13036000D01*
X14088476Y-13026476D01*
X14240857Y-13207428D02*
X14250381Y-13216952D01*
X14240857Y-13226476D01*
X14231333Y-13216952D01*
X14240857Y-13207428D01*
X14240857Y-13226476D01*
X14374190Y-13026476D02*
X14393238Y-13026476D01*
X14412286Y-13036000D01*
X14421809Y-13045524D01*
X14431333Y-13064571D01*
X14440857Y-13102667D01*
X14440857Y-13150286D01*
X14431333Y-13188381D01*
X14421809Y-13207428D01*
X14412286Y-13216952D01*
X14393238Y-13226476D01*
X14374190Y-13226476D01*
X14355143Y-13216952D01*
X14345619Y-13207428D01*
X14336095Y-13188381D01*
X14326571Y-13150286D01*
X14326571Y-13102667D01*
X14336095Y-13064571D01*
X14345619Y-13045524D01*
X14355143Y-13036000D01*
X14374190Y-13026476D01*
X14507524Y-13026476D02*
X14631333Y-13026476D01*
X14564667Y-13102667D01*
X14593238Y-13102667D01*
X14612286Y-13112190D01*
X14621809Y-13121714D01*
X14631333Y-13140762D01*
X14631333Y-13188381D01*
X14621809Y-13207428D01*
X14612286Y-13216952D01*
X14593238Y-13226476D01*
X14536095Y-13226476D01*
X14517048Y-13216952D01*
X14507524Y-13207428D01*
X14726571Y-13226476D02*
X14764667Y-13226476D01*
X14783714Y-13216952D01*
X14793238Y-13207428D01*
X14812286Y-13178857D01*
X14821809Y-13140762D01*
X14821809Y-13064571D01*
X14812286Y-13045524D01*
X14802762Y-13036000D01*
X14783714Y-13026476D01*
X14745619Y-13026476D01*
X14726571Y-13036000D01*
X14717048Y-13045524D01*
X14707524Y-13064571D01*
X14707524Y-13112190D01*
X14717048Y-13131238D01*
X14726571Y-13140762D01*
X14745619Y-13150286D01*
X14783714Y-13150286D01*
X14802762Y-13140762D01*
X14812286Y-13131238D01*
X14821809Y-13112190D01*
X14993238Y-13093143D02*
X14993238Y-13226476D01*
X14945619Y-13016952D02*
X14898000Y-13159809D01*
X15021809Y-13159809D01*
X15088476Y-13026476D02*
X15088476Y-13064571D01*
X15164667Y-13026476D02*
X15164667Y-13064571D01*
X15459905Y-13302667D02*
X15450381Y-13293143D01*
X15431333Y-13264571D01*
X15421809Y-13245524D01*
X15412286Y-13216952D01*
X15402762Y-13169333D01*
X15402762Y-13131238D01*
X15412286Y-13083619D01*
X15421809Y-13055048D01*
X15431333Y-13036000D01*
X15450381Y-13007428D01*
X15459905Y-12997905D01*
X15526571Y-13045524D02*
X15536095Y-13036000D01*
X15555143Y-13026476D01*
X15602762Y-13026476D01*
X15621809Y-13036000D01*
X15631333Y-13045524D01*
X15640857Y-13064571D01*
X15640857Y-13083619D01*
X15631333Y-13112190D01*
X15517048Y-13226476D01*
X15640857Y-13226476D01*
X15878952Y-13226476D02*
X15878952Y-13026476D01*
X15964667Y-13226476D02*
X15964667Y-13121714D01*
X15955143Y-13102667D01*
X15936095Y-13093143D01*
X15907524Y-13093143D01*
X15888476Y-13102667D01*
X15878952Y-13112190D01*
X16088476Y-13226476D02*
X16069428Y-13216952D01*
X16059905Y-13207428D01*
X16050381Y-13188381D01*
X16050381Y-13131238D01*
X16059905Y-13112190D01*
X16069428Y-13102667D01*
X16088476Y-13093143D01*
X16117048Y-13093143D01*
X16136095Y-13102667D01*
X16145619Y-13112190D01*
X16155143Y-13131238D01*
X16155143Y-13188381D01*
X16145619Y-13207428D01*
X16136095Y-13216952D01*
X16117048Y-13226476D01*
X16088476Y-13226476D01*
X16269428Y-13226476D02*
X16250381Y-13216952D01*
X16240857Y-13197905D01*
X16240857Y-13026476D01*
X16421809Y-13216952D02*
X16402762Y-13226476D01*
X16364667Y-13226476D01*
X16345619Y-13216952D01*
X16336095Y-13197905D01*
X16336095Y-13121714D01*
X16345619Y-13102667D01*
X16364667Y-13093143D01*
X16402762Y-13093143D01*
X16421809Y-13102667D01*
X16431333Y-13121714D01*
X16431333Y-13140762D01*
X16336095Y-13159809D01*
X16507524Y-13216952D02*
X16526571Y-13226476D01*
X16564667Y-13226476D01*
X16583714Y-13216952D01*
X16593238Y-13197905D01*
X16593238Y-13188381D01*
X16583714Y-13169333D01*
X16564667Y-13159809D01*
X16536095Y-13159809D01*
X16517048Y-13150286D01*
X16507524Y-13131238D01*
X16507524Y-13121714D01*
X16517048Y-13102667D01*
X16536095Y-13093143D01*
X16564667Y-13093143D01*
X16583714Y-13102667D01*
X16659905Y-13302667D02*
X16669428Y-13293143D01*
X16688476Y-13264571D01*
X16698000Y-13245524D01*
X16707524Y-13216952D01*
X16717048Y-13169333D01*
X16717048Y-13131238D01*
X16707524Y-13083619D01*
X16698000Y-13055048D01*
X16688476Y-13036000D01*
X16669428Y-13007428D01*
X16659905Y-12997905D01*
X17021810Y-13302667D02*
X17012286Y-13293143D01*
X16993238Y-13264571D01*
X16983714Y-13245524D01*
X16974190Y-13216952D01*
X16964667Y-13169333D01*
X16964667Y-13131238D01*
X16974190Y-13083619D01*
X16983714Y-13055048D01*
X16993238Y-13036000D01*
X17012286Y-13007428D01*
X17021810Y-12997905D01*
X17098000Y-13093143D02*
X17098000Y-13226476D01*
X17098000Y-13112190D02*
X17107524Y-13102667D01*
X17126571Y-13093143D01*
X17155143Y-13093143D01*
X17174190Y-13102667D01*
X17183714Y-13121714D01*
X17183714Y-13226476D01*
X17307524Y-13226476D02*
X17288476Y-13216952D01*
X17278952Y-13207428D01*
X17269429Y-13188381D01*
X17269429Y-13131238D01*
X17278952Y-13112190D01*
X17288476Y-13102667D01*
X17307524Y-13093143D01*
X17336095Y-13093143D01*
X17355143Y-13102667D01*
X17364667Y-13112190D01*
X17374190Y-13131238D01*
X17374190Y-13188381D01*
X17364667Y-13207428D01*
X17355143Y-13216952D01*
X17336095Y-13226476D01*
X17307524Y-13226476D01*
X17431333Y-13093143D02*
X17507524Y-13093143D01*
X17459905Y-13026476D02*
X17459905Y-13197905D01*
X17469429Y-13216952D01*
X17488476Y-13226476D01*
X17507524Y-13226476D01*
X17726571Y-13093143D02*
X17726571Y-13293143D01*
X17726571Y-13102667D02*
X17745619Y-13093143D01*
X17783714Y-13093143D01*
X17802762Y-13102667D01*
X17812286Y-13112190D01*
X17821810Y-13131238D01*
X17821810Y-13188381D01*
X17812286Y-13207428D01*
X17802762Y-13216952D01*
X17783714Y-13226476D01*
X17745619Y-13226476D01*
X17726571Y-13216952D01*
X17936095Y-13226476D02*
X17917048Y-13216952D01*
X17907524Y-13197905D01*
X17907524Y-13026476D01*
X18098000Y-13226476D02*
X18098000Y-13121714D01*
X18088476Y-13102667D01*
X18069429Y-13093143D01*
X18031333Y-13093143D01*
X18012286Y-13102667D01*
X18098000Y-13216952D02*
X18078952Y-13226476D01*
X18031333Y-13226476D01*
X18012286Y-13216952D01*
X18002762Y-13197905D01*
X18002762Y-13178857D01*
X18012286Y-13159809D01*
X18031333Y-13150286D01*
X18078952Y-13150286D01*
X18098000Y-13140762D01*
X18164667Y-13093143D02*
X18240857Y-13093143D01*
X18193238Y-13026476D02*
X18193238Y-13197905D01*
X18202762Y-13216952D01*
X18221810Y-13226476D01*
X18240857Y-13226476D01*
X18383714Y-13216952D02*
X18364667Y-13226476D01*
X18326571Y-13226476D01*
X18307524Y-13216952D01*
X18298000Y-13197905D01*
X18298000Y-13121714D01*
X18307524Y-13102667D01*
X18326571Y-13093143D01*
X18364667Y-13093143D01*
X18383714Y-13102667D01*
X18393238Y-13121714D01*
X18393238Y-13140762D01*
X18298000Y-13159809D01*
X18564667Y-13226476D02*
X18564667Y-13026476D01*
X18564667Y-13216952D02*
X18545619Y-13226476D01*
X18507524Y-13226476D01*
X18488476Y-13216952D01*
X18478952Y-13207428D01*
X18469429Y-13188381D01*
X18469429Y-13131238D01*
X18478952Y-13112190D01*
X18488476Y-13102667D01*
X18507524Y-13093143D01*
X18545619Y-13093143D01*
X18564667Y-13102667D01*
X18640857Y-13302667D02*
X18650381Y-13293143D01*
X18669429Y-13264571D01*
X18678952Y-13245524D01*
X18688476Y-13216952D01*
X18698000Y-13169333D01*
X18698000Y-13131238D01*
X18688476Y-13083619D01*
X18678952Y-13055048D01*
X18669429Y-13036000D01*
X18650381Y-13007428D01*
X18640857Y-12997905D01*
M02*
