%TF.GenerationSoftware,KiCad,Pcbnew,(6.0.5)*%
%TF.CreationDate,2022-06-08T19:33:45-04:00*%
%TF.ProjectId,FlightController,466c6967-6874-4436-9f6e-74726f6c6c65,rev?*%
%TF.SameCoordinates,Original*%
%TF.FileFunction,Soldermask,Top*%
%TF.FilePolarity,Negative*%
%FSLAX46Y46*%
G04 Gerber Fmt 4.6, Leading zero omitted, Abs format (unit mm)*
G04 Created by KiCad (PCBNEW (6.0.5)) date 2022-06-08 19:33:45*
%MOMM*%
%LPD*%
G01*
G04 APERTURE LIST*
G04 Aperture macros list*
%AMRoundRect*
0 Rectangle with rounded corners*
0 $1 Rounding radius*
0 $2 $3 $4 $5 $6 $7 $8 $9 X,Y pos of 4 corners*
0 Add a 4 corners polygon primitive as box body*
4,1,4,$2,$3,$4,$5,$6,$7,$8,$9,$2,$3,0*
0 Add four circle primitives for the rounded corners*
1,1,$1+$1,$2,$3*
1,1,$1+$1,$4,$5*
1,1,$1+$1,$6,$7*
1,1,$1+$1,$8,$9*
0 Add four rect primitives between the rounded corners*
20,1,$1+$1,$2,$3,$4,$5,0*
20,1,$1+$1,$4,$5,$6,$7,0*
20,1,$1+$1,$6,$7,$8,$9,0*
20,1,$1+$1,$8,$9,$2,$3,0*%
G04 Aperture macros list end*
%ADD10C,5.000000*%
%ADD11R,1.700000X1.700000*%
%ADD12O,1.700000X1.700000*%
%ADD13RoundRect,0.140000X0.140000X0.170000X-0.140000X0.170000X-0.140000X-0.170000X0.140000X-0.170000X0*%
%ADD14RoundRect,0.135000X-0.185000X0.135000X-0.185000X-0.135000X0.185000X-0.135000X0.185000X0.135000X0*%
%ADD15RoundRect,0.147500X-0.147500X-0.172500X0.147500X-0.172500X0.147500X0.172500X-0.147500X0.172500X0*%
%ADD16O,2.500000X1.500000*%
%ADD17R,2.500000X1.500000*%
%ADD18O,3.500000X2.200000*%
%ADD19RoundRect,0.140000X-0.140000X-0.170000X0.140000X-0.170000X0.140000X0.170000X-0.140000X0.170000X0*%
%ADD20RoundRect,0.135000X-0.135000X-0.185000X0.135000X-0.185000X0.135000X0.185000X-0.135000X0.185000X0*%
%ADD21R,0.500000X0.500000*%
%ADD22RoundRect,0.140000X-0.170000X0.140000X-0.170000X-0.140000X0.170000X-0.140000X0.170000X0.140000X0*%
%ADD23RoundRect,0.150000X-0.825000X-0.150000X0.825000X-0.150000X0.825000X0.150000X-0.825000X0.150000X0*%
%ADD24RoundRect,0.147500X-0.172500X0.147500X-0.172500X-0.147500X0.172500X-0.147500X0.172500X0.147500X0*%
%ADD25RoundRect,0.140000X0.170000X-0.140000X0.170000X0.140000X-0.170000X0.140000X-0.170000X-0.140000X0*%
%ADD26R,1.700000X2.000000*%
%ADD27R,2.000000X0.500000*%
%ADD28C,1.000000*%
%ADD29RoundRect,0.075000X-0.075000X0.350000X-0.075000X-0.350000X0.075000X-0.350000X0.075000X0.350000X0*%
%ADD30RoundRect,0.075000X0.350000X0.075000X-0.350000X0.075000X-0.350000X-0.075000X0.350000X-0.075000X0*%
%ADD31O,1.500000X2.500000*%
%ADD32R,1.500000X2.500000*%
%ADD33O,2.200000X3.500000*%
%ADD34RoundRect,0.135000X0.135000X0.185000X-0.135000X0.185000X-0.135000X-0.185000X0.135000X-0.185000X0*%
%ADD35RoundRect,0.075000X-0.700000X-0.075000X0.700000X-0.075000X0.700000X0.075000X-0.700000X0.075000X0*%
%ADD36RoundRect,0.075000X-0.075000X-0.700000X0.075000X-0.700000X0.075000X0.700000X-0.075000X0.700000X0*%
%ADD37RoundRect,0.150000X0.512500X0.150000X-0.512500X0.150000X-0.512500X-0.150000X0.512500X-0.150000X0*%
%ADD38R,1.200000X1.400000*%
G04 APERTURE END LIST*
D10*
%TO.C,H3*%
X165480000Y-78360000D03*
%TD*%
%TO.C,H2*%
X122480000Y-78360000D03*
%TD*%
%TO.C,H1*%
X165480000Y-121360000D03*
%TD*%
D11*
%TO.C,J1*%
X162425000Y-114600000D03*
D12*
X162425000Y-112060000D03*
%TD*%
D13*
%TO.C,C17*%
X134000000Y-101860000D03*
X134960000Y-101860000D03*
%TD*%
%TO.C,C24*%
X143000000Y-86860000D03*
X143960000Y-86860000D03*
%TD*%
D14*
%TO.C,R8*%
X144094333Y-107462348D03*
X144094333Y-106442348D03*
%TD*%
D11*
%TO.C,J8*%
X134730000Y-114335000D03*
D12*
X134730000Y-116875000D03*
X134730000Y-119415000D03*
%TD*%
%TO.C,J11*%
X123480000Y-90540000D03*
X123480000Y-93080000D03*
X123480000Y-95620000D03*
D11*
X123480000Y-98160000D03*
%TD*%
D15*
%TO.C,L2*%
X134980000Y-102860000D03*
X134010000Y-102860000D03*
%TD*%
D16*
%TO.C,SW1*%
X131480000Y-85360000D03*
X131480000Y-83360000D03*
D17*
X131480000Y-81360000D03*
D18*
X131480000Y-79260000D03*
X131480000Y-87460000D03*
%TD*%
D19*
%TO.C,C14*%
X139132867Y-90860000D03*
X138172867Y-90860000D03*
%TD*%
D20*
%TO.C,R7*%
X156201936Y-119475527D03*
X155181936Y-119475527D03*
%TD*%
D19*
%TO.C,C5*%
X149171936Y-113725527D03*
X148211936Y-113725527D03*
%TD*%
D21*
%TO.C,D1*%
X155041936Y-113750000D03*
X152841936Y-113750000D03*
%TD*%
D22*
%TO.C,C10*%
X146194598Y-107412267D03*
X146194598Y-106452267D03*
%TD*%
D12*
%TO.C,J4*%
X123480000Y-102540000D03*
X123480000Y-105080000D03*
X123480000Y-107620000D03*
D11*
X123480000Y-110160000D03*
%TD*%
D14*
%TO.C,R9*%
X145094333Y-107462348D03*
X145094333Y-106442348D03*
%TD*%
D22*
%TO.C,C3*%
X157441936Y-117455527D03*
X157441936Y-116495527D03*
%TD*%
D19*
%TO.C,C21*%
X146960000Y-79860000D03*
X146000000Y-79860000D03*
%TD*%
D13*
%TO.C,C16*%
X134000000Y-100860000D03*
X134960000Y-100860000D03*
%TD*%
D19*
%TO.C,C4*%
X149171936Y-121225527D03*
X148211936Y-121225527D03*
%TD*%
%TO.C,C22*%
X142042228Y-82091091D03*
X141082228Y-82091091D03*
%TD*%
D23*
%TO.C,U3*%
X153166936Y-115570527D03*
X153166936Y-116840527D03*
X153166936Y-118110527D03*
X153166936Y-119380527D03*
X148216936Y-119380527D03*
X148216936Y-118110527D03*
X148216936Y-116840527D03*
X148216936Y-115570527D03*
%TD*%
D24*
%TO.C,L1*%
X158721414Y-116526017D03*
X158721414Y-115556017D03*
%TD*%
D11*
%TO.C,J7*%
X130980000Y-114335000D03*
D12*
X130980000Y-116875000D03*
X130980000Y-119415000D03*
%TD*%
D13*
%TO.C,C9*%
X138925207Y-106043876D03*
X139885207Y-106043876D03*
%TD*%
D25*
%TO.C,C15*%
X157491157Y-119770554D03*
X157491157Y-120730554D03*
%TD*%
D26*
%TO.C,J2*%
X162380000Y-101310000D03*
X162380000Y-92410000D03*
X167830000Y-101310000D03*
X167830000Y-92410000D03*
D27*
X162280000Y-95260000D03*
X162280000Y-96060000D03*
X162280000Y-96860000D03*
X162280000Y-97660000D03*
X162280000Y-98460000D03*
D28*
X164980000Y-94660000D03*
X164980000Y-99060000D03*
%TD*%
D25*
%TO.C,C8*%
X135980000Y-92380000D03*
X135980000Y-93340000D03*
%TD*%
D29*
%TO.C,U2*%
X146730000Y-85310000D03*
X146230000Y-85310000D03*
X145730000Y-85310000D03*
X145230000Y-85310000D03*
X144730000Y-85310000D03*
X144230000Y-85310000D03*
D30*
X143530000Y-84610000D03*
X143530000Y-84110000D03*
X143530000Y-83610000D03*
X143530000Y-83110000D03*
X143530000Y-82610000D03*
X143530000Y-82110000D03*
D29*
X144230000Y-81410000D03*
X144730000Y-81410000D03*
X145230000Y-81410000D03*
X145730000Y-81410000D03*
X146230000Y-81410000D03*
X146730000Y-81410000D03*
D30*
X147430000Y-82110000D03*
X147430000Y-82610000D03*
X147430000Y-83110000D03*
X147430000Y-83610000D03*
X147430000Y-84110000D03*
X147430000Y-84610000D03*
%TD*%
D20*
%TO.C,R6*%
X147990000Y-86860000D03*
X146970000Y-86860000D03*
%TD*%
D31*
%TO.C,SW2*%
X159480000Y-106157500D03*
X157480000Y-106157500D03*
D32*
X155480000Y-106157500D03*
D33*
X153380000Y-106157500D03*
X161580000Y-106157500D03*
%TD*%
D25*
%TO.C,C18*%
X158743383Y-119770554D03*
X158743383Y-120730554D03*
%TD*%
D19*
%TO.C,C2*%
X156171936Y-117975527D03*
X155211936Y-117975527D03*
%TD*%
D24*
%TO.C,F1*%
X160441936Y-120746538D03*
X160441936Y-119776538D03*
%TD*%
D19*
%TO.C,C11*%
X148460000Y-104860000D03*
X147500000Y-104860000D03*
%TD*%
%TO.C,C6*%
X131843061Y-94213999D03*
X130883061Y-94213999D03*
%TD*%
D34*
%TO.C,R5*%
X144960000Y-86860000D03*
X145980000Y-86860000D03*
%TD*%
D22*
%TO.C,C1*%
X146016872Y-117773771D03*
X146016872Y-116813771D03*
%TD*%
D19*
%TO.C,C12*%
X150960000Y-94860000D03*
X150000000Y-94860000D03*
%TD*%
D11*
%TO.C,J5*%
X123480000Y-114335000D03*
D12*
X123480000Y-116875000D03*
X123480000Y-119415000D03*
%TD*%
%TO.C,J10*%
X142230000Y-119415000D03*
X142230000Y-116875000D03*
D11*
X142230000Y-114335000D03*
%TD*%
D12*
%TO.C,J9*%
X138480000Y-119415000D03*
X138480000Y-116875000D03*
D11*
X138480000Y-114335000D03*
%TD*%
D35*
%TO.C,U1*%
X136705000Y-94760000D03*
X136705000Y-95260000D03*
X136705000Y-95760000D03*
X136705000Y-96260000D03*
X136705000Y-96760000D03*
X136705000Y-97260000D03*
X136705000Y-97760000D03*
X136705000Y-98260000D03*
X136705000Y-98760000D03*
X136705000Y-99260000D03*
X136705000Y-99760000D03*
X136705000Y-100260000D03*
X136705000Y-100760000D03*
X136705000Y-101260000D03*
X136705000Y-101760000D03*
X136705000Y-102260000D03*
D36*
X138630000Y-104185000D03*
X139130000Y-104185000D03*
X139630000Y-104185000D03*
X140130000Y-104185000D03*
X140630000Y-104185000D03*
X141130000Y-104185000D03*
X141630000Y-104185000D03*
X142130000Y-104185000D03*
X142630000Y-104185000D03*
X143130000Y-104185000D03*
X143630000Y-104185000D03*
X144130000Y-104185000D03*
X144630000Y-104185000D03*
X145130000Y-104185000D03*
X145630000Y-104185000D03*
X146130000Y-104185000D03*
D35*
X148055000Y-102260000D03*
X148055000Y-101760000D03*
X148055000Y-101260000D03*
X148055000Y-100760000D03*
X148055000Y-100260000D03*
X148055000Y-99760000D03*
X148055000Y-99260000D03*
X148055000Y-98760000D03*
X148055000Y-98260000D03*
X148055000Y-97760000D03*
X148055000Y-97260000D03*
X148055000Y-96760000D03*
X148055000Y-96260000D03*
X148055000Y-95760000D03*
X148055000Y-95260000D03*
X148055000Y-94760000D03*
D36*
X146130000Y-92835000D03*
X145630000Y-92835000D03*
X145130000Y-92835000D03*
X144630000Y-92835000D03*
X144130000Y-92835000D03*
X143630000Y-92835000D03*
X143130000Y-92835000D03*
X142630000Y-92835000D03*
X142130000Y-92835000D03*
X141630000Y-92835000D03*
X141130000Y-92835000D03*
X140630000Y-92835000D03*
X140130000Y-92835000D03*
X139630000Y-92835000D03*
X139130000Y-92835000D03*
X138630000Y-92835000D03*
%TD*%
D19*
%TO.C,C13*%
X149080000Y-93700000D03*
X148120000Y-93700000D03*
%TD*%
D13*
%TO.C,C7*%
X130883061Y-99574404D03*
X131843061Y-99574404D03*
%TD*%
D34*
%TO.C,R2*%
X155181936Y-120725527D03*
X156201936Y-120725527D03*
%TD*%
D11*
%TO.C,J6*%
X127230000Y-114335000D03*
D12*
X127230000Y-116875000D03*
X127230000Y-119415000D03*
%TD*%
D19*
%TO.C,C23*%
X144960000Y-79860000D03*
X144000000Y-79860000D03*
%TD*%
D34*
%TO.C,R3*%
X139619726Y-88857033D03*
X140639726Y-88857033D03*
%TD*%
D20*
%TO.C,R1*%
X156201936Y-116475527D03*
X155181936Y-116475527D03*
%TD*%
D37*
%TO.C,U4*%
X154842500Y-97810000D03*
X154842500Y-96860000D03*
X154842500Y-95910000D03*
X157117500Y-95910000D03*
X157117500Y-96860000D03*
X157117500Y-97810000D03*
%TD*%
D38*
%TO.C,Y1*%
X132580000Y-95760000D03*
X132580000Y-97960000D03*
X130880000Y-97960000D03*
X130880000Y-95760000D03*
%TD*%
D34*
%TO.C,R4*%
X133970000Y-97860000D03*
X134990000Y-97860000D03*
%TD*%
D12*
%TO.C,J3*%
X155715000Y-81805000D03*
X158255000Y-81805000D03*
X155715000Y-84345000D03*
X158255000Y-84345000D03*
X155715000Y-86885000D03*
D11*
X158255000Y-86885000D03*
%TD*%
M02*
