%TF.GenerationSoftware,KiCad,Pcbnew,(6.0.5)*%
%TF.CreationDate,2022-06-08T19:33:45-04:00*%
%TF.ProjectId,FlightController,466c6967-6874-4436-9f6e-74726f6c6c65,rev?*%
%TF.SameCoordinates,Original*%
%TF.FileFunction,Copper,L4,Bot*%
%TF.FilePolarity,Positive*%
%FSLAX46Y46*%
G04 Gerber Fmt 4.6, Leading zero omitted, Abs format (unit mm)*
G04 Created by KiCad (PCBNEW (6.0.5)) date 2022-06-08 19:33:45*
%MOMM*%
%LPD*%
G01*
G04 APERTURE LIST*
%TA.AperFunction,ComponentPad*%
%ADD10C,5.000000*%
%TD*%
%TA.AperFunction,ComponentPad*%
%ADD11R,1.700000X1.700000*%
%TD*%
%TA.AperFunction,ComponentPad*%
%ADD12O,1.700000X1.700000*%
%TD*%
%TA.AperFunction,ComponentPad*%
%ADD13O,2.500000X1.500000*%
%TD*%
%TA.AperFunction,ComponentPad*%
%ADD14R,2.500000X1.500000*%
%TD*%
%TA.AperFunction,ComponentPad*%
%ADD15O,3.500000X2.200000*%
%TD*%
%TA.AperFunction,ComponentPad*%
%ADD16O,1.500000X2.500000*%
%TD*%
%TA.AperFunction,ComponentPad*%
%ADD17R,1.500000X2.500000*%
%TD*%
%TA.AperFunction,ComponentPad*%
%ADD18O,2.200000X3.500000*%
%TD*%
%TA.AperFunction,ViaPad*%
%ADD19C,0.800000*%
%TD*%
%TA.AperFunction,Conductor*%
%ADD20C,0.300000*%
%TD*%
%TA.AperFunction,Conductor*%
%ADD21C,0.250000*%
%TD*%
G04 APERTURE END LIST*
D10*
%TO.P,H3,1,1*%
%TO.N,GND*%
X165480000Y-78360000D03*
%TD*%
%TO.P,H2,1,1*%
%TO.N,GND*%
X122480000Y-78360000D03*
%TD*%
%TO.P,H1,1,1*%
%TO.N,GND*%
X165480000Y-121360000D03*
%TD*%
D11*
%TO.P,J1,1,Pin_1*%
%TO.N,PDB_REG_5v*%
X162425000Y-114600000D03*
D12*
%TO.P,J1,2,Pin_2*%
%TO.N,GND*%
X162425000Y-112060000D03*
%TD*%
D11*
%TO.P,J8,1,Pin_1*%
%TO.N,S_TIM3_CH4*%
X134730000Y-114335000D03*
D12*
%TO.P,J8,2,Pin_2*%
%TO.N,+5V*%
X134730000Y-116875000D03*
%TO.P,J8,3,Pin_3*%
%TO.N,GND*%
X134730000Y-119415000D03*
%TD*%
%TO.P,J11,4,Pin_4*%
%TO.N,GND*%
X123480000Y-90540000D03*
%TO.P,J11,3,Pin_3*%
%TO.N,S_I2C2_SDA*%
X123480000Y-93080000D03*
%TO.P,J11,2,Pin_2*%
%TO.N,S_I2C2_SCL*%
X123480000Y-95620000D03*
D11*
%TO.P,J11,1,Pin_1*%
%TO.N,+3V3*%
X123480000Y-98160000D03*
%TD*%
D13*
%TO.P,SW1,3,C*%
%TO.N,GND*%
X131480000Y-85360000D03*
%TO.P,SW1,2,B*%
%TO.N,Net-(R3-Pad2)*%
X131480000Y-83360000D03*
D14*
%TO.P,SW1,1,A*%
%TO.N,+3V3*%
X131480000Y-81360000D03*
D15*
%TO.P,SW1,*%
%TO.N,*%
X131480000Y-79260000D03*
X131480000Y-87460000D03*
%TD*%
D12*
%TO.P,J4,4,Pin_4*%
%TO.N,GND*%
X123480000Y-102540000D03*
%TO.P,J4,3,Pin_3*%
%TO.N,S_USART2_TX*%
X123480000Y-105080000D03*
%TO.P,J4,2,Pin_2*%
%TO.N,S_USART2_RX*%
X123480000Y-107620000D03*
D11*
%TO.P,J4,1,Pin_1*%
%TO.N,+3V3*%
X123480000Y-110160000D03*
%TD*%
%TO.P,J7,1,Pin_1*%
%TO.N,S_TIM3_CH3*%
X130980000Y-114335000D03*
D12*
%TO.P,J7,2,Pin_2*%
%TO.N,+5V*%
X130980000Y-116875000D03*
%TO.P,J7,3,Pin_3*%
%TO.N,GND*%
X130980000Y-119415000D03*
%TD*%
D16*
%TO.P,SW2,3,C*%
%TO.N,PDB_REG_5v*%
X159480000Y-106157500D03*
%TO.P,SW2,2,B*%
%TO.N,+5V*%
X157480000Y-106157500D03*
D17*
%TO.P,SW2,1,A*%
%TO.N,USB_5v*%
X155480000Y-106157500D03*
D18*
%TO.P,SW2,*%
%TO.N,*%
X153380000Y-106157500D03*
X161580000Y-106157500D03*
%TD*%
D11*
%TO.P,J5,1,Pin_1*%
%TO.N,S_TIM3_CH1*%
X123480000Y-114335000D03*
D12*
%TO.P,J5,2,Pin_2*%
%TO.N,+5V*%
X123480000Y-116875000D03*
%TO.P,J5,3,Pin_3*%
%TO.N,GND*%
X123480000Y-119415000D03*
%TD*%
%TO.P,J10,3,Pin_3*%
%TO.N,GND*%
X142230000Y-119415000D03*
%TO.P,J10,2,Pin_2*%
%TO.N,+5V*%
X142230000Y-116875000D03*
D11*
%TO.P,J10,1,Pin_1*%
%TO.N,S_TIM8_CH2*%
X142230000Y-114335000D03*
%TD*%
D12*
%TO.P,J9,3,Pin_3*%
%TO.N,GND*%
X138480000Y-119415000D03*
%TO.P,J9,2,Pin_2*%
%TO.N,+5V*%
X138480000Y-116875000D03*
D11*
%TO.P,J9,1,Pin_1*%
%TO.N,S_TIM8_CH1*%
X138480000Y-114335000D03*
%TD*%
%TO.P,J6,1,Pin_1*%
%TO.N,S_TIM3_CH2*%
X127230000Y-114335000D03*
D12*
%TO.P,J6,2,Pin_2*%
%TO.N,+5V*%
X127230000Y-116875000D03*
%TO.P,J6,3,Pin_3*%
%TO.N,GND*%
X127230000Y-119415000D03*
%TD*%
%TO.P,J3,6,Pin_6*%
%TO.N,S_SWO*%
X155715000Y-81805000D03*
%TO.P,J3,5,Pin_5*%
%TO.N,S_NRST*%
X158255000Y-81805000D03*
%TO.P,J3,4,Pin_4*%
%TO.N,S_SWCLK*%
X155715000Y-84345000D03*
%TO.P,J3,3,Pin_3*%
%TO.N,GND*%
X158255000Y-84345000D03*
%TO.P,J3,2,Pin_2*%
%TO.N,S_SWDIO*%
X155715000Y-86885000D03*
D11*
%TO.P,J3,1,Pin_1*%
%TO.N,+3V3*%
X158255000Y-86885000D03*
%TD*%
D19*
%TO.N,GND*%
X129900000Y-99600000D03*
X127980000Y-111860000D03*
X128480000Y-106360000D03*
X144980000Y-115360000D03*
X125244256Y-94297593D03*
X150700000Y-87700000D03*
X147525513Y-109795027D03*
X158980000Y-96860000D03*
X152800000Y-91000000D03*
X144480000Y-96860000D03*
%TO.N,+3V3*%
X149000000Y-92500000D03*
X148980000Y-85860000D03*
%TO.N,GND*%
X148980000Y-84360000D03*
%TO.N,+3V3*%
X148480000Y-79860000D03*
X141980000Y-83360000D03*
X143980000Y-88360000D03*
%TO.N,S_NRST*%
X142480000Y-94860000D03*
%TO.N,S_I2C2_SCL*%
X126980000Y-94860000D03*
%TO.N,S_I2C2_SDA*%
X126980000Y-93860000D03*
X143980000Y-101360000D03*
%TO.N,S_I2C2_SCL*%
X143980000Y-102360000D03*
%TO.N,+3V3*%
X147341036Y-105836912D03*
X144067913Y-108412621D03*
%TO.N,S_USART2_RX*%
X132980000Y-106360000D03*
X135980000Y-106360000D03*
%TO.N,+3V3*%
X133000000Y-103750000D03*
%TO.N,GND*%
X133000000Y-101500000D03*
X151880000Y-97060000D03*
X153080000Y-100960000D03*
X158600000Y-118400000D03*
%TO.N,S_I2C1_SDA*%
X142980000Y-89360000D03*
X145480000Y-89360000D03*
%TO.N,GND*%
X138480000Y-107360000D03*
X135980000Y-91360000D03*
X139480000Y-89860000D03*
%TO.N,+3V3*%
X137980000Y-89860000D03*
X134980000Y-93360000D03*
X160400000Y-122000000D03*
X140480000Y-107360000D03*
%TD*%
D20*
%TO.N,S_I2C2_SCL*%
X127039970Y-94860000D02*
X128539970Y-93360000D01*
X126980000Y-94860000D02*
X127039970Y-94860000D01*
X128539970Y-93360000D02*
X133920030Y-93360000D01*
X133920030Y-93360000D02*
X142920030Y-102360000D01*
X142920030Y-102360000D02*
X143980000Y-102360000D01*
D21*
%TO.N,S_I2C2_SDA*%
X135704511Y-93084511D02*
X135704511Y-93059897D01*
X128204511Y-92635489D02*
X126980000Y-93860000D01*
X135280103Y-92635489D02*
X128204511Y-92635489D01*
X143980000Y-101360000D02*
X135704511Y-93084511D01*
X135704511Y-93059897D02*
X135280103Y-92635489D01*
D20*
%TO.N,S_NRST*%
X156914511Y-83145489D02*
X158255000Y-81805000D01*
X142480000Y-94860000D02*
X154194511Y-83145489D01*
X154194511Y-83145489D02*
X156914511Y-83145489D01*
%TO.N,S_USART2_RX*%
X135980000Y-106360000D02*
X132980000Y-106360000D01*
D21*
%TO.N,S_I2C1_SDA*%
X145480000Y-89360000D02*
X142980000Y-89360000D01*
%TD*%
%TA.AperFunction,Conductor*%
%TO.N,GND*%
G36*
X168911621Y-74890502D02*
G01*
X168958114Y-74944158D01*
X168969500Y-74996500D01*
X168969500Y-124723500D01*
X168949498Y-124791621D01*
X168895842Y-124838114D01*
X168843500Y-124849500D01*
X119116500Y-124849500D01*
X119048379Y-124829498D01*
X119001886Y-124775842D01*
X118990500Y-124723500D01*
X118990500Y-123661681D01*
X163543860Y-123661681D01*
X163543878Y-123661933D01*
X163549793Y-123670677D01*
X163581111Y-123699174D01*
X163586748Y-123703738D01*
X163862544Y-123901918D01*
X163868682Y-123905813D01*
X164165435Y-124070984D01*
X164171955Y-124074136D01*
X164485738Y-124204109D01*
X164492589Y-124206495D01*
X164819212Y-124299536D01*
X164826301Y-124301120D01*
X165161465Y-124356006D01*
X165168671Y-124356763D01*
X165507926Y-124372762D01*
X165515176Y-124372686D01*
X165854010Y-124349587D01*
X165861219Y-124348676D01*
X166195160Y-124286784D01*
X166202190Y-124285057D01*
X166526819Y-124185187D01*
X166533597Y-124182667D01*
X166844603Y-124046145D01*
X166851043Y-124042864D01*
X167144293Y-123871502D01*
X167150326Y-123867493D01*
X167408828Y-123673405D01*
X167417282Y-123662078D01*
X167410537Y-123649748D01*
X165492810Y-121732020D01*
X165478869Y-121724408D01*
X165477034Y-121724539D01*
X165470420Y-121728790D01*
X163551474Y-123647737D01*
X163543860Y-123661681D01*
X118990500Y-123661681D01*
X118990500Y-122000000D01*
X159794318Y-122000000D01*
X159814956Y-122156762D01*
X159875464Y-122302841D01*
X159971718Y-122428282D01*
X160097159Y-122524536D01*
X160243238Y-122585044D01*
X160400000Y-122605682D01*
X160408188Y-122604604D01*
X160548574Y-122586122D01*
X160556762Y-122585044D01*
X160702841Y-122524536D01*
X160828282Y-122428282D01*
X160924536Y-122302841D01*
X160985044Y-122156762D01*
X161005682Y-122000000D01*
X160985044Y-121843238D01*
X160924536Y-121697159D01*
X160828282Y-121571718D01*
X160702841Y-121475464D01*
X160556762Y-121414956D01*
X160400000Y-121394318D01*
X160243238Y-121414956D01*
X160097159Y-121475464D01*
X159971718Y-121571718D01*
X159875464Y-121697159D01*
X159814956Y-121843238D01*
X159794318Y-122000000D01*
X118990500Y-122000000D01*
X118990500Y-121268987D01*
X162468484Y-121268987D01*
X162477374Y-121608505D01*
X162477980Y-121615721D01*
X162525835Y-121951963D01*
X162527269Y-121959074D01*
X162613455Y-122287595D01*
X162615692Y-122294478D01*
X162739064Y-122610914D01*
X162742081Y-122617503D01*
X162901002Y-122917652D01*
X162904761Y-122923860D01*
X163097129Y-123203757D01*
X163101574Y-123209486D01*
X163168743Y-123286484D01*
X163181917Y-123294888D01*
X163191769Y-123289020D01*
X165107980Y-121372810D01*
X165114357Y-121361131D01*
X165844408Y-121361131D01*
X165844539Y-121362966D01*
X165848790Y-121369580D01*
X167766268Y-123287057D01*
X167779622Y-123294349D01*
X167789594Y-123287295D01*
X167896641Y-123159267D01*
X167900957Y-123153456D01*
X168087432Y-122869575D01*
X168091046Y-122863313D01*
X168243658Y-122559882D01*
X168246530Y-122553244D01*
X168363249Y-122234293D01*
X168365345Y-122227351D01*
X168444631Y-121897103D01*
X168445915Y-121889964D01*
X168486816Y-121551973D01*
X168487240Y-121546403D01*
X168493010Y-121362797D01*
X168492937Y-121357204D01*
X168473338Y-121017303D01*
X168472506Y-121010113D01*
X168414113Y-120675529D01*
X168412458Y-120668474D01*
X168315998Y-120342834D01*
X168313540Y-120336006D01*
X168180290Y-120023608D01*
X168177073Y-120017125D01*
X168008788Y-119722089D01*
X168004856Y-119716034D01*
X167803774Y-119442295D01*
X167799166Y-119436726D01*
X167793830Y-119430984D01*
X167780178Y-119422866D01*
X167779570Y-119422887D01*
X167771092Y-119428119D01*
X165852020Y-121347190D01*
X165844408Y-121361131D01*
X165114357Y-121361131D01*
X165115592Y-121358869D01*
X165115461Y-121357034D01*
X165111210Y-121350420D01*
X163192374Y-119431585D01*
X163179581Y-119424599D01*
X163168827Y-119432464D01*
X163008037Y-119637527D01*
X163003902Y-119643476D01*
X162826440Y-119933068D01*
X162823019Y-119939447D01*
X162680016Y-120247522D01*
X162677356Y-120254241D01*
X162570711Y-120576707D01*
X162568834Y-120583711D01*
X162499961Y-120916288D01*
X162498904Y-120923449D01*
X162468712Y-121261735D01*
X162468484Y-121268987D01*
X118990500Y-121268987D01*
X118990500Y-119682966D01*
X122148257Y-119682966D01*
X122178565Y-119817446D01*
X122181645Y-119827275D01*
X122261770Y-120024603D01*
X122266413Y-120033794D01*
X122377694Y-120215388D01*
X122383777Y-120223699D01*
X122523213Y-120384667D01*
X122530580Y-120391883D01*
X122694434Y-120527916D01*
X122702881Y-120533831D01*
X122886756Y-120641279D01*
X122896042Y-120645729D01*
X123095001Y-120721703D01*
X123104899Y-120724579D01*
X123208250Y-120745606D01*
X123222299Y-120744410D01*
X123226000Y-120734065D01*
X123226000Y-120733517D01*
X123734000Y-120733517D01*
X123738064Y-120747359D01*
X123751478Y-120749393D01*
X123758184Y-120748534D01*
X123768262Y-120746392D01*
X123972255Y-120685191D01*
X123981842Y-120681433D01*
X124173095Y-120587739D01*
X124181945Y-120582464D01*
X124355328Y-120458792D01*
X124363200Y-120452139D01*
X124514052Y-120301812D01*
X124520730Y-120293965D01*
X124645003Y-120121020D01*
X124650313Y-120112183D01*
X124744670Y-119921267D01*
X124748469Y-119911672D01*
X124810377Y-119707910D01*
X124812555Y-119697837D01*
X124813986Y-119686962D01*
X124813363Y-119682966D01*
X125898257Y-119682966D01*
X125928565Y-119817446D01*
X125931645Y-119827275D01*
X126011770Y-120024603D01*
X126016413Y-120033794D01*
X126127694Y-120215388D01*
X126133777Y-120223699D01*
X126273213Y-120384667D01*
X126280580Y-120391883D01*
X126444434Y-120527916D01*
X126452881Y-120533831D01*
X126636756Y-120641279D01*
X126646042Y-120645729D01*
X126845001Y-120721703D01*
X126854899Y-120724579D01*
X126958250Y-120745606D01*
X126972299Y-120744410D01*
X126976000Y-120734065D01*
X126976000Y-120733517D01*
X127484000Y-120733517D01*
X127488064Y-120747359D01*
X127501478Y-120749393D01*
X127508184Y-120748534D01*
X127518262Y-120746392D01*
X127722255Y-120685191D01*
X127731842Y-120681433D01*
X127923095Y-120587739D01*
X127931945Y-120582464D01*
X128105328Y-120458792D01*
X128113200Y-120452139D01*
X128264052Y-120301812D01*
X128270730Y-120293965D01*
X128395003Y-120121020D01*
X128400313Y-120112183D01*
X128494670Y-119921267D01*
X128498469Y-119911672D01*
X128560377Y-119707910D01*
X128562555Y-119697837D01*
X128563986Y-119686962D01*
X128563363Y-119682966D01*
X129648257Y-119682966D01*
X129678565Y-119817446D01*
X129681645Y-119827275D01*
X129761770Y-120024603D01*
X129766413Y-120033794D01*
X129877694Y-120215388D01*
X129883777Y-120223699D01*
X130023213Y-120384667D01*
X130030580Y-120391883D01*
X130194434Y-120527916D01*
X130202881Y-120533831D01*
X130386756Y-120641279D01*
X130396042Y-120645729D01*
X130595001Y-120721703D01*
X130604899Y-120724579D01*
X130708250Y-120745606D01*
X130722299Y-120744410D01*
X130726000Y-120734065D01*
X130726000Y-120733517D01*
X131234000Y-120733517D01*
X131238064Y-120747359D01*
X131251478Y-120749393D01*
X131258184Y-120748534D01*
X131268262Y-120746392D01*
X131472255Y-120685191D01*
X131481842Y-120681433D01*
X131673095Y-120587739D01*
X131681945Y-120582464D01*
X131855328Y-120458792D01*
X131863200Y-120452139D01*
X132014052Y-120301812D01*
X132020730Y-120293965D01*
X132145003Y-120121020D01*
X132150313Y-120112183D01*
X132244670Y-119921267D01*
X132248469Y-119911672D01*
X132310377Y-119707910D01*
X132312555Y-119697837D01*
X132313986Y-119686962D01*
X132313363Y-119682966D01*
X133398257Y-119682966D01*
X133428565Y-119817446D01*
X133431645Y-119827275D01*
X133511770Y-120024603D01*
X133516413Y-120033794D01*
X133627694Y-120215388D01*
X133633777Y-120223699D01*
X133773213Y-120384667D01*
X133780580Y-120391883D01*
X133944434Y-120527916D01*
X133952881Y-120533831D01*
X134136756Y-120641279D01*
X134146042Y-120645729D01*
X134345001Y-120721703D01*
X134354899Y-120724579D01*
X134458250Y-120745606D01*
X134472299Y-120744410D01*
X134476000Y-120734065D01*
X134476000Y-120733517D01*
X134984000Y-120733517D01*
X134988064Y-120747359D01*
X135001478Y-120749393D01*
X135008184Y-120748534D01*
X135018262Y-120746392D01*
X135222255Y-120685191D01*
X135231842Y-120681433D01*
X135423095Y-120587739D01*
X135431945Y-120582464D01*
X135605328Y-120458792D01*
X135613200Y-120452139D01*
X135764052Y-120301812D01*
X135770730Y-120293965D01*
X135895003Y-120121020D01*
X135900313Y-120112183D01*
X135994670Y-119921267D01*
X135998469Y-119911672D01*
X136060377Y-119707910D01*
X136062555Y-119697837D01*
X136063986Y-119686962D01*
X136063363Y-119682966D01*
X137148257Y-119682966D01*
X137178565Y-119817446D01*
X137181645Y-119827275D01*
X137261770Y-120024603D01*
X137266413Y-120033794D01*
X137377694Y-120215388D01*
X137383777Y-120223699D01*
X137523213Y-120384667D01*
X137530580Y-120391883D01*
X137694434Y-120527916D01*
X137702881Y-120533831D01*
X137886756Y-120641279D01*
X137896042Y-120645729D01*
X138095001Y-120721703D01*
X138104899Y-120724579D01*
X138208250Y-120745606D01*
X138222299Y-120744410D01*
X138226000Y-120734065D01*
X138226000Y-120733517D01*
X138734000Y-120733517D01*
X138738064Y-120747359D01*
X138751478Y-120749393D01*
X138758184Y-120748534D01*
X138768262Y-120746392D01*
X138972255Y-120685191D01*
X138981842Y-120681433D01*
X139173095Y-120587739D01*
X139181945Y-120582464D01*
X139355328Y-120458792D01*
X139363200Y-120452139D01*
X139514052Y-120301812D01*
X139520730Y-120293965D01*
X139645003Y-120121020D01*
X139650313Y-120112183D01*
X139744670Y-119921267D01*
X139748469Y-119911672D01*
X139810377Y-119707910D01*
X139812555Y-119697837D01*
X139813986Y-119686962D01*
X139813363Y-119682966D01*
X140898257Y-119682966D01*
X140928565Y-119817446D01*
X140931645Y-119827275D01*
X141011770Y-120024603D01*
X141016413Y-120033794D01*
X141127694Y-120215388D01*
X141133777Y-120223699D01*
X141273213Y-120384667D01*
X141280580Y-120391883D01*
X141444434Y-120527916D01*
X141452881Y-120533831D01*
X141636756Y-120641279D01*
X141646042Y-120645729D01*
X141845001Y-120721703D01*
X141854899Y-120724579D01*
X141958250Y-120745606D01*
X141972299Y-120744410D01*
X141976000Y-120734065D01*
X141976000Y-120733517D01*
X142484000Y-120733517D01*
X142488064Y-120747359D01*
X142501478Y-120749393D01*
X142508184Y-120748534D01*
X142518262Y-120746392D01*
X142722255Y-120685191D01*
X142731842Y-120681433D01*
X142923095Y-120587739D01*
X142931945Y-120582464D01*
X143105328Y-120458792D01*
X143113200Y-120452139D01*
X143264052Y-120301812D01*
X143270730Y-120293965D01*
X143395003Y-120121020D01*
X143400313Y-120112183D01*
X143494670Y-119921267D01*
X143498469Y-119911672D01*
X143560377Y-119707910D01*
X143562555Y-119697837D01*
X143563986Y-119686962D01*
X143561775Y-119672778D01*
X143548617Y-119669000D01*
X142502115Y-119669000D01*
X142486876Y-119673475D01*
X142485671Y-119674865D01*
X142484000Y-119682548D01*
X142484000Y-120733517D01*
X141976000Y-120733517D01*
X141976000Y-119687115D01*
X141971525Y-119671876D01*
X141970135Y-119670671D01*
X141962452Y-119669000D01*
X140913225Y-119669000D01*
X140899694Y-119672973D01*
X140898257Y-119682966D01*
X139813363Y-119682966D01*
X139811775Y-119672778D01*
X139798617Y-119669000D01*
X138752115Y-119669000D01*
X138736876Y-119673475D01*
X138735671Y-119674865D01*
X138734000Y-119682548D01*
X138734000Y-120733517D01*
X138226000Y-120733517D01*
X138226000Y-119687115D01*
X138221525Y-119671876D01*
X138220135Y-119670671D01*
X138212452Y-119669000D01*
X137163225Y-119669000D01*
X137149694Y-119672973D01*
X137148257Y-119682966D01*
X136063363Y-119682966D01*
X136061775Y-119672778D01*
X136048617Y-119669000D01*
X135002115Y-119669000D01*
X134986876Y-119673475D01*
X134985671Y-119674865D01*
X134984000Y-119682548D01*
X134984000Y-120733517D01*
X134476000Y-120733517D01*
X134476000Y-119687115D01*
X134471525Y-119671876D01*
X134470135Y-119670671D01*
X134462452Y-119669000D01*
X133413225Y-119669000D01*
X133399694Y-119672973D01*
X133398257Y-119682966D01*
X132313363Y-119682966D01*
X132311775Y-119672778D01*
X132298617Y-119669000D01*
X131252115Y-119669000D01*
X131236876Y-119673475D01*
X131235671Y-119674865D01*
X131234000Y-119682548D01*
X131234000Y-120733517D01*
X130726000Y-120733517D01*
X130726000Y-119687115D01*
X130721525Y-119671876D01*
X130720135Y-119670671D01*
X130712452Y-119669000D01*
X129663225Y-119669000D01*
X129649694Y-119672973D01*
X129648257Y-119682966D01*
X128563363Y-119682966D01*
X128561775Y-119672778D01*
X128548617Y-119669000D01*
X127502115Y-119669000D01*
X127486876Y-119673475D01*
X127485671Y-119674865D01*
X127484000Y-119682548D01*
X127484000Y-120733517D01*
X126976000Y-120733517D01*
X126976000Y-119687115D01*
X126971525Y-119671876D01*
X126970135Y-119670671D01*
X126962452Y-119669000D01*
X125913225Y-119669000D01*
X125899694Y-119672973D01*
X125898257Y-119682966D01*
X124813363Y-119682966D01*
X124811775Y-119672778D01*
X124798617Y-119669000D01*
X123752115Y-119669000D01*
X123736876Y-119673475D01*
X123735671Y-119674865D01*
X123734000Y-119682548D01*
X123734000Y-120733517D01*
X123226000Y-120733517D01*
X123226000Y-119687115D01*
X123221525Y-119671876D01*
X123220135Y-119670671D01*
X123212452Y-119669000D01*
X122163225Y-119669000D01*
X122149694Y-119672973D01*
X122148257Y-119682966D01*
X118990500Y-119682966D01*
X118990500Y-119149183D01*
X122144389Y-119149183D01*
X122145912Y-119157607D01*
X122158292Y-119161000D01*
X124798344Y-119161000D01*
X124811875Y-119157027D01*
X124813002Y-119149183D01*
X125894389Y-119149183D01*
X125895912Y-119157607D01*
X125908292Y-119161000D01*
X128548344Y-119161000D01*
X128561875Y-119157027D01*
X128563002Y-119149183D01*
X129644389Y-119149183D01*
X129645912Y-119157607D01*
X129658292Y-119161000D01*
X132298344Y-119161000D01*
X132311875Y-119157027D01*
X132313002Y-119149183D01*
X133394389Y-119149183D01*
X133395912Y-119157607D01*
X133408292Y-119161000D01*
X136048344Y-119161000D01*
X136061875Y-119157027D01*
X136063002Y-119149183D01*
X137144389Y-119149183D01*
X137145912Y-119157607D01*
X137158292Y-119161000D01*
X139798344Y-119161000D01*
X139811875Y-119157027D01*
X139813002Y-119149183D01*
X140894389Y-119149183D01*
X140895912Y-119157607D01*
X140908292Y-119161000D01*
X143548344Y-119161000D01*
X143561875Y-119157027D01*
X143563180Y-119147947D01*
X143541352Y-119061048D01*
X163545132Y-119061048D01*
X163551527Y-119072316D01*
X165467190Y-120987980D01*
X165481131Y-120995592D01*
X165482966Y-120995461D01*
X165489580Y-120991210D01*
X167407074Y-119073716D01*
X167414466Y-119060179D01*
X167407679Y-119050479D01*
X167304476Y-118962335D01*
X167298704Y-118957953D01*
X167016796Y-118768519D01*
X167010575Y-118764839D01*
X166708757Y-118609060D01*
X166702146Y-118606116D01*
X166384439Y-118486065D01*
X166377513Y-118483894D01*
X166048112Y-118401155D01*
X166041005Y-118399799D01*
X165704278Y-118355468D01*
X165697036Y-118354937D01*
X165357467Y-118349602D01*
X165350205Y-118349906D01*
X165012256Y-118383638D01*
X165005108Y-118384770D01*
X164673263Y-118457124D01*
X164666285Y-118459072D01*
X164344960Y-118569086D01*
X164338253Y-118571823D01*
X164031707Y-118718039D01*
X164025349Y-118721534D01*
X163737654Y-118902005D01*
X163731731Y-118906214D01*
X163553601Y-119048923D01*
X163545132Y-119061048D01*
X143541352Y-119061048D01*
X143521214Y-118980875D01*
X143517894Y-118971124D01*
X143432972Y-118775814D01*
X143428105Y-118766739D01*
X143312426Y-118587926D01*
X143306136Y-118579757D01*
X143162806Y-118422240D01*
X143155273Y-118415215D01*
X142988139Y-118283222D01*
X142979552Y-118277517D01*
X142793117Y-118174599D01*
X142783705Y-118170369D01*
X142592031Y-118102493D01*
X142534495Y-118060899D01*
X142508579Y-117994801D01*
X142522513Y-117925185D01*
X142571872Y-117874154D01*
X142600206Y-117862362D01*
X142605790Y-117860803D01*
X142605799Y-117860800D01*
X142611725Y-117859145D01*
X142617214Y-117856372D01*
X142617220Y-117856370D01*
X142790116Y-117769033D01*
X142795610Y-117766258D01*
X142957951Y-117639424D01*
X143092564Y-117483472D01*
X143113387Y-117446818D01*
X143191276Y-117309707D01*
X143194323Y-117304344D01*
X143259351Y-117108863D01*
X143285171Y-116904474D01*
X143285583Y-116875000D01*
X143265480Y-116669970D01*
X143205935Y-116472749D01*
X143109218Y-116290849D01*
X143035859Y-116200902D01*
X142982906Y-116135975D01*
X142982903Y-116135972D01*
X142979011Y-116131200D01*
X142961786Y-116116950D01*
X142825025Y-116003811D01*
X142825021Y-116003809D01*
X142820275Y-115999882D01*
X142639055Y-115901897D01*
X142442254Y-115840977D01*
X142436129Y-115840333D01*
X142436128Y-115840333D01*
X142243498Y-115820087D01*
X142243496Y-115820087D01*
X142237369Y-115819443D01*
X142150529Y-115827346D01*
X142038342Y-115837555D01*
X142038339Y-115837556D01*
X142032203Y-115838114D01*
X141834572Y-115896280D01*
X141652002Y-115991726D01*
X141647201Y-115995586D01*
X141647198Y-115995588D01*
X141636971Y-116003811D01*
X141491447Y-116120815D01*
X141359024Y-116278630D01*
X141356056Y-116284028D01*
X141356053Y-116284033D01*
X141349315Y-116296290D01*
X141259776Y-116459162D01*
X141197484Y-116655532D01*
X141196798Y-116661649D01*
X141196797Y-116661653D01*
X141175207Y-116854137D01*
X141174520Y-116860262D01*
X141191759Y-117065553D01*
X141248544Y-117263586D01*
X141251359Y-117269063D01*
X141251360Y-117269066D01*
X141272247Y-117309707D01*
X141342712Y-117446818D01*
X141470677Y-117608270D01*
X141627564Y-117741791D01*
X141807398Y-117842297D01*
X141872437Y-117863429D01*
X141931042Y-117903502D01*
X141958680Y-117968898D01*
X141946574Y-118038855D01*
X141898568Y-118091162D01*
X141872646Y-118103027D01*
X141706868Y-118157212D01*
X141697359Y-118161209D01*
X141508463Y-118259542D01*
X141499738Y-118265036D01*
X141329433Y-118392905D01*
X141321726Y-118399748D01*
X141174590Y-118553717D01*
X141168104Y-118561727D01*
X141048098Y-118737649D01*
X141043000Y-118746623D01*
X140953338Y-118939783D01*
X140949775Y-118949470D01*
X140894389Y-119149183D01*
X139813002Y-119149183D01*
X139813180Y-119147947D01*
X139771214Y-118980875D01*
X139767894Y-118971124D01*
X139682972Y-118775814D01*
X139678105Y-118766739D01*
X139562426Y-118587926D01*
X139556136Y-118579757D01*
X139412806Y-118422240D01*
X139405273Y-118415215D01*
X139238139Y-118283222D01*
X139229552Y-118277517D01*
X139043117Y-118174599D01*
X139033705Y-118170369D01*
X138842031Y-118102493D01*
X138784495Y-118060899D01*
X138758579Y-117994801D01*
X138772513Y-117925185D01*
X138821872Y-117874154D01*
X138850206Y-117862362D01*
X138855790Y-117860803D01*
X138855799Y-117860800D01*
X138861725Y-117859145D01*
X138867214Y-117856372D01*
X138867220Y-117856370D01*
X139040116Y-117769033D01*
X139045610Y-117766258D01*
X139207951Y-117639424D01*
X139342564Y-117483472D01*
X139363387Y-117446818D01*
X139441276Y-117309707D01*
X139444323Y-117304344D01*
X139509351Y-117108863D01*
X139535171Y-116904474D01*
X139535583Y-116875000D01*
X139515480Y-116669970D01*
X139455935Y-116472749D01*
X139359218Y-116290849D01*
X139285859Y-116200902D01*
X139232906Y-116135975D01*
X139232903Y-116135972D01*
X139229011Y-116131200D01*
X139211786Y-116116950D01*
X139075025Y-116003811D01*
X139075021Y-116003809D01*
X139070275Y-115999882D01*
X138889055Y-115901897D01*
X138692254Y-115840977D01*
X138686129Y-115840333D01*
X138686128Y-115840333D01*
X138493498Y-115820087D01*
X138493496Y-115820087D01*
X138487369Y-115819443D01*
X138400529Y-115827346D01*
X138288342Y-115837555D01*
X138288339Y-115837556D01*
X138282203Y-115838114D01*
X138084572Y-115896280D01*
X137902002Y-115991726D01*
X137897201Y-115995586D01*
X137897198Y-115995588D01*
X137886971Y-116003811D01*
X137741447Y-116120815D01*
X137609024Y-116278630D01*
X137606056Y-116284028D01*
X137606053Y-116284033D01*
X137599315Y-116296290D01*
X137509776Y-116459162D01*
X137447484Y-116655532D01*
X137446798Y-116661649D01*
X137446797Y-116661653D01*
X137425207Y-116854137D01*
X137424520Y-116860262D01*
X137441759Y-117065553D01*
X137498544Y-117263586D01*
X137501359Y-117269063D01*
X137501360Y-117269066D01*
X137522247Y-117309707D01*
X137592712Y-117446818D01*
X137720677Y-117608270D01*
X137877564Y-117741791D01*
X138057398Y-117842297D01*
X138122437Y-117863429D01*
X138181042Y-117903502D01*
X138208680Y-117968898D01*
X138196574Y-118038855D01*
X138148568Y-118091162D01*
X138122646Y-118103027D01*
X137956868Y-118157212D01*
X137947359Y-118161209D01*
X137758463Y-118259542D01*
X137749738Y-118265036D01*
X137579433Y-118392905D01*
X137571726Y-118399748D01*
X137424590Y-118553717D01*
X137418104Y-118561727D01*
X137298098Y-118737649D01*
X137293000Y-118746623D01*
X137203338Y-118939783D01*
X137199775Y-118949470D01*
X137144389Y-119149183D01*
X136063002Y-119149183D01*
X136063180Y-119147947D01*
X136021214Y-118980875D01*
X136017894Y-118971124D01*
X135932972Y-118775814D01*
X135928105Y-118766739D01*
X135812426Y-118587926D01*
X135806136Y-118579757D01*
X135662806Y-118422240D01*
X135655273Y-118415215D01*
X135488139Y-118283222D01*
X135479552Y-118277517D01*
X135293117Y-118174599D01*
X135283705Y-118170369D01*
X135092031Y-118102493D01*
X135034495Y-118060899D01*
X135008579Y-117994801D01*
X135022513Y-117925185D01*
X135071872Y-117874154D01*
X135100206Y-117862362D01*
X135105790Y-117860803D01*
X135105799Y-117860800D01*
X135111725Y-117859145D01*
X135117214Y-117856372D01*
X135117220Y-117856370D01*
X135290116Y-117769033D01*
X135295610Y-117766258D01*
X135457951Y-117639424D01*
X135592564Y-117483472D01*
X135613387Y-117446818D01*
X135691276Y-117309707D01*
X135694323Y-117304344D01*
X135759351Y-117108863D01*
X135785171Y-116904474D01*
X135785583Y-116875000D01*
X135765480Y-116669970D01*
X135705935Y-116472749D01*
X135609218Y-116290849D01*
X135535859Y-116200902D01*
X135482906Y-116135975D01*
X135482903Y-116135972D01*
X135479011Y-116131200D01*
X135461786Y-116116950D01*
X135325025Y-116003811D01*
X135325021Y-116003809D01*
X135320275Y-115999882D01*
X135139055Y-115901897D01*
X134942254Y-115840977D01*
X134936129Y-115840333D01*
X134936128Y-115840333D01*
X134743498Y-115820087D01*
X134743496Y-115820087D01*
X134737369Y-115819443D01*
X134650529Y-115827346D01*
X134538342Y-115837555D01*
X134538339Y-115837556D01*
X134532203Y-115838114D01*
X134334572Y-115896280D01*
X134152002Y-115991726D01*
X134147201Y-115995586D01*
X134147198Y-115995588D01*
X134136971Y-116003811D01*
X133991447Y-116120815D01*
X133859024Y-116278630D01*
X133856056Y-116284028D01*
X133856053Y-116284033D01*
X133849315Y-116296290D01*
X133759776Y-116459162D01*
X133697484Y-116655532D01*
X133696798Y-116661649D01*
X133696797Y-116661653D01*
X133675207Y-116854137D01*
X133674520Y-116860262D01*
X133691759Y-117065553D01*
X133748544Y-117263586D01*
X133751359Y-117269063D01*
X133751360Y-117269066D01*
X133772247Y-117309707D01*
X133842712Y-117446818D01*
X133970677Y-117608270D01*
X134127564Y-117741791D01*
X134307398Y-117842297D01*
X134372437Y-117863429D01*
X134431042Y-117903502D01*
X134458680Y-117968898D01*
X134446574Y-118038855D01*
X134398568Y-118091162D01*
X134372646Y-118103027D01*
X134206868Y-118157212D01*
X134197359Y-118161209D01*
X134008463Y-118259542D01*
X133999738Y-118265036D01*
X133829433Y-118392905D01*
X133821726Y-118399748D01*
X133674590Y-118553717D01*
X133668104Y-118561727D01*
X133548098Y-118737649D01*
X133543000Y-118746623D01*
X133453338Y-118939783D01*
X133449775Y-118949470D01*
X133394389Y-119149183D01*
X132313002Y-119149183D01*
X132313180Y-119147947D01*
X132271214Y-118980875D01*
X132267894Y-118971124D01*
X132182972Y-118775814D01*
X132178105Y-118766739D01*
X132062426Y-118587926D01*
X132056136Y-118579757D01*
X131912806Y-118422240D01*
X131905273Y-118415215D01*
X131738139Y-118283222D01*
X131729552Y-118277517D01*
X131543117Y-118174599D01*
X131533705Y-118170369D01*
X131342031Y-118102493D01*
X131284495Y-118060899D01*
X131258579Y-117994801D01*
X131272513Y-117925185D01*
X131321872Y-117874154D01*
X131350206Y-117862362D01*
X131355790Y-117860803D01*
X131355799Y-117860800D01*
X131361725Y-117859145D01*
X131367214Y-117856372D01*
X131367220Y-117856370D01*
X131540116Y-117769033D01*
X131545610Y-117766258D01*
X131707951Y-117639424D01*
X131842564Y-117483472D01*
X131863387Y-117446818D01*
X131941276Y-117309707D01*
X131944323Y-117304344D01*
X132009351Y-117108863D01*
X132035171Y-116904474D01*
X132035583Y-116875000D01*
X132015480Y-116669970D01*
X131955935Y-116472749D01*
X131859218Y-116290849D01*
X131785859Y-116200902D01*
X131732906Y-116135975D01*
X131732903Y-116135972D01*
X131729011Y-116131200D01*
X131711786Y-116116950D01*
X131575025Y-116003811D01*
X131575021Y-116003809D01*
X131570275Y-115999882D01*
X131389055Y-115901897D01*
X131192254Y-115840977D01*
X131186129Y-115840333D01*
X131186128Y-115840333D01*
X130993498Y-115820087D01*
X130993496Y-115820087D01*
X130987369Y-115819443D01*
X130900529Y-115827346D01*
X130788342Y-115837555D01*
X130788339Y-115837556D01*
X130782203Y-115838114D01*
X130584572Y-115896280D01*
X130402002Y-115991726D01*
X130397201Y-115995586D01*
X130397198Y-115995588D01*
X130386971Y-116003811D01*
X130241447Y-116120815D01*
X130109024Y-116278630D01*
X130106056Y-116284028D01*
X130106053Y-116284033D01*
X130099315Y-116296290D01*
X130009776Y-116459162D01*
X129947484Y-116655532D01*
X129946798Y-116661649D01*
X129946797Y-116661653D01*
X129925207Y-116854137D01*
X129924520Y-116860262D01*
X129941759Y-117065553D01*
X129998544Y-117263586D01*
X130001359Y-117269063D01*
X130001360Y-117269066D01*
X130022247Y-117309707D01*
X130092712Y-117446818D01*
X130220677Y-117608270D01*
X130377564Y-117741791D01*
X130557398Y-117842297D01*
X130622437Y-117863429D01*
X130681042Y-117903502D01*
X130708680Y-117968898D01*
X130696574Y-118038855D01*
X130648568Y-118091162D01*
X130622646Y-118103027D01*
X130456868Y-118157212D01*
X130447359Y-118161209D01*
X130258463Y-118259542D01*
X130249738Y-118265036D01*
X130079433Y-118392905D01*
X130071726Y-118399748D01*
X129924590Y-118553717D01*
X129918104Y-118561727D01*
X129798098Y-118737649D01*
X129793000Y-118746623D01*
X129703338Y-118939783D01*
X129699775Y-118949470D01*
X129644389Y-119149183D01*
X128563002Y-119149183D01*
X128563180Y-119147947D01*
X128521214Y-118980875D01*
X128517894Y-118971124D01*
X128432972Y-118775814D01*
X128428105Y-118766739D01*
X128312426Y-118587926D01*
X128306136Y-118579757D01*
X128162806Y-118422240D01*
X128155273Y-118415215D01*
X127988139Y-118283222D01*
X127979552Y-118277517D01*
X127793117Y-118174599D01*
X127783705Y-118170369D01*
X127592031Y-118102493D01*
X127534495Y-118060899D01*
X127508579Y-117994801D01*
X127522513Y-117925185D01*
X127571872Y-117874154D01*
X127600206Y-117862362D01*
X127605790Y-117860803D01*
X127605799Y-117860800D01*
X127611725Y-117859145D01*
X127617214Y-117856372D01*
X127617220Y-117856370D01*
X127790116Y-117769033D01*
X127795610Y-117766258D01*
X127957951Y-117639424D01*
X128092564Y-117483472D01*
X128113387Y-117446818D01*
X128191276Y-117309707D01*
X128194323Y-117304344D01*
X128259351Y-117108863D01*
X128285171Y-116904474D01*
X128285583Y-116875000D01*
X128265480Y-116669970D01*
X128205935Y-116472749D01*
X128109218Y-116290849D01*
X128035859Y-116200902D01*
X127982906Y-116135975D01*
X127982903Y-116135972D01*
X127979011Y-116131200D01*
X127961786Y-116116950D01*
X127825025Y-116003811D01*
X127825021Y-116003809D01*
X127820275Y-115999882D01*
X127639055Y-115901897D01*
X127442254Y-115840977D01*
X127436129Y-115840333D01*
X127436128Y-115840333D01*
X127243498Y-115820087D01*
X127243496Y-115820087D01*
X127237369Y-115819443D01*
X127150529Y-115827346D01*
X127038342Y-115837555D01*
X127038339Y-115837556D01*
X127032203Y-115838114D01*
X126834572Y-115896280D01*
X126652002Y-115991726D01*
X126647201Y-115995586D01*
X126647198Y-115995588D01*
X126636971Y-116003811D01*
X126491447Y-116120815D01*
X126359024Y-116278630D01*
X126356056Y-116284028D01*
X126356053Y-116284033D01*
X126349315Y-116296290D01*
X126259776Y-116459162D01*
X126197484Y-116655532D01*
X126196798Y-116661649D01*
X126196797Y-116661653D01*
X126175207Y-116854137D01*
X126174520Y-116860262D01*
X126191759Y-117065553D01*
X126248544Y-117263586D01*
X126251359Y-117269063D01*
X126251360Y-117269066D01*
X126272247Y-117309707D01*
X126342712Y-117446818D01*
X126470677Y-117608270D01*
X126627564Y-117741791D01*
X126807398Y-117842297D01*
X126872437Y-117863429D01*
X126931042Y-117903502D01*
X126958680Y-117968898D01*
X126946574Y-118038855D01*
X126898568Y-118091162D01*
X126872646Y-118103027D01*
X126706868Y-118157212D01*
X126697359Y-118161209D01*
X126508463Y-118259542D01*
X126499738Y-118265036D01*
X126329433Y-118392905D01*
X126321726Y-118399748D01*
X126174590Y-118553717D01*
X126168104Y-118561727D01*
X126048098Y-118737649D01*
X126043000Y-118746623D01*
X125953338Y-118939783D01*
X125949775Y-118949470D01*
X125894389Y-119149183D01*
X124813002Y-119149183D01*
X124813180Y-119147947D01*
X124771214Y-118980875D01*
X124767894Y-118971124D01*
X124682972Y-118775814D01*
X124678105Y-118766739D01*
X124562426Y-118587926D01*
X124556136Y-118579757D01*
X124412806Y-118422240D01*
X124405273Y-118415215D01*
X124238139Y-118283222D01*
X124229552Y-118277517D01*
X124043117Y-118174599D01*
X124033705Y-118170369D01*
X123842031Y-118102493D01*
X123784495Y-118060899D01*
X123758579Y-117994801D01*
X123772513Y-117925185D01*
X123821872Y-117874154D01*
X123850206Y-117862362D01*
X123855790Y-117860803D01*
X123855799Y-117860800D01*
X123861725Y-117859145D01*
X123867214Y-117856372D01*
X123867220Y-117856370D01*
X124040116Y-117769033D01*
X124045610Y-117766258D01*
X124207951Y-117639424D01*
X124342564Y-117483472D01*
X124363387Y-117446818D01*
X124441276Y-117309707D01*
X124444323Y-117304344D01*
X124509351Y-117108863D01*
X124535171Y-116904474D01*
X124535583Y-116875000D01*
X124515480Y-116669970D01*
X124455935Y-116472749D01*
X124359218Y-116290849D01*
X124285859Y-116200902D01*
X124232906Y-116135975D01*
X124232903Y-116135972D01*
X124229011Y-116131200D01*
X124211786Y-116116950D01*
X124075025Y-116003811D01*
X124075021Y-116003809D01*
X124070275Y-115999882D01*
X123889055Y-115901897D01*
X123692254Y-115840977D01*
X123686129Y-115840333D01*
X123686128Y-115840333D01*
X123493498Y-115820087D01*
X123493496Y-115820087D01*
X123487369Y-115819443D01*
X123400529Y-115827346D01*
X123288342Y-115837555D01*
X123288339Y-115837556D01*
X123282203Y-115838114D01*
X123084572Y-115896280D01*
X122902002Y-115991726D01*
X122897201Y-115995586D01*
X122897198Y-115995588D01*
X122886971Y-116003811D01*
X122741447Y-116120815D01*
X122609024Y-116278630D01*
X122606056Y-116284028D01*
X122606053Y-116284033D01*
X122599315Y-116296290D01*
X122509776Y-116459162D01*
X122447484Y-116655532D01*
X122446798Y-116661649D01*
X122446797Y-116661653D01*
X122425207Y-116854137D01*
X122424520Y-116860262D01*
X122441759Y-117065553D01*
X122498544Y-117263586D01*
X122501359Y-117269063D01*
X122501360Y-117269066D01*
X122522247Y-117309707D01*
X122592712Y-117446818D01*
X122720677Y-117608270D01*
X122877564Y-117741791D01*
X123057398Y-117842297D01*
X123122437Y-117863429D01*
X123181042Y-117903502D01*
X123208680Y-117968898D01*
X123196574Y-118038855D01*
X123148568Y-118091162D01*
X123122646Y-118103027D01*
X122956868Y-118157212D01*
X122947359Y-118161209D01*
X122758463Y-118259542D01*
X122749738Y-118265036D01*
X122579433Y-118392905D01*
X122571726Y-118399748D01*
X122424590Y-118553717D01*
X122418104Y-118561727D01*
X122298098Y-118737649D01*
X122293000Y-118746623D01*
X122203338Y-118939783D01*
X122199775Y-118949470D01*
X122144389Y-119149183D01*
X118990500Y-119149183D01*
X118990500Y-115204748D01*
X122429500Y-115204748D01*
X122441133Y-115263231D01*
X122485448Y-115329552D01*
X122551769Y-115373867D01*
X122563938Y-115376288D01*
X122563939Y-115376288D01*
X122604184Y-115384293D01*
X122610252Y-115385500D01*
X124349748Y-115385500D01*
X124355816Y-115384293D01*
X124396061Y-115376288D01*
X124396062Y-115376288D01*
X124408231Y-115373867D01*
X124474552Y-115329552D01*
X124518867Y-115263231D01*
X124530500Y-115204748D01*
X126179500Y-115204748D01*
X126191133Y-115263231D01*
X126235448Y-115329552D01*
X126301769Y-115373867D01*
X126313938Y-115376288D01*
X126313939Y-115376288D01*
X126354184Y-115384293D01*
X126360252Y-115385500D01*
X128099748Y-115385500D01*
X128105816Y-115384293D01*
X128146061Y-115376288D01*
X128146062Y-115376288D01*
X128158231Y-115373867D01*
X128224552Y-115329552D01*
X128268867Y-115263231D01*
X128280500Y-115204748D01*
X129929500Y-115204748D01*
X129941133Y-115263231D01*
X129985448Y-115329552D01*
X130051769Y-115373867D01*
X130063938Y-115376288D01*
X130063939Y-115376288D01*
X130104184Y-115384293D01*
X130110252Y-115385500D01*
X131849748Y-115385500D01*
X131855816Y-115384293D01*
X131896061Y-115376288D01*
X131896062Y-115376288D01*
X131908231Y-115373867D01*
X131974552Y-115329552D01*
X132018867Y-115263231D01*
X132030500Y-115204748D01*
X133679500Y-115204748D01*
X133691133Y-115263231D01*
X133735448Y-115329552D01*
X133801769Y-115373867D01*
X133813938Y-115376288D01*
X133813939Y-115376288D01*
X133854184Y-115384293D01*
X133860252Y-115385500D01*
X135599748Y-115385500D01*
X135605816Y-115384293D01*
X135646061Y-115376288D01*
X135646062Y-115376288D01*
X135658231Y-115373867D01*
X135724552Y-115329552D01*
X135768867Y-115263231D01*
X135780500Y-115204748D01*
X137429500Y-115204748D01*
X137441133Y-115263231D01*
X137485448Y-115329552D01*
X137551769Y-115373867D01*
X137563938Y-115376288D01*
X137563939Y-115376288D01*
X137604184Y-115384293D01*
X137610252Y-115385500D01*
X139349748Y-115385500D01*
X139355816Y-115384293D01*
X139396061Y-115376288D01*
X139396062Y-115376288D01*
X139408231Y-115373867D01*
X139474552Y-115329552D01*
X139518867Y-115263231D01*
X139530500Y-115204748D01*
X141179500Y-115204748D01*
X141191133Y-115263231D01*
X141235448Y-115329552D01*
X141301769Y-115373867D01*
X141313938Y-115376288D01*
X141313939Y-115376288D01*
X141354184Y-115384293D01*
X141360252Y-115385500D01*
X143099748Y-115385500D01*
X143105816Y-115384293D01*
X143146061Y-115376288D01*
X143146062Y-115376288D01*
X143158231Y-115373867D01*
X143224552Y-115329552D01*
X143268867Y-115263231D01*
X143280500Y-115204748D01*
X143280500Y-113465252D01*
X143268867Y-113406769D01*
X143224552Y-113340448D01*
X143179506Y-113310349D01*
X143168547Y-113303026D01*
X143158231Y-113296133D01*
X143146062Y-113293712D01*
X143146061Y-113293712D01*
X143105816Y-113285707D01*
X143099748Y-113284500D01*
X141360252Y-113284500D01*
X141354184Y-113285707D01*
X141313939Y-113293712D01*
X141313938Y-113293712D01*
X141301769Y-113296133D01*
X141291453Y-113303026D01*
X141280494Y-113310349D01*
X141235448Y-113340448D01*
X141191133Y-113406769D01*
X141179500Y-113465252D01*
X141179500Y-115204748D01*
X139530500Y-115204748D01*
X139530500Y-113465252D01*
X139518867Y-113406769D01*
X139474552Y-113340448D01*
X139429506Y-113310349D01*
X139418547Y-113303026D01*
X139408231Y-113296133D01*
X139396062Y-113293712D01*
X139396061Y-113293712D01*
X139355816Y-113285707D01*
X139349748Y-113284500D01*
X137610252Y-113284500D01*
X137604184Y-113285707D01*
X137563939Y-113293712D01*
X137563938Y-113293712D01*
X137551769Y-113296133D01*
X137541453Y-113303026D01*
X137530494Y-113310349D01*
X137485448Y-113340448D01*
X137441133Y-113406769D01*
X137429500Y-113465252D01*
X137429500Y-115204748D01*
X135780500Y-115204748D01*
X135780500Y-113465252D01*
X135768867Y-113406769D01*
X135724552Y-113340448D01*
X135679506Y-113310349D01*
X135668547Y-113303026D01*
X135658231Y-113296133D01*
X135646062Y-113293712D01*
X135646061Y-113293712D01*
X135605816Y-113285707D01*
X135599748Y-113284500D01*
X133860252Y-113284500D01*
X133854184Y-113285707D01*
X133813939Y-113293712D01*
X133813938Y-113293712D01*
X133801769Y-113296133D01*
X133791453Y-113303026D01*
X133780494Y-113310349D01*
X133735448Y-113340448D01*
X133691133Y-113406769D01*
X133679500Y-113465252D01*
X133679500Y-115204748D01*
X132030500Y-115204748D01*
X132030500Y-113465252D01*
X132018867Y-113406769D01*
X131974552Y-113340448D01*
X131929506Y-113310349D01*
X131918547Y-113303026D01*
X131908231Y-113296133D01*
X131896062Y-113293712D01*
X131896061Y-113293712D01*
X131855816Y-113285707D01*
X131849748Y-113284500D01*
X130110252Y-113284500D01*
X130104184Y-113285707D01*
X130063939Y-113293712D01*
X130063938Y-113293712D01*
X130051769Y-113296133D01*
X130041453Y-113303026D01*
X130030494Y-113310349D01*
X129985448Y-113340448D01*
X129941133Y-113406769D01*
X129929500Y-113465252D01*
X129929500Y-115204748D01*
X128280500Y-115204748D01*
X128280500Y-113465252D01*
X128268867Y-113406769D01*
X128224552Y-113340448D01*
X128179506Y-113310349D01*
X128168547Y-113303026D01*
X128158231Y-113296133D01*
X128146062Y-113293712D01*
X128146061Y-113293712D01*
X128105816Y-113285707D01*
X128099748Y-113284500D01*
X126360252Y-113284500D01*
X126354184Y-113285707D01*
X126313939Y-113293712D01*
X126313938Y-113293712D01*
X126301769Y-113296133D01*
X126291453Y-113303026D01*
X126280494Y-113310349D01*
X126235448Y-113340448D01*
X126191133Y-113406769D01*
X126179500Y-113465252D01*
X126179500Y-115204748D01*
X124530500Y-115204748D01*
X124530500Y-113465252D01*
X124518867Y-113406769D01*
X124474552Y-113340448D01*
X124429506Y-113310349D01*
X124418547Y-113303026D01*
X124408231Y-113296133D01*
X124396062Y-113293712D01*
X124396061Y-113293712D01*
X124355816Y-113285707D01*
X124349748Y-113284500D01*
X122610252Y-113284500D01*
X122604184Y-113285707D01*
X122563939Y-113293712D01*
X122563938Y-113293712D01*
X122551769Y-113296133D01*
X122541453Y-113303026D01*
X122530494Y-113310349D01*
X122485448Y-113340448D01*
X122441133Y-113406769D01*
X122429500Y-113465252D01*
X122429500Y-115204748D01*
X118990500Y-115204748D01*
X118990500Y-112327966D01*
X161093257Y-112327966D01*
X161123565Y-112462446D01*
X161126645Y-112472275D01*
X161206770Y-112669603D01*
X161211413Y-112678794D01*
X161322694Y-112860388D01*
X161328777Y-112868699D01*
X161468213Y-113029667D01*
X161475580Y-113036883D01*
X161639434Y-113172916D01*
X161647881Y-113178831D01*
X161831756Y-113286279D01*
X161841043Y-113290729D01*
X161880484Y-113305790D01*
X161936987Y-113348778D01*
X161961280Y-113415489D01*
X161945650Y-113484743D01*
X161895059Y-113534554D01*
X161835535Y-113549500D01*
X161555252Y-113549500D01*
X161549184Y-113550707D01*
X161508939Y-113558712D01*
X161508938Y-113558712D01*
X161496769Y-113561133D01*
X161430448Y-113605448D01*
X161386133Y-113671769D01*
X161374500Y-113730252D01*
X161374500Y-115469748D01*
X161386133Y-115528231D01*
X161430448Y-115594552D01*
X161496769Y-115638867D01*
X161508938Y-115641288D01*
X161508939Y-115641288D01*
X161549184Y-115649293D01*
X161555252Y-115650500D01*
X163294748Y-115650500D01*
X163300816Y-115649293D01*
X163341061Y-115641288D01*
X163341062Y-115641288D01*
X163353231Y-115638867D01*
X163419552Y-115594552D01*
X163463867Y-115528231D01*
X163475500Y-115469748D01*
X163475500Y-113730252D01*
X163463867Y-113671769D01*
X163419552Y-113605448D01*
X163353231Y-113561133D01*
X163341062Y-113558712D01*
X163341061Y-113558712D01*
X163300816Y-113550707D01*
X163294748Y-113549500D01*
X163015107Y-113549500D01*
X162946986Y-113529498D01*
X162900493Y-113475842D01*
X162890389Y-113405568D01*
X162919883Y-113340988D01*
X162959675Y-113310349D01*
X163118090Y-113232742D01*
X163126945Y-113227464D01*
X163300328Y-113103792D01*
X163308200Y-113097139D01*
X163459052Y-112946812D01*
X163465730Y-112938965D01*
X163590003Y-112766020D01*
X163595313Y-112757183D01*
X163689670Y-112566267D01*
X163693469Y-112556672D01*
X163755377Y-112352910D01*
X163757555Y-112342837D01*
X163758986Y-112331962D01*
X163756775Y-112317778D01*
X163743617Y-112314000D01*
X161108225Y-112314000D01*
X161094694Y-112317973D01*
X161093257Y-112327966D01*
X118990500Y-112327966D01*
X118990500Y-111794183D01*
X161089389Y-111794183D01*
X161090912Y-111802607D01*
X161103292Y-111806000D01*
X162152885Y-111806000D01*
X162168124Y-111801525D01*
X162169329Y-111800135D01*
X162171000Y-111792452D01*
X162171000Y-111787885D01*
X162679000Y-111787885D01*
X162683475Y-111803124D01*
X162684865Y-111804329D01*
X162692548Y-111806000D01*
X163743344Y-111806000D01*
X163756875Y-111802027D01*
X163758180Y-111792947D01*
X163716214Y-111625875D01*
X163712894Y-111616124D01*
X163627972Y-111420814D01*
X163623105Y-111411739D01*
X163507426Y-111232926D01*
X163501136Y-111224757D01*
X163357806Y-111067240D01*
X163350273Y-111060215D01*
X163183139Y-110928222D01*
X163174552Y-110922517D01*
X162988117Y-110819599D01*
X162978705Y-110815369D01*
X162777959Y-110744280D01*
X162767988Y-110741646D01*
X162696837Y-110728972D01*
X162683540Y-110730432D01*
X162679000Y-110744989D01*
X162679000Y-111787885D01*
X162171000Y-111787885D01*
X162171000Y-110743102D01*
X162167082Y-110729758D01*
X162152806Y-110727771D01*
X162114324Y-110733660D01*
X162104288Y-110736051D01*
X161901868Y-110802212D01*
X161892359Y-110806209D01*
X161703463Y-110904542D01*
X161694738Y-110910036D01*
X161524433Y-111037905D01*
X161516726Y-111044748D01*
X161369590Y-111198717D01*
X161363104Y-111206727D01*
X161243098Y-111382649D01*
X161238000Y-111391623D01*
X161148338Y-111584783D01*
X161144775Y-111594470D01*
X161089389Y-111794183D01*
X118990500Y-111794183D01*
X118990500Y-111029748D01*
X122429500Y-111029748D01*
X122430707Y-111035816D01*
X122436958Y-111067240D01*
X122441133Y-111088231D01*
X122485448Y-111154552D01*
X122551769Y-111198867D01*
X122563938Y-111201288D01*
X122563939Y-111201288D01*
X122604184Y-111209293D01*
X122610252Y-111210500D01*
X124349748Y-111210500D01*
X124355816Y-111209293D01*
X124396061Y-111201288D01*
X124396062Y-111201288D01*
X124408231Y-111198867D01*
X124474552Y-111154552D01*
X124518867Y-111088231D01*
X124523043Y-111067240D01*
X124529293Y-111035816D01*
X124530500Y-111029748D01*
X124530500Y-109290252D01*
X124518867Y-109231769D01*
X124474552Y-109165448D01*
X124408231Y-109121133D01*
X124396062Y-109118712D01*
X124396061Y-109118712D01*
X124355816Y-109110707D01*
X124349748Y-109109500D01*
X122610252Y-109109500D01*
X122604184Y-109110707D01*
X122563939Y-109118712D01*
X122563938Y-109118712D01*
X122551769Y-109121133D01*
X122485448Y-109165448D01*
X122441133Y-109231769D01*
X122429500Y-109290252D01*
X122429500Y-111029748D01*
X118990500Y-111029748D01*
X118990500Y-107605262D01*
X122424520Y-107605262D01*
X122425036Y-107611406D01*
X122440311Y-107793305D01*
X122441759Y-107810553D01*
X122443458Y-107816478D01*
X122480324Y-107945044D01*
X122498544Y-108008586D01*
X122501359Y-108014063D01*
X122501360Y-108014066D01*
X122589897Y-108186341D01*
X122592712Y-108191818D01*
X122720677Y-108353270D01*
X122877564Y-108486791D01*
X123057398Y-108587297D01*
X123152238Y-108618113D01*
X123247471Y-108649056D01*
X123247475Y-108649057D01*
X123253329Y-108650959D01*
X123457894Y-108675351D01*
X123464029Y-108674879D01*
X123464031Y-108674879D01*
X123520039Y-108670569D01*
X123663300Y-108659546D01*
X123669230Y-108657890D01*
X123669232Y-108657890D01*
X123855797Y-108605800D01*
X123855796Y-108605800D01*
X123861725Y-108604145D01*
X123867214Y-108601372D01*
X123867220Y-108601370D01*
X124040116Y-108514033D01*
X124045610Y-108511258D01*
X124171860Y-108412621D01*
X143462231Y-108412621D01*
X143482869Y-108569383D01*
X143543377Y-108715462D01*
X143639631Y-108840903D01*
X143765072Y-108937157D01*
X143911151Y-108997665D01*
X144067913Y-109018303D01*
X144076101Y-109017225D01*
X144216487Y-108998743D01*
X144224675Y-108997665D01*
X144370754Y-108937157D01*
X144496195Y-108840903D01*
X144592449Y-108715462D01*
X144652957Y-108569383D01*
X144673595Y-108412621D01*
X144652957Y-108255859D01*
X144592449Y-108109780D01*
X144496195Y-107984339D01*
X144370754Y-107888085D01*
X144224675Y-107827577D01*
X144067913Y-107806939D01*
X143911151Y-107827577D01*
X143765072Y-107888085D01*
X143639631Y-107984339D01*
X143543377Y-108109780D01*
X143482869Y-108255859D01*
X143462231Y-108412621D01*
X124171860Y-108412621D01*
X124207951Y-108384424D01*
X124318925Y-108255859D01*
X124338540Y-108233134D01*
X124338540Y-108233133D01*
X124342564Y-108228472D01*
X124363387Y-108191818D01*
X124408179Y-108112968D01*
X124444323Y-108049344D01*
X124509351Y-107853863D01*
X124535171Y-107649474D01*
X124535583Y-107620000D01*
X124515480Y-107414970D01*
X124498883Y-107360000D01*
X139874318Y-107360000D01*
X139875396Y-107368188D01*
X139889269Y-107473561D01*
X139894956Y-107516762D01*
X139955464Y-107662841D01*
X140051718Y-107788282D01*
X140177159Y-107884536D01*
X140323238Y-107945044D01*
X140480000Y-107965682D01*
X140488188Y-107964604D01*
X140628574Y-107946122D01*
X140636762Y-107945044D01*
X140782841Y-107884536D01*
X140908282Y-107788282D01*
X141004536Y-107662841D01*
X141065044Y-107516762D01*
X141070732Y-107473561D01*
X141084604Y-107368188D01*
X141085682Y-107360000D01*
X141065044Y-107203238D01*
X141004536Y-107057159D01*
X140908282Y-106931718D01*
X140820400Y-106864284D01*
X152079500Y-106864284D01*
X152079738Y-106867001D01*
X152079738Y-106867008D01*
X152080832Y-106879509D01*
X152094365Y-107034192D01*
X152095789Y-107039505D01*
X152095789Y-107039507D01*
X152145130Y-107223649D01*
X152153261Y-107253996D01*
X152155583Y-107258976D01*
X152155584Y-107258978D01*
X152228085Y-107414455D01*
X152249432Y-107460234D01*
X152379953Y-107646639D01*
X152540861Y-107807547D01*
X152727266Y-107938068D01*
X152732244Y-107940389D01*
X152732247Y-107940391D01*
X152865787Y-108002662D01*
X152933504Y-108034239D01*
X152938812Y-108035661D01*
X152938814Y-108035662D01*
X153147993Y-108091711D01*
X153147995Y-108091711D01*
X153153308Y-108093135D01*
X153380000Y-108112968D01*
X153606692Y-108093135D01*
X153612005Y-108091711D01*
X153612007Y-108091711D01*
X153821186Y-108035662D01*
X153821188Y-108035661D01*
X153826496Y-108034239D01*
X153894213Y-108002662D01*
X154027753Y-107940391D01*
X154027756Y-107940389D01*
X154032734Y-107938068D01*
X154219139Y-107807547D01*
X154380047Y-107646639D01*
X154419925Y-107589687D01*
X154475382Y-107545358D01*
X154546001Y-107538049D01*
X154593141Y-107557193D01*
X154641449Y-107589472D01*
X154641452Y-107589473D01*
X154651769Y-107596367D01*
X154663938Y-107598788D01*
X154663939Y-107598788D01*
X154696487Y-107605262D01*
X154710252Y-107608000D01*
X156249748Y-107608000D01*
X156263513Y-107605262D01*
X156296061Y-107598788D01*
X156296062Y-107598788D01*
X156308231Y-107596367D01*
X156374552Y-107552052D01*
X156418867Y-107485731D01*
X156421888Y-107470547D01*
X156429293Y-107433316D01*
X156430500Y-107427248D01*
X156430500Y-107211944D01*
X156450502Y-107143823D01*
X156504158Y-107097330D01*
X156574432Y-107087226D01*
X156639012Y-107116720D01*
X156666701Y-107150857D01*
X156695472Y-107202761D01*
X156821136Y-107349375D01*
X156826178Y-107353286D01*
X156826179Y-107353287D01*
X156968665Y-107463811D01*
X156968668Y-107463813D01*
X156973714Y-107467727D01*
X157146974Y-107552981D01*
X157153144Y-107554588D01*
X157153149Y-107554590D01*
X157327655Y-107600045D01*
X157327658Y-107600045D01*
X157333837Y-107601655D01*
X157417203Y-107606024D01*
X157520290Y-107611427D01*
X157520294Y-107611427D01*
X157526671Y-107611761D01*
X157717599Y-107582886D01*
X157782675Y-107558943D01*
X157892832Y-107518414D01*
X157892836Y-107518412D01*
X157898821Y-107516210D01*
X158062934Y-107414455D01*
X158169435Y-107313742D01*
X158198596Y-107286166D01*
X158198597Y-107286165D01*
X158203235Y-107281779D01*
X158211746Y-107269625D01*
X158310327Y-107128835D01*
X158310328Y-107128834D01*
X158313991Y-107123602D01*
X158342744Y-107057159D01*
X158362703Y-107011037D01*
X158408115Y-106956463D01*
X158475822Y-106935103D01*
X158544329Y-106953740D01*
X158591885Y-107006456D01*
X158598575Y-107023402D01*
X158601856Y-107033873D01*
X158695472Y-107202761D01*
X158821136Y-107349375D01*
X158826178Y-107353286D01*
X158826179Y-107353287D01*
X158968665Y-107463811D01*
X158968668Y-107463813D01*
X158973714Y-107467727D01*
X159146974Y-107552981D01*
X159153144Y-107554588D01*
X159153149Y-107554590D01*
X159327655Y-107600045D01*
X159327658Y-107600045D01*
X159333837Y-107601655D01*
X159417203Y-107606024D01*
X159520290Y-107611427D01*
X159520294Y-107611427D01*
X159526671Y-107611761D01*
X159717599Y-107582886D01*
X159782675Y-107558943D01*
X159892832Y-107518414D01*
X159892836Y-107518412D01*
X159898821Y-107516210D01*
X160062934Y-107414455D01*
X160189407Y-107294855D01*
X160252644Y-107262585D01*
X160323291Y-107269625D01*
X160378916Y-107313742D01*
X160390172Y-107333152D01*
X160449432Y-107460234D01*
X160579953Y-107646639D01*
X160740861Y-107807547D01*
X160927266Y-107938068D01*
X160932244Y-107940389D01*
X160932247Y-107940391D01*
X161065787Y-108002662D01*
X161133504Y-108034239D01*
X161138812Y-108035661D01*
X161138814Y-108035662D01*
X161347993Y-108091711D01*
X161347995Y-108091711D01*
X161353308Y-108093135D01*
X161580000Y-108112968D01*
X161806692Y-108093135D01*
X161812005Y-108091711D01*
X161812007Y-108091711D01*
X162021186Y-108035662D01*
X162021188Y-108035661D01*
X162026496Y-108034239D01*
X162094213Y-108002662D01*
X162227753Y-107940391D01*
X162227756Y-107940389D01*
X162232734Y-107938068D01*
X162419139Y-107807547D01*
X162580047Y-107646639D01*
X162710568Y-107460234D01*
X162731916Y-107414455D01*
X162804416Y-107258978D01*
X162804417Y-107258976D01*
X162806739Y-107253996D01*
X162814871Y-107223649D01*
X162864211Y-107039507D01*
X162864211Y-107039505D01*
X162865635Y-107034192D01*
X162879168Y-106879509D01*
X162880262Y-106867008D01*
X162880262Y-106867001D01*
X162880500Y-106864284D01*
X162880500Y-105450716D01*
X162865635Y-105280808D01*
X162862887Y-105270553D01*
X162808162Y-105066314D01*
X162808161Y-105066312D01*
X162806739Y-105061004D01*
X162795193Y-105036244D01*
X162712891Y-104859747D01*
X162712889Y-104859744D01*
X162710568Y-104854766D01*
X162580047Y-104668361D01*
X162419139Y-104507453D01*
X162232734Y-104376932D01*
X162227756Y-104374611D01*
X162227753Y-104374609D01*
X162031478Y-104283084D01*
X162031476Y-104283083D01*
X162026496Y-104280761D01*
X162021188Y-104279339D01*
X162021186Y-104279338D01*
X161812007Y-104223289D01*
X161812005Y-104223289D01*
X161806692Y-104221865D01*
X161580000Y-104202032D01*
X161353308Y-104221865D01*
X161347995Y-104223289D01*
X161347993Y-104223289D01*
X161138814Y-104279338D01*
X161138812Y-104279339D01*
X161133504Y-104280761D01*
X161128524Y-104283083D01*
X161128522Y-104283084D01*
X160932247Y-104374609D01*
X160932244Y-104374611D01*
X160927266Y-104376932D01*
X160740861Y-104507453D01*
X160579953Y-104668361D01*
X160449432Y-104854766D01*
X160447111Y-104859744D01*
X160447109Y-104859747D01*
X160389150Y-104984040D01*
X160342232Y-105037325D01*
X160273955Y-105056786D01*
X160205995Y-105036244D01*
X160179290Y-105012790D01*
X160138864Y-104965625D01*
X160048287Y-104895366D01*
X159991335Y-104851189D01*
X159991332Y-104851187D01*
X159986286Y-104847273D01*
X159813026Y-104762019D01*
X159806856Y-104760412D01*
X159806851Y-104760410D01*
X159632345Y-104714955D01*
X159632342Y-104714955D01*
X159626163Y-104713345D01*
X159542797Y-104708976D01*
X159439710Y-104703573D01*
X159439706Y-104703573D01*
X159433329Y-104703239D01*
X159242401Y-104732114D01*
X159236406Y-104734320D01*
X159236405Y-104734320D01*
X159067168Y-104796586D01*
X159067164Y-104796588D01*
X159061179Y-104798790D01*
X158897066Y-104900545D01*
X158756765Y-105033221D01*
X158753103Y-105038451D01*
X158753102Y-105038452D01*
X158704827Y-105107396D01*
X158646009Y-105191398D01*
X158643473Y-105197259D01*
X158597297Y-105303963D01*
X158551885Y-105358537D01*
X158484178Y-105379897D01*
X158415671Y-105361260D01*
X158368115Y-105308544D01*
X158361425Y-105291597D01*
X158360055Y-105287226D01*
X158358144Y-105281127D01*
X158341926Y-105251868D01*
X158267621Y-105117819D01*
X158264528Y-105112239D01*
X158138864Y-104965625D01*
X158048287Y-104895366D01*
X157991335Y-104851189D01*
X157991332Y-104851187D01*
X157986286Y-104847273D01*
X157813026Y-104762019D01*
X157806856Y-104760412D01*
X157806851Y-104760410D01*
X157632345Y-104714955D01*
X157632342Y-104714955D01*
X157626163Y-104713345D01*
X157542797Y-104708976D01*
X157439710Y-104703573D01*
X157439706Y-104703573D01*
X157433329Y-104703239D01*
X157242401Y-104732114D01*
X157236406Y-104734320D01*
X157236405Y-104734320D01*
X157067168Y-104796586D01*
X157067164Y-104796588D01*
X157061179Y-104798790D01*
X156897066Y-104900545D01*
X156756765Y-105033221D01*
X156753103Y-105038451D01*
X156753102Y-105038452D01*
X156737311Y-105061004D01*
X156704828Y-105107396D01*
X156659713Y-105171827D01*
X156604257Y-105216156D01*
X156533637Y-105223465D01*
X156470277Y-105191435D01*
X156434291Y-105130234D01*
X156430500Y-105099557D01*
X156430500Y-104887752D01*
X156425086Y-104860532D01*
X156421288Y-104841439D01*
X156421288Y-104841438D01*
X156418867Y-104829269D01*
X156374552Y-104762948D01*
X156308231Y-104718633D01*
X156296062Y-104716212D01*
X156296061Y-104716212D01*
X156255816Y-104708207D01*
X156249748Y-104707000D01*
X154710252Y-104707000D01*
X154704184Y-104708207D01*
X154663939Y-104716212D01*
X154663938Y-104716212D01*
X154651769Y-104718633D01*
X154641452Y-104725527D01*
X154641449Y-104725528D01*
X154593141Y-104757807D01*
X154525388Y-104779023D01*
X154456921Y-104760241D01*
X154419925Y-104725313D01*
X154404469Y-104703239D01*
X154380047Y-104668361D01*
X154219139Y-104507453D01*
X154032734Y-104376932D01*
X154027756Y-104374611D01*
X154027753Y-104374609D01*
X153831478Y-104283084D01*
X153831476Y-104283083D01*
X153826496Y-104280761D01*
X153821188Y-104279339D01*
X153821186Y-104279338D01*
X153612007Y-104223289D01*
X153612005Y-104223289D01*
X153606692Y-104221865D01*
X153380000Y-104202032D01*
X153153308Y-104221865D01*
X153147995Y-104223289D01*
X153147993Y-104223289D01*
X152938814Y-104279338D01*
X152938812Y-104279339D01*
X152933504Y-104280761D01*
X152928524Y-104283083D01*
X152928522Y-104283084D01*
X152732247Y-104374609D01*
X152732244Y-104374611D01*
X152727266Y-104376932D01*
X152540861Y-104507453D01*
X152379953Y-104668361D01*
X152249432Y-104854766D01*
X152247111Y-104859744D01*
X152247109Y-104859747D01*
X152164807Y-105036244D01*
X152153261Y-105061004D01*
X152151839Y-105066312D01*
X152151838Y-105066314D01*
X152097113Y-105270553D01*
X152094365Y-105280808D01*
X152079500Y-105450716D01*
X152079500Y-106864284D01*
X140820400Y-106864284D01*
X140782841Y-106835464D01*
X140636762Y-106774956D01*
X140480000Y-106754318D01*
X140323238Y-106774956D01*
X140177159Y-106835464D01*
X140051718Y-106931718D01*
X139955464Y-107057159D01*
X139894956Y-107203238D01*
X139874318Y-107360000D01*
X124498883Y-107360000D01*
X124455935Y-107217749D01*
X124359218Y-107035849D01*
X124235810Y-106884536D01*
X124232906Y-106880975D01*
X124232903Y-106880972D01*
X124229011Y-106876200D01*
X124211295Y-106861544D01*
X124075025Y-106748811D01*
X124075021Y-106748809D01*
X124070275Y-106744882D01*
X123918543Y-106662841D01*
X123894474Y-106649827D01*
X123889055Y-106646897D01*
X123692254Y-106585977D01*
X123686129Y-106585333D01*
X123686128Y-106585333D01*
X123493498Y-106565087D01*
X123493496Y-106565087D01*
X123487369Y-106564443D01*
X123400529Y-106572346D01*
X123288342Y-106582555D01*
X123288339Y-106582556D01*
X123282203Y-106583114D01*
X123084572Y-106641280D01*
X122902002Y-106736726D01*
X122897201Y-106740586D01*
X122897198Y-106740588D01*
X122783126Y-106832304D01*
X122741447Y-106865815D01*
X122609024Y-107023630D01*
X122606056Y-107029028D01*
X122606053Y-107029033D01*
X122539080Y-107150858D01*
X122509776Y-107204162D01*
X122447484Y-107400532D01*
X122446798Y-107406649D01*
X122446797Y-107406653D01*
X122433591Y-107524391D01*
X122424520Y-107605262D01*
X118990500Y-107605262D01*
X118990500Y-106360000D01*
X132374318Y-106360000D01*
X132394956Y-106516762D01*
X132455464Y-106662841D01*
X132551718Y-106788282D01*
X132677159Y-106884536D01*
X132823238Y-106945044D01*
X132980000Y-106965682D01*
X132988188Y-106964604D01*
X133128574Y-106946122D01*
X133136762Y-106945044D01*
X133282841Y-106884536D01*
X133408282Y-106788282D01*
X133430140Y-106759796D01*
X133487478Y-106717929D01*
X133530103Y-106710500D01*
X135429897Y-106710500D01*
X135498018Y-106730502D01*
X135529860Y-106759796D01*
X135551718Y-106788282D01*
X135677159Y-106884536D01*
X135823238Y-106945044D01*
X135980000Y-106965682D01*
X135988188Y-106964604D01*
X136128574Y-106946122D01*
X136136762Y-106945044D01*
X136282841Y-106884536D01*
X136408282Y-106788282D01*
X136504536Y-106662841D01*
X136565044Y-106516762D01*
X136585682Y-106360000D01*
X136565044Y-106203238D01*
X136504536Y-106057159D01*
X136408282Y-105931718D01*
X136284728Y-105836912D01*
X146735354Y-105836912D01*
X146755992Y-105993674D01*
X146816500Y-106139753D01*
X146912754Y-106265194D01*
X147038195Y-106361448D01*
X147184274Y-106421956D01*
X147341036Y-106442594D01*
X147349224Y-106441516D01*
X147489610Y-106423034D01*
X147497798Y-106421956D01*
X147643877Y-106361448D01*
X147769318Y-106265194D01*
X147865572Y-106139753D01*
X147926080Y-105993674D01*
X147946718Y-105836912D01*
X147926080Y-105680150D01*
X147865572Y-105534071D01*
X147769318Y-105408630D01*
X147643877Y-105312376D01*
X147497798Y-105251868D01*
X147341036Y-105231230D01*
X147184274Y-105251868D01*
X147038195Y-105312376D01*
X146912754Y-105408630D01*
X146816500Y-105534071D01*
X146755992Y-105680150D01*
X146735354Y-105836912D01*
X136284728Y-105836912D01*
X136282841Y-105835464D01*
X136136762Y-105774956D01*
X135980000Y-105754318D01*
X135823238Y-105774956D01*
X135677159Y-105835464D01*
X135551718Y-105931718D01*
X135546695Y-105938264D01*
X135529860Y-105960204D01*
X135472522Y-106002071D01*
X135429897Y-106009500D01*
X133530103Y-106009500D01*
X133461982Y-105989498D01*
X133430140Y-105960204D01*
X133413305Y-105938264D01*
X133408282Y-105931718D01*
X133282841Y-105835464D01*
X133136762Y-105774956D01*
X132980000Y-105754318D01*
X132823238Y-105774956D01*
X132677159Y-105835464D01*
X132551718Y-105931718D01*
X132455464Y-106057159D01*
X132394956Y-106203238D01*
X132374318Y-106360000D01*
X118990500Y-106360000D01*
X118990500Y-102807966D01*
X122148257Y-102807966D01*
X122178565Y-102942446D01*
X122181645Y-102952275D01*
X122261770Y-103149603D01*
X122266413Y-103158794D01*
X122377694Y-103340388D01*
X122383777Y-103348699D01*
X122523213Y-103509667D01*
X122530580Y-103516883D01*
X122694434Y-103652916D01*
X122702881Y-103658831D01*
X122886756Y-103766279D01*
X122896042Y-103770729D01*
X123095001Y-103846703D01*
X123109866Y-103851022D01*
X123109289Y-103853008D01*
X123164260Y-103882082D01*
X123199110Y-103943936D01*
X123194988Y-104014813D01*
X123153201Y-104072209D01*
X123111930Y-104093228D01*
X123090489Y-104099538D01*
X123090484Y-104099540D01*
X123084572Y-104101280D01*
X122902002Y-104196726D01*
X122897201Y-104200586D01*
X122897198Y-104200588D01*
X122805225Y-104274536D01*
X122741447Y-104325815D01*
X122609024Y-104483630D01*
X122606056Y-104489028D01*
X122606053Y-104489033D01*
X122512743Y-104658765D01*
X122509776Y-104664162D01*
X122447484Y-104860532D01*
X122446798Y-104866649D01*
X122446797Y-104866653D01*
X122436135Y-104961713D01*
X122424520Y-105065262D01*
X122441759Y-105270553D01*
X122443458Y-105276478D01*
X122494206Y-105453456D01*
X122498544Y-105468586D01*
X122501359Y-105474063D01*
X122501360Y-105474066D01*
X122589897Y-105646341D01*
X122592712Y-105651818D01*
X122720677Y-105813270D01*
X122725370Y-105817264D01*
X122725371Y-105817265D01*
X122752662Y-105840491D01*
X122877564Y-105946791D01*
X122882942Y-105949797D01*
X122882944Y-105949798D01*
X122914563Y-105967469D01*
X123057398Y-106047297D01*
X123152238Y-106078113D01*
X123247471Y-106109056D01*
X123247475Y-106109057D01*
X123253329Y-106110959D01*
X123457894Y-106135351D01*
X123464029Y-106134879D01*
X123464031Y-106134879D01*
X123520039Y-106130569D01*
X123663300Y-106119546D01*
X123669230Y-106117890D01*
X123669232Y-106117890D01*
X123855797Y-106065800D01*
X123855796Y-106065800D01*
X123861725Y-106064145D01*
X123867214Y-106061372D01*
X123867220Y-106061370D01*
X124040116Y-105974033D01*
X124045610Y-105971258D01*
X124207951Y-105844424D01*
X124342564Y-105688472D01*
X124351626Y-105672521D01*
X124381056Y-105620714D01*
X124444323Y-105509344D01*
X124509351Y-105313863D01*
X124535171Y-105109474D01*
X124535583Y-105080000D01*
X124515480Y-104874970D01*
X124455935Y-104677749D01*
X124359218Y-104495849D01*
X124285859Y-104405902D01*
X124232906Y-104340975D01*
X124232903Y-104340972D01*
X124229011Y-104336200D01*
X124158292Y-104277696D01*
X124075025Y-104208811D01*
X124075021Y-104208809D01*
X124070275Y-104204882D01*
X123889055Y-104106897D01*
X123838183Y-104091150D01*
X123779025Y-104051899D01*
X123750477Y-103986895D01*
X123761605Y-103916776D01*
X123808876Y-103863804D01*
X123839235Y-103850099D01*
X123972255Y-103810191D01*
X123981842Y-103806433D01*
X124097036Y-103750000D01*
X132394318Y-103750000D01*
X132395396Y-103758188D01*
X132409301Y-103863804D01*
X132414956Y-103906762D01*
X132475464Y-104052841D01*
X132571718Y-104178282D01*
X132697159Y-104274536D01*
X132843238Y-104335044D01*
X132851426Y-104336122D01*
X132888289Y-104340975D01*
X133000000Y-104355682D01*
X133008188Y-104354604D01*
X133148574Y-104336122D01*
X133156762Y-104335044D01*
X133302841Y-104274536D01*
X133428282Y-104178282D01*
X133524536Y-104052841D01*
X133585044Y-103906762D01*
X133590700Y-103863804D01*
X133604604Y-103758188D01*
X133605682Y-103750000D01*
X133585044Y-103593238D01*
X133524536Y-103447159D01*
X133428282Y-103321718D01*
X133302841Y-103225464D01*
X133156762Y-103164956D01*
X133000000Y-103144318D01*
X132843238Y-103164956D01*
X132697159Y-103225464D01*
X132571718Y-103321718D01*
X132475464Y-103447159D01*
X132414956Y-103593238D01*
X132394318Y-103750000D01*
X124097036Y-103750000D01*
X124173095Y-103712739D01*
X124181945Y-103707464D01*
X124355328Y-103583792D01*
X124363200Y-103577139D01*
X124514052Y-103426812D01*
X124520730Y-103418965D01*
X124645003Y-103246020D01*
X124650313Y-103237183D01*
X124744670Y-103046267D01*
X124748469Y-103036672D01*
X124810377Y-102832910D01*
X124812555Y-102822837D01*
X124813986Y-102811962D01*
X124811775Y-102797778D01*
X124798617Y-102794000D01*
X122163225Y-102794000D01*
X122149694Y-102797973D01*
X122148257Y-102807966D01*
X118990500Y-102807966D01*
X118990500Y-102274183D01*
X122144389Y-102274183D01*
X122145912Y-102282607D01*
X122158292Y-102286000D01*
X123207885Y-102286000D01*
X123223124Y-102281525D01*
X123224329Y-102280135D01*
X123226000Y-102272452D01*
X123226000Y-102267885D01*
X123734000Y-102267885D01*
X123738475Y-102283124D01*
X123739865Y-102284329D01*
X123747548Y-102286000D01*
X124798344Y-102286000D01*
X124811875Y-102282027D01*
X124813180Y-102272947D01*
X124771214Y-102105875D01*
X124767894Y-102096124D01*
X124682972Y-101900814D01*
X124678105Y-101891739D01*
X124562426Y-101712926D01*
X124556136Y-101704757D01*
X124412806Y-101547240D01*
X124405273Y-101540215D01*
X124238139Y-101408222D01*
X124229552Y-101402517D01*
X124043117Y-101299599D01*
X124033705Y-101295369D01*
X123832959Y-101224280D01*
X123822988Y-101221646D01*
X123751837Y-101208972D01*
X123738540Y-101210432D01*
X123734000Y-101224989D01*
X123734000Y-102267885D01*
X123226000Y-102267885D01*
X123226000Y-101223102D01*
X123222082Y-101209758D01*
X123207806Y-101207771D01*
X123169324Y-101213660D01*
X123159288Y-101216051D01*
X122956868Y-101282212D01*
X122947359Y-101286209D01*
X122758463Y-101384542D01*
X122749738Y-101390036D01*
X122579433Y-101517905D01*
X122571726Y-101524748D01*
X122424590Y-101678717D01*
X122418104Y-101686727D01*
X122298098Y-101862649D01*
X122293000Y-101871623D01*
X122203338Y-102064783D01*
X122199775Y-102074470D01*
X122144389Y-102274183D01*
X118990500Y-102274183D01*
X118990500Y-99029748D01*
X122429500Y-99029748D01*
X122441133Y-99088231D01*
X122485448Y-99154552D01*
X122551769Y-99198867D01*
X122563938Y-99201288D01*
X122563939Y-99201288D01*
X122604184Y-99209293D01*
X122610252Y-99210500D01*
X124349748Y-99210500D01*
X124355816Y-99209293D01*
X124396061Y-99201288D01*
X124396062Y-99201288D01*
X124408231Y-99198867D01*
X124474552Y-99154552D01*
X124518867Y-99088231D01*
X124530500Y-99029748D01*
X124530500Y-97290252D01*
X124518867Y-97231769D01*
X124474552Y-97165448D01*
X124408231Y-97121133D01*
X124396062Y-97118712D01*
X124396061Y-97118712D01*
X124355816Y-97110707D01*
X124349748Y-97109500D01*
X122610252Y-97109500D01*
X122604184Y-97110707D01*
X122563939Y-97118712D01*
X122563938Y-97118712D01*
X122551769Y-97121133D01*
X122485448Y-97165448D01*
X122441133Y-97231769D01*
X122429500Y-97290252D01*
X122429500Y-99029748D01*
X118990500Y-99029748D01*
X118990500Y-95605262D01*
X122424520Y-95605262D01*
X122441759Y-95810553D01*
X122498544Y-96008586D01*
X122501359Y-96014063D01*
X122501360Y-96014066D01*
X122522247Y-96054707D01*
X122592712Y-96191818D01*
X122720677Y-96353270D01*
X122877564Y-96486791D01*
X123057398Y-96587297D01*
X123152238Y-96618113D01*
X123247471Y-96649056D01*
X123247475Y-96649057D01*
X123253329Y-96650959D01*
X123457894Y-96675351D01*
X123464029Y-96674879D01*
X123464031Y-96674879D01*
X123520039Y-96670569D01*
X123663300Y-96659546D01*
X123669230Y-96657890D01*
X123669232Y-96657890D01*
X123855797Y-96605800D01*
X123855796Y-96605800D01*
X123861725Y-96604145D01*
X123867214Y-96601372D01*
X123867220Y-96601370D01*
X124040116Y-96514033D01*
X124045610Y-96511258D01*
X124207951Y-96384424D01*
X124342564Y-96228472D01*
X124363387Y-96191818D01*
X124441276Y-96054707D01*
X124444323Y-96049344D01*
X124509351Y-95853863D01*
X124535171Y-95649474D01*
X124535583Y-95620000D01*
X124515480Y-95414970D01*
X124455935Y-95217749D01*
X124359218Y-95035849D01*
X124285859Y-94945902D01*
X124232906Y-94880975D01*
X124232903Y-94880972D01*
X124229011Y-94876200D01*
X124222173Y-94870543D01*
X124209429Y-94860000D01*
X126374318Y-94860000D01*
X126394956Y-95016762D01*
X126455464Y-95162841D01*
X126551718Y-95288282D01*
X126677159Y-95384536D01*
X126823238Y-95445044D01*
X126980000Y-95465682D01*
X126988188Y-95464604D01*
X127128574Y-95446122D01*
X127136762Y-95445044D01*
X127282841Y-95384536D01*
X127408282Y-95288282D01*
X127504536Y-95162841D01*
X127565044Y-95016762D01*
X127585682Y-94860000D01*
X127585643Y-94859701D01*
X127604606Y-94795117D01*
X127621509Y-94774143D01*
X128648247Y-93747405D01*
X128710559Y-93713379D01*
X128737342Y-93710500D01*
X133722658Y-93710500D01*
X133790779Y-93730502D01*
X133811753Y-93747405D01*
X142636247Y-102571899D01*
X142648325Y-102586853D01*
X142651557Y-102590405D01*
X142657205Y-102599152D01*
X142665382Y-102605598D01*
X142681116Y-102618002D01*
X142685051Y-102621499D01*
X142685139Y-102621395D01*
X142689098Y-102624750D01*
X142692776Y-102628428D01*
X142697001Y-102631447D01*
X142697009Y-102631454D01*
X142707110Y-102638672D01*
X142711857Y-102642236D01*
X142748841Y-102671392D01*
X142756817Y-102674193D01*
X142763699Y-102679111D01*
X142808866Y-102692619D01*
X142814472Y-102694441D01*
X142851453Y-102707428D01*
X142851459Y-102707429D01*
X142858936Y-102710055D01*
X142864074Y-102710500D01*
X142866793Y-102710500D01*
X142868975Y-102710595D01*
X142869510Y-102710755D01*
X142869509Y-102710782D01*
X142869627Y-102710789D01*
X142875494Y-102712544D01*
X142925049Y-102710597D01*
X142929996Y-102710500D01*
X143429897Y-102710500D01*
X143498018Y-102730502D01*
X143529860Y-102759796D01*
X143551718Y-102788282D01*
X143558264Y-102793305D01*
X143577371Y-102807966D01*
X143677159Y-102884536D01*
X143823238Y-102945044D01*
X143980000Y-102965682D01*
X143988188Y-102964604D01*
X144128574Y-102946122D01*
X144136762Y-102945044D01*
X144282841Y-102884536D01*
X144382629Y-102807966D01*
X144401736Y-102793305D01*
X144408282Y-102788282D01*
X144504536Y-102662841D01*
X144565044Y-102516762D01*
X144585682Y-102360000D01*
X144565044Y-102203238D01*
X144504536Y-102057159D01*
X144412108Y-101936704D01*
X144386508Y-101870483D01*
X144400773Y-101800935D01*
X144412108Y-101783296D01*
X144439804Y-101747202D01*
X144504536Y-101662841D01*
X144565044Y-101516762D01*
X144585682Y-101360000D01*
X144565044Y-101203238D01*
X144504536Y-101057159D01*
X144408282Y-100931718D01*
X144282841Y-100835464D01*
X144136762Y-100774956D01*
X143980000Y-100754318D01*
X143913157Y-100763118D01*
X143843010Y-100752179D01*
X143807617Y-100727291D01*
X142181188Y-99100862D01*
X164225497Y-99100862D01*
X164226737Y-99108078D01*
X164226737Y-99108080D01*
X164242753Y-99201288D01*
X164255134Y-99273340D01*
X164323654Y-99434373D01*
X164427383Y-99575324D01*
X164432961Y-99580063D01*
X164432964Y-99580066D01*
X164555176Y-99683893D01*
X164555180Y-99683896D01*
X164560755Y-99688632D01*
X164641572Y-99729899D01*
X164657687Y-99738128D01*
X164716616Y-99768219D01*
X164723721Y-99769958D01*
X164723725Y-99769959D01*
X164804858Y-99789811D01*
X164886606Y-99809815D01*
X164892206Y-99810162D01*
X164892210Y-99810163D01*
X164895709Y-99810380D01*
X164895718Y-99810380D01*
X164897648Y-99810500D01*
X165023822Y-99810500D01*
X165115369Y-99799827D01*
X165146556Y-99796191D01*
X165146558Y-99796191D01*
X165153828Y-99795343D01*
X165160705Y-99792847D01*
X165160708Y-99792846D01*
X165311452Y-99738128D01*
X165318331Y-99735631D01*
X165464685Y-99639677D01*
X165585040Y-99512628D01*
X165672939Y-99361298D01*
X165723667Y-99193807D01*
X165734503Y-99019138D01*
X165719788Y-98933498D01*
X165706106Y-98853875D01*
X165706105Y-98853873D01*
X165704866Y-98846660D01*
X165636346Y-98685627D01*
X165532617Y-98544676D01*
X165527039Y-98539937D01*
X165527036Y-98539934D01*
X165404824Y-98436107D01*
X165404820Y-98436104D01*
X165399245Y-98431368D01*
X165315062Y-98388382D01*
X165249900Y-98355108D01*
X165249898Y-98355107D01*
X165243384Y-98351781D01*
X165236279Y-98350042D01*
X165236275Y-98350041D01*
X165142741Y-98327154D01*
X165073394Y-98310185D01*
X165067794Y-98309838D01*
X165067790Y-98309837D01*
X165064291Y-98309620D01*
X165064282Y-98309620D01*
X165062352Y-98309500D01*
X164936178Y-98309500D01*
X164844631Y-98320173D01*
X164813444Y-98323809D01*
X164813442Y-98323809D01*
X164806172Y-98324657D01*
X164799295Y-98327153D01*
X164799292Y-98327154D01*
X164722281Y-98355108D01*
X164641669Y-98384369D01*
X164495315Y-98480323D01*
X164374960Y-98607372D01*
X164287061Y-98758702D01*
X164236333Y-98926193D01*
X164225497Y-99100862D01*
X142181188Y-99100862D01*
X137940326Y-94860000D01*
X141874318Y-94860000D01*
X141894956Y-95016762D01*
X141955464Y-95162841D01*
X142051718Y-95288282D01*
X142177159Y-95384536D01*
X142323238Y-95445044D01*
X142480000Y-95465682D01*
X142488188Y-95464604D01*
X142628574Y-95446122D01*
X142636762Y-95445044D01*
X142782841Y-95384536D01*
X142908282Y-95288282D01*
X143004536Y-95162841D01*
X143065044Y-95016762D01*
X143085682Y-94860000D01*
X143080995Y-94824400D01*
X143091934Y-94754254D01*
X143116822Y-94718860D01*
X143134820Y-94700862D01*
X164225497Y-94700862D01*
X164226737Y-94708078D01*
X164226737Y-94708080D01*
X164245245Y-94815790D01*
X164255134Y-94873340D01*
X164323654Y-95034373D01*
X164427383Y-95175324D01*
X164432961Y-95180063D01*
X164432964Y-95180066D01*
X164555176Y-95283893D01*
X164555180Y-95283896D01*
X164560755Y-95288632D01*
X164641572Y-95329899D01*
X164657687Y-95338128D01*
X164716616Y-95368219D01*
X164723721Y-95369958D01*
X164723725Y-95369959D01*
X164796212Y-95387696D01*
X164886606Y-95409815D01*
X164892206Y-95410162D01*
X164892210Y-95410163D01*
X164895709Y-95410380D01*
X164895718Y-95410380D01*
X164897648Y-95410500D01*
X165023822Y-95410500D01*
X165115369Y-95399827D01*
X165146556Y-95396191D01*
X165146558Y-95396191D01*
X165153828Y-95395343D01*
X165160705Y-95392847D01*
X165160708Y-95392846D01*
X165311452Y-95338128D01*
X165318331Y-95335631D01*
X165464685Y-95239677D01*
X165585040Y-95112628D01*
X165672939Y-94961298D01*
X165723667Y-94793807D01*
X165734503Y-94619138D01*
X165728695Y-94585333D01*
X165706106Y-94453875D01*
X165706105Y-94453873D01*
X165704866Y-94446660D01*
X165636346Y-94285627D01*
X165630819Y-94278116D01*
X165590388Y-94223178D01*
X165532617Y-94144676D01*
X165527039Y-94139937D01*
X165527036Y-94139934D01*
X165404824Y-94036107D01*
X165404820Y-94036104D01*
X165399245Y-94031368D01*
X165308621Y-93985093D01*
X165249900Y-93955108D01*
X165249898Y-93955107D01*
X165243384Y-93951781D01*
X165236279Y-93950042D01*
X165236275Y-93950041D01*
X165142741Y-93927154D01*
X165073394Y-93910185D01*
X165067794Y-93909838D01*
X165067790Y-93909837D01*
X165064291Y-93909620D01*
X165064282Y-93909620D01*
X165062352Y-93909500D01*
X164936178Y-93909500D01*
X164844631Y-93920173D01*
X164813444Y-93923809D01*
X164813442Y-93923809D01*
X164806172Y-93924657D01*
X164799295Y-93927153D01*
X164799292Y-93927154D01*
X164722281Y-93955108D01*
X164641669Y-93984369D01*
X164495315Y-94080323D01*
X164374960Y-94207372D01*
X164287061Y-94358702D01*
X164236333Y-94526193D01*
X164225497Y-94700862D01*
X143134820Y-94700862D01*
X145335682Y-92500000D01*
X148394318Y-92500000D01*
X148414956Y-92656762D01*
X148475464Y-92802841D01*
X148571718Y-92928282D01*
X148578264Y-92933305D01*
X148607918Y-92956059D01*
X148697159Y-93024536D01*
X148843238Y-93085044D01*
X149000000Y-93105682D01*
X149008188Y-93104604D01*
X149148574Y-93086122D01*
X149156762Y-93085044D01*
X149302841Y-93024536D01*
X149392082Y-92956059D01*
X149421736Y-92933305D01*
X149428282Y-92928282D01*
X149524536Y-92802841D01*
X149585044Y-92656762D01*
X149605682Y-92500000D01*
X149585044Y-92343238D01*
X149524536Y-92197159D01*
X149428282Y-92071718D01*
X149302841Y-91975464D01*
X149156762Y-91914956D01*
X149000000Y-91894318D01*
X148843238Y-91914956D01*
X148697159Y-91975464D01*
X148571718Y-92071718D01*
X148475464Y-92197159D01*
X148414956Y-92343238D01*
X148394318Y-92500000D01*
X145335682Y-92500000D01*
X150965420Y-86870262D01*
X154659520Y-86870262D01*
X154660036Y-86876406D01*
X154671549Y-87013504D01*
X154676759Y-87075553D01*
X154733544Y-87273586D01*
X154736359Y-87279063D01*
X154736360Y-87279066D01*
X154757247Y-87319707D01*
X154827712Y-87456818D01*
X154955677Y-87618270D01*
X155112564Y-87751791D01*
X155292398Y-87852297D01*
X155376280Y-87879552D01*
X155482471Y-87914056D01*
X155482475Y-87914057D01*
X155488329Y-87915959D01*
X155692894Y-87940351D01*
X155699029Y-87939879D01*
X155699031Y-87939879D01*
X155771625Y-87934293D01*
X155898300Y-87924546D01*
X155904230Y-87922890D01*
X155904232Y-87922890D01*
X156090797Y-87870800D01*
X156090796Y-87870800D01*
X156096725Y-87869145D01*
X156102214Y-87866372D01*
X156102220Y-87866370D01*
X156275116Y-87779033D01*
X156280610Y-87776258D01*
X156442951Y-87649424D01*
X156577564Y-87493472D01*
X156598387Y-87456818D01*
X156676276Y-87319707D01*
X156679323Y-87314344D01*
X156744351Y-87118863D01*
X156770171Y-86914474D01*
X156770583Y-86885000D01*
X156750480Y-86679970D01*
X156690935Y-86482749D01*
X156594218Y-86300849D01*
X156481661Y-86162841D01*
X156467906Y-86145975D01*
X156467903Y-86145972D01*
X156464011Y-86141200D01*
X156446786Y-86126950D01*
X156310025Y-86013811D01*
X156310021Y-86013809D01*
X156305275Y-86009882D01*
X156124055Y-85911897D01*
X155927254Y-85850977D01*
X155921129Y-85850333D01*
X155921128Y-85850333D01*
X155728498Y-85830087D01*
X155728496Y-85830087D01*
X155722369Y-85829443D01*
X155635529Y-85837346D01*
X155523342Y-85847555D01*
X155523339Y-85847556D01*
X155517203Y-85848114D01*
X155319572Y-85906280D01*
X155137002Y-86001726D01*
X155132201Y-86005586D01*
X155132198Y-86005588D01*
X155087850Y-86041245D01*
X154976447Y-86130815D01*
X154844024Y-86288630D01*
X154841056Y-86294028D01*
X154841053Y-86294033D01*
X154807268Y-86355489D01*
X154744776Y-86469162D01*
X154682484Y-86665532D01*
X154681798Y-86671649D01*
X154681797Y-86671653D01*
X154667091Y-86802761D01*
X154659520Y-86870262D01*
X150965420Y-86870262D01*
X154302788Y-83532894D01*
X154365100Y-83498868D01*
X154391883Y-83495989D01*
X154785808Y-83495989D01*
X154853929Y-83515991D01*
X154900422Y-83569647D01*
X154910526Y-83639921D01*
X154882329Y-83702980D01*
X154844024Y-83748630D01*
X154841056Y-83754028D01*
X154841053Y-83754033D01*
X154772094Y-83879470D01*
X154744776Y-83929162D01*
X154682484Y-84125532D01*
X154681798Y-84131649D01*
X154681797Y-84131653D01*
X154666203Y-84270680D01*
X154659520Y-84330262D01*
X154660036Y-84336406D01*
X154675902Y-84525342D01*
X154676759Y-84535553D01*
X154678458Y-84541478D01*
X154724395Y-84701678D01*
X154733544Y-84733586D01*
X154736359Y-84739063D01*
X154736360Y-84739066D01*
X154812962Y-84888117D01*
X154827712Y-84916818D01*
X154955677Y-85078270D01*
X154960370Y-85082264D01*
X154960371Y-85082265D01*
X155034541Y-85145388D01*
X155112564Y-85211791D01*
X155117942Y-85214797D01*
X155117944Y-85214798D01*
X155148387Y-85231812D01*
X155292398Y-85312297D01*
X155353973Y-85332304D01*
X155482471Y-85374056D01*
X155482475Y-85374057D01*
X155488329Y-85375959D01*
X155692894Y-85400351D01*
X155699029Y-85399879D01*
X155699031Y-85399879D01*
X155755039Y-85395569D01*
X155898300Y-85384546D01*
X155904230Y-85382890D01*
X155904232Y-85382890D01*
X156056088Y-85340491D01*
X156096725Y-85329145D01*
X156102214Y-85326372D01*
X156102220Y-85326370D01*
X156275116Y-85239033D01*
X156280610Y-85236258D01*
X156296345Y-85223965D01*
X156438101Y-85113213D01*
X156442951Y-85109424D01*
X156448954Y-85102470D01*
X156573540Y-84958134D01*
X156573540Y-84958133D01*
X156577564Y-84953472D01*
X156598387Y-84916818D01*
X156620568Y-84877771D01*
X156679323Y-84774344D01*
X156690121Y-84741885D01*
X156703496Y-84701678D01*
X156743978Y-84643354D01*
X156809566Y-84616175D01*
X156879437Y-84628770D01*
X156931406Y-84677141D01*
X156945971Y-84713751D01*
X156953564Y-84747444D01*
X156956645Y-84757275D01*
X157036770Y-84954603D01*
X157041413Y-84963794D01*
X157152694Y-85145388D01*
X157158777Y-85153699D01*
X157298213Y-85314667D01*
X157305580Y-85321883D01*
X157469434Y-85457916D01*
X157477881Y-85463831D01*
X157661756Y-85571279D01*
X157671043Y-85575729D01*
X157710484Y-85590790D01*
X157766987Y-85633778D01*
X157791280Y-85700489D01*
X157775650Y-85769743D01*
X157725059Y-85819554D01*
X157665535Y-85834500D01*
X157385252Y-85834500D01*
X157379184Y-85835707D01*
X157338939Y-85843712D01*
X157338938Y-85843712D01*
X157326769Y-85846133D01*
X157260448Y-85890448D01*
X157216133Y-85956769D01*
X157204500Y-86015252D01*
X157204500Y-87754748D01*
X157205707Y-87760816D01*
X157209331Y-87779033D01*
X157216133Y-87813231D01*
X157260448Y-87879552D01*
X157326769Y-87923867D01*
X157338938Y-87926288D01*
X157338939Y-87926288D01*
X157379184Y-87934293D01*
X157385252Y-87935500D01*
X159124748Y-87935500D01*
X159130816Y-87934293D01*
X159171061Y-87926288D01*
X159171062Y-87926288D01*
X159183231Y-87923867D01*
X159249552Y-87879552D01*
X159293867Y-87813231D01*
X159300670Y-87779033D01*
X159304293Y-87760816D01*
X159305500Y-87754748D01*
X159305500Y-86015252D01*
X159293867Y-85956769D01*
X159249552Y-85890448D01*
X159183231Y-85846133D01*
X159171062Y-85843712D01*
X159171061Y-85843712D01*
X159130816Y-85835707D01*
X159124748Y-85834500D01*
X158845107Y-85834500D01*
X158776986Y-85814498D01*
X158730493Y-85760842D01*
X158720389Y-85690568D01*
X158749883Y-85625988D01*
X158789675Y-85595349D01*
X158948090Y-85517742D01*
X158956945Y-85512464D01*
X159130328Y-85388792D01*
X159138200Y-85382139D01*
X159289052Y-85231812D01*
X159295730Y-85223965D01*
X159420003Y-85051020D01*
X159425313Y-85042183D01*
X159519670Y-84851267D01*
X159523469Y-84841672D01*
X159585377Y-84637910D01*
X159587555Y-84627837D01*
X159588986Y-84616962D01*
X159586775Y-84602778D01*
X159573617Y-84599000D01*
X158127000Y-84599000D01*
X158058879Y-84578998D01*
X158012386Y-84525342D01*
X158001000Y-84473000D01*
X158001000Y-84217000D01*
X158021002Y-84148879D01*
X158074658Y-84102386D01*
X158127000Y-84091000D01*
X159573344Y-84091000D01*
X159586875Y-84087027D01*
X159588180Y-84077947D01*
X159546214Y-83910875D01*
X159542894Y-83901124D01*
X159457972Y-83705814D01*
X159453105Y-83696739D01*
X159337426Y-83517926D01*
X159331136Y-83509757D01*
X159187806Y-83352240D01*
X159180273Y-83345215D01*
X159013139Y-83213222D01*
X159004552Y-83207517D01*
X158818117Y-83104599D01*
X158808705Y-83100369D01*
X158617031Y-83032493D01*
X158559495Y-82990899D01*
X158533579Y-82924801D01*
X158547513Y-82855185D01*
X158596872Y-82804154D01*
X158625206Y-82792362D01*
X158630790Y-82790803D01*
X158630799Y-82790800D01*
X158636725Y-82789145D01*
X158642214Y-82786372D01*
X158642220Y-82786370D01*
X158774952Y-82719322D01*
X158820610Y-82696258D01*
X158982951Y-82569424D01*
X159117564Y-82413472D01*
X159138387Y-82376818D01*
X159182669Y-82298867D01*
X159219323Y-82234344D01*
X159284351Y-82038863D01*
X159310171Y-81834474D01*
X159310583Y-81805000D01*
X159290480Y-81599970D01*
X159230935Y-81402749D01*
X159134218Y-81220849D01*
X159060859Y-81130902D01*
X159007906Y-81065975D01*
X159007903Y-81065972D01*
X159004011Y-81061200D01*
X158981847Y-81042864D01*
X158850025Y-80933811D01*
X158850021Y-80933809D01*
X158845275Y-80929882D01*
X158664055Y-80831897D01*
X158467254Y-80770977D01*
X158461129Y-80770333D01*
X158461128Y-80770333D01*
X158268498Y-80750087D01*
X158268496Y-80750087D01*
X158262369Y-80749443D01*
X158175529Y-80757346D01*
X158063342Y-80767555D01*
X158063339Y-80767556D01*
X158057203Y-80768114D01*
X157859572Y-80826280D01*
X157677002Y-80921726D01*
X157672201Y-80925586D01*
X157672198Y-80925588D01*
X157661971Y-80933811D01*
X157516447Y-81050815D01*
X157384024Y-81208630D01*
X157381056Y-81214028D01*
X157381053Y-81214033D01*
X157302587Y-81356763D01*
X157284776Y-81389162D01*
X157222484Y-81585532D01*
X157221798Y-81591649D01*
X157221797Y-81591653D01*
X157200207Y-81784137D01*
X157199520Y-81790262D01*
X157216759Y-81995553D01*
X157218458Y-82001478D01*
X157273544Y-82193586D01*
X157271863Y-82194068D01*
X157277585Y-82256488D01*
X157243048Y-82321270D01*
X156806234Y-82758084D01*
X156743922Y-82792110D01*
X156717139Y-82794989D01*
X156520172Y-82794989D01*
X156452051Y-82774987D01*
X156405558Y-82721331D01*
X156395454Y-82651057D01*
X156424948Y-82586477D01*
X156434010Y-82577864D01*
X156433633Y-82577468D01*
X156438102Y-82573213D01*
X156442951Y-82569424D01*
X156577564Y-82413472D01*
X156598387Y-82376818D01*
X156642669Y-82298867D01*
X156679323Y-82234344D01*
X156744351Y-82038863D01*
X156770171Y-81834474D01*
X156770583Y-81805000D01*
X156750480Y-81599970D01*
X156690935Y-81402749D01*
X156594218Y-81220849D01*
X156520859Y-81130902D01*
X156467906Y-81065975D01*
X156467903Y-81065972D01*
X156464011Y-81061200D01*
X156441847Y-81042864D01*
X156310025Y-80933811D01*
X156310021Y-80933809D01*
X156305275Y-80929882D01*
X156124055Y-80831897D01*
X155927254Y-80770977D01*
X155921129Y-80770333D01*
X155921128Y-80770333D01*
X155728498Y-80750087D01*
X155728496Y-80750087D01*
X155722369Y-80749443D01*
X155635529Y-80757346D01*
X155523342Y-80767555D01*
X155523339Y-80767556D01*
X155517203Y-80768114D01*
X155319572Y-80826280D01*
X155137002Y-80921726D01*
X155132201Y-80925586D01*
X155132198Y-80925588D01*
X155121971Y-80933811D01*
X154976447Y-81050815D01*
X154844024Y-81208630D01*
X154841056Y-81214028D01*
X154841053Y-81214033D01*
X154762587Y-81356763D01*
X154744776Y-81389162D01*
X154682484Y-81585532D01*
X154681798Y-81591649D01*
X154681797Y-81591653D01*
X154660207Y-81784137D01*
X154659520Y-81790262D01*
X154676759Y-81995553D01*
X154678458Y-82001478D01*
X154728519Y-82176061D01*
X154733544Y-82193586D01*
X154736359Y-82199063D01*
X154736360Y-82199066D01*
X154799164Y-82321270D01*
X154827712Y-82376818D01*
X154955677Y-82538270D01*
X154960370Y-82542264D01*
X154960371Y-82542265D01*
X154996526Y-82573035D01*
X155035439Y-82632418D01*
X155036070Y-82703411D01*
X154998219Y-82763476D01*
X154933902Y-82793542D01*
X154914863Y-82794989D01*
X154245335Y-82794989D01*
X154226236Y-82792956D01*
X154221428Y-82792729D01*
X154211250Y-82790538D01*
X154185870Y-82793542D01*
X154181020Y-82794116D01*
X154175765Y-82794426D01*
X154175776Y-82794561D01*
X154170598Y-82794989D01*
X154165396Y-82794989D01*
X154148026Y-82797880D01*
X154142155Y-82798716D01*
X154105711Y-82803029D01*
X154105709Y-82803030D01*
X154095372Y-82804253D01*
X154087751Y-82807912D01*
X154079408Y-82809301D01*
X154070244Y-82814246D01*
X154070243Y-82814246D01*
X154037939Y-82831676D01*
X154032649Y-82834371D01*
X153997331Y-82851330D01*
X153997324Y-82851334D01*
X153990184Y-82854763D01*
X153986237Y-82858081D01*
X153984302Y-82860016D01*
X153982707Y-82861479D01*
X153982217Y-82861743D01*
X153982198Y-82861723D01*
X153982109Y-82861802D01*
X153976717Y-82864711D01*
X153969647Y-82872359D01*
X153969646Y-82872360D01*
X153943056Y-82901125D01*
X153939627Y-82904691D01*
X142621140Y-94223178D01*
X142558828Y-94257204D01*
X142515601Y-94259005D01*
X142480000Y-94254318D01*
X142323238Y-94274956D01*
X142177159Y-94335464D01*
X142051718Y-94431718D01*
X142046695Y-94438264D01*
X142040253Y-94446660D01*
X141955464Y-94557159D01*
X141894956Y-94703238D01*
X141874318Y-94860000D01*
X137940326Y-94860000D01*
X136018899Y-92938573D01*
X136005390Y-92919284D01*
X136004064Y-92920212D01*
X135982456Y-92889353D01*
X135976550Y-92880082D01*
X135963218Y-92856991D01*
X135957705Y-92847442D01*
X135928828Y-92823212D01*
X135920726Y-92815786D01*
X135524214Y-92419274D01*
X135516787Y-92411170D01*
X135499644Y-92390740D01*
X135499645Y-92390740D01*
X135492558Y-92382295D01*
X135483009Y-92376782D01*
X135459918Y-92363450D01*
X135450647Y-92357544D01*
X135428818Y-92342259D01*
X135419787Y-92335935D01*
X135409137Y-92333081D01*
X135405969Y-92331604D01*
X135402693Y-92330412D01*
X135393148Y-92324901D01*
X135359404Y-92318951D01*
X135356045Y-92318359D01*
X135345318Y-92315981D01*
X135308910Y-92306225D01*
X135297925Y-92307186D01*
X135297923Y-92307186D01*
X135271375Y-92309509D01*
X135260393Y-92309989D01*
X128224221Y-92309989D01*
X128213239Y-92309509D01*
X128186691Y-92307186D01*
X128186689Y-92307186D01*
X128175704Y-92306225D01*
X128139296Y-92315981D01*
X128128569Y-92318359D01*
X128125210Y-92318951D01*
X128091466Y-92324901D01*
X128081921Y-92330412D01*
X128078645Y-92331604D01*
X128075477Y-92333081D01*
X128064827Y-92335935D01*
X128055796Y-92342259D01*
X128033967Y-92357544D01*
X128024696Y-92363450D01*
X128001605Y-92376782D01*
X127992056Y-92382295D01*
X127984970Y-92390740D01*
X127967826Y-92411171D01*
X127960400Y-92419274D01*
X127152383Y-93227291D01*
X127090071Y-93261317D01*
X127046843Y-93263118D01*
X126980000Y-93254318D01*
X126823238Y-93274956D01*
X126677159Y-93335464D01*
X126551718Y-93431718D01*
X126455464Y-93557159D01*
X126394956Y-93703238D01*
X126374318Y-93860000D01*
X126394956Y-94016762D01*
X126398116Y-94024391D01*
X126401006Y-94031368D01*
X126455464Y-94162841D01*
X126460491Y-94169392D01*
X126547892Y-94283296D01*
X126573492Y-94349517D01*
X126559227Y-94419065D01*
X126547892Y-94436704D01*
X126540253Y-94446660D01*
X126455464Y-94557159D01*
X126394956Y-94703238D01*
X126374318Y-94860000D01*
X124209429Y-94860000D01*
X124075025Y-94748811D01*
X124075021Y-94748809D01*
X124070275Y-94744882D01*
X123889055Y-94646897D01*
X123692254Y-94585977D01*
X123686129Y-94585333D01*
X123686128Y-94585333D01*
X123493498Y-94565087D01*
X123493496Y-94565087D01*
X123487369Y-94564443D01*
X123400529Y-94572346D01*
X123288342Y-94582555D01*
X123288339Y-94582556D01*
X123282203Y-94583114D01*
X123084572Y-94641280D01*
X122902002Y-94736726D01*
X122897201Y-94740586D01*
X122897198Y-94740588D01*
X122758863Y-94851812D01*
X122741447Y-94865815D01*
X122609024Y-95023630D01*
X122606056Y-95029028D01*
X122606053Y-95029033D01*
X122525630Y-95175324D01*
X122509776Y-95204162D01*
X122447484Y-95400532D01*
X122446798Y-95406649D01*
X122446797Y-95406653D01*
X122442491Y-95445044D01*
X122424520Y-95605262D01*
X118990500Y-95605262D01*
X118990500Y-90807966D01*
X122148257Y-90807966D01*
X122178565Y-90942446D01*
X122181645Y-90952275D01*
X122261770Y-91149603D01*
X122266413Y-91158794D01*
X122377694Y-91340388D01*
X122383777Y-91348699D01*
X122523213Y-91509667D01*
X122530580Y-91516883D01*
X122694434Y-91652916D01*
X122702881Y-91658831D01*
X122886756Y-91766279D01*
X122896042Y-91770729D01*
X123095001Y-91846703D01*
X123109866Y-91851022D01*
X123109289Y-91853008D01*
X123164260Y-91882082D01*
X123199110Y-91943936D01*
X123194988Y-92014813D01*
X123153201Y-92072209D01*
X123111930Y-92093228D01*
X123090489Y-92099538D01*
X123090484Y-92099540D01*
X123084572Y-92101280D01*
X122902002Y-92196726D01*
X122897201Y-92200586D01*
X122897198Y-92200588D01*
X122753679Y-92315980D01*
X122741447Y-92325815D01*
X122609024Y-92483630D01*
X122606056Y-92489028D01*
X122606053Y-92489033D01*
X122513844Y-92656762D01*
X122509776Y-92664162D01*
X122507913Y-92670035D01*
X122463707Y-92809392D01*
X122447484Y-92860532D01*
X122446798Y-92866649D01*
X122446797Y-92866653D01*
X122428734Y-93027696D01*
X122424520Y-93065262D01*
X122425036Y-93071406D01*
X122441135Y-93263118D01*
X122441759Y-93270553D01*
X122498544Y-93468586D01*
X122501359Y-93474063D01*
X122501360Y-93474066D01*
X122572358Y-93612213D01*
X122592712Y-93651818D01*
X122720677Y-93813270D01*
X122725370Y-93817264D01*
X122725371Y-93817265D01*
X122855787Y-93928257D01*
X122877564Y-93946791D01*
X122882942Y-93949797D01*
X122882944Y-93949798D01*
X122892445Y-93955108D01*
X123057398Y-94047297D01*
X123146694Y-94076311D01*
X123247471Y-94109056D01*
X123247475Y-94109057D01*
X123253329Y-94110959D01*
X123457894Y-94135351D01*
X123464029Y-94134879D01*
X123464031Y-94134879D01*
X123520039Y-94130569D01*
X123663300Y-94119546D01*
X123669230Y-94117890D01*
X123669232Y-94117890D01*
X123855797Y-94065800D01*
X123855796Y-94065800D01*
X123861725Y-94064145D01*
X123867214Y-94061372D01*
X123867220Y-94061370D01*
X124018221Y-93985093D01*
X124045610Y-93971258D01*
X124207951Y-93844424D01*
X124226080Y-93823422D01*
X124338540Y-93693134D01*
X124338540Y-93693133D01*
X124342564Y-93688472D01*
X124357125Y-93662841D01*
X124417289Y-93556932D01*
X124444323Y-93509344D01*
X124509351Y-93313863D01*
X124535171Y-93109474D01*
X124535421Y-93091572D01*
X124535534Y-93083522D01*
X124535534Y-93083518D01*
X124535583Y-93080000D01*
X124515480Y-92874970D01*
X124455935Y-92677749D01*
X124359218Y-92495849D01*
X124273493Y-92390740D01*
X124232906Y-92340975D01*
X124232903Y-92340972D01*
X124229011Y-92336200D01*
X124224141Y-92332171D01*
X124075025Y-92208811D01*
X124075021Y-92208809D01*
X124070275Y-92204882D01*
X123889055Y-92106897D01*
X123838183Y-92091150D01*
X123779025Y-92051899D01*
X123750477Y-91986895D01*
X123761605Y-91916776D01*
X123808876Y-91863804D01*
X123839235Y-91850099D01*
X123972255Y-91810191D01*
X123981842Y-91806433D01*
X124173095Y-91712739D01*
X124181945Y-91707464D01*
X124355328Y-91583792D01*
X124363200Y-91577139D01*
X124514052Y-91426812D01*
X124520730Y-91418965D01*
X124645003Y-91246020D01*
X124650313Y-91237183D01*
X124744670Y-91046267D01*
X124748469Y-91036672D01*
X124810377Y-90832910D01*
X124812555Y-90822837D01*
X124813986Y-90811962D01*
X124811775Y-90797778D01*
X124798617Y-90794000D01*
X122163225Y-90794000D01*
X122149694Y-90797973D01*
X122148257Y-90807966D01*
X118990500Y-90807966D01*
X118990500Y-90274183D01*
X122144389Y-90274183D01*
X122145912Y-90282607D01*
X122158292Y-90286000D01*
X123207885Y-90286000D01*
X123223124Y-90281525D01*
X123224329Y-90280135D01*
X123226000Y-90272452D01*
X123226000Y-90267885D01*
X123734000Y-90267885D01*
X123738475Y-90283124D01*
X123739865Y-90284329D01*
X123747548Y-90286000D01*
X124798344Y-90286000D01*
X124811875Y-90282027D01*
X124813180Y-90272947D01*
X124771214Y-90105875D01*
X124767894Y-90096124D01*
X124682972Y-89900814D01*
X124678105Y-89891739D01*
X124657572Y-89860000D01*
X137374318Y-89860000D01*
X137394956Y-90016762D01*
X137455464Y-90162841D01*
X137551718Y-90288282D01*
X137677159Y-90384536D01*
X137823238Y-90445044D01*
X137980000Y-90465682D01*
X137988188Y-90464604D01*
X138128574Y-90446122D01*
X138136762Y-90445044D01*
X138282841Y-90384536D01*
X138408282Y-90288282D01*
X138504536Y-90162841D01*
X138565044Y-90016762D01*
X138585682Y-89860000D01*
X138565044Y-89703238D01*
X138504536Y-89557159D01*
X138408282Y-89431718D01*
X138314817Y-89360000D01*
X142374318Y-89360000D01*
X142394956Y-89516762D01*
X142455464Y-89662841D01*
X142551718Y-89788282D01*
X142677159Y-89884536D01*
X142823238Y-89945044D01*
X142980000Y-89965682D01*
X142988188Y-89964604D01*
X143128574Y-89946122D01*
X143136762Y-89945044D01*
X143282841Y-89884536D01*
X143408282Y-89788282D01*
X143449323Y-89734796D01*
X143506661Y-89692929D01*
X143549286Y-89685500D01*
X144910714Y-89685500D01*
X144978835Y-89705502D01*
X145010677Y-89734796D01*
X145051718Y-89788282D01*
X145177159Y-89884536D01*
X145323238Y-89945044D01*
X145480000Y-89965682D01*
X145488188Y-89964604D01*
X145628574Y-89946122D01*
X145636762Y-89945044D01*
X145782841Y-89884536D01*
X145908282Y-89788282D01*
X146004536Y-89662841D01*
X146065044Y-89516762D01*
X146085682Y-89360000D01*
X146065044Y-89203238D01*
X146004536Y-89057159D01*
X145908282Y-88931718D01*
X145782841Y-88835464D01*
X145636762Y-88774956D01*
X145480000Y-88754318D01*
X145323238Y-88774956D01*
X145177159Y-88835464D01*
X145051718Y-88931718D01*
X145046695Y-88938264D01*
X145010677Y-88985204D01*
X144953339Y-89027071D01*
X144910714Y-89034500D01*
X144458589Y-89034500D01*
X144390468Y-89014498D01*
X144343975Y-88960842D01*
X144333871Y-88890568D01*
X144363365Y-88825988D01*
X144381885Y-88808537D01*
X144401736Y-88793305D01*
X144408282Y-88788282D01*
X144504536Y-88662841D01*
X144565044Y-88516762D01*
X144585682Y-88360000D01*
X144565044Y-88203238D01*
X144504536Y-88057159D01*
X144408282Y-87931718D01*
X144401206Y-87926288D01*
X144328892Y-87870800D01*
X144282841Y-87835464D01*
X144136762Y-87774956D01*
X143980000Y-87754318D01*
X143823238Y-87774956D01*
X143677159Y-87835464D01*
X143631108Y-87870800D01*
X143558795Y-87926288D01*
X143551718Y-87931718D01*
X143455464Y-88057159D01*
X143394956Y-88203238D01*
X143374318Y-88360000D01*
X143394956Y-88516762D01*
X143455464Y-88662841D01*
X143459309Y-88667852D01*
X143475834Y-88735974D01*
X143452613Y-88803065D01*
X143396805Y-88846952D01*
X143326130Y-88853700D01*
X143288141Y-88839531D01*
X143282841Y-88835464D01*
X143136762Y-88774956D01*
X142980000Y-88754318D01*
X142823238Y-88774956D01*
X142677159Y-88835464D01*
X142551718Y-88931718D01*
X142455464Y-89057159D01*
X142394956Y-89203238D01*
X142374318Y-89360000D01*
X138314817Y-89360000D01*
X138282841Y-89335464D01*
X138136762Y-89274956D01*
X137980000Y-89254318D01*
X137823238Y-89274956D01*
X137677159Y-89335464D01*
X137551718Y-89431718D01*
X137455464Y-89557159D01*
X137394956Y-89703238D01*
X137374318Y-89860000D01*
X124657572Y-89860000D01*
X124562426Y-89712926D01*
X124556136Y-89704757D01*
X124412806Y-89547240D01*
X124405273Y-89540215D01*
X124238139Y-89408222D01*
X124229552Y-89402517D01*
X124043117Y-89299599D01*
X124033705Y-89295369D01*
X123832959Y-89224280D01*
X123822988Y-89221646D01*
X123751837Y-89208972D01*
X123738540Y-89210432D01*
X123734000Y-89224989D01*
X123734000Y-90267885D01*
X123226000Y-90267885D01*
X123226000Y-89223102D01*
X123222082Y-89209758D01*
X123207806Y-89207771D01*
X123169324Y-89213660D01*
X123159288Y-89216051D01*
X122956868Y-89282212D01*
X122947359Y-89286209D01*
X122758463Y-89384542D01*
X122749738Y-89390036D01*
X122579433Y-89517905D01*
X122571726Y-89524748D01*
X122424590Y-89678717D01*
X122418104Y-89686727D01*
X122298098Y-89862649D01*
X122293000Y-89871623D01*
X122203338Y-90064783D01*
X122199775Y-90074470D01*
X122144389Y-90274183D01*
X118990500Y-90274183D01*
X118990500Y-87460000D01*
X129524532Y-87460000D01*
X129544365Y-87686692D01*
X129545789Y-87692005D01*
X129545789Y-87692007D01*
X129589249Y-87854201D01*
X129603261Y-87906496D01*
X129605583Y-87911476D01*
X129605584Y-87911478D01*
X129677075Y-88064789D01*
X129699432Y-88112734D01*
X129829953Y-88299139D01*
X129990861Y-88460047D01*
X130177266Y-88590568D01*
X130182244Y-88592889D01*
X130182247Y-88592891D01*
X130346303Y-88669392D01*
X130383504Y-88686739D01*
X130388812Y-88688161D01*
X130388814Y-88688162D01*
X130597993Y-88744211D01*
X130597995Y-88744211D01*
X130603308Y-88745635D01*
X130702302Y-88754296D01*
X130770492Y-88760262D01*
X130770499Y-88760262D01*
X130773216Y-88760500D01*
X132186784Y-88760500D01*
X132189501Y-88760262D01*
X132189508Y-88760262D01*
X132257698Y-88754296D01*
X132356692Y-88745635D01*
X132362005Y-88744211D01*
X132362007Y-88744211D01*
X132571186Y-88688162D01*
X132571188Y-88688161D01*
X132576496Y-88686739D01*
X132613697Y-88669392D01*
X132777753Y-88592891D01*
X132777756Y-88592889D01*
X132782734Y-88590568D01*
X132969139Y-88460047D01*
X133130047Y-88299139D01*
X133260568Y-88112734D01*
X133282926Y-88064789D01*
X133354416Y-87911478D01*
X133354417Y-87911476D01*
X133356739Y-87906496D01*
X133370752Y-87854201D01*
X133414211Y-87692007D01*
X133414211Y-87692005D01*
X133415635Y-87686692D01*
X133435468Y-87460000D01*
X133415635Y-87233308D01*
X133383330Y-87112744D01*
X133358162Y-87018814D01*
X133358161Y-87018812D01*
X133356739Y-87013504D01*
X133310560Y-86914474D01*
X133262891Y-86812247D01*
X133262889Y-86812244D01*
X133260568Y-86807266D01*
X133130047Y-86620861D01*
X132969139Y-86459953D01*
X132909584Y-86418253D01*
X132865257Y-86362798D01*
X132857948Y-86292178D01*
X132891372Y-86227356D01*
X132957692Y-86158918D01*
X132964735Y-86150221D01*
X133083719Y-85973156D01*
X133089105Y-85963358D01*
X133134476Y-85860000D01*
X148374318Y-85860000D01*
X148394956Y-86016762D01*
X148455464Y-86162841D01*
X148551718Y-86288282D01*
X148558264Y-86293305D01*
X148587918Y-86316059D01*
X148677159Y-86384536D01*
X148823238Y-86445044D01*
X148980000Y-86465682D01*
X148988188Y-86464604D01*
X148993931Y-86463848D01*
X149136762Y-86445044D01*
X149282841Y-86384536D01*
X149372082Y-86316059D01*
X149401736Y-86293305D01*
X149408282Y-86288282D01*
X149504536Y-86162841D01*
X149565044Y-86016762D01*
X149585682Y-85860000D01*
X149565044Y-85703238D01*
X149504536Y-85557159D01*
X149408282Y-85431718D01*
X149282841Y-85335464D01*
X149136762Y-85274956D01*
X148980000Y-85254318D01*
X148823238Y-85274956D01*
X148677159Y-85335464D01*
X148551718Y-85431718D01*
X148455464Y-85557159D01*
X148394956Y-85703238D01*
X148374318Y-85860000D01*
X133134476Y-85860000D01*
X133174857Y-85768010D01*
X133178422Y-85757418D01*
X133208624Y-85631616D01*
X133207919Y-85617530D01*
X133199040Y-85614000D01*
X129761589Y-85614000D01*
X129747607Y-85618105D01*
X129746114Y-85627728D01*
X129746166Y-85627973D01*
X129808898Y-85831883D01*
X129813119Y-85842229D01*
X129910971Y-86031814D01*
X129916957Y-86041245D01*
X130046832Y-86210501D01*
X130054395Y-86218727D01*
X130060051Y-86223873D01*
X130096973Y-86284513D01*
X130095250Y-86355489D01*
X130055427Y-86414265D01*
X130047528Y-86420275D01*
X129990861Y-86459953D01*
X129829953Y-86620861D01*
X129699432Y-86807266D01*
X129697111Y-86812244D01*
X129697109Y-86812247D01*
X129649440Y-86914474D01*
X129603261Y-87013504D01*
X129601839Y-87018812D01*
X129601838Y-87018814D01*
X129576670Y-87112744D01*
X129544365Y-87233308D01*
X129524532Y-87460000D01*
X118990500Y-87460000D01*
X118990500Y-80661681D01*
X120543860Y-80661681D01*
X120543878Y-80661933D01*
X120549793Y-80670677D01*
X120581111Y-80699174D01*
X120586748Y-80703738D01*
X120862544Y-80901918D01*
X120868682Y-80905813D01*
X121165435Y-81070984D01*
X121171955Y-81074136D01*
X121485738Y-81204109D01*
X121492589Y-81206495D01*
X121819212Y-81299536D01*
X121826301Y-81301120D01*
X122161465Y-81356006D01*
X122168671Y-81356763D01*
X122507926Y-81372762D01*
X122515176Y-81372686D01*
X122854010Y-81349587D01*
X122861219Y-81348676D01*
X123195160Y-81286784D01*
X123202190Y-81285057D01*
X123526819Y-81185187D01*
X123533597Y-81182667D01*
X123844603Y-81046145D01*
X123851043Y-81042864D01*
X124144293Y-80871502D01*
X124150326Y-80867493D01*
X124408828Y-80673405D01*
X124417282Y-80662078D01*
X124410537Y-80649748D01*
X122492810Y-78732020D01*
X122478869Y-78724408D01*
X122477034Y-78724539D01*
X122470420Y-78728790D01*
X120551474Y-80647737D01*
X120543860Y-80661681D01*
X118990500Y-80661681D01*
X118990500Y-78268987D01*
X119468484Y-78268987D01*
X119477374Y-78608505D01*
X119477980Y-78615721D01*
X119525835Y-78951963D01*
X119527269Y-78959074D01*
X119613455Y-79287595D01*
X119615692Y-79294478D01*
X119739064Y-79610914D01*
X119742081Y-79617503D01*
X119901002Y-79917652D01*
X119904761Y-79923860D01*
X120097129Y-80203757D01*
X120101574Y-80209486D01*
X120168743Y-80286484D01*
X120181917Y-80294888D01*
X120191769Y-80289020D01*
X122107980Y-78372810D01*
X122114357Y-78361131D01*
X122844408Y-78361131D01*
X122844539Y-78362966D01*
X122848790Y-78369580D01*
X124766268Y-80287057D01*
X124779622Y-80294349D01*
X124789594Y-80287295D01*
X124896641Y-80159267D01*
X124900957Y-80153456D01*
X125087432Y-79869575D01*
X125091046Y-79863313D01*
X125243658Y-79559882D01*
X125246530Y-79553244D01*
X125353842Y-79260000D01*
X129524532Y-79260000D01*
X129544365Y-79486692D01*
X129545789Y-79492005D01*
X129545789Y-79492007D01*
X129579416Y-79617503D01*
X129603261Y-79706496D01*
X129605583Y-79711476D01*
X129605584Y-79711478D01*
X129678660Y-79868188D01*
X129699432Y-79912734D01*
X129829953Y-80099139D01*
X129990861Y-80260047D01*
X129995373Y-80263206D01*
X130047813Y-80299925D01*
X130092142Y-80355382D01*
X130099451Y-80426001D01*
X130080307Y-80473141D01*
X130048028Y-80521449D01*
X130048027Y-80521452D01*
X130041133Y-80531769D01*
X130029500Y-80590252D01*
X130029500Y-82129748D01*
X130041133Y-82188231D01*
X130085448Y-82254552D01*
X130151769Y-82298867D01*
X130163938Y-82301288D01*
X130163939Y-82301288D01*
X130204184Y-82309293D01*
X130210252Y-82310500D01*
X130425556Y-82310500D01*
X130493677Y-82330502D01*
X130540170Y-82384158D01*
X130550274Y-82454432D01*
X130520780Y-82519012D01*
X130486643Y-82546701D01*
X130434739Y-82575472D01*
X130288125Y-82701136D01*
X130284214Y-82706178D01*
X130284213Y-82706179D01*
X130180030Y-82840491D01*
X130169773Y-82853714D01*
X130084519Y-83026974D01*
X130082912Y-83033144D01*
X130082910Y-83033149D01*
X130040593Y-83195609D01*
X130035845Y-83213837D01*
X130035511Y-83220216D01*
X130028592Y-83352240D01*
X130025739Y-83406671D01*
X130054614Y-83597599D01*
X130056820Y-83603594D01*
X130056820Y-83603595D01*
X130119086Y-83772832D01*
X130119088Y-83772836D01*
X130121290Y-83778821D01*
X130223045Y-83942934D01*
X130294848Y-84018864D01*
X130355721Y-84083235D01*
X130353586Y-84085254D01*
X130385209Y-84134282D01*
X130385325Y-84205279D01*
X130347040Y-84265068D01*
X130336786Y-84272460D01*
X130337037Y-84272810D01*
X130159233Y-84400575D01*
X130150767Y-84407883D01*
X130002308Y-84561082D01*
X129995265Y-84569779D01*
X129876281Y-84746844D01*
X129870895Y-84756642D01*
X129785143Y-84951990D01*
X129781578Y-84962582D01*
X129751376Y-85088384D01*
X129752081Y-85102470D01*
X129760960Y-85106000D01*
X133198411Y-85106000D01*
X133212393Y-85101895D01*
X133213886Y-85092272D01*
X133213834Y-85092027D01*
X133151102Y-84888117D01*
X133146881Y-84877771D01*
X133086095Y-84760000D01*
X144080000Y-84760000D01*
X146880000Y-84760000D01*
X146880000Y-82060000D01*
X144080000Y-82060000D01*
X144080000Y-84760000D01*
X133086095Y-84760000D01*
X133049029Y-84688186D01*
X133043043Y-84678755D01*
X132913168Y-84509499D01*
X132905607Y-84501276D01*
X132747806Y-84357688D01*
X132738906Y-84350933D01*
X132621537Y-84277307D01*
X132574459Y-84224164D01*
X132563587Y-84154004D01*
X132592371Y-84089105D01*
X132606495Y-84074902D01*
X132667032Y-84023015D01*
X132671875Y-84018864D01*
X132699551Y-83983185D01*
X132786311Y-83871335D01*
X132786313Y-83871332D01*
X132790227Y-83866286D01*
X132875481Y-83693026D01*
X132877088Y-83686856D01*
X132877090Y-83686851D01*
X132922545Y-83512345D01*
X132922545Y-83512342D01*
X132924155Y-83506163D01*
X132931815Y-83360000D01*
X141374318Y-83360000D01*
X141394956Y-83516762D01*
X141455464Y-83662841D01*
X141551718Y-83788282D01*
X141677159Y-83884536D01*
X141823238Y-83945044D01*
X141980000Y-83965682D01*
X141988188Y-83964604D01*
X142128574Y-83946122D01*
X142136762Y-83945044D01*
X142282841Y-83884536D01*
X142408282Y-83788282D01*
X142504536Y-83662841D01*
X142565044Y-83516762D01*
X142585682Y-83360000D01*
X142565044Y-83203238D01*
X142504536Y-83057159D01*
X142408282Y-82931718D01*
X142282841Y-82835464D01*
X142136762Y-82774956D01*
X141980000Y-82754318D01*
X141823238Y-82774956D01*
X141677159Y-82835464D01*
X141551718Y-82931718D01*
X141455464Y-83057159D01*
X141394956Y-83203238D01*
X141374318Y-83360000D01*
X132931815Y-83360000D01*
X132934261Y-83313329D01*
X132905386Y-83122401D01*
X132868170Y-83021250D01*
X132840914Y-82947168D01*
X132840912Y-82947164D01*
X132838710Y-82941179D01*
X132736955Y-82777066D01*
X132604279Y-82636765D01*
X132465672Y-82539712D01*
X132421344Y-82484257D01*
X132414035Y-82413637D01*
X132446065Y-82350277D01*
X132507266Y-82314291D01*
X132537943Y-82310500D01*
X132749748Y-82310500D01*
X132755816Y-82309293D01*
X132796061Y-82301288D01*
X132796062Y-82301288D01*
X132808231Y-82298867D01*
X132874552Y-82254552D01*
X132918867Y-82188231D01*
X132930500Y-82129748D01*
X132930500Y-80661681D01*
X163543860Y-80661681D01*
X163543878Y-80661933D01*
X163549793Y-80670677D01*
X163581111Y-80699174D01*
X163586748Y-80703738D01*
X163862544Y-80901918D01*
X163868682Y-80905813D01*
X164165435Y-81070984D01*
X164171955Y-81074136D01*
X164485738Y-81204109D01*
X164492589Y-81206495D01*
X164819212Y-81299536D01*
X164826301Y-81301120D01*
X165161465Y-81356006D01*
X165168671Y-81356763D01*
X165507926Y-81372762D01*
X165515176Y-81372686D01*
X165854010Y-81349587D01*
X165861219Y-81348676D01*
X166195160Y-81286784D01*
X166202190Y-81285057D01*
X166526819Y-81185187D01*
X166533597Y-81182667D01*
X166844603Y-81046145D01*
X166851043Y-81042864D01*
X167144293Y-80871502D01*
X167150326Y-80867493D01*
X167408828Y-80673405D01*
X167417282Y-80662078D01*
X167410537Y-80649748D01*
X165492810Y-78732020D01*
X165478869Y-78724408D01*
X165477034Y-78724539D01*
X165470420Y-78728790D01*
X163551474Y-80647737D01*
X163543860Y-80661681D01*
X132930500Y-80661681D01*
X132930500Y-80590252D01*
X132918867Y-80531769D01*
X132911973Y-80521452D01*
X132911972Y-80521449D01*
X132879693Y-80473141D01*
X132858477Y-80405388D01*
X132877259Y-80336921D01*
X132912187Y-80299925D01*
X132964627Y-80263206D01*
X132969139Y-80260047D01*
X133130047Y-80099139D01*
X133260568Y-79912734D01*
X133281341Y-79868188D01*
X133285159Y-79860000D01*
X147874318Y-79860000D01*
X147894956Y-80016762D01*
X147955464Y-80162841D01*
X148051718Y-80288282D01*
X148177159Y-80384536D01*
X148323238Y-80445044D01*
X148480000Y-80465682D01*
X148488188Y-80464604D01*
X148628574Y-80446122D01*
X148636762Y-80445044D01*
X148782841Y-80384536D01*
X148908282Y-80288282D01*
X149004536Y-80162841D01*
X149065044Y-80016762D01*
X149085682Y-79860000D01*
X149065044Y-79703238D01*
X149004536Y-79557159D01*
X148908282Y-79431718D01*
X148782841Y-79335464D01*
X148636762Y-79274956D01*
X148480000Y-79254318D01*
X148323238Y-79274956D01*
X148177159Y-79335464D01*
X148051718Y-79431718D01*
X147955464Y-79557159D01*
X147894956Y-79703238D01*
X147874318Y-79860000D01*
X133285159Y-79860000D01*
X133354416Y-79711478D01*
X133354417Y-79711476D01*
X133356739Y-79706496D01*
X133380585Y-79617503D01*
X133414211Y-79492007D01*
X133414211Y-79492005D01*
X133415635Y-79486692D01*
X133435468Y-79260000D01*
X133415635Y-79033308D01*
X133356739Y-78813504D01*
X133260568Y-78607266D01*
X133130047Y-78420861D01*
X132978173Y-78268987D01*
X162468484Y-78268987D01*
X162477374Y-78608505D01*
X162477980Y-78615721D01*
X162525835Y-78951963D01*
X162527269Y-78959074D01*
X162613455Y-79287595D01*
X162615692Y-79294478D01*
X162739064Y-79610914D01*
X162742081Y-79617503D01*
X162901002Y-79917652D01*
X162904761Y-79923860D01*
X163097129Y-80203757D01*
X163101574Y-80209486D01*
X163168743Y-80286484D01*
X163181917Y-80294888D01*
X163191769Y-80289020D01*
X165107980Y-78372810D01*
X165114357Y-78361131D01*
X165844408Y-78361131D01*
X165844539Y-78362966D01*
X165848790Y-78369580D01*
X167766268Y-80287057D01*
X167779622Y-80294349D01*
X167789594Y-80287295D01*
X167896641Y-80159267D01*
X167900957Y-80153456D01*
X168087432Y-79869575D01*
X168091046Y-79863313D01*
X168243658Y-79559882D01*
X168246530Y-79553244D01*
X168363249Y-79234293D01*
X168365345Y-79227351D01*
X168444631Y-78897103D01*
X168445915Y-78889964D01*
X168486816Y-78551973D01*
X168487240Y-78546403D01*
X168493010Y-78362797D01*
X168492937Y-78357204D01*
X168473338Y-78017303D01*
X168472506Y-78010113D01*
X168414113Y-77675529D01*
X168412458Y-77668474D01*
X168315998Y-77342834D01*
X168313540Y-77336006D01*
X168180290Y-77023608D01*
X168177073Y-77017125D01*
X168008788Y-76722089D01*
X168004856Y-76716034D01*
X167803774Y-76442295D01*
X167799166Y-76436726D01*
X167793830Y-76430984D01*
X167780178Y-76422866D01*
X167779570Y-76422887D01*
X167771092Y-76428119D01*
X165852020Y-78347190D01*
X165844408Y-78361131D01*
X165114357Y-78361131D01*
X165115592Y-78358869D01*
X165115461Y-78357034D01*
X165111210Y-78350420D01*
X163192374Y-76431585D01*
X163179581Y-76424599D01*
X163168827Y-76432464D01*
X163008037Y-76637527D01*
X163003902Y-76643476D01*
X162826440Y-76933068D01*
X162823019Y-76939447D01*
X162680016Y-77247522D01*
X162677356Y-77254241D01*
X162570711Y-77576707D01*
X162568834Y-77583711D01*
X162499961Y-77916288D01*
X162498904Y-77923449D01*
X162468712Y-78261735D01*
X162468484Y-78268987D01*
X132978173Y-78268987D01*
X132969139Y-78259953D01*
X132782734Y-78129432D01*
X132777756Y-78127111D01*
X132777753Y-78127109D01*
X132581478Y-78035584D01*
X132581476Y-78035583D01*
X132576496Y-78033261D01*
X132571188Y-78031839D01*
X132571186Y-78031838D01*
X132362007Y-77975789D01*
X132362005Y-77975789D01*
X132356692Y-77974365D01*
X132257698Y-77965704D01*
X132189508Y-77959738D01*
X132189501Y-77959738D01*
X132186784Y-77959500D01*
X130773216Y-77959500D01*
X130770499Y-77959738D01*
X130770492Y-77959738D01*
X130702302Y-77965704D01*
X130603308Y-77974365D01*
X130597995Y-77975789D01*
X130597993Y-77975789D01*
X130388814Y-78031838D01*
X130388812Y-78031839D01*
X130383504Y-78033261D01*
X130378524Y-78035583D01*
X130378522Y-78035584D01*
X130182247Y-78127109D01*
X130182244Y-78127111D01*
X130177266Y-78129432D01*
X129990861Y-78259953D01*
X129829953Y-78420861D01*
X129699432Y-78607266D01*
X129603261Y-78813504D01*
X129544365Y-79033308D01*
X129524532Y-79260000D01*
X125353842Y-79260000D01*
X125363249Y-79234293D01*
X125365345Y-79227351D01*
X125444631Y-78897103D01*
X125445915Y-78889964D01*
X125486816Y-78551973D01*
X125487240Y-78546403D01*
X125493010Y-78362797D01*
X125492937Y-78357204D01*
X125473338Y-78017303D01*
X125472506Y-78010113D01*
X125414113Y-77675529D01*
X125412458Y-77668474D01*
X125315998Y-77342834D01*
X125313540Y-77336006D01*
X125180290Y-77023608D01*
X125177073Y-77017125D01*
X125008788Y-76722089D01*
X125004856Y-76716034D01*
X124803774Y-76442295D01*
X124799166Y-76436726D01*
X124793830Y-76430984D01*
X124780178Y-76422866D01*
X124779570Y-76422887D01*
X124771092Y-76428119D01*
X122852020Y-78347190D01*
X122844408Y-78361131D01*
X122114357Y-78361131D01*
X122115592Y-78358869D01*
X122115461Y-78357034D01*
X122111210Y-78350420D01*
X120192374Y-76431585D01*
X120179581Y-76424599D01*
X120168827Y-76432464D01*
X120008037Y-76637527D01*
X120003902Y-76643476D01*
X119826440Y-76933068D01*
X119823019Y-76939447D01*
X119680016Y-77247522D01*
X119677356Y-77254241D01*
X119570711Y-77576707D01*
X119568834Y-77583711D01*
X119499961Y-77916288D01*
X119498904Y-77923449D01*
X119468712Y-78261735D01*
X119468484Y-78268987D01*
X118990500Y-78268987D01*
X118990500Y-76061048D01*
X120545132Y-76061048D01*
X120551527Y-76072316D01*
X122467190Y-77987980D01*
X122481131Y-77995592D01*
X122482966Y-77995461D01*
X122489580Y-77991210D01*
X124407074Y-76073716D01*
X124413991Y-76061048D01*
X163545132Y-76061048D01*
X163551527Y-76072316D01*
X165467190Y-77987980D01*
X165481131Y-77995592D01*
X165482966Y-77995461D01*
X165489580Y-77991210D01*
X167407074Y-76073716D01*
X167414466Y-76060179D01*
X167407679Y-76050479D01*
X167304476Y-75962335D01*
X167298704Y-75957953D01*
X167016796Y-75768519D01*
X167010575Y-75764839D01*
X166708757Y-75609060D01*
X166702146Y-75606116D01*
X166384439Y-75486065D01*
X166377513Y-75483894D01*
X166048112Y-75401155D01*
X166041005Y-75399799D01*
X165704278Y-75355468D01*
X165697036Y-75354937D01*
X165357467Y-75349602D01*
X165350205Y-75349906D01*
X165012256Y-75383638D01*
X165005108Y-75384770D01*
X164673263Y-75457124D01*
X164666285Y-75459072D01*
X164344960Y-75569086D01*
X164338253Y-75571823D01*
X164031707Y-75718039D01*
X164025349Y-75721534D01*
X163737654Y-75902005D01*
X163731731Y-75906214D01*
X163553601Y-76048923D01*
X163545132Y-76061048D01*
X124413991Y-76061048D01*
X124414466Y-76060179D01*
X124407679Y-76050479D01*
X124304476Y-75962335D01*
X124298704Y-75957953D01*
X124016796Y-75768519D01*
X124010575Y-75764839D01*
X123708757Y-75609060D01*
X123702146Y-75606116D01*
X123384439Y-75486065D01*
X123377513Y-75483894D01*
X123048112Y-75401155D01*
X123041005Y-75399799D01*
X122704278Y-75355468D01*
X122697036Y-75354937D01*
X122357467Y-75349602D01*
X122350205Y-75349906D01*
X122012256Y-75383638D01*
X122005108Y-75384770D01*
X121673263Y-75457124D01*
X121666285Y-75459072D01*
X121344960Y-75569086D01*
X121338253Y-75571823D01*
X121031707Y-75718039D01*
X121025349Y-75721534D01*
X120737654Y-75902005D01*
X120731731Y-75906214D01*
X120553601Y-76048923D01*
X120545132Y-76061048D01*
X118990500Y-76061048D01*
X118990500Y-74996500D01*
X119010502Y-74928379D01*
X119064158Y-74881886D01*
X119116500Y-74870500D01*
X168843500Y-74870500D01*
X168911621Y-74890502D01*
G37*
%TD.AperFunction*%
%TD*%
M02*
