%TF.GenerationSoftware,KiCad,Pcbnew,(6.0.5)*%
%TF.CreationDate,2022-06-08T19:33:45-04:00*%
%TF.ProjectId,FlightController,466c6967-6874-4436-9f6e-74726f6c6c65,rev?*%
%TF.SameCoordinates,Original*%
%TF.FileFunction,Copper,L3,Inr*%
%TF.FilePolarity,Positive*%
%FSLAX46Y46*%
G04 Gerber Fmt 4.6, Leading zero omitted, Abs format (unit mm)*
G04 Created by KiCad (PCBNEW (6.0.5)) date 2022-06-08 19:33:45*
%MOMM*%
%LPD*%
G01*
G04 APERTURE LIST*
%TA.AperFunction,ComponentPad*%
%ADD10C,5.000000*%
%TD*%
%TA.AperFunction,ComponentPad*%
%ADD11R,1.700000X1.700000*%
%TD*%
%TA.AperFunction,ComponentPad*%
%ADD12O,1.700000X1.700000*%
%TD*%
%TA.AperFunction,ComponentPad*%
%ADD13O,2.500000X1.500000*%
%TD*%
%TA.AperFunction,ComponentPad*%
%ADD14R,2.500000X1.500000*%
%TD*%
%TA.AperFunction,ComponentPad*%
%ADD15O,3.500000X2.200000*%
%TD*%
%TA.AperFunction,ComponentPad*%
%ADD16O,1.500000X2.500000*%
%TD*%
%TA.AperFunction,ComponentPad*%
%ADD17R,1.500000X2.500000*%
%TD*%
%TA.AperFunction,ComponentPad*%
%ADD18O,2.200000X3.500000*%
%TD*%
%TA.AperFunction,ViaPad*%
%ADD19C,0.800000*%
%TD*%
G04 APERTURE END LIST*
D10*
%TO.N,GND*%
%TO.C,H3*%
X165480000Y-78360000D03*
%TD*%
%TO.N,GND*%
%TO.C,H2*%
X122480000Y-78360000D03*
%TD*%
%TO.N,GND*%
%TO.C,H1*%
X165480000Y-121360000D03*
%TD*%
D11*
%TO.N,PDB_REG_5v*%
%TO.C,J1*%
X162425000Y-114600000D03*
D12*
%TO.N,GND*%
X162425000Y-112060000D03*
%TD*%
D11*
%TO.N,S_TIM3_CH4*%
%TO.C,J8*%
X134730000Y-114335000D03*
D12*
%TO.N,+5V*%
X134730000Y-116875000D03*
%TO.N,GND*%
X134730000Y-119415000D03*
%TD*%
%TO.N,GND*%
%TO.C,J11*%
X123480000Y-90540000D03*
%TO.N,S_I2C2_SDA*%
X123480000Y-93080000D03*
%TO.N,S_I2C2_SCL*%
X123480000Y-95620000D03*
D11*
%TO.N,+3V3*%
X123480000Y-98160000D03*
%TD*%
D13*
%TO.N,GND*%
%TO.C,SW1*%
X131480000Y-85360000D03*
%TO.N,Net-(R3-Pad2)*%
X131480000Y-83360000D03*
D14*
%TO.N,+3V3*%
X131480000Y-81360000D03*
D15*
%TO.N,*%
X131480000Y-79260000D03*
X131480000Y-87460000D03*
%TD*%
D12*
%TO.N,GND*%
%TO.C,J4*%
X123480000Y-102540000D03*
%TO.N,S_USART2_TX*%
X123480000Y-105080000D03*
%TO.N,S_USART2_RX*%
X123480000Y-107620000D03*
D11*
%TO.N,+3V3*%
X123480000Y-110160000D03*
%TD*%
%TO.N,S_TIM3_CH3*%
%TO.C,J7*%
X130980000Y-114335000D03*
D12*
%TO.N,+5V*%
X130980000Y-116875000D03*
%TO.N,GND*%
X130980000Y-119415000D03*
%TD*%
D16*
%TO.N,PDB_REG_5v*%
%TO.C,SW2*%
X159480000Y-106157500D03*
%TO.N,+5V*%
X157480000Y-106157500D03*
D17*
%TO.N,USB_5v*%
X155480000Y-106157500D03*
D18*
%TO.N,*%
X153380000Y-106157500D03*
X161580000Y-106157500D03*
%TD*%
D11*
%TO.N,S_TIM3_CH1*%
%TO.C,J5*%
X123480000Y-114335000D03*
D12*
%TO.N,+5V*%
X123480000Y-116875000D03*
%TO.N,GND*%
X123480000Y-119415000D03*
%TD*%
%TO.N,GND*%
%TO.C,J10*%
X142230000Y-119415000D03*
%TO.N,+5V*%
X142230000Y-116875000D03*
D11*
%TO.N,S_TIM8_CH2*%
X142230000Y-114335000D03*
%TD*%
D12*
%TO.N,GND*%
%TO.C,J9*%
X138480000Y-119415000D03*
%TO.N,+5V*%
X138480000Y-116875000D03*
D11*
%TO.N,S_TIM8_CH1*%
X138480000Y-114335000D03*
%TD*%
%TO.N,S_TIM3_CH2*%
%TO.C,J6*%
X127230000Y-114335000D03*
D12*
%TO.N,+5V*%
X127230000Y-116875000D03*
%TO.N,GND*%
X127230000Y-119415000D03*
%TD*%
%TO.N,S_SWO*%
%TO.C,J3*%
X155715000Y-81805000D03*
%TO.N,S_NRST*%
X158255000Y-81805000D03*
%TO.N,S_SWCLK*%
X155715000Y-84345000D03*
%TO.N,GND*%
X158255000Y-84345000D03*
%TO.N,S_SWDIO*%
X155715000Y-86885000D03*
D11*
%TO.N,+3V3*%
X158255000Y-86885000D03*
%TD*%
D19*
%TO.N,GND*%
X129900000Y-99600000D03*
X127980000Y-111860000D03*
X128480000Y-106360000D03*
X144980000Y-115360000D03*
X125244256Y-94297593D03*
X150700000Y-87700000D03*
X147525513Y-109795027D03*
X158980000Y-96860000D03*
X152800000Y-91000000D03*
X144480000Y-96860000D03*
%TO.N,+3V3*%
X149000000Y-92500000D03*
X148980000Y-85860000D03*
%TO.N,GND*%
X148980000Y-84360000D03*
%TO.N,+3V3*%
X148480000Y-79860000D03*
X141980000Y-83360000D03*
X143980000Y-88360000D03*
%TO.N,S_NRST*%
X142480000Y-94860000D03*
%TO.N,S_I2C2_SCL*%
X126980000Y-94860000D03*
%TO.N,S_I2C2_SDA*%
X126980000Y-93860000D03*
X143980000Y-101360000D03*
%TO.N,S_I2C2_SCL*%
X143980000Y-102360000D03*
%TO.N,+3V3*%
X147341036Y-105836912D03*
X144067913Y-108412621D03*
%TO.N,S_USART2_RX*%
X132980000Y-106360000D03*
X135980000Y-106360000D03*
%TO.N,+3V3*%
X133000000Y-103750000D03*
%TO.N,GND*%
X133000000Y-101500000D03*
X151880000Y-97060000D03*
X153080000Y-100960000D03*
X158600000Y-118400000D03*
%TO.N,S_I2C1_SDA*%
X142980000Y-89360000D03*
X145480000Y-89360000D03*
%TO.N,GND*%
X138480000Y-107360000D03*
X135980000Y-91360000D03*
X139480000Y-89860000D03*
%TO.N,+3V3*%
X137980000Y-89860000D03*
X134980000Y-93360000D03*
X160400000Y-122000000D03*
X140480000Y-107360000D03*
%TD*%
%TA.AperFunction,Conductor*%
%TO.N,+3V3*%
G36*
X164274647Y-75388502D02*
G01*
X164321140Y-75442158D01*
X164331244Y-75512432D01*
X164301750Y-75577012D01*
X164260771Y-75608226D01*
X164028188Y-75719163D01*
X163734279Y-75903532D01*
X163731443Y-75905804D01*
X163731436Y-75905809D01*
X163487384Y-76101332D01*
X163463509Y-76120459D01*
X163219466Y-76367071D01*
X163217225Y-76369929D01*
X163160732Y-76441978D01*
X163005386Y-76640098D01*
X163003493Y-76643187D01*
X163003491Y-76643190D01*
X162957233Y-76718676D01*
X162824105Y-76935921D01*
X162822580Y-76939206D01*
X162822578Y-76939210D01*
X162783505Y-77023386D01*
X162678027Y-77250620D01*
X162569087Y-77580023D01*
X162498730Y-77919764D01*
X162467888Y-78265341D01*
X162467983Y-78268971D01*
X162467983Y-78268972D01*
X162475249Y-78546434D01*
X162476970Y-78612171D01*
X162525856Y-78955660D01*
X162613897Y-79291253D01*
X162739927Y-79614503D01*
X162741624Y-79617708D01*
X162875113Y-79869825D01*
X162902275Y-79921126D01*
X162904325Y-79924109D01*
X162904327Y-79924112D01*
X163096733Y-80204064D01*
X163096739Y-80204071D01*
X163098790Y-80207056D01*
X163326866Y-80468505D01*
X163425785Y-80558514D01*
X163539268Y-80661775D01*
X163583481Y-80702006D01*
X163865233Y-80904466D01*
X164168388Y-81073200D01*
X164488928Y-81205972D01*
X164492422Y-81206967D01*
X164492424Y-81206968D01*
X164819103Y-81300025D01*
X164819108Y-81300026D01*
X164822604Y-81301022D01*
X164997182Y-81329610D01*
X165161412Y-81356504D01*
X165161419Y-81356505D01*
X165164993Y-81357090D01*
X165246927Y-81360954D01*
X165507931Y-81373263D01*
X165507932Y-81373263D01*
X165511558Y-81373434D01*
X165520415Y-81372830D01*
X165854073Y-81350084D01*
X165854081Y-81350083D01*
X165857704Y-81349836D01*
X165861279Y-81349173D01*
X165861282Y-81349173D01*
X166195279Y-81287270D01*
X166195283Y-81287269D01*
X166198844Y-81286609D01*
X166530456Y-81184592D01*
X166848145Y-81045136D01*
X166963691Y-80977617D01*
X167144560Y-80871926D01*
X167144562Y-80871925D01*
X167147700Y-80870091D01*
X167248371Y-80794505D01*
X167422244Y-80663958D01*
X167422248Y-80663955D01*
X167425151Y-80661775D01*
X167676819Y-80422950D01*
X167899370Y-80156783D01*
X168089853Y-79866799D01*
X168232935Y-79582312D01*
X168281412Y-79530442D01*
X168350237Y-79513015D01*
X168417558Y-79535564D01*
X168462000Y-79590930D01*
X168471500Y-79638926D01*
X168471500Y-120088508D01*
X168451498Y-120156629D01*
X168397842Y-120203122D01*
X168327568Y-120213226D01*
X168262988Y-120183732D01*
X168229602Y-120137942D01*
X168180740Y-120023386D01*
X168180738Y-120023383D01*
X168179316Y-120020048D01*
X168129569Y-119932831D01*
X168009208Y-119721816D01*
X168007417Y-119718676D01*
X167995953Y-119703069D01*
X167919908Y-119599547D01*
X167802018Y-119439060D01*
X167776544Y-119411646D01*
X167568309Y-119187559D01*
X167565842Y-119184904D01*
X167302019Y-118959578D01*
X167014047Y-118766069D01*
X166705741Y-118606940D01*
X166381189Y-118484302D01*
X166377668Y-118483418D01*
X166377663Y-118483416D01*
X166132636Y-118421870D01*
X166044692Y-118399780D01*
X165989623Y-118392530D01*
X165704315Y-118354968D01*
X165704307Y-118354967D01*
X165700711Y-118354494D01*
X165556045Y-118352221D01*
X165357446Y-118349101D01*
X165357442Y-118349101D01*
X165353804Y-118349044D01*
X165350190Y-118349405D01*
X165350184Y-118349405D01*
X165106843Y-118373694D01*
X165008569Y-118383503D01*
X164669583Y-118457414D01*
X164666156Y-118458587D01*
X164666150Y-118458589D01*
X164344765Y-118568624D01*
X164341339Y-118569797D01*
X164028188Y-118719163D01*
X163734279Y-118903532D01*
X163731443Y-118905804D01*
X163731436Y-118905809D01*
X163637932Y-118980720D01*
X163463509Y-119120459D01*
X163419722Y-119164707D01*
X163278785Y-119307128D01*
X163219466Y-119367071D01*
X163217225Y-119369929D01*
X163132299Y-119478240D01*
X163005386Y-119640098D01*
X163003493Y-119643187D01*
X163003491Y-119643190D01*
X162957233Y-119718676D01*
X162824105Y-119935921D01*
X162822580Y-119939206D01*
X162822578Y-119939210D01*
X162783505Y-120023386D01*
X162678027Y-120250620D01*
X162633575Y-120385031D01*
X162584228Y-120534242D01*
X162569087Y-120580023D01*
X162568351Y-120583578D01*
X162568350Y-120583581D01*
X162539051Y-120725062D01*
X162498730Y-120919764D01*
X162467888Y-121265341D01*
X162476970Y-121612171D01*
X162525856Y-121955660D01*
X162613897Y-122291253D01*
X162739927Y-122614503D01*
X162741624Y-122617708D01*
X162875113Y-122869825D01*
X162902275Y-122921126D01*
X162904325Y-122924109D01*
X162904327Y-122924112D01*
X163096733Y-123204064D01*
X163096739Y-123204071D01*
X163098790Y-123207056D01*
X163326866Y-123468505D01*
X163329551Y-123470948D01*
X163539268Y-123661775D01*
X163583481Y-123702006D01*
X163865233Y-123904466D01*
X164168388Y-124073200D01*
X164171737Y-124074587D01*
X164255037Y-124109091D01*
X164310318Y-124153639D01*
X164332739Y-124221003D01*
X164315181Y-124289794D01*
X164263219Y-124338172D01*
X164206819Y-124351500D01*
X119614500Y-124351500D01*
X119546379Y-124331498D01*
X119499886Y-124277842D01*
X119488500Y-124225500D01*
X119488500Y-119381695D01*
X122117251Y-119381695D01*
X122117548Y-119386848D01*
X122117548Y-119386851D01*
X122123011Y-119481590D01*
X122130110Y-119604715D01*
X122131247Y-119609761D01*
X122131248Y-119609767D01*
X122151119Y-119697939D01*
X122179222Y-119822639D01*
X122263266Y-120029616D01*
X122379987Y-120220088D01*
X122526250Y-120388938D01*
X122698126Y-120531632D01*
X122891000Y-120644338D01*
X123099692Y-120724030D01*
X123104760Y-120725061D01*
X123104763Y-120725062D01*
X123212017Y-120746883D01*
X123318597Y-120768567D01*
X123323772Y-120768757D01*
X123323774Y-120768757D01*
X123536673Y-120776564D01*
X123536677Y-120776564D01*
X123541837Y-120776753D01*
X123546957Y-120776097D01*
X123546959Y-120776097D01*
X123758288Y-120749025D01*
X123758289Y-120749025D01*
X123763416Y-120748368D01*
X123768366Y-120746883D01*
X123972429Y-120685661D01*
X123972434Y-120685659D01*
X123977384Y-120684174D01*
X124177994Y-120585896D01*
X124359860Y-120456173D01*
X124518096Y-120298489D01*
X124577594Y-120215689D01*
X124645435Y-120121277D01*
X124648453Y-120117077D01*
X124696408Y-120020048D01*
X124745136Y-119921453D01*
X124745137Y-119921451D01*
X124747430Y-119916811D01*
X124812370Y-119703069D01*
X124841529Y-119481590D01*
X124843156Y-119415000D01*
X124840418Y-119381695D01*
X125867251Y-119381695D01*
X125867548Y-119386848D01*
X125867548Y-119386851D01*
X125873011Y-119481590D01*
X125880110Y-119604715D01*
X125881247Y-119609761D01*
X125881248Y-119609767D01*
X125901119Y-119697939D01*
X125929222Y-119822639D01*
X126013266Y-120029616D01*
X126129987Y-120220088D01*
X126276250Y-120388938D01*
X126448126Y-120531632D01*
X126641000Y-120644338D01*
X126849692Y-120724030D01*
X126854760Y-120725061D01*
X126854763Y-120725062D01*
X126962017Y-120746883D01*
X127068597Y-120768567D01*
X127073772Y-120768757D01*
X127073774Y-120768757D01*
X127286673Y-120776564D01*
X127286677Y-120776564D01*
X127291837Y-120776753D01*
X127296957Y-120776097D01*
X127296959Y-120776097D01*
X127508288Y-120749025D01*
X127508289Y-120749025D01*
X127513416Y-120748368D01*
X127518366Y-120746883D01*
X127722429Y-120685661D01*
X127722434Y-120685659D01*
X127727384Y-120684174D01*
X127927994Y-120585896D01*
X128109860Y-120456173D01*
X128268096Y-120298489D01*
X128327594Y-120215689D01*
X128395435Y-120121277D01*
X128398453Y-120117077D01*
X128446408Y-120020048D01*
X128495136Y-119921453D01*
X128495137Y-119921451D01*
X128497430Y-119916811D01*
X128562370Y-119703069D01*
X128591529Y-119481590D01*
X128593156Y-119415000D01*
X128590418Y-119381695D01*
X129617251Y-119381695D01*
X129617548Y-119386848D01*
X129617548Y-119386851D01*
X129623011Y-119481590D01*
X129630110Y-119604715D01*
X129631247Y-119609761D01*
X129631248Y-119609767D01*
X129651119Y-119697939D01*
X129679222Y-119822639D01*
X129763266Y-120029616D01*
X129879987Y-120220088D01*
X130026250Y-120388938D01*
X130198126Y-120531632D01*
X130391000Y-120644338D01*
X130599692Y-120724030D01*
X130604760Y-120725061D01*
X130604763Y-120725062D01*
X130712017Y-120746883D01*
X130818597Y-120768567D01*
X130823772Y-120768757D01*
X130823774Y-120768757D01*
X131036673Y-120776564D01*
X131036677Y-120776564D01*
X131041837Y-120776753D01*
X131046957Y-120776097D01*
X131046959Y-120776097D01*
X131258288Y-120749025D01*
X131258289Y-120749025D01*
X131263416Y-120748368D01*
X131268366Y-120746883D01*
X131472429Y-120685661D01*
X131472434Y-120685659D01*
X131477384Y-120684174D01*
X131677994Y-120585896D01*
X131859860Y-120456173D01*
X132018096Y-120298489D01*
X132077594Y-120215689D01*
X132145435Y-120121277D01*
X132148453Y-120117077D01*
X132196408Y-120020048D01*
X132245136Y-119921453D01*
X132245137Y-119921451D01*
X132247430Y-119916811D01*
X132312370Y-119703069D01*
X132341529Y-119481590D01*
X132343156Y-119415000D01*
X132340418Y-119381695D01*
X133367251Y-119381695D01*
X133367548Y-119386848D01*
X133367548Y-119386851D01*
X133373011Y-119481590D01*
X133380110Y-119604715D01*
X133381247Y-119609761D01*
X133381248Y-119609767D01*
X133401119Y-119697939D01*
X133429222Y-119822639D01*
X133513266Y-120029616D01*
X133629987Y-120220088D01*
X133776250Y-120388938D01*
X133948126Y-120531632D01*
X134141000Y-120644338D01*
X134349692Y-120724030D01*
X134354760Y-120725061D01*
X134354763Y-120725062D01*
X134462017Y-120746883D01*
X134568597Y-120768567D01*
X134573772Y-120768757D01*
X134573774Y-120768757D01*
X134786673Y-120776564D01*
X134786677Y-120776564D01*
X134791837Y-120776753D01*
X134796957Y-120776097D01*
X134796959Y-120776097D01*
X135008288Y-120749025D01*
X135008289Y-120749025D01*
X135013416Y-120748368D01*
X135018366Y-120746883D01*
X135222429Y-120685661D01*
X135222434Y-120685659D01*
X135227384Y-120684174D01*
X135427994Y-120585896D01*
X135609860Y-120456173D01*
X135768096Y-120298489D01*
X135827594Y-120215689D01*
X135895435Y-120121277D01*
X135898453Y-120117077D01*
X135946408Y-120020048D01*
X135995136Y-119921453D01*
X135995137Y-119921451D01*
X135997430Y-119916811D01*
X136062370Y-119703069D01*
X136091529Y-119481590D01*
X136093156Y-119415000D01*
X136090418Y-119381695D01*
X137117251Y-119381695D01*
X137117548Y-119386848D01*
X137117548Y-119386851D01*
X137123011Y-119481590D01*
X137130110Y-119604715D01*
X137131247Y-119609761D01*
X137131248Y-119609767D01*
X137151119Y-119697939D01*
X137179222Y-119822639D01*
X137263266Y-120029616D01*
X137379987Y-120220088D01*
X137526250Y-120388938D01*
X137698126Y-120531632D01*
X137891000Y-120644338D01*
X138099692Y-120724030D01*
X138104760Y-120725061D01*
X138104763Y-120725062D01*
X138212017Y-120746883D01*
X138318597Y-120768567D01*
X138323772Y-120768757D01*
X138323774Y-120768757D01*
X138536673Y-120776564D01*
X138536677Y-120776564D01*
X138541837Y-120776753D01*
X138546957Y-120776097D01*
X138546959Y-120776097D01*
X138758288Y-120749025D01*
X138758289Y-120749025D01*
X138763416Y-120748368D01*
X138768366Y-120746883D01*
X138972429Y-120685661D01*
X138972434Y-120685659D01*
X138977384Y-120684174D01*
X139177994Y-120585896D01*
X139359860Y-120456173D01*
X139518096Y-120298489D01*
X139577594Y-120215689D01*
X139645435Y-120121277D01*
X139648453Y-120117077D01*
X139696408Y-120020048D01*
X139745136Y-119921453D01*
X139745137Y-119921451D01*
X139747430Y-119916811D01*
X139812370Y-119703069D01*
X139841529Y-119481590D01*
X139843156Y-119415000D01*
X139840418Y-119381695D01*
X140867251Y-119381695D01*
X140867548Y-119386848D01*
X140867548Y-119386851D01*
X140873011Y-119481590D01*
X140880110Y-119604715D01*
X140881247Y-119609761D01*
X140881248Y-119609767D01*
X140901119Y-119697939D01*
X140929222Y-119822639D01*
X141013266Y-120029616D01*
X141129987Y-120220088D01*
X141276250Y-120388938D01*
X141448126Y-120531632D01*
X141641000Y-120644338D01*
X141849692Y-120724030D01*
X141854760Y-120725061D01*
X141854763Y-120725062D01*
X141962017Y-120746883D01*
X142068597Y-120768567D01*
X142073772Y-120768757D01*
X142073774Y-120768757D01*
X142286673Y-120776564D01*
X142286677Y-120776564D01*
X142291837Y-120776753D01*
X142296957Y-120776097D01*
X142296959Y-120776097D01*
X142508288Y-120749025D01*
X142508289Y-120749025D01*
X142513416Y-120748368D01*
X142518366Y-120746883D01*
X142722429Y-120685661D01*
X142722434Y-120685659D01*
X142727384Y-120684174D01*
X142927994Y-120585896D01*
X143109860Y-120456173D01*
X143268096Y-120298489D01*
X143327594Y-120215689D01*
X143395435Y-120121277D01*
X143398453Y-120117077D01*
X143446408Y-120020048D01*
X143495136Y-119921453D01*
X143495137Y-119921451D01*
X143497430Y-119916811D01*
X143562370Y-119703069D01*
X143591529Y-119481590D01*
X143593156Y-119415000D01*
X143574852Y-119192361D01*
X143520431Y-118975702D01*
X143431354Y-118770840D01*
X143391906Y-118709862D01*
X143312822Y-118587617D01*
X143312820Y-118587614D01*
X143310014Y-118583277D01*
X143159670Y-118418051D01*
X143155619Y-118414852D01*
X143155615Y-118414848D01*
X143136814Y-118400000D01*
X157686496Y-118400000D01*
X157687186Y-118406565D01*
X157703012Y-118557138D01*
X157706458Y-118589928D01*
X157765473Y-118771556D01*
X157860960Y-118936944D01*
X157988747Y-119078866D01*
X158045995Y-119120459D01*
X158106897Y-119164707D01*
X158143248Y-119191118D01*
X158149276Y-119193802D01*
X158149278Y-119193803D01*
X158311681Y-119266109D01*
X158317712Y-119268794D01*
X158411113Y-119288647D01*
X158498056Y-119307128D01*
X158498061Y-119307128D01*
X158504513Y-119308500D01*
X158695487Y-119308500D01*
X158701939Y-119307128D01*
X158701944Y-119307128D01*
X158788887Y-119288647D01*
X158882288Y-119268794D01*
X158888319Y-119266109D01*
X159050722Y-119193803D01*
X159050724Y-119193802D01*
X159056752Y-119191118D01*
X159093104Y-119164707D01*
X159154005Y-119120459D01*
X159211253Y-119078866D01*
X159339040Y-118936944D01*
X159434527Y-118771556D01*
X159493542Y-118589928D01*
X159496989Y-118557138D01*
X159512814Y-118406565D01*
X159513504Y-118400000D01*
X159501186Y-118282800D01*
X159494232Y-118216635D01*
X159494232Y-118216633D01*
X159493542Y-118210072D01*
X159434527Y-118028444D01*
X159414781Y-117994242D01*
X159342341Y-117868774D01*
X159339040Y-117863056D01*
X159211253Y-117721134D01*
X159056752Y-117608882D01*
X159050724Y-117606198D01*
X159050722Y-117606197D01*
X158888319Y-117533891D01*
X158888318Y-117533891D01*
X158882288Y-117531206D01*
X158788887Y-117511353D01*
X158701944Y-117492872D01*
X158701939Y-117492872D01*
X158695487Y-117491500D01*
X158504513Y-117491500D01*
X158498061Y-117492872D01*
X158498056Y-117492872D01*
X158411113Y-117511353D01*
X158317712Y-117531206D01*
X158311682Y-117533891D01*
X158311681Y-117533891D01*
X158149278Y-117606197D01*
X158149276Y-117606198D01*
X158143248Y-117608882D01*
X157988747Y-117721134D01*
X157860960Y-117863056D01*
X157857659Y-117868774D01*
X157785220Y-117994242D01*
X157765473Y-118028444D01*
X157706458Y-118210072D01*
X157705768Y-118216633D01*
X157705768Y-118216635D01*
X157698814Y-118282800D01*
X157686496Y-118400000D01*
X143136814Y-118400000D01*
X142988414Y-118282800D01*
X142988410Y-118282798D01*
X142984359Y-118279598D01*
X142943053Y-118256796D01*
X142893084Y-118206364D01*
X142878312Y-118136921D01*
X142903428Y-118070516D01*
X142930780Y-118043909D01*
X142974603Y-118012650D01*
X143109860Y-117916173D01*
X143268096Y-117758489D01*
X143327594Y-117675689D01*
X143395435Y-117581277D01*
X143398453Y-117577077D01*
X143440070Y-117492872D01*
X143495136Y-117381453D01*
X143495137Y-117381451D01*
X143497430Y-117376811D01*
X143562370Y-117163069D01*
X143591529Y-116941590D01*
X143593156Y-116875000D01*
X143574852Y-116652361D01*
X143520431Y-116435702D01*
X143431354Y-116230840D01*
X143310014Y-116043277D01*
X143306532Y-116039450D01*
X143162798Y-115881488D01*
X143131746Y-115817642D01*
X143140141Y-115747143D01*
X143185317Y-115692375D01*
X143211761Y-115678706D01*
X143318297Y-115638767D01*
X143326705Y-115635615D01*
X143443261Y-115548261D01*
X143530615Y-115431705D01*
X143557496Y-115360000D01*
X144066496Y-115360000D01*
X144086458Y-115549928D01*
X144145473Y-115731556D01*
X144240960Y-115896944D01*
X144368747Y-116038866D01*
X144523248Y-116151118D01*
X144529276Y-116153802D01*
X144529278Y-116153803D01*
X144691681Y-116226109D01*
X144697712Y-116228794D01*
X144791113Y-116248647D01*
X144878056Y-116267128D01*
X144878061Y-116267128D01*
X144884513Y-116268500D01*
X145075487Y-116268500D01*
X145081939Y-116267128D01*
X145081944Y-116267128D01*
X145168887Y-116248647D01*
X145262288Y-116228794D01*
X145268319Y-116226109D01*
X145430722Y-116153803D01*
X145430724Y-116153802D01*
X145436752Y-116151118D01*
X145591253Y-116038866D01*
X145719040Y-115896944D01*
X145814527Y-115731556D01*
X145873542Y-115549928D01*
X145893504Y-115360000D01*
X145873542Y-115170072D01*
X145814527Y-114988444D01*
X145719040Y-114823056D01*
X145591253Y-114681134D01*
X145436752Y-114568882D01*
X145430724Y-114566198D01*
X145430722Y-114566197D01*
X145268319Y-114493891D01*
X145268318Y-114493891D01*
X145262288Y-114491206D01*
X145168888Y-114471353D01*
X145081944Y-114452872D01*
X145081939Y-114452872D01*
X145075487Y-114451500D01*
X144884513Y-114451500D01*
X144878061Y-114452872D01*
X144878056Y-114452872D01*
X144791112Y-114471353D01*
X144697712Y-114491206D01*
X144691682Y-114493891D01*
X144691681Y-114493891D01*
X144529278Y-114566197D01*
X144529276Y-114566198D01*
X144523248Y-114568882D01*
X144368747Y-114681134D01*
X144240960Y-114823056D01*
X144145473Y-114988444D01*
X144086458Y-115170072D01*
X144066496Y-115360000D01*
X143557496Y-115360000D01*
X143581745Y-115295316D01*
X143588500Y-115233134D01*
X143588500Y-113436866D01*
X143581745Y-113374684D01*
X143530615Y-113238295D01*
X143443261Y-113121739D01*
X143326705Y-113034385D01*
X143190316Y-112983255D01*
X143128134Y-112976500D01*
X141331866Y-112976500D01*
X141269684Y-112983255D01*
X141133295Y-113034385D01*
X141016739Y-113121739D01*
X140929385Y-113238295D01*
X140878255Y-113374684D01*
X140871500Y-113436866D01*
X140871500Y-115233134D01*
X140878255Y-115295316D01*
X140929385Y-115431705D01*
X141016739Y-115548261D01*
X141133295Y-115635615D01*
X141141704Y-115638767D01*
X141141705Y-115638768D01*
X141250451Y-115679535D01*
X141307216Y-115722176D01*
X141331916Y-115788738D01*
X141316709Y-115858087D01*
X141297316Y-115884568D01*
X141170629Y-116017138D01*
X141044743Y-116201680D01*
X140950688Y-116404305D01*
X140890989Y-116619570D01*
X140867251Y-116841695D01*
X140867548Y-116846848D01*
X140867548Y-116846851D01*
X140873011Y-116941590D01*
X140880110Y-117064715D01*
X140881247Y-117069761D01*
X140881248Y-117069767D01*
X140901119Y-117157939D01*
X140929222Y-117282639D01*
X141013266Y-117489616D01*
X141129987Y-117680088D01*
X141276250Y-117848938D01*
X141448126Y-117991632D01*
X141518595Y-118032811D01*
X141521445Y-118034476D01*
X141570169Y-118086114D01*
X141583240Y-118155897D01*
X141556509Y-118221669D01*
X141516055Y-118255027D01*
X141503607Y-118261507D01*
X141499474Y-118264610D01*
X141499471Y-118264612D01*
X141341123Y-118383503D01*
X141324965Y-118395635D01*
X141170629Y-118557138D01*
X141167715Y-118561410D01*
X141167714Y-118561411D01*
X141160930Y-118571356D01*
X141044743Y-118741680D01*
X140950688Y-118944305D01*
X140890989Y-119159570D01*
X140867251Y-119381695D01*
X139840418Y-119381695D01*
X139824852Y-119192361D01*
X139770431Y-118975702D01*
X139681354Y-118770840D01*
X139641906Y-118709862D01*
X139562822Y-118587617D01*
X139562820Y-118587614D01*
X139560014Y-118583277D01*
X139409670Y-118418051D01*
X139405619Y-118414852D01*
X139405615Y-118414848D01*
X139238414Y-118282800D01*
X139238410Y-118282798D01*
X139234359Y-118279598D01*
X139193053Y-118256796D01*
X139143084Y-118206364D01*
X139128312Y-118136921D01*
X139153428Y-118070516D01*
X139180780Y-118043909D01*
X139224603Y-118012650D01*
X139359860Y-117916173D01*
X139518096Y-117758489D01*
X139577594Y-117675689D01*
X139645435Y-117581277D01*
X139648453Y-117577077D01*
X139690070Y-117492872D01*
X139745136Y-117381453D01*
X139745137Y-117381451D01*
X139747430Y-117376811D01*
X139812370Y-117163069D01*
X139841529Y-116941590D01*
X139843156Y-116875000D01*
X139824852Y-116652361D01*
X139770431Y-116435702D01*
X139681354Y-116230840D01*
X139560014Y-116043277D01*
X139556532Y-116039450D01*
X139412798Y-115881488D01*
X139381746Y-115817642D01*
X139390141Y-115747143D01*
X139435317Y-115692375D01*
X139461761Y-115678706D01*
X139568297Y-115638767D01*
X139576705Y-115635615D01*
X139693261Y-115548261D01*
X139780615Y-115431705D01*
X139831745Y-115295316D01*
X139838500Y-115233134D01*
X139838500Y-113436866D01*
X139831745Y-113374684D01*
X139780615Y-113238295D01*
X139693261Y-113121739D01*
X139576705Y-113034385D01*
X139440316Y-112983255D01*
X139378134Y-112976500D01*
X137581866Y-112976500D01*
X137519684Y-112983255D01*
X137383295Y-113034385D01*
X137266739Y-113121739D01*
X137179385Y-113238295D01*
X137128255Y-113374684D01*
X137121500Y-113436866D01*
X137121500Y-115233134D01*
X137128255Y-115295316D01*
X137179385Y-115431705D01*
X137266739Y-115548261D01*
X137383295Y-115635615D01*
X137391704Y-115638767D01*
X137391705Y-115638768D01*
X137500451Y-115679535D01*
X137557216Y-115722176D01*
X137581916Y-115788738D01*
X137566709Y-115858087D01*
X137547316Y-115884568D01*
X137420629Y-116017138D01*
X137294743Y-116201680D01*
X137200688Y-116404305D01*
X137140989Y-116619570D01*
X137117251Y-116841695D01*
X137117548Y-116846848D01*
X137117548Y-116846851D01*
X137123011Y-116941590D01*
X137130110Y-117064715D01*
X137131247Y-117069761D01*
X137131248Y-117069767D01*
X137151119Y-117157939D01*
X137179222Y-117282639D01*
X137263266Y-117489616D01*
X137379987Y-117680088D01*
X137526250Y-117848938D01*
X137698126Y-117991632D01*
X137768595Y-118032811D01*
X137771445Y-118034476D01*
X137820169Y-118086114D01*
X137833240Y-118155897D01*
X137806509Y-118221669D01*
X137766055Y-118255027D01*
X137753607Y-118261507D01*
X137749474Y-118264610D01*
X137749471Y-118264612D01*
X137591123Y-118383503D01*
X137574965Y-118395635D01*
X137420629Y-118557138D01*
X137417715Y-118561410D01*
X137417714Y-118561411D01*
X137410930Y-118571356D01*
X137294743Y-118741680D01*
X137200688Y-118944305D01*
X137140989Y-119159570D01*
X137117251Y-119381695D01*
X136090418Y-119381695D01*
X136074852Y-119192361D01*
X136020431Y-118975702D01*
X135931354Y-118770840D01*
X135891906Y-118709862D01*
X135812822Y-118587617D01*
X135812820Y-118587614D01*
X135810014Y-118583277D01*
X135659670Y-118418051D01*
X135655619Y-118414852D01*
X135655615Y-118414848D01*
X135488414Y-118282800D01*
X135488410Y-118282798D01*
X135484359Y-118279598D01*
X135443053Y-118256796D01*
X135393084Y-118206364D01*
X135378312Y-118136921D01*
X135403428Y-118070516D01*
X135430780Y-118043909D01*
X135474603Y-118012650D01*
X135609860Y-117916173D01*
X135768096Y-117758489D01*
X135827594Y-117675689D01*
X135895435Y-117581277D01*
X135898453Y-117577077D01*
X135940070Y-117492872D01*
X135995136Y-117381453D01*
X135995137Y-117381451D01*
X135997430Y-117376811D01*
X136062370Y-117163069D01*
X136091529Y-116941590D01*
X136093156Y-116875000D01*
X136074852Y-116652361D01*
X136020431Y-116435702D01*
X135931354Y-116230840D01*
X135810014Y-116043277D01*
X135806532Y-116039450D01*
X135662798Y-115881488D01*
X135631746Y-115817642D01*
X135640141Y-115747143D01*
X135685317Y-115692375D01*
X135711761Y-115678706D01*
X135818297Y-115638767D01*
X135826705Y-115635615D01*
X135943261Y-115548261D01*
X136030615Y-115431705D01*
X136081745Y-115295316D01*
X136088500Y-115233134D01*
X136088500Y-113436866D01*
X136081745Y-113374684D01*
X136030615Y-113238295D01*
X135943261Y-113121739D01*
X135826705Y-113034385D01*
X135690316Y-112983255D01*
X135628134Y-112976500D01*
X133831866Y-112976500D01*
X133769684Y-112983255D01*
X133633295Y-113034385D01*
X133516739Y-113121739D01*
X133429385Y-113238295D01*
X133378255Y-113374684D01*
X133371500Y-113436866D01*
X133371500Y-115233134D01*
X133378255Y-115295316D01*
X133429385Y-115431705D01*
X133516739Y-115548261D01*
X133633295Y-115635615D01*
X133641704Y-115638767D01*
X133641705Y-115638768D01*
X133750451Y-115679535D01*
X133807216Y-115722176D01*
X133831916Y-115788738D01*
X133816709Y-115858087D01*
X133797316Y-115884568D01*
X133670629Y-116017138D01*
X133544743Y-116201680D01*
X133450688Y-116404305D01*
X133390989Y-116619570D01*
X133367251Y-116841695D01*
X133367548Y-116846848D01*
X133367548Y-116846851D01*
X133373011Y-116941590D01*
X133380110Y-117064715D01*
X133381247Y-117069761D01*
X133381248Y-117069767D01*
X133401119Y-117157939D01*
X133429222Y-117282639D01*
X133513266Y-117489616D01*
X133629987Y-117680088D01*
X133776250Y-117848938D01*
X133948126Y-117991632D01*
X134018595Y-118032811D01*
X134021445Y-118034476D01*
X134070169Y-118086114D01*
X134083240Y-118155897D01*
X134056509Y-118221669D01*
X134016055Y-118255027D01*
X134003607Y-118261507D01*
X133999474Y-118264610D01*
X133999471Y-118264612D01*
X133841123Y-118383503D01*
X133824965Y-118395635D01*
X133670629Y-118557138D01*
X133667715Y-118561410D01*
X133667714Y-118561411D01*
X133660930Y-118571356D01*
X133544743Y-118741680D01*
X133450688Y-118944305D01*
X133390989Y-119159570D01*
X133367251Y-119381695D01*
X132340418Y-119381695D01*
X132324852Y-119192361D01*
X132270431Y-118975702D01*
X132181354Y-118770840D01*
X132141906Y-118709862D01*
X132062822Y-118587617D01*
X132062820Y-118587614D01*
X132060014Y-118583277D01*
X131909670Y-118418051D01*
X131905619Y-118414852D01*
X131905615Y-118414848D01*
X131738414Y-118282800D01*
X131738410Y-118282798D01*
X131734359Y-118279598D01*
X131693053Y-118256796D01*
X131643084Y-118206364D01*
X131628312Y-118136921D01*
X131653428Y-118070516D01*
X131680780Y-118043909D01*
X131724603Y-118012650D01*
X131859860Y-117916173D01*
X132018096Y-117758489D01*
X132077594Y-117675689D01*
X132145435Y-117581277D01*
X132148453Y-117577077D01*
X132190070Y-117492872D01*
X132245136Y-117381453D01*
X132245137Y-117381451D01*
X132247430Y-117376811D01*
X132312370Y-117163069D01*
X132341529Y-116941590D01*
X132343156Y-116875000D01*
X132324852Y-116652361D01*
X132270431Y-116435702D01*
X132181354Y-116230840D01*
X132060014Y-116043277D01*
X132056532Y-116039450D01*
X131912798Y-115881488D01*
X131881746Y-115817642D01*
X131890141Y-115747143D01*
X131935317Y-115692375D01*
X131961761Y-115678706D01*
X132068297Y-115638767D01*
X132076705Y-115635615D01*
X132193261Y-115548261D01*
X132280615Y-115431705D01*
X132331745Y-115295316D01*
X132338500Y-115233134D01*
X132338500Y-113436866D01*
X132331745Y-113374684D01*
X132280615Y-113238295D01*
X132193261Y-113121739D01*
X132076705Y-113034385D01*
X131940316Y-112983255D01*
X131878134Y-112976500D01*
X130081866Y-112976500D01*
X130019684Y-112983255D01*
X129883295Y-113034385D01*
X129766739Y-113121739D01*
X129679385Y-113238295D01*
X129628255Y-113374684D01*
X129621500Y-113436866D01*
X129621500Y-115233134D01*
X129628255Y-115295316D01*
X129679385Y-115431705D01*
X129766739Y-115548261D01*
X129883295Y-115635615D01*
X129891704Y-115638767D01*
X129891705Y-115638768D01*
X130000451Y-115679535D01*
X130057216Y-115722176D01*
X130081916Y-115788738D01*
X130066709Y-115858087D01*
X130047316Y-115884568D01*
X129920629Y-116017138D01*
X129794743Y-116201680D01*
X129700688Y-116404305D01*
X129640989Y-116619570D01*
X129617251Y-116841695D01*
X129617548Y-116846848D01*
X129617548Y-116846851D01*
X129623011Y-116941590D01*
X129630110Y-117064715D01*
X129631247Y-117069761D01*
X129631248Y-117069767D01*
X129651119Y-117157939D01*
X129679222Y-117282639D01*
X129763266Y-117489616D01*
X129879987Y-117680088D01*
X130026250Y-117848938D01*
X130198126Y-117991632D01*
X130268595Y-118032811D01*
X130271445Y-118034476D01*
X130320169Y-118086114D01*
X130333240Y-118155897D01*
X130306509Y-118221669D01*
X130266055Y-118255027D01*
X130253607Y-118261507D01*
X130249474Y-118264610D01*
X130249471Y-118264612D01*
X130091123Y-118383503D01*
X130074965Y-118395635D01*
X129920629Y-118557138D01*
X129917715Y-118561410D01*
X129917714Y-118561411D01*
X129910930Y-118571356D01*
X129794743Y-118741680D01*
X129700688Y-118944305D01*
X129640989Y-119159570D01*
X129617251Y-119381695D01*
X128590418Y-119381695D01*
X128574852Y-119192361D01*
X128520431Y-118975702D01*
X128431354Y-118770840D01*
X128391906Y-118709862D01*
X128312822Y-118587617D01*
X128312820Y-118587614D01*
X128310014Y-118583277D01*
X128159670Y-118418051D01*
X128155619Y-118414852D01*
X128155615Y-118414848D01*
X127988414Y-118282800D01*
X127988410Y-118282798D01*
X127984359Y-118279598D01*
X127943053Y-118256796D01*
X127893084Y-118206364D01*
X127878312Y-118136921D01*
X127903428Y-118070516D01*
X127930780Y-118043909D01*
X127974603Y-118012650D01*
X128109860Y-117916173D01*
X128268096Y-117758489D01*
X128327594Y-117675689D01*
X128395435Y-117581277D01*
X128398453Y-117577077D01*
X128440070Y-117492872D01*
X128495136Y-117381453D01*
X128495137Y-117381451D01*
X128497430Y-117376811D01*
X128562370Y-117163069D01*
X128591529Y-116941590D01*
X128593156Y-116875000D01*
X128574852Y-116652361D01*
X128520431Y-116435702D01*
X128431354Y-116230840D01*
X128310014Y-116043277D01*
X128306532Y-116039450D01*
X128162798Y-115881488D01*
X128131746Y-115817642D01*
X128140141Y-115747143D01*
X128185317Y-115692375D01*
X128211761Y-115678706D01*
X128318297Y-115638767D01*
X128326705Y-115635615D01*
X128443261Y-115548261D01*
X128530615Y-115431705D01*
X128581745Y-115295316D01*
X128588500Y-115233134D01*
X128588500Y-113436866D01*
X128581745Y-113374684D01*
X128530615Y-113238295D01*
X128443261Y-113121739D01*
X128326705Y-113034385D01*
X128190316Y-112983255D01*
X128191152Y-112981026D01*
X128139825Y-112951700D01*
X128107009Y-112888743D01*
X128113439Y-112818038D01*
X128157074Y-112762034D01*
X128204426Y-112741093D01*
X128262288Y-112728794D01*
X128374083Y-112679020D01*
X128430722Y-112653803D01*
X128430724Y-112653802D01*
X128436752Y-112651118D01*
X128591253Y-112538866D01*
X128719040Y-112396944D01*
X128814527Y-112231556D01*
X128873542Y-112049928D01*
X128875984Y-112026695D01*
X161062251Y-112026695D01*
X161062548Y-112031848D01*
X161062548Y-112031851D01*
X161068011Y-112126590D01*
X161075110Y-112249715D01*
X161076247Y-112254761D01*
X161076248Y-112254767D01*
X161096119Y-112342939D01*
X161124222Y-112467639D01*
X161162461Y-112561811D01*
X161198725Y-112651118D01*
X161208266Y-112674616D01*
X161324987Y-112865088D01*
X161471250Y-113033938D01*
X161475230Y-113037242D01*
X161479981Y-113041187D01*
X161519616Y-113100090D01*
X161521113Y-113171071D01*
X161483997Y-113231593D01*
X161443724Y-113256112D01*
X161328295Y-113299385D01*
X161211739Y-113386739D01*
X161124385Y-113503295D01*
X161073255Y-113639684D01*
X161066500Y-113701866D01*
X161066500Y-115498134D01*
X161073255Y-115560316D01*
X161124385Y-115696705D01*
X161211739Y-115813261D01*
X161328295Y-115900615D01*
X161464684Y-115951745D01*
X161526866Y-115958500D01*
X163323134Y-115958500D01*
X163385316Y-115951745D01*
X163521705Y-115900615D01*
X163638261Y-115813261D01*
X163725615Y-115696705D01*
X163776745Y-115560316D01*
X163783500Y-115498134D01*
X163783500Y-113701866D01*
X163776745Y-113639684D01*
X163725615Y-113503295D01*
X163638261Y-113386739D01*
X163521705Y-113299385D01*
X163509132Y-113294672D01*
X163403203Y-113254960D01*
X163346439Y-113212318D01*
X163321739Y-113145756D01*
X163336947Y-113076408D01*
X163358493Y-113047727D01*
X163424047Y-112982402D01*
X163463096Y-112943489D01*
X163522594Y-112860689D01*
X163590435Y-112766277D01*
X163593453Y-112762077D01*
X163609225Y-112730166D01*
X163690136Y-112566453D01*
X163690137Y-112566451D01*
X163692430Y-112561811D01*
X163757370Y-112348069D01*
X163786529Y-112126590D01*
X163788156Y-112060000D01*
X163769852Y-111837361D01*
X163715431Y-111620702D01*
X163626354Y-111415840D01*
X163586906Y-111354862D01*
X163507822Y-111232617D01*
X163507820Y-111232614D01*
X163505014Y-111228277D01*
X163354670Y-111063051D01*
X163350619Y-111059852D01*
X163350615Y-111059848D01*
X163183414Y-110927800D01*
X163183410Y-110927798D01*
X163179359Y-110924598D01*
X162983789Y-110816638D01*
X162978920Y-110814914D01*
X162978916Y-110814912D01*
X162778087Y-110743795D01*
X162778083Y-110743794D01*
X162773212Y-110742069D01*
X162768119Y-110741162D01*
X162768116Y-110741161D01*
X162558373Y-110703800D01*
X162558367Y-110703799D01*
X162553284Y-110702894D01*
X162479452Y-110701992D01*
X162335081Y-110700228D01*
X162335079Y-110700228D01*
X162329911Y-110700165D01*
X162109091Y-110733955D01*
X161896756Y-110803357D01*
X161698607Y-110906507D01*
X161694474Y-110909610D01*
X161694471Y-110909612D01*
X161585798Y-110991206D01*
X161519965Y-111040635D01*
X161498544Y-111063051D01*
X161389412Y-111177251D01*
X161365629Y-111202138D01*
X161239743Y-111386680D01*
X161224003Y-111420590D01*
X161178787Y-111518000D01*
X161145688Y-111589305D01*
X161085989Y-111804570D01*
X161062251Y-112026695D01*
X128875984Y-112026695D01*
X128876524Y-112021562D01*
X128892814Y-111866565D01*
X128893504Y-111860000D01*
X128873542Y-111670072D01*
X128814527Y-111488444D01*
X128719040Y-111323056D01*
X128637609Y-111232617D01*
X128595675Y-111186045D01*
X128595674Y-111186044D01*
X128591253Y-111181134D01*
X128436752Y-111068882D01*
X128430724Y-111066198D01*
X128430722Y-111066197D01*
X128268319Y-110993891D01*
X128268318Y-110993891D01*
X128262288Y-110991206D01*
X128168888Y-110971353D01*
X128081944Y-110952872D01*
X128081939Y-110952872D01*
X128075487Y-110951500D01*
X127884513Y-110951500D01*
X127878061Y-110952872D01*
X127878056Y-110952872D01*
X127791112Y-110971353D01*
X127697712Y-110991206D01*
X127691682Y-110993891D01*
X127691681Y-110993891D01*
X127529278Y-111066197D01*
X127529276Y-111066198D01*
X127523248Y-111068882D01*
X127368747Y-111181134D01*
X127364326Y-111186044D01*
X127364325Y-111186045D01*
X127322392Y-111232617D01*
X127240960Y-111323056D01*
X127145473Y-111488444D01*
X127086458Y-111670072D01*
X127066496Y-111860000D01*
X127067186Y-111866565D01*
X127083477Y-112021562D01*
X127086458Y-112049928D01*
X127145473Y-112231556D01*
X127240960Y-112396944D01*
X127368747Y-112538866D01*
X127523248Y-112651118D01*
X127529276Y-112653802D01*
X127529278Y-112653803D01*
X127585917Y-112679020D01*
X127697712Y-112728794D01*
X127704168Y-112730166D01*
X127705709Y-112730667D01*
X127764315Y-112770741D01*
X127791951Y-112836138D01*
X127779844Y-112906095D01*
X127731837Y-112958401D01*
X127666772Y-112976500D01*
X126331866Y-112976500D01*
X126269684Y-112983255D01*
X126133295Y-113034385D01*
X126016739Y-113121739D01*
X125929385Y-113238295D01*
X125878255Y-113374684D01*
X125871500Y-113436866D01*
X125871500Y-115233134D01*
X125878255Y-115295316D01*
X125929385Y-115431705D01*
X126016739Y-115548261D01*
X126133295Y-115635615D01*
X126141704Y-115638767D01*
X126141705Y-115638768D01*
X126250451Y-115679535D01*
X126307216Y-115722176D01*
X126331916Y-115788738D01*
X126316709Y-115858087D01*
X126297316Y-115884568D01*
X126170629Y-116017138D01*
X126044743Y-116201680D01*
X125950688Y-116404305D01*
X125890989Y-116619570D01*
X125867251Y-116841695D01*
X125867548Y-116846848D01*
X125867548Y-116846851D01*
X125873011Y-116941590D01*
X125880110Y-117064715D01*
X125881247Y-117069761D01*
X125881248Y-117069767D01*
X125901119Y-117157939D01*
X125929222Y-117282639D01*
X126013266Y-117489616D01*
X126129987Y-117680088D01*
X126276250Y-117848938D01*
X126448126Y-117991632D01*
X126518595Y-118032811D01*
X126521445Y-118034476D01*
X126570169Y-118086114D01*
X126583240Y-118155897D01*
X126556509Y-118221669D01*
X126516055Y-118255027D01*
X126503607Y-118261507D01*
X126499474Y-118264610D01*
X126499471Y-118264612D01*
X126341123Y-118383503D01*
X126324965Y-118395635D01*
X126170629Y-118557138D01*
X126167715Y-118561410D01*
X126167714Y-118561411D01*
X126160930Y-118571356D01*
X126044743Y-118741680D01*
X125950688Y-118944305D01*
X125890989Y-119159570D01*
X125867251Y-119381695D01*
X124840418Y-119381695D01*
X124824852Y-119192361D01*
X124770431Y-118975702D01*
X124681354Y-118770840D01*
X124641906Y-118709862D01*
X124562822Y-118587617D01*
X124562820Y-118587614D01*
X124560014Y-118583277D01*
X124409670Y-118418051D01*
X124405619Y-118414852D01*
X124405615Y-118414848D01*
X124238414Y-118282800D01*
X124238410Y-118282798D01*
X124234359Y-118279598D01*
X124193053Y-118256796D01*
X124143084Y-118206364D01*
X124128312Y-118136921D01*
X124153428Y-118070516D01*
X124180780Y-118043909D01*
X124224603Y-118012650D01*
X124359860Y-117916173D01*
X124518096Y-117758489D01*
X124577594Y-117675689D01*
X124645435Y-117581277D01*
X124648453Y-117577077D01*
X124690070Y-117492872D01*
X124745136Y-117381453D01*
X124745137Y-117381451D01*
X124747430Y-117376811D01*
X124812370Y-117163069D01*
X124841529Y-116941590D01*
X124843156Y-116875000D01*
X124824852Y-116652361D01*
X124770431Y-116435702D01*
X124681354Y-116230840D01*
X124560014Y-116043277D01*
X124556532Y-116039450D01*
X124412798Y-115881488D01*
X124381746Y-115817642D01*
X124390141Y-115747143D01*
X124435317Y-115692375D01*
X124461761Y-115678706D01*
X124568297Y-115638767D01*
X124576705Y-115635615D01*
X124693261Y-115548261D01*
X124780615Y-115431705D01*
X124831745Y-115295316D01*
X124838500Y-115233134D01*
X124838500Y-113436866D01*
X124831745Y-113374684D01*
X124780615Y-113238295D01*
X124693261Y-113121739D01*
X124576705Y-113034385D01*
X124440316Y-112983255D01*
X124378134Y-112976500D01*
X122581866Y-112976500D01*
X122519684Y-112983255D01*
X122383295Y-113034385D01*
X122266739Y-113121739D01*
X122179385Y-113238295D01*
X122128255Y-113374684D01*
X122121500Y-113436866D01*
X122121500Y-115233134D01*
X122128255Y-115295316D01*
X122179385Y-115431705D01*
X122266739Y-115548261D01*
X122383295Y-115635615D01*
X122391704Y-115638767D01*
X122391705Y-115638768D01*
X122500451Y-115679535D01*
X122557216Y-115722176D01*
X122581916Y-115788738D01*
X122566709Y-115858087D01*
X122547316Y-115884568D01*
X122420629Y-116017138D01*
X122294743Y-116201680D01*
X122200688Y-116404305D01*
X122140989Y-116619570D01*
X122117251Y-116841695D01*
X122117548Y-116846848D01*
X122117548Y-116846851D01*
X122123011Y-116941590D01*
X122130110Y-117064715D01*
X122131247Y-117069761D01*
X122131248Y-117069767D01*
X122151119Y-117157939D01*
X122179222Y-117282639D01*
X122263266Y-117489616D01*
X122379987Y-117680088D01*
X122526250Y-117848938D01*
X122698126Y-117991632D01*
X122768595Y-118032811D01*
X122771445Y-118034476D01*
X122820169Y-118086114D01*
X122833240Y-118155897D01*
X122806509Y-118221669D01*
X122766055Y-118255027D01*
X122753607Y-118261507D01*
X122749474Y-118264610D01*
X122749471Y-118264612D01*
X122591123Y-118383503D01*
X122574965Y-118395635D01*
X122420629Y-118557138D01*
X122417715Y-118561410D01*
X122417714Y-118561411D01*
X122410930Y-118571356D01*
X122294743Y-118741680D01*
X122200688Y-118944305D01*
X122140989Y-119159570D01*
X122117251Y-119381695D01*
X119488500Y-119381695D01*
X119488500Y-111054669D01*
X122122001Y-111054669D01*
X122122371Y-111061490D01*
X122127895Y-111112352D01*
X122131521Y-111127604D01*
X122176676Y-111248054D01*
X122185214Y-111263649D01*
X122261715Y-111365724D01*
X122274276Y-111378285D01*
X122376351Y-111454786D01*
X122391946Y-111463324D01*
X122512394Y-111508478D01*
X122527649Y-111512105D01*
X122578514Y-111517631D01*
X122585328Y-111518000D01*
X123207885Y-111518000D01*
X123223124Y-111513525D01*
X123224329Y-111512135D01*
X123226000Y-111504452D01*
X123226000Y-111499884D01*
X123734000Y-111499884D01*
X123738475Y-111515123D01*
X123739865Y-111516328D01*
X123747548Y-111517999D01*
X124374669Y-111517999D01*
X124381490Y-111517629D01*
X124432352Y-111512105D01*
X124447604Y-111508479D01*
X124568054Y-111463324D01*
X124583649Y-111454786D01*
X124685724Y-111378285D01*
X124698285Y-111365724D01*
X124774786Y-111263649D01*
X124783324Y-111248054D01*
X124828478Y-111127606D01*
X124832105Y-111112351D01*
X124837631Y-111061486D01*
X124838000Y-111054672D01*
X124838000Y-110432115D01*
X124833525Y-110416876D01*
X124832135Y-110415671D01*
X124824452Y-110414000D01*
X123752115Y-110414000D01*
X123736876Y-110418475D01*
X123735671Y-110419865D01*
X123734000Y-110427548D01*
X123734000Y-111499884D01*
X123226000Y-111499884D01*
X123226000Y-110432115D01*
X123221525Y-110416876D01*
X123220135Y-110415671D01*
X123212452Y-110414000D01*
X122140116Y-110414000D01*
X122124877Y-110418475D01*
X122123672Y-110419865D01*
X122122001Y-110427548D01*
X122122001Y-111054669D01*
X119488500Y-111054669D01*
X119488500Y-107586695D01*
X122117251Y-107586695D01*
X122117548Y-107591848D01*
X122117548Y-107591851D01*
X122125190Y-107724382D01*
X122130110Y-107809715D01*
X122131247Y-107814761D01*
X122131248Y-107814767D01*
X122153392Y-107913023D01*
X122179222Y-108027639D01*
X122240673Y-108178976D01*
X122259812Y-108226109D01*
X122263266Y-108234616D01*
X122270862Y-108247011D01*
X122365293Y-108401109D01*
X122379987Y-108425088D01*
X122526250Y-108593938D01*
X122530225Y-108597238D01*
X122530231Y-108597244D01*
X122535425Y-108601556D01*
X122575059Y-108660460D01*
X122576555Y-108731441D01*
X122539439Y-108791962D01*
X122499168Y-108816480D01*
X122391946Y-108856676D01*
X122376351Y-108865214D01*
X122274276Y-108941715D01*
X122261715Y-108954276D01*
X122185214Y-109056351D01*
X122176676Y-109071946D01*
X122131522Y-109192394D01*
X122127895Y-109207649D01*
X122122369Y-109258514D01*
X122122000Y-109265328D01*
X122122000Y-109887885D01*
X122126475Y-109903124D01*
X122127865Y-109904329D01*
X122135548Y-109906000D01*
X124819884Y-109906000D01*
X124835123Y-109901525D01*
X124836328Y-109900135D01*
X124837999Y-109892452D01*
X124837999Y-109795027D01*
X146612009Y-109795027D01*
X146612699Y-109801592D01*
X146623673Y-109906000D01*
X146631971Y-109984955D01*
X146690986Y-110166583D01*
X146786473Y-110331971D01*
X146914260Y-110473893D01*
X147068761Y-110586145D01*
X147074789Y-110588829D01*
X147074791Y-110588830D01*
X147237194Y-110661136D01*
X147243225Y-110663821D01*
X147336625Y-110683674D01*
X147423569Y-110702155D01*
X147423574Y-110702155D01*
X147430026Y-110703527D01*
X147621000Y-110703527D01*
X147627452Y-110702155D01*
X147627457Y-110702155D01*
X147714400Y-110683674D01*
X147807801Y-110663821D01*
X147813832Y-110661136D01*
X147976235Y-110588830D01*
X147976237Y-110588829D01*
X147982265Y-110586145D01*
X148136766Y-110473893D01*
X148264553Y-110331971D01*
X148360040Y-110166583D01*
X148419055Y-109984955D01*
X148427354Y-109906000D01*
X148438327Y-109801592D01*
X148439017Y-109795027D01*
X148419055Y-109605099D01*
X148360040Y-109423471D01*
X148264553Y-109258083D01*
X148205407Y-109192394D01*
X148141188Y-109121072D01*
X148141187Y-109121071D01*
X148136766Y-109116161D01*
X147982265Y-109003909D01*
X147976237Y-109001225D01*
X147976235Y-109001224D01*
X147813832Y-108928918D01*
X147813831Y-108928918D01*
X147807801Y-108926233D01*
X147714401Y-108906380D01*
X147627457Y-108887899D01*
X147627452Y-108887899D01*
X147621000Y-108886527D01*
X147430026Y-108886527D01*
X147423574Y-108887899D01*
X147423569Y-108887899D01*
X147336625Y-108906380D01*
X147243225Y-108926233D01*
X147237195Y-108928918D01*
X147237194Y-108928918D01*
X147074791Y-109001224D01*
X147074789Y-109001225D01*
X147068761Y-109003909D01*
X146914260Y-109116161D01*
X146909839Y-109121071D01*
X146909838Y-109121072D01*
X146845620Y-109192394D01*
X146786473Y-109258083D01*
X146690986Y-109423471D01*
X146631971Y-109605099D01*
X146612009Y-109795027D01*
X124837999Y-109795027D01*
X124837999Y-109265331D01*
X124837629Y-109258510D01*
X124832105Y-109207648D01*
X124828479Y-109192396D01*
X124783324Y-109071946D01*
X124774786Y-109056351D01*
X124698285Y-108954276D01*
X124685724Y-108941715D01*
X124583649Y-108865214D01*
X124568054Y-108856676D01*
X124457813Y-108815348D01*
X124401049Y-108772706D01*
X124376349Y-108706145D01*
X124391557Y-108636796D01*
X124413104Y-108608115D01*
X124514430Y-108507144D01*
X124514440Y-108507132D01*
X124518096Y-108503489D01*
X124577594Y-108420689D01*
X124645435Y-108326277D01*
X124648453Y-108322077D01*
X124675611Y-108267128D01*
X124745136Y-108126453D01*
X124745137Y-108126451D01*
X124747430Y-108121811D01*
X124801260Y-107944637D01*
X124810865Y-107913023D01*
X124810865Y-107913021D01*
X124812370Y-107908069D01*
X124841529Y-107686590D01*
X124842320Y-107654205D01*
X124843074Y-107623365D01*
X124843074Y-107623361D01*
X124843156Y-107620000D01*
X124824852Y-107397361D01*
X124815468Y-107360000D01*
X137566496Y-107360000D01*
X137586458Y-107549928D01*
X137645473Y-107731556D01*
X137740960Y-107896944D01*
X137745378Y-107901851D01*
X137745379Y-107901852D01*
X137864325Y-108033955D01*
X137868747Y-108038866D01*
X137966127Y-108109617D01*
X137982911Y-108121811D01*
X138023248Y-108151118D01*
X138029276Y-108153802D01*
X138029278Y-108153803D01*
X138191681Y-108226109D01*
X138197712Y-108228794D01*
X138274501Y-108245116D01*
X138378056Y-108267128D01*
X138378061Y-108267128D01*
X138384513Y-108268500D01*
X138575487Y-108268500D01*
X138581939Y-108267128D01*
X138581944Y-108267128D01*
X138685499Y-108245116D01*
X138762288Y-108228794D01*
X138768319Y-108226109D01*
X138930722Y-108153803D01*
X138930724Y-108153802D01*
X138936752Y-108151118D01*
X138977090Y-108121811D01*
X138993873Y-108109617D01*
X139091253Y-108038866D01*
X139095675Y-108033955D01*
X139214621Y-107901852D01*
X139214622Y-107901851D01*
X139219040Y-107896944D01*
X139314527Y-107731556D01*
X139373542Y-107549928D01*
X139393504Y-107360000D01*
X139373542Y-107170072D01*
X139314527Y-106988444D01*
X139309993Y-106980590D01*
X139246547Y-106870699D01*
X151771500Y-106870699D01*
X151771693Y-106873148D01*
X151771693Y-106873155D01*
X151773952Y-106901852D01*
X151786391Y-107059903D01*
X151787545Y-107064710D01*
X151787546Y-107064716D01*
X151815392Y-107180702D01*
X151845495Y-107306091D01*
X151847388Y-107310662D01*
X151847389Y-107310664D01*
X151924228Y-107496169D01*
X151942384Y-107540002D01*
X152074672Y-107755876D01*
X152239102Y-107948398D01*
X152431624Y-108112828D01*
X152647498Y-108245116D01*
X152652068Y-108247009D01*
X152652072Y-108247011D01*
X152833298Y-108322077D01*
X152881409Y-108342005D01*
X152966032Y-108362321D01*
X153122784Y-108399954D01*
X153122790Y-108399955D01*
X153127597Y-108401109D01*
X153380000Y-108420974D01*
X153632403Y-108401109D01*
X153637210Y-108399955D01*
X153637216Y-108399954D01*
X153793968Y-108362321D01*
X153878591Y-108342005D01*
X153926702Y-108322077D01*
X154107928Y-108247011D01*
X154107932Y-108247009D01*
X154112502Y-108245116D01*
X154328376Y-108112828D01*
X154520898Y-107948398D01*
X154523093Y-107945828D01*
X154585024Y-107912010D01*
X154625414Y-107909868D01*
X154678467Y-107915631D01*
X154678471Y-107915631D01*
X154681866Y-107916000D01*
X156278134Y-107916000D01*
X156340316Y-107909245D01*
X156476705Y-107858115D01*
X156593261Y-107770761D01*
X156617579Y-107738313D01*
X156674436Y-107695799D01*
X156745254Y-107690773D01*
X156788680Y-107709298D01*
X156866601Y-107761659D01*
X156866610Y-107761664D01*
X156871262Y-107764790D01*
X157076967Y-107855088D01*
X157082418Y-107856397D01*
X157082422Y-107856398D01*
X157289954Y-107906222D01*
X157295411Y-107907532D01*
X157373079Y-107912010D01*
X157514083Y-107920140D01*
X157514086Y-107920140D01*
X157519690Y-107920463D01*
X157742715Y-107893475D01*
X157957435Y-107827418D01*
X157962415Y-107824848D01*
X157962419Y-107824846D01*
X158152081Y-107726954D01*
X158152082Y-107726954D01*
X158157064Y-107724382D01*
X158335292Y-107587623D01*
X158339063Y-107583478D01*
X158339067Y-107583475D01*
X158386480Y-107531369D01*
X158447121Y-107494446D01*
X158518096Y-107496169D01*
X158567358Y-107525683D01*
X158684799Y-107639492D01*
X158871262Y-107764790D01*
X159076967Y-107855088D01*
X159082418Y-107856397D01*
X159082422Y-107856398D01*
X159289954Y-107906222D01*
X159295411Y-107907532D01*
X159373079Y-107912010D01*
X159514083Y-107920140D01*
X159514086Y-107920140D01*
X159519690Y-107920463D01*
X159742715Y-107893475D01*
X159957435Y-107827418D01*
X159962415Y-107824848D01*
X159962419Y-107824846D01*
X160131278Y-107737691D01*
X160200985Y-107724222D01*
X160266909Y-107750577D01*
X160284879Y-107767827D01*
X160435889Y-107944637D01*
X160435894Y-107944642D01*
X160439102Y-107948398D01*
X160631624Y-108112828D01*
X160847498Y-108245116D01*
X160852068Y-108247009D01*
X160852072Y-108247011D01*
X161033298Y-108322077D01*
X161081409Y-108342005D01*
X161166032Y-108362321D01*
X161322784Y-108399954D01*
X161322790Y-108399955D01*
X161327597Y-108401109D01*
X161580000Y-108420974D01*
X161832403Y-108401109D01*
X161837210Y-108399955D01*
X161837216Y-108399954D01*
X161993968Y-108362321D01*
X162078591Y-108342005D01*
X162126702Y-108322077D01*
X162307928Y-108247011D01*
X162307932Y-108247009D01*
X162312502Y-108245116D01*
X162528376Y-108112828D01*
X162720898Y-107948398D01*
X162885328Y-107755876D01*
X163017616Y-107540002D01*
X163035773Y-107496169D01*
X163112611Y-107310664D01*
X163112612Y-107310662D01*
X163114505Y-107306091D01*
X163144608Y-107180702D01*
X163172454Y-107064716D01*
X163172455Y-107064710D01*
X163173609Y-107059903D01*
X163186048Y-106901852D01*
X163188307Y-106873155D01*
X163188307Y-106873148D01*
X163188500Y-106870699D01*
X163188500Y-105444301D01*
X163173609Y-105255097D01*
X163114505Y-105008909D01*
X163112611Y-105004336D01*
X163019511Y-104779572D01*
X163019509Y-104779568D01*
X163017616Y-104774998D01*
X162885328Y-104559124D01*
X162720898Y-104366602D01*
X162528376Y-104202172D01*
X162312502Y-104069884D01*
X162307932Y-104067991D01*
X162307928Y-104067989D01*
X162083164Y-103974889D01*
X162083162Y-103974888D01*
X162078591Y-103972995D01*
X161993968Y-103952679D01*
X161837216Y-103915046D01*
X161837210Y-103915045D01*
X161832403Y-103913891D01*
X161580000Y-103894026D01*
X161327597Y-103913891D01*
X161322790Y-103915045D01*
X161322784Y-103915046D01*
X161166032Y-103952679D01*
X161081409Y-103972995D01*
X161076838Y-103974888D01*
X161076836Y-103974889D01*
X160852072Y-104067989D01*
X160852068Y-104067991D01*
X160847498Y-104069884D01*
X160631624Y-104202172D01*
X160439102Y-104366602D01*
X160435894Y-104370358D01*
X160284617Y-104547480D01*
X160225166Y-104586289D01*
X160154172Y-104586795D01*
X160118534Y-104570233D01*
X160088738Y-104550210D01*
X159883033Y-104459912D01*
X159877582Y-104458603D01*
X159877578Y-104458602D01*
X159670046Y-104408778D01*
X159670045Y-104408778D01*
X159664589Y-104407468D01*
X159580525Y-104402621D01*
X159445917Y-104394860D01*
X159445914Y-104394860D01*
X159440310Y-104394537D01*
X159217285Y-104421525D01*
X159002565Y-104487582D01*
X158997585Y-104490152D01*
X158997581Y-104490154D01*
X158855790Y-104563338D01*
X158802936Y-104590618D01*
X158624708Y-104727377D01*
X158620937Y-104731522D01*
X158620933Y-104731525D01*
X158573520Y-104783631D01*
X158512879Y-104820554D01*
X158441904Y-104818831D01*
X158392642Y-104789317D01*
X158275201Y-104675508D01*
X158088738Y-104550210D01*
X157883033Y-104459912D01*
X157877582Y-104458603D01*
X157877578Y-104458602D01*
X157670046Y-104408778D01*
X157670045Y-104408778D01*
X157664589Y-104407468D01*
X157580525Y-104402621D01*
X157445917Y-104394860D01*
X157445914Y-104394860D01*
X157440310Y-104394537D01*
X157217285Y-104421525D01*
X157002565Y-104487582D01*
X156997585Y-104490152D01*
X156997581Y-104490154D01*
X156855790Y-104563338D01*
X156802936Y-104590618D01*
X156798488Y-104594031D01*
X156798482Y-104594035D01*
X156792986Y-104598252D01*
X156726766Y-104623852D01*
X156657217Y-104609587D01*
X156615458Y-104573856D01*
X156598641Y-104551418D01*
X156593261Y-104544239D01*
X156476705Y-104456885D01*
X156340316Y-104405755D01*
X156278134Y-104399000D01*
X154681866Y-104399000D01*
X154678471Y-104399369D01*
X154678467Y-104399369D01*
X154625414Y-104405132D01*
X154555531Y-104392603D01*
X154523240Y-104369345D01*
X154520898Y-104366602D01*
X154328376Y-104202172D01*
X154112502Y-104069884D01*
X154107932Y-104067991D01*
X154107928Y-104067989D01*
X153883164Y-103974889D01*
X153883162Y-103974888D01*
X153878591Y-103972995D01*
X153793968Y-103952679D01*
X153637216Y-103915046D01*
X153637210Y-103915045D01*
X153632403Y-103913891D01*
X153380000Y-103894026D01*
X153127597Y-103913891D01*
X153122790Y-103915045D01*
X153122784Y-103915046D01*
X152966032Y-103952679D01*
X152881409Y-103972995D01*
X152876838Y-103974888D01*
X152876836Y-103974889D01*
X152652072Y-104067989D01*
X152652068Y-104067991D01*
X152647498Y-104069884D01*
X152431624Y-104202172D01*
X152239102Y-104366602D01*
X152074672Y-104559124D01*
X151942384Y-104774998D01*
X151940491Y-104779568D01*
X151940489Y-104779572D01*
X151847389Y-105004336D01*
X151845495Y-105008909D01*
X151786391Y-105255097D01*
X151771500Y-105444301D01*
X151771500Y-106870699D01*
X139246547Y-106870699D01*
X139222341Y-106828774D01*
X139219040Y-106823056D01*
X139184286Y-106784457D01*
X139095675Y-106686045D01*
X139095674Y-106686044D01*
X139091253Y-106681134D01*
X138980456Y-106600635D01*
X138942094Y-106572763D01*
X138942093Y-106572762D01*
X138936752Y-106568882D01*
X138930724Y-106566198D01*
X138930722Y-106566197D01*
X138768319Y-106493891D01*
X138768318Y-106493891D01*
X138762288Y-106491206D01*
X138660697Y-106469612D01*
X138581944Y-106452872D01*
X138581939Y-106452872D01*
X138575487Y-106451500D01*
X138384513Y-106451500D01*
X138378061Y-106452872D01*
X138378056Y-106452872D01*
X138299303Y-106469612D01*
X138197712Y-106491206D01*
X138191682Y-106493891D01*
X138191681Y-106493891D01*
X138029278Y-106566197D01*
X138029276Y-106566198D01*
X138023248Y-106568882D01*
X138017907Y-106572762D01*
X138017906Y-106572763D01*
X137979544Y-106600635D01*
X137868747Y-106681134D01*
X137864326Y-106686044D01*
X137864325Y-106686045D01*
X137775715Y-106784457D01*
X137740960Y-106823056D01*
X137737659Y-106828774D01*
X137650008Y-106980590D01*
X137645473Y-106988444D01*
X137586458Y-107170072D01*
X137566496Y-107360000D01*
X124815468Y-107360000D01*
X124770431Y-107180702D01*
X124681354Y-106975840D01*
X124582514Y-106823056D01*
X124562822Y-106792617D01*
X124562820Y-106792614D01*
X124560014Y-106788277D01*
X124409670Y-106623051D01*
X124405619Y-106619852D01*
X124405615Y-106619848D01*
X124238414Y-106487800D01*
X124238410Y-106487798D01*
X124234359Y-106484598D01*
X124193053Y-106461796D01*
X124143084Y-106411364D01*
X124132158Y-106360000D01*
X127566496Y-106360000D01*
X127567186Y-106366565D01*
X127579592Y-106484598D01*
X127586458Y-106549928D01*
X127645473Y-106731556D01*
X127648776Y-106737278D01*
X127648777Y-106737279D01*
X127676015Y-106784457D01*
X127740960Y-106896944D01*
X127745378Y-106901851D01*
X127745379Y-106901852D01*
X127785742Y-106946680D01*
X127868747Y-107038866D01*
X127967843Y-107110864D01*
X128014291Y-107144610D01*
X128023248Y-107151118D01*
X128029276Y-107153802D01*
X128029278Y-107153803D01*
X128191681Y-107226109D01*
X128197712Y-107228794D01*
X128291112Y-107248647D01*
X128378056Y-107267128D01*
X128378061Y-107267128D01*
X128384513Y-107268500D01*
X128575487Y-107268500D01*
X128581939Y-107267128D01*
X128581944Y-107267128D01*
X128668888Y-107248647D01*
X128762288Y-107228794D01*
X128768319Y-107226109D01*
X128930722Y-107153803D01*
X128930724Y-107153802D01*
X128936752Y-107151118D01*
X128945710Y-107144610D01*
X128992157Y-107110864D01*
X129091253Y-107038866D01*
X129174258Y-106946680D01*
X129214621Y-106901852D01*
X129214622Y-106901851D01*
X129219040Y-106896944D01*
X129283985Y-106784457D01*
X129311223Y-106737279D01*
X129311224Y-106737278D01*
X129314527Y-106731556D01*
X129373542Y-106549928D01*
X129380409Y-106484598D01*
X129392814Y-106366565D01*
X129393504Y-106360000D01*
X132066496Y-106360000D01*
X132067186Y-106366565D01*
X132079592Y-106484598D01*
X132086458Y-106549928D01*
X132145473Y-106731556D01*
X132148776Y-106737278D01*
X132148777Y-106737279D01*
X132176015Y-106784457D01*
X132240960Y-106896944D01*
X132245378Y-106901851D01*
X132245379Y-106901852D01*
X132285742Y-106946680D01*
X132368747Y-107038866D01*
X132467843Y-107110864D01*
X132514291Y-107144610D01*
X132523248Y-107151118D01*
X132529276Y-107153802D01*
X132529278Y-107153803D01*
X132691681Y-107226109D01*
X132697712Y-107228794D01*
X132791112Y-107248647D01*
X132878056Y-107267128D01*
X132878061Y-107267128D01*
X132884513Y-107268500D01*
X133075487Y-107268500D01*
X133081939Y-107267128D01*
X133081944Y-107267128D01*
X133168888Y-107248647D01*
X133262288Y-107228794D01*
X133268319Y-107226109D01*
X133430722Y-107153803D01*
X133430724Y-107153802D01*
X133436752Y-107151118D01*
X133445710Y-107144610D01*
X133492157Y-107110864D01*
X133591253Y-107038866D01*
X133674258Y-106946680D01*
X133714621Y-106901852D01*
X133714622Y-106901851D01*
X133719040Y-106896944D01*
X133783985Y-106784457D01*
X133811223Y-106737279D01*
X133811224Y-106737278D01*
X133814527Y-106731556D01*
X133873542Y-106549928D01*
X133880409Y-106484598D01*
X133892814Y-106366565D01*
X133893504Y-106360000D01*
X135066496Y-106360000D01*
X135067186Y-106366565D01*
X135079592Y-106484598D01*
X135086458Y-106549928D01*
X135145473Y-106731556D01*
X135148776Y-106737278D01*
X135148777Y-106737279D01*
X135176015Y-106784457D01*
X135240960Y-106896944D01*
X135245378Y-106901851D01*
X135245379Y-106901852D01*
X135285742Y-106946680D01*
X135368747Y-107038866D01*
X135467843Y-107110864D01*
X135514291Y-107144610D01*
X135523248Y-107151118D01*
X135529276Y-107153802D01*
X135529278Y-107153803D01*
X135691681Y-107226109D01*
X135697712Y-107228794D01*
X135791112Y-107248647D01*
X135878056Y-107267128D01*
X135878061Y-107267128D01*
X135884513Y-107268500D01*
X136075487Y-107268500D01*
X136081939Y-107267128D01*
X136081944Y-107267128D01*
X136168888Y-107248647D01*
X136262288Y-107228794D01*
X136268319Y-107226109D01*
X136430722Y-107153803D01*
X136430724Y-107153802D01*
X136436752Y-107151118D01*
X136445710Y-107144610D01*
X136492157Y-107110864D01*
X136591253Y-107038866D01*
X136674258Y-106946680D01*
X136714621Y-106901852D01*
X136714622Y-106901851D01*
X136719040Y-106896944D01*
X136783985Y-106784457D01*
X136811223Y-106737279D01*
X136811224Y-106737278D01*
X136814527Y-106731556D01*
X136873542Y-106549928D01*
X136880409Y-106484598D01*
X136892814Y-106366565D01*
X136893504Y-106360000D01*
X136886264Y-106291114D01*
X136874232Y-106176635D01*
X136874232Y-106176633D01*
X136873542Y-106170072D01*
X136814527Y-105988444D01*
X136802226Y-105967137D01*
X136722341Y-105828774D01*
X136719040Y-105823056D01*
X136682143Y-105782077D01*
X136595675Y-105686045D01*
X136595674Y-105686044D01*
X136591253Y-105681134D01*
X136436752Y-105568882D01*
X136430724Y-105566198D01*
X136430722Y-105566197D01*
X136268319Y-105493891D01*
X136268318Y-105493891D01*
X136262288Y-105491206D01*
X136168888Y-105471353D01*
X136081944Y-105452872D01*
X136081939Y-105452872D01*
X136075487Y-105451500D01*
X135884513Y-105451500D01*
X135878061Y-105452872D01*
X135878056Y-105452872D01*
X135791113Y-105471353D01*
X135697712Y-105491206D01*
X135691682Y-105493891D01*
X135691681Y-105493891D01*
X135529278Y-105566197D01*
X135529276Y-105566198D01*
X135523248Y-105568882D01*
X135368747Y-105681134D01*
X135364326Y-105686044D01*
X135364325Y-105686045D01*
X135277858Y-105782077D01*
X135240960Y-105823056D01*
X135237659Y-105828774D01*
X135157775Y-105967137D01*
X135145473Y-105988444D01*
X135086458Y-106170072D01*
X135085768Y-106176633D01*
X135085768Y-106176635D01*
X135073736Y-106291114D01*
X135066496Y-106360000D01*
X133893504Y-106360000D01*
X133886264Y-106291114D01*
X133874232Y-106176635D01*
X133874232Y-106176633D01*
X133873542Y-106170072D01*
X133814527Y-105988444D01*
X133802226Y-105967137D01*
X133722341Y-105828774D01*
X133719040Y-105823056D01*
X133682143Y-105782077D01*
X133595675Y-105686045D01*
X133595674Y-105686044D01*
X133591253Y-105681134D01*
X133436752Y-105568882D01*
X133430724Y-105566198D01*
X133430722Y-105566197D01*
X133268319Y-105493891D01*
X133268318Y-105493891D01*
X133262288Y-105491206D01*
X133168888Y-105471353D01*
X133081944Y-105452872D01*
X133081939Y-105452872D01*
X133075487Y-105451500D01*
X132884513Y-105451500D01*
X132878061Y-105452872D01*
X132878056Y-105452872D01*
X132791113Y-105471353D01*
X132697712Y-105491206D01*
X132691682Y-105493891D01*
X132691681Y-105493891D01*
X132529278Y-105566197D01*
X132529276Y-105566198D01*
X132523248Y-105568882D01*
X132368747Y-105681134D01*
X132364326Y-105686044D01*
X132364325Y-105686045D01*
X132277858Y-105782077D01*
X132240960Y-105823056D01*
X132237659Y-105828774D01*
X132157775Y-105967137D01*
X132145473Y-105988444D01*
X132086458Y-106170072D01*
X132085768Y-106176633D01*
X132085768Y-106176635D01*
X132073736Y-106291114D01*
X132066496Y-106360000D01*
X129393504Y-106360000D01*
X129386264Y-106291114D01*
X129374232Y-106176635D01*
X129374232Y-106176633D01*
X129373542Y-106170072D01*
X129314527Y-105988444D01*
X129302226Y-105967137D01*
X129222341Y-105828774D01*
X129219040Y-105823056D01*
X129182143Y-105782077D01*
X129095675Y-105686045D01*
X129095674Y-105686044D01*
X129091253Y-105681134D01*
X128936752Y-105568882D01*
X128930724Y-105566198D01*
X128930722Y-105566197D01*
X128768319Y-105493891D01*
X128768318Y-105493891D01*
X128762288Y-105491206D01*
X128668888Y-105471353D01*
X128581944Y-105452872D01*
X128581939Y-105452872D01*
X128575487Y-105451500D01*
X128384513Y-105451500D01*
X128378061Y-105452872D01*
X128378056Y-105452872D01*
X128291113Y-105471353D01*
X128197712Y-105491206D01*
X128191682Y-105493891D01*
X128191681Y-105493891D01*
X128029278Y-105566197D01*
X128029276Y-105566198D01*
X128023248Y-105568882D01*
X127868747Y-105681134D01*
X127864326Y-105686044D01*
X127864325Y-105686045D01*
X127777858Y-105782077D01*
X127740960Y-105823056D01*
X127737659Y-105828774D01*
X127657775Y-105967137D01*
X127645473Y-105988444D01*
X127586458Y-106170072D01*
X127585768Y-106176633D01*
X127585768Y-106176635D01*
X127573736Y-106291114D01*
X127566496Y-106360000D01*
X124132158Y-106360000D01*
X124128312Y-106341921D01*
X124153428Y-106275516D01*
X124180780Y-106248909D01*
X124224603Y-106217650D01*
X124359860Y-106121173D01*
X124518096Y-105963489D01*
X124577594Y-105880689D01*
X124645435Y-105786277D01*
X124648453Y-105782077D01*
X124747430Y-105581811D01*
X124812370Y-105368069D01*
X124841529Y-105146590D01*
X124843156Y-105080000D01*
X124824852Y-104857361D01*
X124770431Y-104640702D01*
X124681354Y-104435840D01*
X124560014Y-104248277D01*
X124409670Y-104083051D01*
X124405619Y-104079852D01*
X124405615Y-104079848D01*
X124238414Y-103947800D01*
X124238410Y-103947798D01*
X124234359Y-103944598D01*
X124193053Y-103921796D01*
X124143084Y-103871364D01*
X124128312Y-103801921D01*
X124153428Y-103735516D01*
X124180780Y-103708909D01*
X124224603Y-103677650D01*
X124359860Y-103581173D01*
X124518096Y-103423489D01*
X124577594Y-103340689D01*
X124645435Y-103246277D01*
X124648453Y-103242077D01*
X124692081Y-103153803D01*
X124745136Y-103046453D01*
X124745137Y-103046451D01*
X124747430Y-103041811D01*
X124812370Y-102828069D01*
X124841529Y-102606590D01*
X124842760Y-102556206D01*
X124843074Y-102543365D01*
X124843074Y-102543361D01*
X124843156Y-102540000D01*
X124824852Y-102317361D01*
X124770431Y-102100702D01*
X124681354Y-101895840D01*
X124587729Y-101751118D01*
X124562822Y-101712617D01*
X124562820Y-101712614D01*
X124560014Y-101708277D01*
X124409670Y-101543051D01*
X124405619Y-101539852D01*
X124405615Y-101539848D01*
X124355159Y-101500000D01*
X132086496Y-101500000D01*
X132106458Y-101689928D01*
X132165473Y-101871556D01*
X132260960Y-102036944D01*
X132265378Y-102041851D01*
X132265379Y-102041852D01*
X132290098Y-102069305D01*
X132388747Y-102178866D01*
X132543248Y-102291118D01*
X132549276Y-102293802D01*
X132549278Y-102293803D01*
X132683215Y-102353435D01*
X132717712Y-102368794D01*
X132811113Y-102388647D01*
X132898056Y-102407128D01*
X132898061Y-102407128D01*
X132904513Y-102408500D01*
X133095487Y-102408500D01*
X133101939Y-102407128D01*
X133101944Y-102407128D01*
X133188887Y-102388647D01*
X133282288Y-102368794D01*
X133302040Y-102360000D01*
X143066496Y-102360000D01*
X143067186Y-102366565D01*
X143085415Y-102540000D01*
X143086458Y-102549928D01*
X143145473Y-102731556D01*
X143240960Y-102896944D01*
X143368747Y-103038866D01*
X143523248Y-103151118D01*
X143529276Y-103153802D01*
X143529278Y-103153803D01*
X143540996Y-103159020D01*
X143697712Y-103228794D01*
X143779963Y-103246277D01*
X143878056Y-103267128D01*
X143878061Y-103267128D01*
X143884513Y-103268500D01*
X144075487Y-103268500D01*
X144081939Y-103267128D01*
X144081944Y-103267128D01*
X144180037Y-103246277D01*
X144262288Y-103228794D01*
X144419004Y-103159020D01*
X144430722Y-103153803D01*
X144430724Y-103153802D01*
X144436752Y-103151118D01*
X144591253Y-103038866D01*
X144719040Y-102896944D01*
X144814527Y-102731556D01*
X144873542Y-102549928D01*
X144874586Y-102540000D01*
X144892814Y-102366565D01*
X144893504Y-102360000D01*
X144888495Y-102312342D01*
X144874232Y-102176635D01*
X144874232Y-102176633D01*
X144873542Y-102170072D01*
X144814527Y-101988444D01*
X144776743Y-101923000D01*
X144760005Y-101854005D01*
X144776743Y-101797000D01*
X144811223Y-101737279D01*
X144811224Y-101737278D01*
X144814527Y-101731556D01*
X144873542Y-101549928D01*
X144874602Y-101539848D01*
X144892814Y-101366565D01*
X144893504Y-101360000D01*
X144887107Y-101299137D01*
X144874232Y-101176635D01*
X144874232Y-101176633D01*
X144873542Y-101170072D01*
X144814527Y-100988444D01*
X144803171Y-100968774D01*
X144798105Y-100960000D01*
X152166496Y-100960000D01*
X152167186Y-100966565D01*
X152184861Y-101134729D01*
X152186458Y-101149928D01*
X152245473Y-101331556D01*
X152340960Y-101496944D01*
X152345378Y-101501851D01*
X152345379Y-101501852D01*
X152388667Y-101549928D01*
X152468747Y-101638866D01*
X152623248Y-101751118D01*
X152629276Y-101753802D01*
X152629278Y-101753803D01*
X152726301Y-101797000D01*
X152797712Y-101828794D01*
X152891112Y-101848647D01*
X152978056Y-101867128D01*
X152978061Y-101867128D01*
X152984513Y-101868500D01*
X153175487Y-101868500D01*
X153181939Y-101867128D01*
X153181944Y-101867128D01*
X153268887Y-101848647D01*
X153362288Y-101828794D01*
X153433699Y-101797000D01*
X153530722Y-101753803D01*
X153530724Y-101753802D01*
X153536752Y-101751118D01*
X153691253Y-101638866D01*
X153771333Y-101549928D01*
X153814621Y-101501852D01*
X153814622Y-101501851D01*
X153819040Y-101496944D01*
X153914527Y-101331556D01*
X153973542Y-101149928D01*
X153975140Y-101134729D01*
X153992814Y-100966565D01*
X153993504Y-100960000D01*
X153973542Y-100770072D01*
X153914527Y-100588444D01*
X153819040Y-100423056D01*
X153786789Y-100387237D01*
X153695675Y-100286045D01*
X153695674Y-100286044D01*
X153691253Y-100281134D01*
X153536752Y-100168882D01*
X153530724Y-100166198D01*
X153530722Y-100166197D01*
X153368319Y-100093891D01*
X153368318Y-100093891D01*
X153362288Y-100091206D01*
X153268888Y-100071353D01*
X153181944Y-100052872D01*
X153181939Y-100052872D01*
X153175487Y-100051500D01*
X152984513Y-100051500D01*
X152978061Y-100052872D01*
X152978056Y-100052872D01*
X152891112Y-100071353D01*
X152797712Y-100091206D01*
X152791682Y-100093891D01*
X152791681Y-100093891D01*
X152629278Y-100166197D01*
X152629276Y-100166198D01*
X152623248Y-100168882D01*
X152468747Y-100281134D01*
X152464326Y-100286044D01*
X152464325Y-100286045D01*
X152373212Y-100387237D01*
X152340960Y-100423056D01*
X152245473Y-100588444D01*
X152186458Y-100770072D01*
X152166496Y-100960000D01*
X144798105Y-100960000D01*
X144722341Y-100828774D01*
X144719040Y-100823056D01*
X144677243Y-100776635D01*
X144595675Y-100686045D01*
X144595674Y-100686044D01*
X144591253Y-100681134D01*
X144436752Y-100568882D01*
X144430724Y-100566198D01*
X144430722Y-100566197D01*
X144268319Y-100493891D01*
X144268318Y-100493891D01*
X144262288Y-100491206D01*
X144163303Y-100470166D01*
X144081944Y-100452872D01*
X144081939Y-100452872D01*
X144075487Y-100451500D01*
X143884513Y-100451500D01*
X143878061Y-100452872D01*
X143878056Y-100452872D01*
X143796697Y-100470166D01*
X143697712Y-100491206D01*
X143691682Y-100493891D01*
X143691681Y-100493891D01*
X143529278Y-100566197D01*
X143529276Y-100566198D01*
X143523248Y-100568882D01*
X143368747Y-100681134D01*
X143364326Y-100686044D01*
X143364325Y-100686045D01*
X143282758Y-100776635D01*
X143240960Y-100823056D01*
X143237659Y-100828774D01*
X143156830Y-100968774D01*
X143145473Y-100988444D01*
X143086458Y-101170072D01*
X143085768Y-101176633D01*
X143085768Y-101176635D01*
X143072893Y-101299137D01*
X143066496Y-101360000D01*
X143067186Y-101366565D01*
X143085399Y-101539848D01*
X143086458Y-101549928D01*
X143145473Y-101731556D01*
X143148776Y-101737278D01*
X143148777Y-101737279D01*
X143183257Y-101797000D01*
X143199995Y-101865995D01*
X143183257Y-101923000D01*
X143145473Y-101988444D01*
X143086458Y-102170072D01*
X143085768Y-102176633D01*
X143085768Y-102176635D01*
X143071505Y-102312342D01*
X143066496Y-102360000D01*
X133302040Y-102360000D01*
X133316785Y-102353435D01*
X133450722Y-102293803D01*
X133450724Y-102293802D01*
X133456752Y-102291118D01*
X133611253Y-102178866D01*
X133709902Y-102069305D01*
X133734621Y-102041852D01*
X133734622Y-102041851D01*
X133739040Y-102036944D01*
X133834527Y-101871556D01*
X133893542Y-101689928D01*
X133913504Y-101500000D01*
X133901576Y-101386507D01*
X133894232Y-101316635D01*
X133894232Y-101316633D01*
X133893542Y-101310072D01*
X133834527Y-101128444D01*
X133739040Y-100963056D01*
X133611253Y-100821134D01*
X133456752Y-100708882D01*
X133450724Y-100706198D01*
X133450722Y-100706197D01*
X133288319Y-100633891D01*
X133288318Y-100633891D01*
X133282288Y-100631206D01*
X133188888Y-100611353D01*
X133101944Y-100592872D01*
X133101939Y-100592872D01*
X133095487Y-100591500D01*
X132904513Y-100591500D01*
X132898061Y-100592872D01*
X132898056Y-100592872D01*
X132811113Y-100611353D01*
X132717712Y-100631206D01*
X132711682Y-100633891D01*
X132711681Y-100633891D01*
X132549278Y-100706197D01*
X132549276Y-100706198D01*
X132543248Y-100708882D01*
X132388747Y-100821134D01*
X132260960Y-100963056D01*
X132165473Y-101128444D01*
X132106458Y-101310072D01*
X132105768Y-101316633D01*
X132105768Y-101316635D01*
X132098424Y-101386507D01*
X132086496Y-101500000D01*
X124355159Y-101500000D01*
X124238414Y-101407800D01*
X124238410Y-101407798D01*
X124234359Y-101404598D01*
X124038789Y-101296638D01*
X124033920Y-101294914D01*
X124033916Y-101294912D01*
X123833087Y-101223795D01*
X123833083Y-101223794D01*
X123828212Y-101222069D01*
X123823119Y-101221162D01*
X123823116Y-101221161D01*
X123613373Y-101183800D01*
X123613367Y-101183799D01*
X123608284Y-101182894D01*
X123534452Y-101181992D01*
X123390081Y-101180228D01*
X123390079Y-101180228D01*
X123384911Y-101180165D01*
X123164091Y-101213955D01*
X122951756Y-101283357D01*
X122753607Y-101386507D01*
X122749474Y-101389610D01*
X122749471Y-101389612D01*
X122579100Y-101517530D01*
X122574965Y-101520635D01*
X122420629Y-101682138D01*
X122294743Y-101866680D01*
X122279003Y-101900590D01*
X122218364Y-102031226D01*
X122200688Y-102069305D01*
X122140989Y-102284570D01*
X122117251Y-102506695D01*
X122117548Y-102511848D01*
X122117548Y-102511851D01*
X122123011Y-102606590D01*
X122130110Y-102729715D01*
X122131247Y-102734761D01*
X122131248Y-102734767D01*
X122151119Y-102822939D01*
X122179222Y-102947639D01*
X122263266Y-103154616D01*
X122379987Y-103345088D01*
X122526250Y-103513938D01*
X122698126Y-103656632D01*
X122768595Y-103697811D01*
X122771445Y-103699476D01*
X122820169Y-103751114D01*
X122833240Y-103820897D01*
X122806509Y-103886669D01*
X122766055Y-103920027D01*
X122753607Y-103926507D01*
X122749474Y-103929610D01*
X122749471Y-103929612D01*
X122689168Y-103974889D01*
X122574965Y-104060635D01*
X122420629Y-104222138D01*
X122294743Y-104406680D01*
X122279003Y-104440590D01*
X122205819Y-104598252D01*
X122200688Y-104609305D01*
X122140989Y-104824570D01*
X122117251Y-105046695D01*
X122117548Y-105051848D01*
X122117548Y-105051851D01*
X122123011Y-105146590D01*
X122130110Y-105269715D01*
X122131247Y-105274761D01*
X122131248Y-105274767D01*
X122151119Y-105362939D01*
X122179222Y-105487639D01*
X122217461Y-105581811D01*
X122257792Y-105681134D01*
X122263266Y-105694616D01*
X122379987Y-105885088D01*
X122526250Y-106053938D01*
X122698126Y-106196632D01*
X122768595Y-106237811D01*
X122771445Y-106239476D01*
X122820169Y-106291114D01*
X122833240Y-106360897D01*
X122806509Y-106426669D01*
X122766055Y-106460027D01*
X122753607Y-106466507D01*
X122749474Y-106469610D01*
X122749471Y-106469612D01*
X122620832Y-106566197D01*
X122574965Y-106600635D01*
X122420629Y-106762138D01*
X122417715Y-106766410D01*
X122417714Y-106766411D01*
X122375173Y-106828774D01*
X122294743Y-106946680D01*
X122200688Y-107149305D01*
X122140989Y-107364570D01*
X122117251Y-107586695D01*
X119488500Y-107586695D01*
X119488500Y-99600000D01*
X128986496Y-99600000D01*
X128987186Y-99606565D01*
X129005726Y-99782960D01*
X129006458Y-99789928D01*
X129065473Y-99971556D01*
X129068776Y-99977278D01*
X129068777Y-99977279D01*
X129076949Y-99991433D01*
X129160960Y-100136944D01*
X129165378Y-100141851D01*
X129165379Y-100141852D01*
X129284325Y-100273955D01*
X129288747Y-100278866D01*
X129443248Y-100391118D01*
X129449276Y-100393802D01*
X129449278Y-100393803D01*
X129581950Y-100452872D01*
X129617712Y-100468794D01*
X129711113Y-100488647D01*
X129798056Y-100507128D01*
X129798061Y-100507128D01*
X129804513Y-100508500D01*
X129995487Y-100508500D01*
X130001939Y-100507128D01*
X130001944Y-100507128D01*
X130088888Y-100488647D01*
X130182288Y-100468794D01*
X130218050Y-100452872D01*
X130350722Y-100393803D01*
X130350724Y-100393802D01*
X130356752Y-100391118D01*
X130511253Y-100278866D01*
X130515675Y-100273955D01*
X130634621Y-100141852D01*
X130634622Y-100141851D01*
X130639040Y-100136944D01*
X130723051Y-99991433D01*
X130731223Y-99977279D01*
X130731224Y-99977278D01*
X130734527Y-99971556D01*
X130793542Y-99789928D01*
X130794275Y-99782960D01*
X130812814Y-99606565D01*
X130813504Y-99600000D01*
X130804886Y-99518000D01*
X130794232Y-99416635D01*
X130794232Y-99416633D01*
X130793542Y-99410072D01*
X130734527Y-99228444D01*
X130639040Y-99063056D01*
X130629918Y-99052925D01*
X163966645Y-99052925D01*
X163974153Y-99135424D01*
X163982098Y-99222721D01*
X163984570Y-99249888D01*
X164040410Y-99439619D01*
X164043263Y-99445077D01*
X164043265Y-99445081D01*
X164071916Y-99499884D01*
X164132040Y-99614890D01*
X164255968Y-99769025D01*
X164260692Y-99772989D01*
X164267933Y-99779065D01*
X164407474Y-99896154D01*
X164412872Y-99899121D01*
X164412877Y-99899125D01*
X164533198Y-99965271D01*
X164580787Y-99991433D01*
X164586654Y-99993294D01*
X164586656Y-99993295D01*
X164763436Y-100049373D01*
X164769306Y-100051235D01*
X164923227Y-100068500D01*
X165029769Y-100068500D01*
X165032825Y-100068200D01*
X165032832Y-100068200D01*
X165091340Y-100062463D01*
X165176833Y-100054080D01*
X165182734Y-100052298D01*
X165182736Y-100052298D01*
X165256053Y-100030162D01*
X165366169Y-99996916D01*
X165540796Y-99904066D01*
X165627062Y-99833709D01*
X165689287Y-99782960D01*
X165689290Y-99782957D01*
X165694062Y-99779065D01*
X165706344Y-99764219D01*
X165816201Y-99631425D01*
X165816203Y-99631421D01*
X165820130Y-99626675D01*
X165914198Y-99452701D01*
X165972682Y-99263768D01*
X165988596Y-99112352D01*
X165992711Y-99073204D01*
X165992711Y-99073202D01*
X165993355Y-99067075D01*
X165980520Y-98926045D01*
X165975989Y-98876251D01*
X165975988Y-98876248D01*
X165975430Y-98870112D01*
X165919590Y-98680381D01*
X165909919Y-98661881D01*
X165830813Y-98510568D01*
X165827960Y-98505110D01*
X165704032Y-98350975D01*
X165697727Y-98345684D01*
X165681334Y-98331929D01*
X165552526Y-98223846D01*
X165547128Y-98220879D01*
X165547123Y-98220875D01*
X165384608Y-98131533D01*
X165384609Y-98131533D01*
X165379213Y-98128567D01*
X165373346Y-98126706D01*
X165373344Y-98126705D01*
X165196564Y-98070627D01*
X165196563Y-98070627D01*
X165190694Y-98068765D01*
X165036773Y-98051500D01*
X164930231Y-98051500D01*
X164927175Y-98051800D01*
X164927168Y-98051800D01*
X164868660Y-98057537D01*
X164783167Y-98065920D01*
X164777266Y-98067702D01*
X164777264Y-98067702D01*
X164703947Y-98089838D01*
X164593831Y-98123084D01*
X164419204Y-98215934D01*
X164332938Y-98286291D01*
X164270713Y-98337040D01*
X164270710Y-98337043D01*
X164265938Y-98340935D01*
X164262011Y-98345682D01*
X164262009Y-98345684D01*
X164143799Y-98488575D01*
X164143797Y-98488579D01*
X164139870Y-98493325D01*
X164045802Y-98667299D01*
X163987318Y-98856232D01*
X163986674Y-98862357D01*
X163986674Y-98862358D01*
X163980497Y-98921134D01*
X163966645Y-99052925D01*
X130629918Y-99052925D01*
X130624400Y-99046796D01*
X130515675Y-98926045D01*
X130515674Y-98926044D01*
X130511253Y-98921134D01*
X130356752Y-98808882D01*
X130350724Y-98806198D01*
X130350722Y-98806197D01*
X130188319Y-98733891D01*
X130188318Y-98733891D01*
X130182288Y-98731206D01*
X130088888Y-98711353D01*
X130001944Y-98692872D01*
X130001939Y-98692872D01*
X129995487Y-98691500D01*
X129804513Y-98691500D01*
X129798061Y-98692872D01*
X129798056Y-98692872D01*
X129711113Y-98711353D01*
X129617712Y-98731206D01*
X129611682Y-98733891D01*
X129611681Y-98733891D01*
X129449278Y-98806197D01*
X129449276Y-98806198D01*
X129443248Y-98808882D01*
X129288747Y-98921134D01*
X129284326Y-98926044D01*
X129284325Y-98926045D01*
X129175601Y-99046796D01*
X129160960Y-99063056D01*
X129065473Y-99228444D01*
X129006458Y-99410072D01*
X129005768Y-99416633D01*
X129005768Y-99416635D01*
X128995114Y-99518000D01*
X128986496Y-99600000D01*
X119488500Y-99600000D01*
X119488500Y-99054669D01*
X122122001Y-99054669D01*
X122122371Y-99061490D01*
X122127895Y-99112352D01*
X122131521Y-99127604D01*
X122176676Y-99248054D01*
X122185214Y-99263649D01*
X122261715Y-99365724D01*
X122274276Y-99378285D01*
X122376351Y-99454786D01*
X122391946Y-99463324D01*
X122512394Y-99508478D01*
X122527649Y-99512105D01*
X122578514Y-99517631D01*
X122585328Y-99518000D01*
X123207885Y-99518000D01*
X123223124Y-99513525D01*
X123224329Y-99512135D01*
X123226000Y-99504452D01*
X123226000Y-99499884D01*
X123734000Y-99499884D01*
X123738475Y-99515123D01*
X123739865Y-99516328D01*
X123747548Y-99517999D01*
X124374669Y-99517999D01*
X124381490Y-99517629D01*
X124432352Y-99512105D01*
X124447604Y-99508479D01*
X124568054Y-99463324D01*
X124583649Y-99454786D01*
X124685724Y-99378285D01*
X124698285Y-99365724D01*
X124774786Y-99263649D01*
X124783324Y-99248054D01*
X124828478Y-99127606D01*
X124832105Y-99112351D01*
X124837631Y-99061486D01*
X124838000Y-99054672D01*
X124838000Y-98432115D01*
X124833525Y-98416876D01*
X124832135Y-98415671D01*
X124824452Y-98414000D01*
X123752115Y-98414000D01*
X123736876Y-98418475D01*
X123735671Y-98419865D01*
X123734000Y-98427548D01*
X123734000Y-99499884D01*
X123226000Y-99499884D01*
X123226000Y-98432115D01*
X123221525Y-98416876D01*
X123220135Y-98415671D01*
X123212452Y-98414000D01*
X122140116Y-98414000D01*
X122124877Y-98418475D01*
X122123672Y-98419865D01*
X122122001Y-98427548D01*
X122122001Y-99054669D01*
X119488500Y-99054669D01*
X119488500Y-95586695D01*
X122117251Y-95586695D01*
X122117548Y-95591848D01*
X122117548Y-95591851D01*
X122123011Y-95686590D01*
X122130110Y-95809715D01*
X122131247Y-95814761D01*
X122131248Y-95814767D01*
X122151119Y-95902939D01*
X122179222Y-96027639D01*
X122239973Y-96177251D01*
X122243544Y-96186045D01*
X122263266Y-96234616D01*
X122314019Y-96317438D01*
X122350673Y-96377251D01*
X122379987Y-96425088D01*
X122526250Y-96593938D01*
X122530225Y-96597238D01*
X122530231Y-96597244D01*
X122535425Y-96601556D01*
X122575059Y-96660460D01*
X122576555Y-96731441D01*
X122539439Y-96791962D01*
X122499168Y-96816480D01*
X122391946Y-96856676D01*
X122376351Y-96865214D01*
X122274276Y-96941715D01*
X122261715Y-96954276D01*
X122185214Y-97056351D01*
X122176676Y-97071946D01*
X122131522Y-97192394D01*
X122127895Y-97207649D01*
X122122369Y-97258514D01*
X122122000Y-97265328D01*
X122122000Y-97887885D01*
X122126475Y-97903124D01*
X122127865Y-97904329D01*
X122135548Y-97906000D01*
X124819884Y-97906000D01*
X124835123Y-97901525D01*
X124836328Y-97900135D01*
X124837999Y-97892452D01*
X124837999Y-97265331D01*
X124837629Y-97258510D01*
X124832105Y-97207648D01*
X124828479Y-97192396D01*
X124783324Y-97071946D01*
X124774786Y-97056351D01*
X124698285Y-96954276D01*
X124685724Y-96941715D01*
X124583649Y-96865214D01*
X124574125Y-96860000D01*
X143566496Y-96860000D01*
X143567186Y-96866565D01*
X143579293Y-96981753D01*
X143586458Y-97049928D01*
X143645473Y-97231556D01*
X143740960Y-97396944D01*
X143868747Y-97538866D01*
X144023248Y-97651118D01*
X144029276Y-97653802D01*
X144029278Y-97653803D01*
X144191681Y-97726109D01*
X144197712Y-97728794D01*
X144263365Y-97742749D01*
X144378056Y-97767128D01*
X144378061Y-97767128D01*
X144384513Y-97768500D01*
X144575487Y-97768500D01*
X144581939Y-97767128D01*
X144581944Y-97767128D01*
X144696635Y-97742749D01*
X144762288Y-97728794D01*
X144768319Y-97726109D01*
X144930722Y-97653803D01*
X144930724Y-97653802D01*
X144936752Y-97651118D01*
X145091253Y-97538866D01*
X145219040Y-97396944D01*
X145314527Y-97231556D01*
X145370269Y-97060000D01*
X150966496Y-97060000D01*
X150967186Y-97066565D01*
X150985129Y-97237279D01*
X150986458Y-97249928D01*
X151045473Y-97431556D01*
X151140960Y-97596944D01*
X151145378Y-97601851D01*
X151145379Y-97601852D01*
X151259678Y-97728794D01*
X151268747Y-97738866D01*
X151423248Y-97851118D01*
X151429276Y-97853802D01*
X151429278Y-97853803D01*
X151591681Y-97926109D01*
X151597712Y-97928794D01*
X151691112Y-97948647D01*
X151778056Y-97967128D01*
X151778061Y-97967128D01*
X151784513Y-97968500D01*
X151975487Y-97968500D01*
X151981939Y-97967128D01*
X151981944Y-97967128D01*
X152068888Y-97948647D01*
X152162288Y-97928794D01*
X152168319Y-97926109D01*
X152330722Y-97853803D01*
X152330724Y-97853802D01*
X152336752Y-97851118D01*
X152491253Y-97738866D01*
X152500322Y-97728794D01*
X152614621Y-97601852D01*
X152614622Y-97601851D01*
X152619040Y-97596944D01*
X152714527Y-97431556D01*
X152773542Y-97249928D01*
X152774872Y-97237279D01*
X152792814Y-97066565D01*
X152793504Y-97060000D01*
X152773542Y-96870072D01*
X152770269Y-96860000D01*
X158066496Y-96860000D01*
X158067186Y-96866565D01*
X158079293Y-96981753D01*
X158086458Y-97049928D01*
X158145473Y-97231556D01*
X158240960Y-97396944D01*
X158368747Y-97538866D01*
X158523248Y-97651118D01*
X158529276Y-97653802D01*
X158529278Y-97653803D01*
X158691681Y-97726109D01*
X158697712Y-97728794D01*
X158763365Y-97742749D01*
X158878056Y-97767128D01*
X158878061Y-97767128D01*
X158884513Y-97768500D01*
X159075487Y-97768500D01*
X159081939Y-97767128D01*
X159081944Y-97767128D01*
X159196635Y-97742749D01*
X159262288Y-97728794D01*
X159268319Y-97726109D01*
X159430722Y-97653803D01*
X159430724Y-97653802D01*
X159436752Y-97651118D01*
X159591253Y-97538866D01*
X159719040Y-97396944D01*
X159814527Y-97231556D01*
X159873542Y-97049928D01*
X159880708Y-96981753D01*
X159892814Y-96866565D01*
X159893504Y-96860000D01*
X159879992Y-96731441D01*
X159874232Y-96676635D01*
X159874232Y-96676633D01*
X159873542Y-96670072D01*
X159814527Y-96488444D01*
X159719040Y-96323056D01*
X159602740Y-96193891D01*
X159595675Y-96186045D01*
X159595674Y-96186044D01*
X159591253Y-96181134D01*
X159436752Y-96068882D01*
X159430724Y-96066198D01*
X159430722Y-96066197D01*
X159268319Y-95993891D01*
X159268318Y-95993891D01*
X159262288Y-95991206D01*
X159168888Y-95971353D01*
X159081944Y-95952872D01*
X159081939Y-95952872D01*
X159075487Y-95951500D01*
X158884513Y-95951500D01*
X158878061Y-95952872D01*
X158878056Y-95952872D01*
X158791113Y-95971353D01*
X158697712Y-95991206D01*
X158691682Y-95993891D01*
X158691681Y-95993891D01*
X158529278Y-96066197D01*
X158529276Y-96066198D01*
X158523248Y-96068882D01*
X158368747Y-96181134D01*
X158364326Y-96186044D01*
X158364325Y-96186045D01*
X158357261Y-96193891D01*
X158240960Y-96323056D01*
X158145473Y-96488444D01*
X158086458Y-96670072D01*
X158085768Y-96676633D01*
X158085768Y-96676635D01*
X158080008Y-96731441D01*
X158066496Y-96860000D01*
X152770269Y-96860000D01*
X152714527Y-96688444D01*
X152698371Y-96660460D01*
X152664362Y-96601556D01*
X152619040Y-96523056D01*
X152526869Y-96420689D01*
X152495675Y-96386045D01*
X152495674Y-96386044D01*
X152491253Y-96381134D01*
X152336752Y-96268882D01*
X152330724Y-96266198D01*
X152330722Y-96266197D01*
X152168319Y-96193891D01*
X152168318Y-96193891D01*
X152162288Y-96191206D01*
X152068888Y-96171353D01*
X151981944Y-96152872D01*
X151981939Y-96152872D01*
X151975487Y-96151500D01*
X151784513Y-96151500D01*
X151778061Y-96152872D01*
X151778056Y-96152872D01*
X151691113Y-96171353D01*
X151597712Y-96191206D01*
X151591682Y-96193891D01*
X151591681Y-96193891D01*
X151429278Y-96266197D01*
X151429276Y-96266198D01*
X151423248Y-96268882D01*
X151268747Y-96381134D01*
X151264326Y-96386044D01*
X151264325Y-96386045D01*
X151233132Y-96420689D01*
X151140960Y-96523056D01*
X151095638Y-96601556D01*
X151061630Y-96660460D01*
X151045473Y-96688444D01*
X150986458Y-96870072D01*
X150966496Y-97060000D01*
X145370269Y-97060000D01*
X145373542Y-97049928D01*
X145380708Y-96981753D01*
X145392814Y-96866565D01*
X145393504Y-96860000D01*
X145379992Y-96731441D01*
X145374232Y-96676635D01*
X145374232Y-96676633D01*
X145373542Y-96670072D01*
X145314527Y-96488444D01*
X145219040Y-96323056D01*
X145102740Y-96193891D01*
X145095675Y-96186045D01*
X145095674Y-96186044D01*
X145091253Y-96181134D01*
X144936752Y-96068882D01*
X144930724Y-96066198D01*
X144930722Y-96066197D01*
X144768319Y-95993891D01*
X144768318Y-95993891D01*
X144762288Y-95991206D01*
X144668888Y-95971353D01*
X144581944Y-95952872D01*
X144581939Y-95952872D01*
X144575487Y-95951500D01*
X144384513Y-95951500D01*
X144378061Y-95952872D01*
X144378056Y-95952872D01*
X144291113Y-95971353D01*
X144197712Y-95991206D01*
X144191682Y-95993891D01*
X144191681Y-95993891D01*
X144029278Y-96066197D01*
X144029276Y-96066198D01*
X144023248Y-96068882D01*
X143868747Y-96181134D01*
X143864326Y-96186044D01*
X143864325Y-96186045D01*
X143857261Y-96193891D01*
X143740960Y-96323056D01*
X143645473Y-96488444D01*
X143586458Y-96670072D01*
X143585768Y-96676633D01*
X143585768Y-96676635D01*
X143580008Y-96731441D01*
X143566496Y-96860000D01*
X124574125Y-96860000D01*
X124568054Y-96856676D01*
X124457813Y-96815348D01*
X124401049Y-96772706D01*
X124376349Y-96706145D01*
X124391557Y-96636796D01*
X124413104Y-96608115D01*
X124514430Y-96507144D01*
X124514440Y-96507132D01*
X124518096Y-96503489D01*
X124577594Y-96420689D01*
X124645435Y-96326277D01*
X124648453Y-96322077D01*
X124672826Y-96272763D01*
X124745136Y-96126453D01*
X124745137Y-96126451D01*
X124747430Y-96121811D01*
X124812370Y-95908069D01*
X124841529Y-95686590D01*
X124842309Y-95654681D01*
X124843074Y-95623365D01*
X124843074Y-95623361D01*
X124843156Y-95620000D01*
X124824852Y-95397361D01*
X124821235Y-95382960D01*
X124804787Y-95317476D01*
X124807592Y-95246535D01*
X124848305Y-95188371D01*
X124914000Y-95161452D01*
X124961938Y-95166526D01*
X124961968Y-95166387D01*
X124968424Y-95167759D01*
X124968423Y-95167759D01*
X125142312Y-95204721D01*
X125142317Y-95204721D01*
X125148769Y-95206093D01*
X125339743Y-95206093D01*
X125346195Y-95204721D01*
X125346200Y-95204721D01*
X125433143Y-95186240D01*
X125526544Y-95166387D01*
X125532575Y-95163702D01*
X125694978Y-95091396D01*
X125694980Y-95091395D01*
X125701008Y-95088711D01*
X125855509Y-94976459D01*
X125866039Y-94964764D01*
X125926482Y-94927525D01*
X125997466Y-94928876D01*
X126056451Y-94968389D01*
X126084984Y-95035903D01*
X126086458Y-95049928D01*
X126145473Y-95231556D01*
X126240960Y-95396944D01*
X126368747Y-95538866D01*
X126523248Y-95651118D01*
X126529276Y-95653802D01*
X126529278Y-95653803D01*
X126610372Y-95689908D01*
X126697712Y-95728794D01*
X126791112Y-95748647D01*
X126878056Y-95767128D01*
X126878061Y-95767128D01*
X126884513Y-95768500D01*
X127075487Y-95768500D01*
X127081939Y-95767128D01*
X127081944Y-95767128D01*
X127168887Y-95748647D01*
X127262288Y-95728794D01*
X127349628Y-95689908D01*
X127430722Y-95653803D01*
X127430724Y-95653802D01*
X127436752Y-95651118D01*
X127591253Y-95538866D01*
X127719040Y-95396944D01*
X127814527Y-95231556D01*
X127873542Y-95049928D01*
X127893504Y-94860000D01*
X141566496Y-94860000D01*
X141586458Y-95049928D01*
X141645473Y-95231556D01*
X141740960Y-95396944D01*
X141868747Y-95538866D01*
X142023248Y-95651118D01*
X142029276Y-95653802D01*
X142029278Y-95653803D01*
X142110372Y-95689908D01*
X142197712Y-95728794D01*
X142291112Y-95748647D01*
X142378056Y-95767128D01*
X142378061Y-95767128D01*
X142384513Y-95768500D01*
X142575487Y-95768500D01*
X142581939Y-95767128D01*
X142581944Y-95767128D01*
X142668887Y-95748647D01*
X142762288Y-95728794D01*
X142849628Y-95689908D01*
X142930722Y-95653803D01*
X142930724Y-95653802D01*
X142936752Y-95651118D01*
X143091253Y-95538866D01*
X143219040Y-95396944D01*
X143314527Y-95231556D01*
X143373542Y-95049928D01*
X143393504Y-94860000D01*
X143383668Y-94766411D01*
X143374232Y-94676635D01*
X143374232Y-94676633D01*
X143373542Y-94670072D01*
X143367971Y-94652925D01*
X163966645Y-94652925D01*
X163984570Y-94849888D01*
X164040410Y-95039619D01*
X164043263Y-95045077D01*
X164043265Y-95045081D01*
X164090720Y-95135853D01*
X164132040Y-95214890D01*
X164255968Y-95369025D01*
X164260692Y-95372989D01*
X164267933Y-95379065D01*
X164407474Y-95496154D01*
X164412872Y-95499121D01*
X164412877Y-95499125D01*
X164556180Y-95577905D01*
X164580787Y-95591433D01*
X164586654Y-95593294D01*
X164586656Y-95593295D01*
X164763436Y-95649373D01*
X164769306Y-95651235D01*
X164923227Y-95668500D01*
X165029769Y-95668500D01*
X165032825Y-95668200D01*
X165032832Y-95668200D01*
X165091340Y-95662463D01*
X165176833Y-95654080D01*
X165182734Y-95652298D01*
X165182736Y-95652298D01*
X165300820Y-95616646D01*
X165366169Y-95596916D01*
X165540796Y-95504066D01*
X165665301Y-95402522D01*
X165689287Y-95382960D01*
X165689290Y-95382957D01*
X165694062Y-95379065D01*
X165702368Y-95369025D01*
X165816201Y-95231425D01*
X165816203Y-95231421D01*
X165820130Y-95226675D01*
X165914198Y-95052701D01*
X165972682Y-94863768D01*
X165983364Y-94762138D01*
X165992711Y-94673204D01*
X165992711Y-94673202D01*
X165993355Y-94667075D01*
X165985847Y-94584576D01*
X165975989Y-94476251D01*
X165975988Y-94476248D01*
X165975430Y-94470112D01*
X165961565Y-94423000D01*
X165928112Y-94309338D01*
X165919590Y-94280381D01*
X165909919Y-94261881D01*
X165865675Y-94177251D01*
X165827960Y-94105110D01*
X165704032Y-93950975D01*
X165697727Y-93945684D01*
X165625511Y-93885088D01*
X165552526Y-93823846D01*
X165547128Y-93820879D01*
X165547123Y-93820875D01*
X165384608Y-93731533D01*
X165384609Y-93731533D01*
X165379213Y-93728567D01*
X165373346Y-93726706D01*
X165373344Y-93726705D01*
X165196564Y-93670627D01*
X165196563Y-93670627D01*
X165190694Y-93668765D01*
X165036773Y-93651500D01*
X164930231Y-93651500D01*
X164927175Y-93651800D01*
X164927168Y-93651800D01*
X164868660Y-93657537D01*
X164783167Y-93665920D01*
X164777266Y-93667702D01*
X164777264Y-93667702D01*
X164747677Y-93676635D01*
X164593831Y-93723084D01*
X164419204Y-93815934D01*
X164339807Y-93880689D01*
X164270713Y-93937040D01*
X164270710Y-93937043D01*
X164265938Y-93940935D01*
X164262011Y-93945682D01*
X164262009Y-93945684D01*
X164143799Y-94088575D01*
X164143797Y-94088579D01*
X164139870Y-94093325D01*
X164045802Y-94267299D01*
X163987318Y-94456232D01*
X163966645Y-94652925D01*
X143367971Y-94652925D01*
X143314527Y-94488444D01*
X143307488Y-94476251D01*
X143276743Y-94423000D01*
X143219040Y-94323056D01*
X143185940Y-94286294D01*
X143095675Y-94186045D01*
X143095674Y-94186044D01*
X143091253Y-94181134D01*
X142936752Y-94068882D01*
X142930724Y-94066198D01*
X142930722Y-94066197D01*
X142768319Y-93993891D01*
X142768318Y-93993891D01*
X142762288Y-93991206D01*
X142668888Y-93971353D01*
X142581944Y-93952872D01*
X142581939Y-93952872D01*
X142575487Y-93951500D01*
X142384513Y-93951500D01*
X142378061Y-93952872D01*
X142378056Y-93952872D01*
X142291112Y-93971353D01*
X142197712Y-93991206D01*
X142191682Y-93993891D01*
X142191681Y-93993891D01*
X142029278Y-94066197D01*
X142029276Y-94066198D01*
X142023248Y-94068882D01*
X141868747Y-94181134D01*
X141864326Y-94186044D01*
X141864325Y-94186045D01*
X141774061Y-94286294D01*
X141740960Y-94323056D01*
X141683257Y-94423000D01*
X141652513Y-94476251D01*
X141645473Y-94488444D01*
X141586458Y-94670072D01*
X141585768Y-94676633D01*
X141585768Y-94676635D01*
X141576332Y-94766411D01*
X141566496Y-94860000D01*
X127893504Y-94860000D01*
X127883668Y-94766411D01*
X127874232Y-94676635D01*
X127874232Y-94676633D01*
X127873542Y-94670072D01*
X127814527Y-94488444D01*
X127807488Y-94476251D01*
X127776743Y-94423000D01*
X127760005Y-94354005D01*
X127776743Y-94297000D01*
X127811223Y-94237279D01*
X127811224Y-94237278D01*
X127814527Y-94231556D01*
X127873542Y-94049928D01*
X127884998Y-93940935D01*
X127892814Y-93866565D01*
X127893504Y-93860000D01*
X127888873Y-93815934D01*
X127874232Y-93676635D01*
X127874232Y-93676633D01*
X127873542Y-93670072D01*
X127814527Y-93488444D01*
X127719040Y-93323056D01*
X127675561Y-93274767D01*
X127595675Y-93186045D01*
X127595674Y-93186044D01*
X127591253Y-93181134D01*
X127436752Y-93068882D01*
X127430724Y-93066198D01*
X127430722Y-93066197D01*
X127268319Y-92993891D01*
X127268318Y-92993891D01*
X127262288Y-92991206D01*
X127168887Y-92971353D01*
X127081944Y-92952872D01*
X127081939Y-92952872D01*
X127075487Y-92951500D01*
X126884513Y-92951500D01*
X126878061Y-92952872D01*
X126878056Y-92952872D01*
X126791113Y-92971353D01*
X126697712Y-92991206D01*
X126691682Y-92993891D01*
X126691681Y-92993891D01*
X126529278Y-93066197D01*
X126529276Y-93066198D01*
X126523248Y-93068882D01*
X126368747Y-93181134D01*
X126364326Y-93186044D01*
X126364325Y-93186045D01*
X126284440Y-93274767D01*
X126240960Y-93323056D01*
X126145473Y-93488444D01*
X126143431Y-93494729D01*
X126104916Y-93613266D01*
X126064843Y-93671872D01*
X125999446Y-93699509D01*
X125929489Y-93687402D01*
X125891449Y-93658643D01*
X125855509Y-93618727D01*
X125701008Y-93506475D01*
X125694980Y-93503791D01*
X125694978Y-93503790D01*
X125532575Y-93431484D01*
X125532574Y-93431484D01*
X125526544Y-93428799D01*
X125433143Y-93408946D01*
X125346200Y-93390465D01*
X125346195Y-93390465D01*
X125339743Y-93389093D01*
X125148769Y-93389093D01*
X125142317Y-93390465D01*
X125142312Y-93390465D01*
X124974228Y-93426193D01*
X124903437Y-93420791D01*
X124846805Y-93377974D01*
X124822311Y-93311337D01*
X124823109Y-93286499D01*
X124825999Y-93264547D01*
X124841529Y-93146590D01*
X124843156Y-93080000D01*
X124824852Y-92857361D01*
X124770431Y-92640702D01*
X124681354Y-92435840D01*
X124573097Y-92268500D01*
X124562822Y-92252617D01*
X124562820Y-92252614D01*
X124560014Y-92248277D01*
X124409670Y-92083051D01*
X124405619Y-92079852D01*
X124405615Y-92079848D01*
X124238414Y-91947800D01*
X124238410Y-91947798D01*
X124234359Y-91944598D01*
X124193053Y-91921796D01*
X124143084Y-91871364D01*
X124128312Y-91801921D01*
X124153428Y-91735516D01*
X124180780Y-91708909D01*
X124229784Y-91673955D01*
X124359860Y-91581173D01*
X124384915Y-91556206D01*
X124514435Y-91427137D01*
X124518096Y-91423489D01*
X124555414Y-91371556D01*
X124563718Y-91360000D01*
X135066496Y-91360000D01*
X135086458Y-91549928D01*
X135145473Y-91731556D01*
X135148776Y-91737278D01*
X135148777Y-91737279D01*
X135179861Y-91791118D01*
X135240960Y-91896944D01*
X135245378Y-91901851D01*
X135245379Y-91901852D01*
X135270374Y-91929612D01*
X135368747Y-92038866D01*
X135523248Y-92151118D01*
X135529276Y-92153802D01*
X135529278Y-92153803D01*
X135682762Y-92222138D01*
X135697712Y-92228794D01*
X135789372Y-92248277D01*
X135878056Y-92267128D01*
X135878061Y-92267128D01*
X135884513Y-92268500D01*
X136075487Y-92268500D01*
X136081939Y-92267128D01*
X136081944Y-92267128D01*
X136170628Y-92248277D01*
X136262288Y-92228794D01*
X136277238Y-92222138D01*
X136430722Y-92153803D01*
X136430724Y-92153802D01*
X136436752Y-92151118D01*
X136591253Y-92038866D01*
X136689626Y-91929612D01*
X136714621Y-91901852D01*
X136714622Y-91901851D01*
X136719040Y-91896944D01*
X136780139Y-91791118D01*
X136811223Y-91737279D01*
X136811224Y-91737278D01*
X136814527Y-91731556D01*
X136873542Y-91549928D01*
X136893504Y-91360000D01*
X136891474Y-91340689D01*
X136874232Y-91176635D01*
X136874232Y-91176633D01*
X136873542Y-91170072D01*
X136818282Y-91000000D01*
X151886496Y-91000000D01*
X151887186Y-91006565D01*
X151902747Y-91154616D01*
X151906458Y-91189928D01*
X151965473Y-91371556D01*
X152060960Y-91536944D01*
X152065378Y-91541851D01*
X152065379Y-91541852D01*
X152168727Y-91656632D01*
X152188747Y-91678866D01*
X152252618Y-91725271D01*
X152313271Y-91769338D01*
X152343248Y-91791118D01*
X152349276Y-91793802D01*
X152349278Y-91793803D01*
X152410133Y-91820897D01*
X152517712Y-91868794D01*
X152601807Y-91886669D01*
X152698056Y-91907128D01*
X152698061Y-91907128D01*
X152704513Y-91908500D01*
X152895487Y-91908500D01*
X152901939Y-91907128D01*
X152901944Y-91907128D01*
X152998193Y-91886669D01*
X153082288Y-91868794D01*
X153189867Y-91820897D01*
X153250722Y-91793803D01*
X153250724Y-91793802D01*
X153256752Y-91791118D01*
X153286730Y-91769338D01*
X153347382Y-91725271D01*
X153411253Y-91678866D01*
X153431273Y-91656632D01*
X153534621Y-91541852D01*
X153534622Y-91541851D01*
X153539040Y-91536944D01*
X153634527Y-91371556D01*
X153693542Y-91189928D01*
X153697254Y-91154616D01*
X153712814Y-91006565D01*
X153713504Y-91000000D01*
X153694907Y-90823056D01*
X153694232Y-90816635D01*
X153694232Y-90816633D01*
X153693542Y-90810072D01*
X153634527Y-90628444D01*
X153619976Y-90603240D01*
X153597314Y-90563990D01*
X153539040Y-90463056D01*
X153411253Y-90321134D01*
X153286047Y-90230166D01*
X153262094Y-90212763D01*
X153262093Y-90212762D01*
X153256752Y-90208882D01*
X153250724Y-90206198D01*
X153250722Y-90206197D01*
X153088319Y-90133891D01*
X153088318Y-90133891D01*
X153082288Y-90131206D01*
X152988888Y-90111353D01*
X152901944Y-90092872D01*
X152901939Y-90092872D01*
X152895487Y-90091500D01*
X152704513Y-90091500D01*
X152698061Y-90092872D01*
X152698056Y-90092872D01*
X152611113Y-90111353D01*
X152517712Y-90131206D01*
X152511682Y-90133891D01*
X152511681Y-90133891D01*
X152349278Y-90206197D01*
X152349276Y-90206198D01*
X152343248Y-90208882D01*
X152337907Y-90212762D01*
X152337906Y-90212763D01*
X152313953Y-90230166D01*
X152188747Y-90321134D01*
X152060960Y-90463056D01*
X152002686Y-90563990D01*
X151980025Y-90603240D01*
X151965473Y-90628444D01*
X151906458Y-90810072D01*
X151905768Y-90816633D01*
X151905768Y-90816635D01*
X151905093Y-90823056D01*
X151886496Y-91000000D01*
X136818282Y-91000000D01*
X136814527Y-90988444D01*
X136719040Y-90823056D01*
X136701697Y-90803794D01*
X136595675Y-90686045D01*
X136595674Y-90686044D01*
X136591253Y-90681134D01*
X136436752Y-90568882D01*
X136430724Y-90566198D01*
X136430722Y-90566197D01*
X136268319Y-90493891D01*
X136268318Y-90493891D01*
X136262288Y-90491206D01*
X136168887Y-90471353D01*
X136081944Y-90452872D01*
X136081939Y-90452872D01*
X136075487Y-90451500D01*
X135884513Y-90451500D01*
X135878061Y-90452872D01*
X135878056Y-90452872D01*
X135791112Y-90471353D01*
X135697712Y-90491206D01*
X135691682Y-90493891D01*
X135691681Y-90493891D01*
X135529278Y-90566197D01*
X135529276Y-90566198D01*
X135523248Y-90568882D01*
X135368747Y-90681134D01*
X135364326Y-90686044D01*
X135364325Y-90686045D01*
X135258304Y-90803794D01*
X135240960Y-90823056D01*
X135145473Y-90988444D01*
X135086458Y-91170072D01*
X135085768Y-91176633D01*
X135085768Y-91176635D01*
X135068526Y-91340689D01*
X135066496Y-91360000D01*
X124563718Y-91360000D01*
X124645435Y-91246277D01*
X124648453Y-91242077D01*
X124674227Y-91189928D01*
X124745136Y-91046453D01*
X124745137Y-91046451D01*
X124747430Y-91041811D01*
X124812370Y-90828069D01*
X124841529Y-90606590D01*
X124841611Y-90603240D01*
X124843074Y-90543365D01*
X124843074Y-90543361D01*
X124843156Y-90540000D01*
X124824852Y-90317361D01*
X124770431Y-90100702D01*
X124681354Y-89895840D01*
X124658168Y-89860000D01*
X138566496Y-89860000D01*
X138586458Y-90049928D01*
X138645473Y-90231556D01*
X138648776Y-90237278D01*
X138648777Y-90237279D01*
X138666803Y-90268500D01*
X138740960Y-90396944D01*
X138745378Y-90401851D01*
X138745379Y-90401852D01*
X138864325Y-90533955D01*
X138868747Y-90538866D01*
X138915402Y-90572763D01*
X139000691Y-90634729D01*
X139023248Y-90651118D01*
X139029276Y-90653802D01*
X139029278Y-90653803D01*
X139188173Y-90724547D01*
X139197712Y-90728794D01*
X139291112Y-90748647D01*
X139378056Y-90767128D01*
X139378061Y-90767128D01*
X139384513Y-90768500D01*
X139575487Y-90768500D01*
X139581939Y-90767128D01*
X139581944Y-90767128D01*
X139668887Y-90748647D01*
X139762288Y-90728794D01*
X139771827Y-90724547D01*
X139930722Y-90653803D01*
X139930724Y-90653802D01*
X139936752Y-90651118D01*
X139959310Y-90634729D01*
X140044598Y-90572763D01*
X140091253Y-90538866D01*
X140095675Y-90533955D01*
X140214621Y-90401852D01*
X140214622Y-90401851D01*
X140219040Y-90396944D01*
X140293197Y-90268500D01*
X140311223Y-90237279D01*
X140311224Y-90237278D01*
X140314527Y-90231556D01*
X140373542Y-90049928D01*
X140393504Y-89860000D01*
X140378014Y-89712617D01*
X140374232Y-89676635D01*
X140374232Y-89676633D01*
X140373542Y-89670072D01*
X140314527Y-89488444D01*
X140240370Y-89360000D01*
X142066496Y-89360000D01*
X142067186Y-89366565D01*
X142085399Y-89539848D01*
X142086458Y-89549928D01*
X142145473Y-89731556D01*
X142240960Y-89896944D01*
X142368747Y-90038866D01*
X142441191Y-90091500D01*
X142495842Y-90131206D01*
X142523248Y-90151118D01*
X142529276Y-90153802D01*
X142529278Y-90153803D01*
X142689799Y-90225271D01*
X142697712Y-90228794D01*
X142791113Y-90248647D01*
X142878056Y-90267128D01*
X142878061Y-90267128D01*
X142884513Y-90268500D01*
X143075487Y-90268500D01*
X143081939Y-90267128D01*
X143081944Y-90267128D01*
X143168887Y-90248647D01*
X143262288Y-90228794D01*
X143270201Y-90225271D01*
X143430722Y-90153803D01*
X143430724Y-90153802D01*
X143436752Y-90151118D01*
X143464159Y-90131206D01*
X143518809Y-90091500D01*
X143591253Y-90038866D01*
X143719040Y-89896944D01*
X143814527Y-89731556D01*
X143873542Y-89549928D01*
X143874602Y-89539848D01*
X143892814Y-89366565D01*
X143893504Y-89360000D01*
X144566496Y-89360000D01*
X144567186Y-89366565D01*
X144585399Y-89539848D01*
X144586458Y-89549928D01*
X144645473Y-89731556D01*
X144740960Y-89896944D01*
X144868747Y-90038866D01*
X144941191Y-90091500D01*
X144995842Y-90131206D01*
X145023248Y-90151118D01*
X145029276Y-90153802D01*
X145029278Y-90153803D01*
X145189799Y-90225271D01*
X145197712Y-90228794D01*
X145291113Y-90248647D01*
X145378056Y-90267128D01*
X145378061Y-90267128D01*
X145384513Y-90268500D01*
X145575487Y-90268500D01*
X145581939Y-90267128D01*
X145581944Y-90267128D01*
X145668887Y-90248647D01*
X145762288Y-90228794D01*
X145770201Y-90225271D01*
X145930722Y-90153803D01*
X145930724Y-90153802D01*
X145936752Y-90151118D01*
X145964159Y-90131206D01*
X146018809Y-90091500D01*
X146091253Y-90038866D01*
X146219040Y-89896944D01*
X146314527Y-89731556D01*
X146373542Y-89549928D01*
X146374602Y-89539848D01*
X146392814Y-89366565D01*
X146393504Y-89360000D01*
X146387107Y-89299137D01*
X146374232Y-89176635D01*
X146374232Y-89176633D01*
X146373542Y-89170072D01*
X146314527Y-88988444D01*
X146293990Y-88952872D01*
X146222341Y-88828774D01*
X146219040Y-88823056D01*
X146169387Y-88767910D01*
X146095675Y-88686045D01*
X146095674Y-88686044D01*
X146091253Y-88681134D01*
X145989393Y-88607128D01*
X145942094Y-88572763D01*
X145942093Y-88572762D01*
X145936752Y-88568882D01*
X145930724Y-88566198D01*
X145930722Y-88566197D01*
X145768319Y-88493891D01*
X145768318Y-88493891D01*
X145762288Y-88491206D01*
X145668887Y-88471353D01*
X145581944Y-88452872D01*
X145581939Y-88452872D01*
X145575487Y-88451500D01*
X145384513Y-88451500D01*
X145378061Y-88452872D01*
X145378056Y-88452872D01*
X145291113Y-88471353D01*
X145197712Y-88491206D01*
X145191682Y-88493891D01*
X145191681Y-88493891D01*
X145029278Y-88566197D01*
X145029276Y-88566198D01*
X145023248Y-88568882D01*
X145017907Y-88572762D01*
X145017906Y-88572763D01*
X144970607Y-88607128D01*
X144868747Y-88681134D01*
X144864326Y-88686044D01*
X144864325Y-88686045D01*
X144790614Y-88767910D01*
X144740960Y-88823056D01*
X144737659Y-88828774D01*
X144666011Y-88952872D01*
X144645473Y-88988444D01*
X144586458Y-89170072D01*
X144585768Y-89176633D01*
X144585768Y-89176635D01*
X144572893Y-89299137D01*
X144566496Y-89360000D01*
X143893504Y-89360000D01*
X143887107Y-89299137D01*
X143874232Y-89176635D01*
X143874232Y-89176633D01*
X143873542Y-89170072D01*
X143814527Y-88988444D01*
X143793990Y-88952872D01*
X143722341Y-88828774D01*
X143719040Y-88823056D01*
X143669387Y-88767910D01*
X143595675Y-88686045D01*
X143595674Y-88686044D01*
X143591253Y-88681134D01*
X143489393Y-88607128D01*
X143442094Y-88572763D01*
X143442093Y-88572762D01*
X143436752Y-88568882D01*
X143430724Y-88566198D01*
X143430722Y-88566197D01*
X143268319Y-88493891D01*
X143268318Y-88493891D01*
X143262288Y-88491206D01*
X143168887Y-88471353D01*
X143081944Y-88452872D01*
X143081939Y-88452872D01*
X143075487Y-88451500D01*
X142884513Y-88451500D01*
X142878061Y-88452872D01*
X142878056Y-88452872D01*
X142791113Y-88471353D01*
X142697712Y-88491206D01*
X142691682Y-88493891D01*
X142691681Y-88493891D01*
X142529278Y-88566197D01*
X142529276Y-88566198D01*
X142523248Y-88568882D01*
X142517907Y-88572762D01*
X142517906Y-88572763D01*
X142470607Y-88607128D01*
X142368747Y-88681134D01*
X142364326Y-88686044D01*
X142364325Y-88686045D01*
X142290614Y-88767910D01*
X142240960Y-88823056D01*
X142237659Y-88828774D01*
X142166011Y-88952872D01*
X142145473Y-88988444D01*
X142086458Y-89170072D01*
X142085768Y-89176633D01*
X142085768Y-89176635D01*
X142072893Y-89299137D01*
X142066496Y-89360000D01*
X140240370Y-89360000D01*
X140219040Y-89323056D01*
X140127294Y-89221161D01*
X140095675Y-89186045D01*
X140095674Y-89186044D01*
X140091253Y-89181134D01*
X139936752Y-89068882D01*
X139930724Y-89066198D01*
X139930722Y-89066197D01*
X139768319Y-88993891D01*
X139768318Y-88993891D01*
X139762288Y-88991206D01*
X139668887Y-88971353D01*
X139581944Y-88952872D01*
X139581939Y-88952872D01*
X139575487Y-88951500D01*
X139384513Y-88951500D01*
X139378061Y-88952872D01*
X139378056Y-88952872D01*
X139291112Y-88971353D01*
X139197712Y-88991206D01*
X139191682Y-88993891D01*
X139191681Y-88993891D01*
X139029278Y-89066197D01*
X139029276Y-89066198D01*
X139023248Y-89068882D01*
X138868747Y-89181134D01*
X138864326Y-89186044D01*
X138864325Y-89186045D01*
X138832707Y-89221161D01*
X138740960Y-89323056D01*
X138645473Y-89488444D01*
X138586458Y-89670072D01*
X138585768Y-89676633D01*
X138585768Y-89676635D01*
X138581986Y-89712617D01*
X138566496Y-89860000D01*
X124658168Y-89860000D01*
X124641906Y-89834862D01*
X124562822Y-89712617D01*
X124562820Y-89712614D01*
X124560014Y-89708277D01*
X124409670Y-89543051D01*
X124405619Y-89539852D01*
X124405615Y-89539848D01*
X124238414Y-89407800D01*
X124238410Y-89407798D01*
X124234359Y-89404598D01*
X124038789Y-89296638D01*
X124033920Y-89294914D01*
X124033916Y-89294912D01*
X123833087Y-89223795D01*
X123833083Y-89223794D01*
X123828212Y-89222069D01*
X123823119Y-89221162D01*
X123823116Y-89221161D01*
X123613373Y-89183800D01*
X123613367Y-89183799D01*
X123608284Y-89182894D01*
X123534452Y-89181992D01*
X123390081Y-89180228D01*
X123390079Y-89180228D01*
X123384911Y-89180165D01*
X123164091Y-89213955D01*
X122951756Y-89283357D01*
X122753607Y-89386507D01*
X122749474Y-89389610D01*
X122749471Y-89389612D01*
X122579100Y-89517530D01*
X122574965Y-89520635D01*
X122571393Y-89524373D01*
X122432160Y-89670072D01*
X122420629Y-89682138D01*
X122294743Y-89866680D01*
X122200688Y-90069305D01*
X122140989Y-90284570D01*
X122117251Y-90506695D01*
X122117548Y-90511848D01*
X122117548Y-90511851D01*
X122123011Y-90606590D01*
X122130110Y-90729715D01*
X122131247Y-90734761D01*
X122131248Y-90734767D01*
X122151119Y-90822939D01*
X122179222Y-90947639D01*
X122263266Y-91154616D01*
X122379987Y-91345088D01*
X122526250Y-91513938D01*
X122698126Y-91656632D01*
X122727771Y-91673955D01*
X122771445Y-91699476D01*
X122820169Y-91751114D01*
X122833240Y-91820897D01*
X122806509Y-91886669D01*
X122766055Y-91920027D01*
X122753607Y-91926507D01*
X122749474Y-91929610D01*
X122749471Y-91929612D01*
X122579100Y-92057530D01*
X122574965Y-92060635D01*
X122571393Y-92064373D01*
X122485932Y-92153803D01*
X122420629Y-92222138D01*
X122417715Y-92226410D01*
X122417714Y-92226411D01*
X122415153Y-92230166D01*
X122294743Y-92406680D01*
X122200688Y-92609305D01*
X122140989Y-92824570D01*
X122117251Y-93046695D01*
X122117548Y-93051848D01*
X122117548Y-93051851D01*
X122125286Y-93186045D01*
X122130110Y-93269715D01*
X122131247Y-93274761D01*
X122131248Y-93274767D01*
X122152275Y-93368069D01*
X122179222Y-93487639D01*
X122230874Y-93614844D01*
X122252491Y-93668079D01*
X122263266Y-93694616D01*
X122282930Y-93726705D01*
X122337610Y-93815934D01*
X122379987Y-93885088D01*
X122526250Y-94053938D01*
X122698126Y-94196632D01*
X122747136Y-94225271D01*
X122771445Y-94239476D01*
X122820169Y-94291114D01*
X122833240Y-94360897D01*
X122806509Y-94426669D01*
X122766055Y-94460027D01*
X122753607Y-94466507D01*
X122749474Y-94469610D01*
X122749471Y-94469612D01*
X122579100Y-94597530D01*
X122574965Y-94600635D01*
X122420629Y-94762138D01*
X122294743Y-94946680D01*
X122200688Y-95149305D01*
X122140989Y-95364570D01*
X122117251Y-95586695D01*
X119488500Y-95586695D01*
X119488500Y-87460000D01*
X129216526Y-87460000D01*
X129236391Y-87712403D01*
X129237545Y-87717210D01*
X129237546Y-87717216D01*
X129254829Y-87789205D01*
X129295495Y-87958591D01*
X129297388Y-87963162D01*
X129297389Y-87963164D01*
X129387117Y-88179786D01*
X129392384Y-88192502D01*
X129524672Y-88408376D01*
X129689102Y-88600898D01*
X129881624Y-88765328D01*
X130097498Y-88897616D01*
X130102068Y-88899509D01*
X130102072Y-88899511D01*
X130326836Y-88992611D01*
X130331409Y-88994505D01*
X130416032Y-89014821D01*
X130572784Y-89052454D01*
X130572790Y-89052455D01*
X130577597Y-89053609D01*
X130677416Y-89061465D01*
X130764345Y-89068307D01*
X130764352Y-89068307D01*
X130766801Y-89068500D01*
X132193199Y-89068500D01*
X132195648Y-89068307D01*
X132195655Y-89068307D01*
X132282584Y-89061465D01*
X132382403Y-89053609D01*
X132387210Y-89052455D01*
X132387216Y-89052454D01*
X132543968Y-89014821D01*
X132628591Y-88994505D01*
X132633164Y-88992611D01*
X132857928Y-88899511D01*
X132857932Y-88899509D01*
X132862502Y-88897616D01*
X133078376Y-88765328D01*
X133270898Y-88600898D01*
X133435328Y-88408376D01*
X133567616Y-88192502D01*
X133572884Y-88179786D01*
X133662611Y-87963164D01*
X133662612Y-87963162D01*
X133664505Y-87958591D01*
X133705171Y-87789205D01*
X133722454Y-87717216D01*
X133722455Y-87717210D01*
X133723609Y-87712403D01*
X133724585Y-87700000D01*
X149786496Y-87700000D01*
X149806458Y-87889928D01*
X149865473Y-88071556D01*
X149960960Y-88236944D01*
X149965378Y-88241851D01*
X149965379Y-88241852D01*
X149966412Y-88242999D01*
X150088747Y-88378866D01*
X150243248Y-88491118D01*
X150249276Y-88493802D01*
X150249278Y-88493803D01*
X150249476Y-88493891D01*
X150417712Y-88568794D01*
X150511112Y-88588647D01*
X150598056Y-88607128D01*
X150598061Y-88607128D01*
X150604513Y-88608500D01*
X150795487Y-88608500D01*
X150801939Y-88607128D01*
X150801944Y-88607128D01*
X150888888Y-88588647D01*
X150982288Y-88568794D01*
X151150524Y-88493891D01*
X151150722Y-88493803D01*
X151150724Y-88493802D01*
X151156752Y-88491118D01*
X151311253Y-88378866D01*
X151433588Y-88242999D01*
X151434621Y-88241852D01*
X151434622Y-88241851D01*
X151439040Y-88236944D01*
X151534527Y-88071556D01*
X151593542Y-87889928D01*
X151613504Y-87700000D01*
X151612000Y-87685689D01*
X151594232Y-87516635D01*
X151594232Y-87516633D01*
X151593542Y-87510072D01*
X151534527Y-87328444D01*
X151439040Y-87163056D01*
X151419970Y-87141876D01*
X151315675Y-87026045D01*
X151315674Y-87026044D01*
X151311253Y-87021134D01*
X151156752Y-86908882D01*
X151150724Y-86906198D01*
X151150722Y-86906197D01*
X151028308Y-86851695D01*
X154352251Y-86851695D01*
X154352548Y-86856848D01*
X154352548Y-86856851D01*
X154355548Y-86908882D01*
X154365110Y-87074715D01*
X154366247Y-87079761D01*
X154366248Y-87079767D01*
X154380606Y-87143475D01*
X154414222Y-87292639D01*
X154426437Y-87322721D01*
X154484182Y-87464930D01*
X154498266Y-87499616D01*
X154614987Y-87690088D01*
X154761250Y-87858938D01*
X154933126Y-88001632D01*
X155126000Y-88114338D01*
X155334692Y-88194030D01*
X155339760Y-88195061D01*
X155339763Y-88195062D01*
X155447017Y-88216883D01*
X155553597Y-88238567D01*
X155558772Y-88238757D01*
X155558774Y-88238757D01*
X155771673Y-88246564D01*
X155771677Y-88246564D01*
X155776837Y-88246753D01*
X155781957Y-88246097D01*
X155781959Y-88246097D01*
X155993288Y-88219025D01*
X155993289Y-88219025D01*
X155998416Y-88218368D01*
X156003366Y-88216883D01*
X156207429Y-88155661D01*
X156207434Y-88155659D01*
X156212384Y-88154174D01*
X156412994Y-88055896D01*
X156594860Y-87926173D01*
X156662331Y-87858938D01*
X156703479Y-87817933D01*
X156765851Y-87784017D01*
X156836658Y-87789205D01*
X156893419Y-87831851D01*
X156910401Y-87862954D01*
X156951676Y-87973054D01*
X156960214Y-87988649D01*
X157036715Y-88090724D01*
X157049276Y-88103285D01*
X157151351Y-88179786D01*
X157166946Y-88188324D01*
X157287394Y-88233478D01*
X157302649Y-88237105D01*
X157353514Y-88242631D01*
X157360328Y-88243000D01*
X157982885Y-88243000D01*
X157998124Y-88238525D01*
X157999329Y-88237135D01*
X158001000Y-88229452D01*
X158001000Y-88224884D01*
X158509000Y-88224884D01*
X158513475Y-88240123D01*
X158514865Y-88241328D01*
X158522548Y-88242999D01*
X159149669Y-88242999D01*
X159156490Y-88242629D01*
X159207352Y-88237105D01*
X159222604Y-88233479D01*
X159343054Y-88188324D01*
X159358649Y-88179786D01*
X159460724Y-88103285D01*
X159473285Y-88090724D01*
X159549786Y-87988649D01*
X159558324Y-87973054D01*
X159603478Y-87852606D01*
X159607105Y-87837351D01*
X159612631Y-87786486D01*
X159613000Y-87779672D01*
X159613000Y-87157115D01*
X159608525Y-87141876D01*
X159607135Y-87140671D01*
X159599452Y-87139000D01*
X158527115Y-87139000D01*
X158511876Y-87143475D01*
X158510671Y-87144865D01*
X158509000Y-87152548D01*
X158509000Y-88224884D01*
X158001000Y-88224884D01*
X158001000Y-86757000D01*
X158021002Y-86688879D01*
X158074658Y-86642386D01*
X158127000Y-86631000D01*
X159594884Y-86631000D01*
X159610123Y-86626525D01*
X159611328Y-86625135D01*
X159612999Y-86617452D01*
X159612999Y-85990331D01*
X159612629Y-85983510D01*
X159607105Y-85932648D01*
X159603479Y-85917396D01*
X159558324Y-85796946D01*
X159549786Y-85781351D01*
X159473285Y-85679276D01*
X159460724Y-85666715D01*
X159358649Y-85590214D01*
X159343054Y-85581676D01*
X159232813Y-85540348D01*
X159176049Y-85497706D01*
X159151349Y-85431145D01*
X159166557Y-85361796D01*
X159188104Y-85333115D01*
X159289430Y-85232144D01*
X159289440Y-85232132D01*
X159293096Y-85228489D01*
X159335158Y-85169954D01*
X159420435Y-85051277D01*
X159423453Y-85047077D01*
X159429939Y-85033955D01*
X159520136Y-84851453D01*
X159520137Y-84851451D01*
X159522430Y-84846811D01*
X159587370Y-84633069D01*
X159616529Y-84411590D01*
X159616611Y-84408240D01*
X159618074Y-84348365D01*
X159618074Y-84348361D01*
X159618156Y-84345000D01*
X159599852Y-84122361D01*
X159545431Y-83905702D01*
X159456354Y-83700840D01*
X159416906Y-83639862D01*
X159337822Y-83517617D01*
X159337820Y-83517614D01*
X159335014Y-83513277D01*
X159184670Y-83348051D01*
X159180619Y-83344852D01*
X159180615Y-83344848D01*
X159013414Y-83212800D01*
X159013410Y-83212798D01*
X159009359Y-83209598D01*
X158968053Y-83186796D01*
X158918084Y-83136364D01*
X158903312Y-83066921D01*
X158928428Y-83000516D01*
X158955780Y-82973909D01*
X158999603Y-82942650D01*
X159134860Y-82846173D01*
X159293096Y-82688489D01*
X159352109Y-82606364D01*
X159420435Y-82511277D01*
X159423453Y-82507077D01*
X159428354Y-82497162D01*
X159520136Y-82311453D01*
X159520137Y-82311451D01*
X159522430Y-82306811D01*
X159568654Y-82154669D01*
X159585865Y-82098023D01*
X159585865Y-82098021D01*
X159587370Y-82093069D01*
X159616529Y-81871590D01*
X159618156Y-81805000D01*
X159599852Y-81582361D01*
X159545431Y-81365702D01*
X159456354Y-81160840D01*
X159335014Y-80973277D01*
X159184670Y-80808051D01*
X159180619Y-80804852D01*
X159180615Y-80804848D01*
X159013414Y-80672800D01*
X159013410Y-80672798D01*
X159009359Y-80669598D01*
X158813789Y-80561638D01*
X158808920Y-80559914D01*
X158808916Y-80559912D01*
X158608087Y-80488795D01*
X158608083Y-80488794D01*
X158603212Y-80487069D01*
X158598119Y-80486162D01*
X158598116Y-80486161D01*
X158388373Y-80448800D01*
X158388367Y-80448799D01*
X158383284Y-80447894D01*
X158309452Y-80446992D01*
X158165081Y-80445228D01*
X158165079Y-80445228D01*
X158159911Y-80445165D01*
X157939091Y-80478955D01*
X157726756Y-80548357D01*
X157528607Y-80651507D01*
X157524474Y-80654610D01*
X157524471Y-80654612D01*
X157354100Y-80782530D01*
X157349965Y-80785635D01*
X157195629Y-80947138D01*
X157088201Y-81104621D01*
X157033293Y-81149621D01*
X156962768Y-81157792D01*
X156899021Y-81126538D01*
X156878324Y-81102054D01*
X156797822Y-80977617D01*
X156797820Y-80977614D01*
X156795014Y-80973277D01*
X156644670Y-80808051D01*
X156640619Y-80804852D01*
X156640615Y-80804848D01*
X156473414Y-80672800D01*
X156473410Y-80672798D01*
X156469359Y-80669598D01*
X156273789Y-80561638D01*
X156268920Y-80559914D01*
X156268916Y-80559912D01*
X156068087Y-80488795D01*
X156068083Y-80488794D01*
X156063212Y-80487069D01*
X156058119Y-80486162D01*
X156058116Y-80486161D01*
X155848373Y-80448800D01*
X155848367Y-80448799D01*
X155843284Y-80447894D01*
X155769452Y-80446992D01*
X155625081Y-80445228D01*
X155625079Y-80445228D01*
X155619911Y-80445165D01*
X155399091Y-80478955D01*
X155186756Y-80548357D01*
X154988607Y-80651507D01*
X154984474Y-80654610D01*
X154984471Y-80654612D01*
X154814100Y-80782530D01*
X154809965Y-80785635D01*
X154655629Y-80947138D01*
X154529743Y-81131680D01*
X154495903Y-81204582D01*
X154457828Y-81286609D01*
X154435688Y-81334305D01*
X154375989Y-81549570D01*
X154352251Y-81771695D01*
X154352548Y-81776848D01*
X154352548Y-81776851D01*
X154358011Y-81871590D01*
X154365110Y-81994715D01*
X154366247Y-81999761D01*
X154366248Y-81999767D01*
X154382876Y-82073548D01*
X154414222Y-82212639D01*
X154498266Y-82419616D01*
X154544497Y-82495059D01*
X154612291Y-82605688D01*
X154614987Y-82610088D01*
X154761250Y-82778938D01*
X154933126Y-82921632D01*
X154984804Y-82951830D01*
X155006445Y-82964476D01*
X155055169Y-83016114D01*
X155068240Y-83085897D01*
X155041509Y-83151669D01*
X155001055Y-83185027D01*
X154988607Y-83191507D01*
X154984474Y-83194610D01*
X154984471Y-83194612D01*
X154960247Y-83212800D01*
X154809965Y-83325635D01*
X154655629Y-83487138D01*
X154652720Y-83491403D01*
X154652714Y-83491411D01*
X154612716Y-83550046D01*
X154529743Y-83671680D01*
X154435688Y-83874305D01*
X154375989Y-84089570D01*
X154352251Y-84311695D01*
X154352548Y-84316848D01*
X154352548Y-84316851D01*
X154358011Y-84411590D01*
X154365110Y-84534715D01*
X154366247Y-84539761D01*
X154366248Y-84539767D01*
X154386119Y-84627939D01*
X154414222Y-84752639D01*
X154498266Y-84959616D01*
X154543821Y-85033955D01*
X154612291Y-85145688D01*
X154614987Y-85150088D01*
X154761250Y-85318938D01*
X154933126Y-85461632D01*
X154994860Y-85497706D01*
X155006445Y-85504476D01*
X155055169Y-85556114D01*
X155068240Y-85625897D01*
X155041509Y-85691669D01*
X155001055Y-85725027D01*
X154988607Y-85731507D01*
X154984474Y-85734610D01*
X154984471Y-85734612D01*
X154814100Y-85862530D01*
X154809965Y-85865635D01*
X154655629Y-86027138D01*
X154529743Y-86211680D01*
X154435688Y-86414305D01*
X154375989Y-86629570D01*
X154352251Y-86851695D01*
X151028308Y-86851695D01*
X150988319Y-86833891D01*
X150988318Y-86833891D01*
X150982288Y-86831206D01*
X150888887Y-86811353D01*
X150801944Y-86792872D01*
X150801939Y-86792872D01*
X150795487Y-86791500D01*
X150604513Y-86791500D01*
X150598061Y-86792872D01*
X150598056Y-86792872D01*
X150511113Y-86811353D01*
X150417712Y-86831206D01*
X150411682Y-86833891D01*
X150411681Y-86833891D01*
X150249278Y-86906197D01*
X150249276Y-86906198D01*
X150243248Y-86908882D01*
X150088747Y-87021134D01*
X150084326Y-87026044D01*
X150084325Y-87026045D01*
X149980031Y-87141876D01*
X149960960Y-87163056D01*
X149865473Y-87328444D01*
X149806458Y-87510072D01*
X149805768Y-87516633D01*
X149805768Y-87516635D01*
X149788000Y-87685689D01*
X149786496Y-87700000D01*
X133724585Y-87700000D01*
X133743474Y-87460000D01*
X133723609Y-87207597D01*
X133711738Y-87158148D01*
X133665660Y-86966221D01*
X133664505Y-86961409D01*
X133642748Y-86908882D01*
X133569511Y-86732072D01*
X133569509Y-86732068D01*
X133567616Y-86727498D01*
X133435328Y-86511624D01*
X133270898Y-86319102D01*
X133090020Y-86164617D01*
X133051211Y-86105166D01*
X133050705Y-86034172D01*
X133067267Y-85998534D01*
X133087290Y-85968738D01*
X133177588Y-85763033D01*
X133180814Y-85749598D01*
X133228722Y-85550046D01*
X133228722Y-85550045D01*
X133230032Y-85544589D01*
X133242963Y-85320310D01*
X133215975Y-85097285D01*
X133149918Y-84882565D01*
X133124171Y-84832680D01*
X133086658Y-84760000D01*
X144080000Y-84760000D01*
X146880000Y-84760000D01*
X146880000Y-84360000D01*
X148066496Y-84360000D01*
X148086458Y-84549928D01*
X148145473Y-84731556D01*
X148148776Y-84737278D01*
X148148777Y-84737279D01*
X148160930Y-84758329D01*
X148240960Y-84896944D01*
X148245378Y-84901851D01*
X148245379Y-84901852D01*
X148301355Y-84964020D01*
X148368747Y-85038866D01*
X148449154Y-85097285D01*
X148515776Y-85145689D01*
X148523248Y-85151118D01*
X148529276Y-85153802D01*
X148529278Y-85153803D01*
X148577811Y-85175411D01*
X148697712Y-85228794D01*
X148791113Y-85248647D01*
X148878056Y-85267128D01*
X148878061Y-85267128D01*
X148884513Y-85268500D01*
X149075487Y-85268500D01*
X149081939Y-85267128D01*
X149081944Y-85267128D01*
X149168888Y-85248647D01*
X149262288Y-85228794D01*
X149382189Y-85175411D01*
X149430722Y-85153803D01*
X149430724Y-85153802D01*
X149436752Y-85151118D01*
X149444225Y-85145689D01*
X149510846Y-85097285D01*
X149591253Y-85038866D01*
X149658645Y-84964020D01*
X149714621Y-84901852D01*
X149714622Y-84901851D01*
X149719040Y-84896944D01*
X149799070Y-84758329D01*
X149811223Y-84737279D01*
X149811224Y-84737278D01*
X149814527Y-84731556D01*
X149873542Y-84549928D01*
X149893504Y-84360000D01*
X149873542Y-84170072D01*
X149814527Y-83988444D01*
X149719040Y-83823056D01*
X149669621Y-83768170D01*
X149595675Y-83686045D01*
X149595674Y-83686044D01*
X149591253Y-83681134D01*
X149436752Y-83568882D01*
X149430724Y-83566198D01*
X149430722Y-83566197D01*
X149268319Y-83493891D01*
X149268318Y-83493891D01*
X149262288Y-83491206D01*
X149168888Y-83471353D01*
X149081944Y-83452872D01*
X149081939Y-83452872D01*
X149075487Y-83451500D01*
X148884513Y-83451500D01*
X148878061Y-83452872D01*
X148878056Y-83452872D01*
X148791112Y-83471353D01*
X148697712Y-83491206D01*
X148691682Y-83493891D01*
X148691681Y-83493891D01*
X148529278Y-83566197D01*
X148529276Y-83566198D01*
X148523248Y-83568882D01*
X148368747Y-83681134D01*
X148364326Y-83686044D01*
X148364325Y-83686045D01*
X148290380Y-83768170D01*
X148240960Y-83823056D01*
X148145473Y-83988444D01*
X148086458Y-84170072D01*
X148066496Y-84360000D01*
X146880000Y-84360000D01*
X146880000Y-82060000D01*
X144080000Y-82060000D01*
X144080000Y-84760000D01*
X133086658Y-84760000D01*
X133049454Y-84687919D01*
X133049454Y-84687918D01*
X133046882Y-84682936D01*
X132910123Y-84504708D01*
X132905978Y-84500937D01*
X132905975Y-84500933D01*
X132853869Y-84453520D01*
X132816946Y-84392879D01*
X132818669Y-84321904D01*
X132848183Y-84272642D01*
X132961992Y-84155201D01*
X133087290Y-83968738D01*
X133177588Y-83763033D01*
X133192520Y-83700840D01*
X133228722Y-83550046D01*
X133228722Y-83550045D01*
X133230032Y-83544589D01*
X133238710Y-83394083D01*
X133242640Y-83325917D01*
X133242640Y-83325914D01*
X133242963Y-83320310D01*
X133215975Y-83097285D01*
X133149918Y-82882565D01*
X133084798Y-82756396D01*
X133049453Y-82687917D01*
X133049452Y-82687916D01*
X133046882Y-82682936D01*
X133043467Y-82678485D01*
X133038940Y-82672585D01*
X133013342Y-82606364D01*
X133027610Y-82536816D01*
X133063341Y-82495059D01*
X133085728Y-82478281D01*
X133098285Y-82465724D01*
X133174786Y-82363649D01*
X133183324Y-82348054D01*
X133228478Y-82227606D01*
X133232105Y-82212351D01*
X133237631Y-82161486D01*
X133238000Y-82154672D01*
X133238000Y-81632115D01*
X133233525Y-81616876D01*
X133232135Y-81615671D01*
X133224452Y-81614000D01*
X129740116Y-81614000D01*
X129724877Y-81618475D01*
X129723672Y-81619865D01*
X129722001Y-81627548D01*
X129722001Y-82154669D01*
X129722371Y-82161490D01*
X129727895Y-82212352D01*
X129731521Y-82227604D01*
X129776676Y-82348054D01*
X129785214Y-82363649D01*
X129861715Y-82465724D01*
X129874272Y-82478281D01*
X129899465Y-82497162D01*
X129941980Y-82554022D01*
X129947006Y-82624840D01*
X129928481Y-82668265D01*
X129912440Y-82692137D01*
X129872710Y-82751262D01*
X129782412Y-82956967D01*
X129781103Y-82962418D01*
X129781102Y-82962422D01*
X129750868Y-83088357D01*
X129729968Y-83175411D01*
X129717037Y-83399690D01*
X129744025Y-83622715D01*
X129810082Y-83837435D01*
X129812652Y-83842415D01*
X129812654Y-83842419D01*
X129888023Y-83988444D01*
X129913118Y-84037064D01*
X130049877Y-84215292D01*
X130054022Y-84219063D01*
X130054025Y-84219067D01*
X130106131Y-84266480D01*
X130143054Y-84327121D01*
X130141331Y-84398096D01*
X130111817Y-84447358D01*
X130059899Y-84500933D01*
X130032170Y-84529547D01*
X129998008Y-84564799D01*
X129872710Y-84751262D01*
X129782412Y-84956967D01*
X129781103Y-84962418D01*
X129781102Y-84962422D01*
X129735800Y-85151118D01*
X129729968Y-85175411D01*
X129729645Y-85181016D01*
X129721254Y-85326556D01*
X129717037Y-85399690D01*
X129744025Y-85622715D01*
X129810082Y-85837435D01*
X129812652Y-85842415D01*
X129812654Y-85842419D01*
X129899809Y-86011278D01*
X129913278Y-86080985D01*
X129886923Y-86146909D01*
X129869673Y-86164879D01*
X129692863Y-86315889D01*
X129692858Y-86315894D01*
X129689102Y-86319102D01*
X129524672Y-86511624D01*
X129392384Y-86727498D01*
X129390491Y-86732068D01*
X129390489Y-86732072D01*
X129317252Y-86908882D01*
X129295495Y-86961409D01*
X129294340Y-86966221D01*
X129248263Y-87158148D01*
X129236391Y-87207597D01*
X129216526Y-87460000D01*
X119488500Y-87460000D01*
X119488500Y-79639667D01*
X119508502Y-79571546D01*
X119562158Y-79525053D01*
X119632432Y-79514949D01*
X119697012Y-79544443D01*
X119731893Y-79593897D01*
X119739927Y-79614503D01*
X119741624Y-79617708D01*
X119875113Y-79869825D01*
X119902275Y-79921126D01*
X119904325Y-79924109D01*
X119904327Y-79924112D01*
X120096733Y-80204064D01*
X120096739Y-80204071D01*
X120098790Y-80207056D01*
X120326866Y-80468505D01*
X120425785Y-80558514D01*
X120539268Y-80661775D01*
X120583481Y-80702006D01*
X120865233Y-80904466D01*
X121168388Y-81073200D01*
X121488928Y-81205972D01*
X121492422Y-81206967D01*
X121492424Y-81206968D01*
X121819103Y-81300025D01*
X121819108Y-81300026D01*
X121822604Y-81301022D01*
X121997182Y-81329610D01*
X122161412Y-81356504D01*
X122161419Y-81356505D01*
X122164993Y-81357090D01*
X122246927Y-81360954D01*
X122507931Y-81373263D01*
X122507932Y-81373263D01*
X122511558Y-81373434D01*
X122520415Y-81372830D01*
X122854073Y-81350084D01*
X122854081Y-81350083D01*
X122857704Y-81349836D01*
X122861279Y-81349173D01*
X122861282Y-81349173D01*
X123195279Y-81287270D01*
X123195283Y-81287269D01*
X123198844Y-81286609D01*
X123530456Y-81184592D01*
X123848145Y-81045136D01*
X123963691Y-80977617D01*
X124144560Y-80871926D01*
X124144562Y-80871925D01*
X124147700Y-80870091D01*
X124248371Y-80794505D01*
X124422244Y-80663958D01*
X124422248Y-80663955D01*
X124425151Y-80661775D01*
X124676819Y-80422950D01*
X124899370Y-80156783D01*
X125089853Y-79866799D01*
X125167799Y-79711821D01*
X125244117Y-79560080D01*
X125244120Y-79560072D01*
X125245744Y-79556844D01*
X125260246Y-79517216D01*
X125354374Y-79260000D01*
X129216526Y-79260000D01*
X129236391Y-79512403D01*
X129237545Y-79517210D01*
X129237546Y-79517216D01*
X129255956Y-79593897D01*
X129295495Y-79758591D01*
X129297388Y-79763162D01*
X129297389Y-79763164D01*
X129341570Y-79869825D01*
X129392384Y-79992502D01*
X129524672Y-80208376D01*
X129689102Y-80400898D01*
X129692059Y-80403423D01*
X129725944Y-80465472D01*
X129728088Y-80505870D01*
X129722369Y-80558514D01*
X129722000Y-80565328D01*
X129722000Y-81087885D01*
X129726475Y-81103124D01*
X129727865Y-81104329D01*
X129735548Y-81106000D01*
X133219884Y-81106000D01*
X133235123Y-81101525D01*
X133236328Y-81100135D01*
X133237999Y-81092452D01*
X133237999Y-80565331D01*
X133237629Y-80558510D01*
X133231912Y-80505868D01*
X133244441Y-80435986D01*
X133267824Y-80403524D01*
X133270898Y-80400898D01*
X133435328Y-80208376D01*
X133567616Y-79992502D01*
X133618431Y-79869825D01*
X133662611Y-79763164D01*
X133662612Y-79763162D01*
X133664505Y-79758591D01*
X133704044Y-79593897D01*
X133722454Y-79517216D01*
X133722455Y-79517210D01*
X133723609Y-79512403D01*
X133743474Y-79260000D01*
X133723609Y-79007597D01*
X133710280Y-78952074D01*
X133665660Y-78766221D01*
X133664505Y-78761409D01*
X133636246Y-78693185D01*
X133569511Y-78532072D01*
X133569509Y-78532068D01*
X133567616Y-78527498D01*
X133435328Y-78311624D01*
X133270898Y-78119102D01*
X133078376Y-77954672D01*
X132862502Y-77822384D01*
X132857932Y-77820491D01*
X132857928Y-77820489D01*
X132633164Y-77727389D01*
X132633162Y-77727388D01*
X132628591Y-77725495D01*
X132543968Y-77705179D01*
X132387216Y-77667546D01*
X132387210Y-77667545D01*
X132382403Y-77666391D01*
X132282584Y-77658535D01*
X132195655Y-77651693D01*
X132195648Y-77651693D01*
X132193199Y-77651500D01*
X130766801Y-77651500D01*
X130764352Y-77651693D01*
X130764345Y-77651693D01*
X130677416Y-77658535D01*
X130577597Y-77666391D01*
X130572790Y-77667545D01*
X130572784Y-77667546D01*
X130416032Y-77705179D01*
X130331409Y-77725495D01*
X130326838Y-77727388D01*
X130326836Y-77727389D01*
X130102072Y-77820489D01*
X130102068Y-77820491D01*
X130097498Y-77822384D01*
X129881624Y-77954672D01*
X129689102Y-78119102D01*
X129524672Y-78311624D01*
X129392384Y-78527498D01*
X129390491Y-78532068D01*
X129390489Y-78532072D01*
X129323754Y-78693185D01*
X129295495Y-78761409D01*
X129294340Y-78766221D01*
X129249721Y-78952074D01*
X129236391Y-79007597D01*
X129216526Y-79260000D01*
X125354374Y-79260000D01*
X125363729Y-79234437D01*
X125363730Y-79234433D01*
X125364977Y-79231026D01*
X125365822Y-79227504D01*
X125365825Y-79227496D01*
X125445124Y-78897191D01*
X125445125Y-78897187D01*
X125445971Y-78893662D01*
X125480035Y-78612171D01*
X125487316Y-78552004D01*
X125487316Y-78551997D01*
X125487652Y-78549225D01*
X125488468Y-78523278D01*
X125493511Y-78362797D01*
X125493599Y-78360000D01*
X125490593Y-78307865D01*
X125473836Y-78017246D01*
X125473835Y-78017241D01*
X125473627Y-78013626D01*
X125423340Y-77725495D01*
X125414600Y-77675415D01*
X125414598Y-77675408D01*
X125413976Y-77671842D01*
X125412704Y-77667546D01*
X125373482Y-77535137D01*
X125315437Y-77339180D01*
X125261713Y-77213226D01*
X125180740Y-77023386D01*
X125180738Y-77023383D01*
X125179316Y-77020048D01*
X125129569Y-76932831D01*
X125009208Y-76721816D01*
X125007417Y-76718676D01*
X124802018Y-76439060D01*
X124565842Y-76184904D01*
X124302019Y-75959578D01*
X124014047Y-75766069D01*
X123705741Y-75606940D01*
X123706456Y-75605555D01*
X123657130Y-75563641D01*
X123636472Y-75495716D01*
X123655815Y-75427406D01*
X123709020Y-75380397D01*
X123762466Y-75368500D01*
X164206526Y-75368500D01*
X164274647Y-75388502D01*
G37*
%TD.AperFunction*%
%TD*%
M02*
