M48
; DRILL file {KiCad (6.0.5)} date Mon Jun 20 22:35:46 2022
; FORMAT={-:-/ absolute / metric / decimal}
; #@! TF.CreationDate,2022-06-20T22:35:46-04:00
; #@! TF.GenerationSoftware,Kicad,Pcbnew,(6.0.5)
; #@! TF.FileFunction,Plated,1,4,PTH
FMAT,2
METRIC
; #@! TA.AperFunction,Plated,PTH,ViaDrill
T1C0.400
; #@! TA.AperFunction,Plated,PTH,ComponentDrill
T2C0.900
; #@! TA.AperFunction,Plated,PTH,ComponentDrill
T3C1.000
; #@! TA.AperFunction,Plated,PTH,ComponentDrill
T4C2.500
%
G90
G05
T1
X128.2Y-87.8
X128.4Y-111.6
X128.48Y-106.36
X129.9Y-99.6
X131.9Y-111.6
X132.4Y-84.0
X132.98Y-106.36
X133.2Y-101.8
X134.4Y-91.7
X134.6Y-102.45
X134.98Y-93.36
X135.98Y-106.36
X136.2Y-90.3
X136.75Y-112.0
X138.0Y-89.8
X138.48Y-107.36
X138.5Y-100.5
X139.066Y-99.302
X139.2Y-89.8
X139.3Y-84.0
X139.4Y-86.5
X140.1Y-102.6
X140.4Y-82.1
X140.48Y-107.36
X140.75Y-97.65
X141.6Y-85.4
X141.9Y-94.3
X142.4Y-89.2
X142.6Y-96.0
X142.8Y-99.8
X142.9Y-94.3
X144.068Y-108.413
X144.4Y-88.0
X144.48Y-96.86
X144.98Y-115.36
X145.48Y-89.36
X145.638Y-91.181
X145.7Y-119.8
X147.3Y-107.4
X147.341Y-105.837
X147.567Y-110.059
X148.7Y-84.6
X148.98Y-85.86
X149.0Y-92.5
X149.5Y-79.4
X150.2Y-98.9
X150.2Y-116.85
X150.907Y-98.175
X150.95Y-93.5
X151.0Y-121.2
X152.6Y-90.6
X153.08Y-100.96
X156.0Y-94.8
X159.3Y-113.0
X160.5Y-117.5
X160.6Y-86.4
X162.1Y-121.1
X163.4Y-95.2
X163.7Y-122.5
T2
X125.0Y-79.0
X125.0Y-81.5
X125.0Y-84.0
X155.48Y-106.157
X157.98Y-106.157
X160.48Y-106.157
T3
X123.48Y-90.54
X123.48Y-93.08
X123.48Y-95.62
X123.48Y-98.16
X123.48Y-102.54
X123.48Y-105.08
X123.48Y-107.62
X123.48Y-110.16
X123.48Y-114.335
X123.48Y-116.875
X123.48Y-119.415
X127.23Y-114.335
X127.23Y-116.875
X127.23Y-119.415
X130.98Y-114.335
X130.98Y-116.875
X130.98Y-119.415
X134.73Y-114.335
X134.73Y-116.875
X134.73Y-119.415
X138.48Y-114.335
X138.48Y-116.875
X138.48Y-119.415
X142.23Y-114.335
X142.23Y-116.875
X142.23Y-119.415
X156.235Y-76.945
X156.235Y-79.485
X156.235Y-82.025
X158.775Y-76.945
X158.775Y-79.485
X158.775Y-82.025
X164.0Y-83.7
X164.0Y-86.24
X164.0Y-88.78
X166.9Y-108.635
X166.9Y-111.175
X167.766Y-86.192
X167.766Y-88.732
T4
X117.5Y-77.5
X117.5Y-122.5
X170.0Y-77.5
X170.0Y-122.5
T0
M30
