%TF.GenerationSoftware,KiCad,Pcbnew,(6.0.5)*%
%TF.CreationDate,2022-06-15T23:30:50-04:00*%
%TF.ProjectId,FlightController,466c6967-6874-4436-9f6e-74726f6c6c65,rev?*%
%TF.SameCoordinates,Original*%
%TF.FileFunction,Paste,Top*%
%TF.FilePolarity,Positive*%
%FSLAX46Y46*%
G04 Gerber Fmt 4.6, Leading zero omitted, Abs format (unit mm)*
G04 Created by KiCad (PCBNEW (6.0.5)) date 2022-06-15 23:30:50*
%MOMM*%
%LPD*%
G01*
G04 APERTURE LIST*
G04 Aperture macros list*
%AMRoundRect*
0 Rectangle with rounded corners*
0 $1 Rounding radius*
0 $2 $3 $4 $5 $6 $7 $8 $9 X,Y pos of 4 corners*
0 Add a 4 corners polygon primitive as box body*
4,1,4,$2,$3,$4,$5,$6,$7,$8,$9,$2,$3,0*
0 Add four circle primitives for the rounded corners*
1,1,$1+$1,$2,$3*
1,1,$1+$1,$4,$5*
1,1,$1+$1,$6,$7*
1,1,$1+$1,$8,$9*
0 Add four rect primitives between the rounded corners*
20,1,$1+$1,$2,$3,$4,$5,0*
20,1,$1+$1,$4,$5,$6,$7,0*
20,1,$1+$1,$6,$7,$8,$9,0*
20,1,$1+$1,$8,$9,$2,$3,0*%
G04 Aperture macros list end*
%ADD10RoundRect,0.200000X-0.275000X0.200000X-0.275000X-0.200000X0.275000X-0.200000X0.275000X0.200000X0*%
%ADD11RoundRect,0.237500X-0.250000X-0.237500X0.250000X-0.237500X0.250000X0.237500X-0.250000X0.237500X0*%
%ADD12RoundRect,0.250000X0.350000X0.450000X-0.350000X0.450000X-0.350000X-0.450000X0.350000X-0.450000X0*%
%ADD13RoundRect,0.200000X0.200000X0.275000X-0.200000X0.275000X-0.200000X-0.275000X0.200000X-0.275000X0*%
%ADD14RoundRect,0.200000X0.275000X-0.200000X0.275000X0.200000X-0.275000X0.200000X-0.275000X-0.200000X0*%
%ADD15RoundRect,0.250001X-0.849999X0.462499X-0.849999X-0.462499X0.849999X-0.462499X0.849999X0.462499X0*%
%ADD16RoundRect,0.218750X0.218750X0.256250X-0.218750X0.256250X-0.218750X-0.256250X0.218750X-0.256250X0*%
%ADD17R,2.500000X1.800000*%
%ADD18RoundRect,0.250000X0.650000X-0.325000X0.650000X0.325000X-0.650000X0.325000X-0.650000X-0.325000X0*%
%ADD19RoundRect,0.225000X-0.225000X-0.250000X0.225000X-0.250000X0.225000X0.250000X-0.225000X0.250000X0*%
%ADD20RoundRect,0.225000X-0.250000X0.225000X-0.250000X-0.225000X0.250000X-0.225000X0.250000X0.225000X0*%
%ADD21RoundRect,0.237500X-0.300000X-0.237500X0.300000X-0.237500X0.300000X0.237500X-0.300000X0.237500X0*%
%ADD22RoundRect,0.237500X0.237500X-0.300000X0.237500X0.300000X-0.237500X0.300000X-0.237500X-0.300000X0*%
%ADD23RoundRect,0.225000X0.250000X-0.225000X0.250000X0.225000X-0.250000X0.225000X-0.250000X-0.225000X0*%
%ADD24RoundRect,0.150000X0.650000X0.150000X-0.650000X0.150000X-0.650000X-0.150000X0.650000X-0.150000X0*%
%ADD25RoundRect,0.140000X0.140000X0.170000X-0.140000X0.170000X-0.140000X-0.170000X0.140000X-0.170000X0*%
%ADD26RoundRect,0.135000X-0.185000X0.135000X-0.185000X-0.135000X0.185000X-0.135000X0.185000X0.135000X0*%
%ADD27RoundRect,0.140000X-0.140000X-0.170000X0.140000X-0.170000X0.140000X0.170000X-0.140000X0.170000X0*%
%ADD28RoundRect,0.140000X-0.170000X0.140000X-0.170000X-0.140000X0.170000X-0.140000X0.170000X0.140000X0*%
%ADD29RoundRect,0.150000X-0.825000X-0.150000X0.825000X-0.150000X0.825000X0.150000X-0.825000X0.150000X0*%
%ADD30RoundRect,0.140000X0.170000X-0.140000X0.170000X0.140000X-0.170000X0.140000X-0.170000X-0.140000X0*%
%ADD31R,1.250000X0.500000*%
%ADD32R,2.000000X2.500000*%
%ADD33RoundRect,0.075000X0.350000X0.075000X-0.350000X0.075000X-0.350000X-0.075000X0.350000X-0.075000X0*%
%ADD34RoundRect,0.075000X-0.075000X0.350000X-0.075000X-0.350000X0.075000X-0.350000X0.075000X0.350000X0*%
%ADD35RoundRect,0.135000X-0.135000X-0.185000X0.135000X-0.185000X0.135000X0.185000X-0.135000X0.185000X0*%
%ADD36RoundRect,0.135000X0.135000X0.185000X-0.135000X0.185000X-0.135000X-0.185000X0.135000X-0.185000X0*%
%ADD37RoundRect,0.075000X-0.700000X-0.075000X0.700000X-0.075000X0.700000X0.075000X-0.700000X0.075000X0*%
%ADD38RoundRect,0.075000X-0.075000X-0.700000X0.075000X-0.700000X0.075000X0.700000X-0.075000X0.700000X0*%
%ADD39RoundRect,0.150000X0.587500X0.150000X-0.587500X0.150000X-0.587500X-0.150000X0.587500X-0.150000X0*%
%ADD40RoundRect,0.150000X0.512500X0.150000X-0.512500X0.150000X-0.512500X-0.150000X0.512500X-0.150000X0*%
%ADD41R,1.200000X1.400000*%
G04 APERTURE END LIST*
D10*
%TO.C,R12*%
X163700000Y-119675000D03*
X163700000Y-121325000D03*
%TD*%
D11*
%TO.C,R11*%
X155287500Y-119500000D03*
X157112500Y-119500000D03*
%TD*%
D12*
%TO.C,R10*%
X157300000Y-121600000D03*
X155300000Y-121600000D03*
%TD*%
D11*
%TO.C,R9*%
X155287500Y-115500000D03*
X157112500Y-115500000D03*
%TD*%
D13*
%TO.C,R3*%
X137025000Y-81700000D03*
X135375000Y-81700000D03*
%TD*%
D14*
%TO.C,R2*%
X157000000Y-86325000D03*
X157000000Y-84675000D03*
%TD*%
D13*
%TO.C,R1*%
X160625000Y-91500000D03*
X158975000Y-91500000D03*
%TD*%
D15*
%TO.C,L1*%
X162100000Y-113437500D03*
X162100000Y-115762500D03*
%TD*%
D16*
%TO.C,D2*%
X163687500Y-117800000D03*
X162112500Y-117800000D03*
%TD*%
D17*
%TO.C,D1*%
X153200000Y-112800000D03*
X157200000Y-112800000D03*
%TD*%
D18*
%TO.C,C20*%
X160000000Y-122075000D03*
X160000000Y-119125000D03*
%TD*%
D19*
%TO.C,C19*%
X147916936Y-113725527D03*
X149466936Y-113725527D03*
%TD*%
%TO.C,C18*%
X147916936Y-121225527D03*
X149466936Y-121225527D03*
%TD*%
D20*
%TO.C,C17*%
X159000000Y-115525000D03*
X159000000Y-117075000D03*
%TD*%
D19*
%TO.C,C16*%
X155325000Y-117900000D03*
X156875000Y-117900000D03*
%TD*%
D20*
%TO.C,C15*%
X145700000Y-116825000D03*
X145700000Y-118375000D03*
%TD*%
D21*
%TO.C,C13*%
X142937500Y-79400000D03*
X144662500Y-79400000D03*
%TD*%
D22*
%TO.C,C12*%
X141800000Y-83862500D03*
X141800000Y-82137500D03*
%TD*%
D21*
%TO.C,C11*%
X146437500Y-79400000D03*
X148162500Y-79400000D03*
%TD*%
D23*
%TO.C,C5*%
X136300000Y-93275000D03*
X136300000Y-91725000D03*
%TD*%
D24*
%TO.C,U3*%
X137450000Y-87805000D03*
X137450000Y-86535000D03*
X137450000Y-85265000D03*
X137450000Y-83995000D03*
X130250000Y-83995000D03*
X130250000Y-85265000D03*
X130250000Y-86535000D03*
X130250000Y-87805000D03*
%TD*%
D25*
%TO.C,C14*%
X143960000Y-86860000D03*
X143000000Y-86860000D03*
%TD*%
D26*
%TO.C,R7*%
X144094333Y-106442348D03*
X144094333Y-107462348D03*
%TD*%
D27*
%TO.C,C9*%
X138120000Y-90800000D03*
X139080000Y-90800000D03*
%TD*%
D28*
%TO.C,C3*%
X146194598Y-106452267D03*
X146194598Y-107412267D03*
%TD*%
D26*
%TO.C,R8*%
X145094333Y-106442348D03*
X145094333Y-107462348D03*
%TD*%
D29*
%TO.C,U5*%
X148216936Y-115570527D03*
X148216936Y-116840527D03*
X148216936Y-118110527D03*
X148216936Y-119380527D03*
X153166936Y-119380527D03*
X153166936Y-118110527D03*
X153166936Y-116840527D03*
X153166936Y-115570527D03*
%TD*%
D30*
%TO.C,C10*%
X134600000Y-101380000D03*
X134600000Y-100420000D03*
%TD*%
D25*
%TO.C,C6*%
X139885207Y-106043876D03*
X138925207Y-106043876D03*
%TD*%
D31*
%TO.C,J2*%
X165775000Y-98460000D03*
X165775000Y-97660000D03*
X165775000Y-96860000D03*
X165775000Y-96060000D03*
X165775000Y-95260000D03*
D32*
X171725000Y-101060000D03*
X166425000Y-101060000D03*
X171725000Y-92660000D03*
X166425000Y-92660000D03*
%TD*%
D33*
%TO.C,U4*%
X147430000Y-84610000D03*
X147430000Y-84110000D03*
X147430000Y-83610000D03*
X147430000Y-83110000D03*
X147430000Y-82610000D03*
X147430000Y-82110000D03*
D34*
X146730000Y-81410000D03*
X146230000Y-81410000D03*
X145730000Y-81410000D03*
X145230000Y-81410000D03*
X144730000Y-81410000D03*
X144230000Y-81410000D03*
D33*
X143530000Y-82110000D03*
X143530000Y-82610000D03*
X143530000Y-83110000D03*
X143530000Y-83610000D03*
X143530000Y-84110000D03*
X143530000Y-84610000D03*
D34*
X144230000Y-85310000D03*
X144730000Y-85310000D03*
X145230000Y-85310000D03*
X145730000Y-85310000D03*
X146230000Y-85310000D03*
X146730000Y-85310000D03*
%TD*%
D35*
%TO.C,R6*%
X146970000Y-86860000D03*
X147990000Y-86860000D03*
%TD*%
D27*
%TO.C,C7*%
X147500000Y-104860000D03*
X148460000Y-104860000D03*
%TD*%
%TO.C,C1*%
X130883061Y-94213999D03*
X131843061Y-94213999D03*
%TD*%
D36*
%TO.C,R5*%
X145980000Y-86860000D03*
X144960000Y-86860000D03*
%TD*%
D27*
%TO.C,C4*%
X150000000Y-94860000D03*
X150960000Y-94860000D03*
%TD*%
D37*
%TO.C,U1*%
X136705000Y-94760000D03*
X136705000Y-95260000D03*
X136705000Y-95760000D03*
X136705000Y-96260000D03*
X136705000Y-96760000D03*
X136705000Y-97260000D03*
X136705000Y-97760000D03*
X136705000Y-98260000D03*
X136705000Y-98760000D03*
X136705000Y-99260000D03*
X136705000Y-99760000D03*
X136705000Y-100260000D03*
X136705000Y-100760000D03*
X136705000Y-101260000D03*
X136705000Y-101760000D03*
X136705000Y-102260000D03*
D38*
X138630000Y-104185000D03*
X139130000Y-104185000D03*
X139630000Y-104185000D03*
X140130000Y-104185000D03*
X140630000Y-104185000D03*
X141130000Y-104185000D03*
X141630000Y-104185000D03*
X142130000Y-104185000D03*
X142630000Y-104185000D03*
X143130000Y-104185000D03*
X143630000Y-104185000D03*
X144130000Y-104185000D03*
X144630000Y-104185000D03*
X145130000Y-104185000D03*
X145630000Y-104185000D03*
X146130000Y-104185000D03*
D37*
X148055000Y-102260000D03*
X148055000Y-101760000D03*
X148055000Y-101260000D03*
X148055000Y-100760000D03*
X148055000Y-100260000D03*
X148055000Y-99760000D03*
X148055000Y-99260000D03*
X148055000Y-98760000D03*
X148055000Y-98260000D03*
X148055000Y-97760000D03*
X148055000Y-97260000D03*
X148055000Y-96760000D03*
X148055000Y-96260000D03*
X148055000Y-95760000D03*
X148055000Y-95260000D03*
X148055000Y-94760000D03*
D38*
X146130000Y-92835000D03*
X145630000Y-92835000D03*
X145130000Y-92835000D03*
X144630000Y-92835000D03*
X144130000Y-92835000D03*
X143630000Y-92835000D03*
X143130000Y-92835000D03*
X142630000Y-92835000D03*
X142130000Y-92835000D03*
X141630000Y-92835000D03*
X141130000Y-92835000D03*
X140630000Y-92835000D03*
X140130000Y-92835000D03*
X139630000Y-92835000D03*
X139130000Y-92835000D03*
X138630000Y-92835000D03*
%TD*%
D27*
%TO.C,C8*%
X148120000Y-93700000D03*
X149080000Y-93700000D03*
%TD*%
D25*
%TO.C,C2*%
X131843061Y-99574404D03*
X130883061Y-99574404D03*
%TD*%
D39*
%TO.C,Q1*%
X158937500Y-89750000D03*
X158937500Y-87850000D03*
X157062500Y-88800000D03*
%TD*%
D40*
%TO.C,U2*%
X157117500Y-97810000D03*
X157117500Y-96860000D03*
X157117500Y-95910000D03*
X154842500Y-95910000D03*
X154842500Y-96860000D03*
X154842500Y-97810000D03*
%TD*%
D41*
%TO.C,Y1*%
X130880000Y-95760000D03*
X130880000Y-97960000D03*
X132580000Y-97960000D03*
X132580000Y-95760000D03*
%TD*%
D36*
%TO.C,R4*%
X134990000Y-97860000D03*
X133970000Y-97860000D03*
%TD*%
M02*
