%FSLAX45Y45*%
G04 Gerber Fmt 4.5, Leading zero omitted, Abs format (unit mm)*
G04 Created by KiCad (PCBNEW (6.0.5)) date 2022-06-20 22:35:55*
%MOMM*%
%LPD*%
G01*
G04 APERTURE LIST*
%TA.AperFunction,Profile*%
%ADD10C,0.100000*%
%TD*%
%ADD11C,0.200000*%
%ADD12C,0.090000*%
G04 APERTURE END LIST*
D10*
X17000000Y-12750000D02*
X11750000Y-12750000D01*
X17000000Y-12750000D02*
G75*
G03*
X17500000Y-12250000I0J500000D01*
G01*
X11750000Y-7250000D02*
X17000000Y-7250000D01*
X11250000Y-12250000D02*
X11250000Y-7750000D01*
X11750000Y-7250000D02*
G75*
G03*
X11250000Y-7750000I0J-500000D01*
G01*
X11250000Y-12250000D02*
G75*
G03*
X11750000Y-12750000I500000J0D01*
G01*
X17500000Y-7750000D02*
G75*
G03*
X17000000Y-7250000I-500000J0D01*
G01*
X17500000Y-7750000D02*
X17500000Y-12250000D01*
D11*
D12*
X16835000Y-9415000D02*
X16925000Y-9505000D01*
X16925000Y-9415000D02*
X16835000Y-9505000D01*
X16835000Y-9855000D02*
X16925000Y-9945000D01*
X16925000Y-9855000D02*
X16835000Y-9945000D01*
D11*
X11502619Y-13065476D02*
X11502619Y-12865476D01*
X11550238Y-12865476D01*
X11578809Y-12875000D01*
X11597857Y-12894048D01*
X11607381Y-12913095D01*
X11616905Y-12951190D01*
X11616905Y-12979762D01*
X11607381Y-13017857D01*
X11597857Y-13036905D01*
X11578809Y-13055952D01*
X11550238Y-13065476D01*
X11502619Y-13065476D01*
X11702619Y-13065476D02*
X11702619Y-12932143D01*
X11702619Y-12970238D02*
X11712143Y-12951190D01*
X11721667Y-12941667D01*
X11740714Y-12932143D01*
X11759762Y-12932143D01*
X11826428Y-13065476D02*
X11826428Y-12932143D01*
X11826428Y-12865476D02*
X11816905Y-12875000D01*
X11826428Y-12884524D01*
X11835952Y-12875000D01*
X11826428Y-12865476D01*
X11826428Y-12884524D01*
X11950238Y-13065476D02*
X11931190Y-13055952D01*
X11921667Y-13036905D01*
X11921667Y-12865476D01*
X12055000Y-13065476D02*
X12035952Y-13055952D01*
X12026428Y-13036905D01*
X12026428Y-12865476D01*
X12283571Y-13065476D02*
X12283571Y-12865476D01*
X12350238Y-13008333D01*
X12416905Y-12865476D01*
X12416905Y-13065476D01*
X12597857Y-13065476D02*
X12597857Y-12960714D01*
X12588333Y-12941667D01*
X12569286Y-12932143D01*
X12531190Y-12932143D01*
X12512143Y-12941667D01*
X12597857Y-13055952D02*
X12578809Y-13065476D01*
X12531190Y-13065476D01*
X12512143Y-13055952D01*
X12502619Y-13036905D01*
X12502619Y-13017857D01*
X12512143Y-12998809D01*
X12531190Y-12989286D01*
X12578809Y-12989286D01*
X12597857Y-12979762D01*
X12693095Y-12932143D02*
X12693095Y-13132143D01*
X12693095Y-12941667D02*
X12712143Y-12932143D01*
X12750238Y-12932143D01*
X12769286Y-12941667D01*
X12778809Y-12951190D01*
X12788333Y-12970238D01*
X12788333Y-13027381D01*
X12778809Y-13046428D01*
X12769286Y-13055952D01*
X12750238Y-13065476D01*
X12712143Y-13065476D01*
X12693095Y-13055952D01*
X12874048Y-13046428D02*
X12883571Y-13055952D01*
X12874048Y-13065476D01*
X12864524Y-13055952D01*
X12874048Y-13046428D01*
X12874048Y-13065476D01*
X12874048Y-12941667D02*
X12883571Y-12951190D01*
X12874048Y-12960714D01*
X12864524Y-12951190D01*
X12874048Y-12941667D01*
X12874048Y-12960714D01*
D12*
X11155000Y-13350000D02*
X11245000Y-13440000D01*
X11245000Y-13350000D02*
X11155000Y-13440000D01*
D11*
X11540714Y-13285476D02*
X11559762Y-13285476D01*
X11578809Y-13295000D01*
X11588333Y-13304524D01*
X11597857Y-13323571D01*
X11607381Y-13361667D01*
X11607381Y-13409286D01*
X11597857Y-13447381D01*
X11588333Y-13466428D01*
X11578809Y-13475952D01*
X11559762Y-13485476D01*
X11540714Y-13485476D01*
X11521667Y-13475952D01*
X11512143Y-13466428D01*
X11502619Y-13447381D01*
X11493095Y-13409286D01*
X11493095Y-13361667D01*
X11502619Y-13323571D01*
X11512143Y-13304524D01*
X11521667Y-13295000D01*
X11540714Y-13285476D01*
X11693095Y-13466428D02*
X11702619Y-13475952D01*
X11693095Y-13485476D01*
X11683571Y-13475952D01*
X11693095Y-13466428D01*
X11693095Y-13485476D01*
X11797857Y-13485476D02*
X11835952Y-13485476D01*
X11855000Y-13475952D01*
X11864524Y-13466428D01*
X11883571Y-13437857D01*
X11893095Y-13399762D01*
X11893095Y-13323571D01*
X11883571Y-13304524D01*
X11874048Y-13295000D01*
X11855000Y-13285476D01*
X11816905Y-13285476D01*
X11797857Y-13295000D01*
X11788333Y-13304524D01*
X11778809Y-13323571D01*
X11778809Y-13371190D01*
X11788333Y-13390238D01*
X11797857Y-13399762D01*
X11816905Y-13409286D01*
X11855000Y-13409286D01*
X11874048Y-13399762D01*
X11883571Y-13390238D01*
X11893095Y-13371190D01*
X12016905Y-13285476D02*
X12035952Y-13285476D01*
X12055000Y-13295000D01*
X12064524Y-13304524D01*
X12074048Y-13323571D01*
X12083571Y-13361667D01*
X12083571Y-13409286D01*
X12074048Y-13447381D01*
X12064524Y-13466428D01*
X12055000Y-13475952D01*
X12035952Y-13485476D01*
X12016905Y-13485476D01*
X11997857Y-13475952D01*
X11988333Y-13466428D01*
X11978809Y-13447381D01*
X11969286Y-13409286D01*
X11969286Y-13361667D01*
X11978809Y-13323571D01*
X11988333Y-13304524D01*
X11997857Y-13295000D01*
X12016905Y-13285476D01*
X12207381Y-13285476D02*
X12226428Y-13285476D01*
X12245476Y-13295000D01*
X12255000Y-13304524D01*
X12264524Y-13323571D01*
X12274048Y-13361667D01*
X12274048Y-13409286D01*
X12264524Y-13447381D01*
X12255000Y-13466428D01*
X12245476Y-13475952D01*
X12226428Y-13485476D01*
X12207381Y-13485476D01*
X12188333Y-13475952D01*
X12178809Y-13466428D01*
X12169286Y-13447381D01*
X12159762Y-13409286D01*
X12159762Y-13361667D01*
X12169286Y-13323571D01*
X12178809Y-13304524D01*
X12188333Y-13295000D01*
X12207381Y-13285476D01*
X12359762Y-13485476D02*
X12359762Y-13352143D01*
X12359762Y-13371190D02*
X12369286Y-13361667D01*
X12388333Y-13352143D01*
X12416905Y-13352143D01*
X12435952Y-13361667D01*
X12445476Y-13380714D01*
X12445476Y-13485476D01*
X12445476Y-13380714D02*
X12455000Y-13361667D01*
X12474048Y-13352143D01*
X12502619Y-13352143D01*
X12521667Y-13361667D01*
X12531190Y-13380714D01*
X12531190Y-13485476D01*
X12626428Y-13485476D02*
X12626428Y-13352143D01*
X12626428Y-13371190D02*
X12635952Y-13361667D01*
X12655000Y-13352143D01*
X12683571Y-13352143D01*
X12702619Y-13361667D01*
X12712143Y-13380714D01*
X12712143Y-13485476D01*
X12712143Y-13380714D02*
X12721667Y-13361667D01*
X12740714Y-13352143D01*
X12769286Y-13352143D01*
X12788333Y-13361667D01*
X12797857Y-13380714D01*
X12797857Y-13485476D01*
X13188333Y-13275952D02*
X13016905Y-13533095D01*
X13445476Y-13285476D02*
X13464524Y-13285476D01*
X13483571Y-13295000D01*
X13493095Y-13304524D01*
X13502619Y-13323571D01*
X13512143Y-13361667D01*
X13512143Y-13409286D01*
X13502619Y-13447381D01*
X13493095Y-13466428D01*
X13483571Y-13475952D01*
X13464524Y-13485476D01*
X13445476Y-13485476D01*
X13426428Y-13475952D01*
X13416905Y-13466428D01*
X13407381Y-13447381D01*
X13397857Y-13409286D01*
X13397857Y-13361667D01*
X13407381Y-13323571D01*
X13416905Y-13304524D01*
X13426428Y-13295000D01*
X13445476Y-13285476D01*
X13597857Y-13466428D02*
X13607381Y-13475952D01*
X13597857Y-13485476D01*
X13588333Y-13475952D01*
X13597857Y-13466428D01*
X13597857Y-13485476D01*
X13731190Y-13285476D02*
X13750238Y-13285476D01*
X13769286Y-13295000D01*
X13778809Y-13304524D01*
X13788333Y-13323571D01*
X13797857Y-13361667D01*
X13797857Y-13409286D01*
X13788333Y-13447381D01*
X13778809Y-13466428D01*
X13769286Y-13475952D01*
X13750238Y-13485476D01*
X13731190Y-13485476D01*
X13712143Y-13475952D01*
X13702619Y-13466428D01*
X13693095Y-13447381D01*
X13683571Y-13409286D01*
X13683571Y-13361667D01*
X13693095Y-13323571D01*
X13702619Y-13304524D01*
X13712143Y-13295000D01*
X13731190Y-13285476D01*
X13864524Y-13285476D02*
X13988333Y-13285476D01*
X13921667Y-13361667D01*
X13950238Y-13361667D01*
X13969286Y-13371190D01*
X13978809Y-13380714D01*
X13988333Y-13399762D01*
X13988333Y-13447381D01*
X13978809Y-13466428D01*
X13969286Y-13475952D01*
X13950238Y-13485476D01*
X13893095Y-13485476D01*
X13874048Y-13475952D01*
X13864524Y-13466428D01*
X14169286Y-13285476D02*
X14074048Y-13285476D01*
X14064524Y-13380714D01*
X14074048Y-13371190D01*
X14093095Y-13361667D01*
X14140714Y-13361667D01*
X14159762Y-13371190D01*
X14169286Y-13380714D01*
X14178809Y-13399762D01*
X14178809Y-13447381D01*
X14169286Y-13466428D01*
X14159762Y-13475952D01*
X14140714Y-13485476D01*
X14093095Y-13485476D01*
X14074048Y-13475952D01*
X14064524Y-13466428D01*
X14350238Y-13352143D02*
X14350238Y-13485476D01*
X14302619Y-13275952D02*
X14255000Y-13418809D01*
X14378809Y-13418809D01*
X14445476Y-13285476D02*
X14445476Y-13323571D01*
X14521667Y-13285476D02*
X14521667Y-13323571D01*
X14816905Y-13561667D02*
X14807381Y-13552143D01*
X14788333Y-13523571D01*
X14778809Y-13504524D01*
X14769286Y-13475952D01*
X14759762Y-13428333D01*
X14759762Y-13390238D01*
X14769286Y-13342619D01*
X14778809Y-13314048D01*
X14788333Y-13295000D01*
X14807381Y-13266428D01*
X14816905Y-13256905D01*
X14883571Y-13304524D02*
X14893095Y-13295000D01*
X14912143Y-13285476D01*
X14959762Y-13285476D01*
X14978809Y-13295000D01*
X14988333Y-13304524D01*
X14997857Y-13323571D01*
X14997857Y-13342619D01*
X14988333Y-13371190D01*
X14874048Y-13485476D01*
X14997857Y-13485476D01*
X15235952Y-13485476D02*
X15235952Y-13285476D01*
X15321667Y-13485476D02*
X15321667Y-13380714D01*
X15312143Y-13361667D01*
X15293095Y-13352143D01*
X15264524Y-13352143D01*
X15245476Y-13361667D01*
X15235952Y-13371190D01*
X15445476Y-13485476D02*
X15426428Y-13475952D01*
X15416905Y-13466428D01*
X15407381Y-13447381D01*
X15407381Y-13390238D01*
X15416905Y-13371190D01*
X15426428Y-13361667D01*
X15445476Y-13352143D01*
X15474048Y-13352143D01*
X15493095Y-13361667D01*
X15502619Y-13371190D01*
X15512143Y-13390238D01*
X15512143Y-13447381D01*
X15502619Y-13466428D01*
X15493095Y-13475952D01*
X15474048Y-13485476D01*
X15445476Y-13485476D01*
X15626428Y-13485476D02*
X15607381Y-13475952D01*
X15597857Y-13456905D01*
X15597857Y-13285476D01*
X15778809Y-13475952D02*
X15759762Y-13485476D01*
X15721667Y-13485476D01*
X15702619Y-13475952D01*
X15693095Y-13456905D01*
X15693095Y-13380714D01*
X15702619Y-13361667D01*
X15721667Y-13352143D01*
X15759762Y-13352143D01*
X15778809Y-13361667D01*
X15788333Y-13380714D01*
X15788333Y-13399762D01*
X15693095Y-13418809D01*
X15864524Y-13475952D02*
X15883571Y-13485476D01*
X15921667Y-13485476D01*
X15940714Y-13475952D01*
X15950238Y-13456905D01*
X15950238Y-13447381D01*
X15940714Y-13428333D01*
X15921667Y-13418809D01*
X15893095Y-13418809D01*
X15874048Y-13409286D01*
X15864524Y-13390238D01*
X15864524Y-13380714D01*
X15874048Y-13361667D01*
X15893095Y-13352143D01*
X15921667Y-13352143D01*
X15940714Y-13361667D01*
X16016905Y-13561667D02*
X16026428Y-13552143D01*
X16045476Y-13523571D01*
X16055000Y-13504524D01*
X16064524Y-13475952D01*
X16074048Y-13428333D01*
X16074048Y-13390238D01*
X16064524Y-13342619D01*
X16055000Y-13314048D01*
X16045476Y-13295000D01*
X16026428Y-13266428D01*
X16016905Y-13256905D01*
X16378809Y-13561667D02*
X16369286Y-13552143D01*
X16350238Y-13523571D01*
X16340714Y-13504524D01*
X16331190Y-13475952D01*
X16321667Y-13428333D01*
X16321667Y-13390238D01*
X16331190Y-13342619D01*
X16340714Y-13314048D01*
X16350238Y-13295000D01*
X16369286Y-13266428D01*
X16378809Y-13256905D01*
X16455000Y-13352143D02*
X16455000Y-13485476D01*
X16455000Y-13371190D02*
X16464524Y-13361667D01*
X16483571Y-13352143D01*
X16512143Y-13352143D01*
X16531190Y-13361667D01*
X16540714Y-13380714D01*
X16540714Y-13485476D01*
X16664524Y-13485476D02*
X16645476Y-13475952D01*
X16635952Y-13466428D01*
X16626428Y-13447381D01*
X16626428Y-13390238D01*
X16635952Y-13371190D01*
X16645476Y-13361667D01*
X16664524Y-13352143D01*
X16693095Y-13352143D01*
X16712143Y-13361667D01*
X16721667Y-13371190D01*
X16731190Y-13390238D01*
X16731190Y-13447381D01*
X16721667Y-13466428D01*
X16712143Y-13475952D01*
X16693095Y-13485476D01*
X16664524Y-13485476D01*
X16788333Y-13352143D02*
X16864524Y-13352143D01*
X16816905Y-13285476D02*
X16816905Y-13456905D01*
X16826429Y-13475952D01*
X16845476Y-13485476D01*
X16864524Y-13485476D01*
X17083571Y-13352143D02*
X17083571Y-13552143D01*
X17083571Y-13361667D02*
X17102619Y-13352143D01*
X17140714Y-13352143D01*
X17159762Y-13361667D01*
X17169286Y-13371190D01*
X17178810Y-13390238D01*
X17178810Y-13447381D01*
X17169286Y-13466428D01*
X17159762Y-13475952D01*
X17140714Y-13485476D01*
X17102619Y-13485476D01*
X17083571Y-13475952D01*
X17293095Y-13485476D02*
X17274048Y-13475952D01*
X17264524Y-13456905D01*
X17264524Y-13285476D01*
X17455000Y-13485476D02*
X17455000Y-13380714D01*
X17445476Y-13361667D01*
X17426429Y-13352143D01*
X17388333Y-13352143D01*
X17369286Y-13361667D01*
X17455000Y-13475952D02*
X17435952Y-13485476D01*
X17388333Y-13485476D01*
X17369286Y-13475952D01*
X17359762Y-13456905D01*
X17359762Y-13437857D01*
X17369286Y-13418809D01*
X17388333Y-13409286D01*
X17435952Y-13409286D01*
X17455000Y-13399762D01*
X17521667Y-13352143D02*
X17597857Y-13352143D01*
X17550238Y-13285476D02*
X17550238Y-13456905D01*
X17559762Y-13475952D01*
X17578810Y-13485476D01*
X17597857Y-13485476D01*
X17740714Y-13475952D02*
X17721667Y-13485476D01*
X17683571Y-13485476D01*
X17664524Y-13475952D01*
X17655000Y-13456905D01*
X17655000Y-13380714D01*
X17664524Y-13361667D01*
X17683571Y-13352143D01*
X17721667Y-13352143D01*
X17740714Y-13361667D01*
X17750238Y-13380714D01*
X17750238Y-13399762D01*
X17655000Y-13418809D01*
X17921667Y-13485476D02*
X17921667Y-13285476D01*
X17921667Y-13475952D02*
X17902619Y-13485476D01*
X17864524Y-13485476D01*
X17845476Y-13475952D01*
X17835952Y-13466428D01*
X17826429Y-13447381D01*
X17826429Y-13390238D01*
X17835952Y-13371190D01*
X17845476Y-13361667D01*
X17864524Y-13352143D01*
X17902619Y-13352143D01*
X17921667Y-13361667D01*
X17997857Y-13561667D02*
X18007381Y-13552143D01*
X18026429Y-13523571D01*
X18035952Y-13504524D01*
X18045476Y-13475952D01*
X18055000Y-13428333D01*
X18055000Y-13390238D01*
X18045476Y-13342619D01*
X18035952Y-13314048D01*
X18026429Y-13295000D01*
X18007381Y-13266428D01*
X17997857Y-13256905D01*
M02*
