%TF.GenerationSoftware,KiCad,Pcbnew,(6.0.5)*%
%TF.CreationDate,2022-06-15T23:30:51-04:00*%
%TF.ProjectId,FlightController,466c6967-6874-4436-9f6e-74726f6c6c65,rev?*%
%TF.SameCoordinates,Original*%
%TF.FileFunction,Soldermask,Bot*%
%TF.FilePolarity,Negative*%
%FSLAX46Y46*%
G04 Gerber Fmt 4.6, Leading zero omitted, Abs format (unit mm)*
G04 Created by KiCad (PCBNEW (6.0.5)) date 2022-06-15 23:30:51*
%MOMM*%
%LPD*%
G01*
G04 APERTURE LIST*
%ADD10C,5.000000*%
%ADD11R,1.700000X1.700000*%
%ADD12O,1.700000X1.700000*%
%ADD13R,1.900000X1.900000*%
%ADD14C,1.900000*%
%ADD15C,1.500000*%
G04 APERTURE END LIST*
D10*
%TO.C,H4*%
X117500000Y-122500000D03*
%TD*%
D11*
%TO.C,J1*%
X164000000Y-83700000D03*
D12*
X164000000Y-86240000D03*
X164000000Y-88780000D03*
%TD*%
D11*
%TO.C,J8*%
X134730000Y-114335000D03*
D12*
X134730000Y-116875000D03*
X134730000Y-119415000D03*
%TD*%
D11*
%TO.C,J11*%
X123480000Y-98160000D03*
D12*
X123480000Y-95620000D03*
X123480000Y-93080000D03*
X123480000Y-90540000D03*
%TD*%
D13*
%TO.C,SW1*%
X125000000Y-84000000D03*
D14*
X125000000Y-81500000D03*
X125000000Y-79000000D03*
%TD*%
D10*
%TO.C,H1*%
X170000000Y-122500000D03*
%TD*%
%TO.C,H2*%
X117500000Y-77500000D03*
%TD*%
D11*
%TO.C,J4*%
X123480000Y-110160000D03*
D12*
X123480000Y-107620000D03*
X123480000Y-105080000D03*
X123480000Y-102540000D03*
%TD*%
D11*
%TO.C,J7*%
X130980000Y-114335000D03*
D12*
X130980000Y-116875000D03*
X130980000Y-119415000D03*
%TD*%
D15*
%TO.C,J2*%
X168425000Y-95110000D03*
X168425000Y-98610000D03*
%TD*%
D12*
%TO.C,J13*%
X166900000Y-108635000D03*
D11*
X166900000Y-111175000D03*
%TD*%
D13*
%TO.C,SW2*%
X155480000Y-106157500D03*
D14*
X157980000Y-106157500D03*
X160480000Y-106157500D03*
%TD*%
D11*
%TO.C,J12*%
X167765581Y-86191641D03*
D12*
X167765581Y-88731641D03*
%TD*%
D11*
%TO.C,J5*%
X123480000Y-114335000D03*
D12*
X123480000Y-116875000D03*
X123480000Y-119415000D03*
%TD*%
D11*
%TO.C,J10*%
X142230000Y-114335000D03*
D12*
X142230000Y-116875000D03*
X142230000Y-119415000D03*
%TD*%
D11*
%TO.C,J9*%
X138480000Y-114335000D03*
D12*
X138480000Y-116875000D03*
X138480000Y-119415000D03*
%TD*%
D11*
%TO.C,J6*%
X127230000Y-114335000D03*
D12*
X127230000Y-116875000D03*
X127230000Y-119415000D03*
%TD*%
D10*
%TO.C,H3*%
X170000000Y-77500000D03*
%TD*%
D11*
%TO.C,J3*%
X158775000Y-82025000D03*
D12*
X156235000Y-82025000D03*
X158775000Y-79485000D03*
X156235000Y-79485000D03*
X158775000Y-76945000D03*
X156235000Y-76945000D03*
%TD*%
M02*
