M48
; DRILL file {KiCad (6.0.5)} date Wed Jun 15 23:30:55 2022
; FORMAT={-:-/ absolute / inch / decimal}
; #@! TF.CreationDate,2022-06-15T23:30:55-04:00
; #@! TF.GenerationSoftware,Kicad,Pcbnew,(6.0.5)
; #@! TF.FileFunction,Plated,1,4,PTH
FMAT,2
INCH
; #@! TA.AperFunction,Plated,PTH,ViaDrill
T1C0.0157
; #@! TA.AperFunction,Plated,PTH,ComponentDrill
T2C0.0354
; #@! TA.AperFunction,Plated,PTH,ComponentDrill
T3C0.0394
; #@! TA.AperFunction,Plated,PTH,ComponentDrill
T4C0.0984
%
G90
G05
T1
X4.9508Y-3.7106
X4.9803Y-3.8583
X4.9803Y-3.8976
X4.9803Y-3.937
X4.9803Y-3.9764
X4.9803Y-4.0157
X4.9803Y-4.0551
X4.9992Y-3.6953
X4.9992Y-3.7346
X5.0197Y-3.8583
X5.0197Y-3.8976
X5.0197Y-3.937
X5.0197Y-3.9764
X5.0197Y-4.0157
X5.0197Y-4.0551
X5.0472Y-3.4567
X5.0551Y-4.3937
X5.0583Y-4.1874
X5.1142Y-3.9213
X5.1929Y-4.3937
X5.2126Y-3.3071
X5.2354Y-4.1874
X5.2441Y-4.0079
X5.2913Y-3.6102
X5.2992Y-4.0335
X5.3142Y-3.6756
X5.3535Y-4.1874
X5.3622Y-3.5551
X5.3839Y-4.4094
X5.4331Y-3.5354
X5.452Y-4.2268
X5.4626Y-3.9469
X5.4724Y-3.8783
X5.4803Y-3.5354
X5.4843Y-3.3071
X5.4882Y-3.4055
X5.5157Y-4.0394
X5.5276Y-3.2323
X5.5307Y-4.2268
X5.5413Y-3.8445
X5.5748Y-3.3622
X5.5866Y-3.7126
X5.6063Y-3.5118
X5.6142Y-3.7795
X5.626Y-3.7126
X5.672Y-4.2682
X5.685Y-3.4646
X5.6882Y-3.8134
X5.7079Y-4.5417
X5.7276Y-3.5181
X5.7338Y-3.5898
X5.7362Y-4.7165
X5.7992Y-4.2283
X5.8008Y-4.1668
X5.8097Y-4.333
X5.8543Y-3.3307
X5.8654Y-3.3803
X5.8661Y-3.6417
X5.8858Y-3.126
X5.9134Y-3.836
X5.9134Y-3.8753
X5.9134Y-4.6004
X5.9429Y-3.6811
X5.9449Y-4.7717
X6.0079Y-3.5669
X6.0268Y-3.9748
X6.2087Y-3.6693
X6.2591Y-3.8134
X6.2992Y-3.7323
X6.3189Y-4.626
X6.3228Y-3.4016
X6.3819Y-4.7677
X6.4449Y-4.8228
T2
X4.9213Y-3.1102
X4.9213Y-3.2087
X4.9213Y-3.3071
X6.1213Y-4.1794
X6.2197Y-4.1794
X6.3181Y-4.1794
X6.6309Y-3.7445
X6.6309Y-3.8823
T3
X4.8614Y-3.5646
X4.8614Y-3.6646
X4.8614Y-3.7646
X4.8614Y-3.8646
X4.8614Y-4.037
X4.8614Y-4.137
X4.8614Y-4.237
X4.8614Y-4.337
X4.8614Y-4.5014
X4.8614Y-4.6014
X4.8614Y-4.7014
X5.0091Y-4.5014
X5.0091Y-4.6014
X5.0091Y-4.7014
X5.1567Y-4.5014
X5.1567Y-4.6014
X5.1567Y-4.7014
X5.3043Y-4.5014
X5.3043Y-4.6014
X5.3043Y-4.7014
X5.452Y-4.5014
X5.452Y-4.6014
X5.452Y-4.7014
X5.5996Y-4.5014
X5.5996Y-4.6014
X5.5996Y-4.7014
X6.151Y-3.0293
X6.151Y-3.1293
X6.151Y-3.2293
X6.251Y-3.0293
X6.251Y-3.1293
X6.251Y-3.2293
X6.4567Y-3.2953
X6.4567Y-3.3953
X6.4567Y-3.4953
X6.5709Y-4.277
X6.5709Y-4.377
X6.6049Y-3.3934
X6.6049Y-3.4934
T4
X4.626Y-3.0512
X4.626Y-4.8228
X6.6929Y-3.0512
X6.6929Y-4.8228
T0
M30
