%TF.GenerationSoftware,KiCad,Pcbnew,(6.0.5)*%
%TF.CreationDate,2022-06-08T19:33:45-04:00*%
%TF.ProjectId,FlightController,466c6967-6874-4436-9f6e-74726f6c6c65,rev?*%
%TF.SameCoordinates,Original*%
%TF.FileFunction,Copper,L2,Inr*%
%TF.FilePolarity,Positive*%
%FSLAX46Y46*%
G04 Gerber Fmt 4.6, Leading zero omitted, Abs format (unit mm)*
G04 Created by KiCad (PCBNEW (6.0.5)) date 2022-06-08 19:33:45*
%MOMM*%
%LPD*%
G01*
G04 APERTURE LIST*
%TA.AperFunction,ComponentPad*%
%ADD10C,5.000000*%
%TD*%
%TA.AperFunction,ComponentPad*%
%ADD11R,1.700000X1.700000*%
%TD*%
%TA.AperFunction,ComponentPad*%
%ADD12O,1.700000X1.700000*%
%TD*%
%TA.AperFunction,ComponentPad*%
%ADD13O,2.500000X1.500000*%
%TD*%
%TA.AperFunction,ComponentPad*%
%ADD14R,2.500000X1.500000*%
%TD*%
%TA.AperFunction,ComponentPad*%
%ADD15O,3.500000X2.200000*%
%TD*%
%TA.AperFunction,ComponentPad*%
%ADD16O,1.500000X2.500000*%
%TD*%
%TA.AperFunction,ComponentPad*%
%ADD17R,1.500000X2.500000*%
%TD*%
%TA.AperFunction,ComponentPad*%
%ADD18O,2.200000X3.500000*%
%TD*%
%TA.AperFunction,ViaPad*%
%ADD19C,0.800000*%
%TD*%
G04 APERTURE END LIST*
D10*
%TO.N,GND*%
%TO.C,H3*%
X165480000Y-78360000D03*
%TD*%
%TO.N,GND*%
%TO.C,H2*%
X122480000Y-78360000D03*
%TD*%
%TO.N,GND*%
%TO.C,H1*%
X165480000Y-121360000D03*
%TD*%
D11*
%TO.N,PDB_REG_5v*%
%TO.C,J1*%
X162425000Y-114600000D03*
D12*
%TO.N,GND*%
X162425000Y-112060000D03*
%TD*%
D11*
%TO.N,S_TIM3_CH4*%
%TO.C,J8*%
X134730000Y-114335000D03*
D12*
%TO.N,+5V*%
X134730000Y-116875000D03*
%TO.N,GND*%
X134730000Y-119415000D03*
%TD*%
%TO.N,GND*%
%TO.C,J11*%
X123480000Y-90540000D03*
%TO.N,S_I2C2_SDA*%
X123480000Y-93080000D03*
%TO.N,S_I2C2_SCL*%
X123480000Y-95620000D03*
D11*
%TO.N,+3V3*%
X123480000Y-98160000D03*
%TD*%
D13*
%TO.N,GND*%
%TO.C,SW1*%
X131480000Y-85360000D03*
%TO.N,Net-(R3-Pad2)*%
X131480000Y-83360000D03*
D14*
%TO.N,+3V3*%
X131480000Y-81360000D03*
D15*
%TO.N,*%
X131480000Y-79260000D03*
X131480000Y-87460000D03*
%TD*%
D12*
%TO.N,GND*%
%TO.C,J4*%
X123480000Y-102540000D03*
%TO.N,S_USART2_TX*%
X123480000Y-105080000D03*
%TO.N,S_USART2_RX*%
X123480000Y-107620000D03*
D11*
%TO.N,+3V3*%
X123480000Y-110160000D03*
%TD*%
%TO.N,S_TIM3_CH3*%
%TO.C,J7*%
X130980000Y-114335000D03*
D12*
%TO.N,+5V*%
X130980000Y-116875000D03*
%TO.N,GND*%
X130980000Y-119415000D03*
%TD*%
D16*
%TO.N,PDB_REG_5v*%
%TO.C,SW2*%
X159480000Y-106157500D03*
%TO.N,+5V*%
X157480000Y-106157500D03*
D17*
%TO.N,USB_5v*%
X155480000Y-106157500D03*
D18*
%TO.N,*%
X153380000Y-106157500D03*
X161580000Y-106157500D03*
%TD*%
D11*
%TO.N,S_TIM3_CH1*%
%TO.C,J5*%
X123480000Y-114335000D03*
D12*
%TO.N,+5V*%
X123480000Y-116875000D03*
%TO.N,GND*%
X123480000Y-119415000D03*
%TD*%
%TO.N,GND*%
%TO.C,J10*%
X142230000Y-119415000D03*
%TO.N,+5V*%
X142230000Y-116875000D03*
D11*
%TO.N,S_TIM8_CH2*%
X142230000Y-114335000D03*
%TD*%
D12*
%TO.N,GND*%
%TO.C,J9*%
X138480000Y-119415000D03*
%TO.N,+5V*%
X138480000Y-116875000D03*
D11*
%TO.N,S_TIM8_CH1*%
X138480000Y-114335000D03*
%TD*%
%TO.N,S_TIM3_CH2*%
%TO.C,J6*%
X127230000Y-114335000D03*
D12*
%TO.N,+5V*%
X127230000Y-116875000D03*
%TO.N,GND*%
X127230000Y-119415000D03*
%TD*%
%TO.N,S_SWO*%
%TO.C,J3*%
X155715000Y-81805000D03*
%TO.N,S_NRST*%
X158255000Y-81805000D03*
%TO.N,S_SWCLK*%
X155715000Y-84345000D03*
%TO.N,GND*%
X158255000Y-84345000D03*
%TO.N,S_SWDIO*%
X155715000Y-86885000D03*
D11*
%TO.N,+3V3*%
X158255000Y-86885000D03*
%TD*%
D19*
%TO.N,GND*%
X129900000Y-99600000D03*
X127980000Y-111860000D03*
X128480000Y-106360000D03*
X144980000Y-115360000D03*
X125244256Y-94297593D03*
X150700000Y-87700000D03*
X147525513Y-109795027D03*
X158980000Y-96860000D03*
X152800000Y-91000000D03*
X144480000Y-96860000D03*
%TO.N,+3V3*%
X149000000Y-92500000D03*
X148980000Y-85860000D03*
%TO.N,GND*%
X148980000Y-84360000D03*
%TO.N,+3V3*%
X148480000Y-79860000D03*
X141980000Y-83360000D03*
X143980000Y-88360000D03*
%TO.N,S_NRST*%
X142480000Y-94860000D03*
%TO.N,S_I2C2_SCL*%
X126980000Y-94860000D03*
%TO.N,S_I2C2_SDA*%
X126980000Y-93860000D03*
X143980000Y-101360000D03*
%TO.N,S_I2C2_SCL*%
X143980000Y-102360000D03*
%TO.N,+3V3*%
X147341036Y-105836912D03*
X144067913Y-108412621D03*
%TO.N,S_USART2_RX*%
X132980000Y-106360000D03*
X135980000Y-106360000D03*
%TO.N,+3V3*%
X133000000Y-103750000D03*
%TO.N,GND*%
X133000000Y-101500000D03*
X151880000Y-97060000D03*
X153080000Y-100960000D03*
X158600000Y-118400000D03*
%TO.N,S_I2C1_SDA*%
X142980000Y-89360000D03*
X145480000Y-89360000D03*
%TO.N,GND*%
X138480000Y-107360000D03*
X135980000Y-91360000D03*
X139480000Y-89860000D03*
%TO.N,+3V3*%
X137980000Y-89860000D03*
X134980000Y-93360000D03*
X160400000Y-122000000D03*
X140480000Y-107360000D03*
%TD*%
%TA.AperFunction,Conductor*%
%TO.N,GND*%
G36*
X121275811Y-75388502D02*
G01*
X121322304Y-75442158D01*
X121332408Y-75512432D01*
X121302914Y-75577012D01*
X121261934Y-75608226D01*
X121031707Y-75718039D01*
X121025349Y-75721534D01*
X120737654Y-75902005D01*
X120731731Y-75906214D01*
X120553601Y-76048923D01*
X120545132Y-76061048D01*
X120551527Y-76072316D01*
X122467190Y-77987980D01*
X122481131Y-77995592D01*
X122482966Y-77995461D01*
X122489580Y-77991210D01*
X124407074Y-76073716D01*
X124414466Y-76060179D01*
X124407679Y-76050479D01*
X124304476Y-75962335D01*
X124298704Y-75957953D01*
X124016796Y-75768519D01*
X124010575Y-75764839D01*
X123705537Y-75607398D01*
X123706100Y-75606307D01*
X123655886Y-75563621D01*
X123635240Y-75495693D01*
X123654596Y-75427386D01*
X123707809Y-75380387D01*
X123761234Y-75368500D01*
X164207690Y-75368500D01*
X164275811Y-75388502D01*
X164322304Y-75442158D01*
X164332408Y-75512432D01*
X164302914Y-75577012D01*
X164261934Y-75608226D01*
X164031707Y-75718039D01*
X164025349Y-75721534D01*
X163737654Y-75902005D01*
X163731731Y-75906214D01*
X163553601Y-76048923D01*
X163545132Y-76061048D01*
X163551527Y-76072316D01*
X165467190Y-77987980D01*
X165481131Y-77995592D01*
X165482966Y-77995461D01*
X165489580Y-77991210D01*
X167407074Y-76073716D01*
X167414466Y-76060179D01*
X167407679Y-76050479D01*
X167304476Y-75962335D01*
X167298704Y-75957953D01*
X167016796Y-75768519D01*
X167010575Y-75764839D01*
X166705537Y-75607398D01*
X166706100Y-75606307D01*
X166655886Y-75563621D01*
X166635240Y-75495693D01*
X166654596Y-75427386D01*
X166707809Y-75380387D01*
X166761234Y-75368500D01*
X168345500Y-75368500D01*
X168413621Y-75388502D01*
X168460114Y-75442158D01*
X168471500Y-75494500D01*
X168471500Y-77089784D01*
X168451498Y-77157905D01*
X168397842Y-77204398D01*
X168327568Y-77214502D01*
X168262988Y-77185008D01*
X168229603Y-77139219D01*
X168180290Y-77023608D01*
X168177073Y-77017125D01*
X168008788Y-76722089D01*
X168004856Y-76716034D01*
X167803774Y-76442295D01*
X167799166Y-76436726D01*
X167793830Y-76430984D01*
X167780178Y-76422866D01*
X167779570Y-76422887D01*
X167771092Y-76428119D01*
X165852020Y-78347190D01*
X165844408Y-78361131D01*
X165844539Y-78362966D01*
X165848790Y-78369580D01*
X167766268Y-80287057D01*
X167779622Y-80294349D01*
X167789594Y-80287295D01*
X167896641Y-80159267D01*
X167900957Y-80153456D01*
X168087432Y-79869575D01*
X168091046Y-79863313D01*
X168232935Y-79581201D01*
X168281413Y-79529331D01*
X168350237Y-79511904D01*
X168417558Y-79534453D01*
X168462001Y-79589819D01*
X168471500Y-79637815D01*
X168471500Y-120089784D01*
X168451498Y-120157905D01*
X168397842Y-120204398D01*
X168327568Y-120214502D01*
X168262988Y-120185008D01*
X168229603Y-120139219D01*
X168180290Y-120023608D01*
X168177073Y-120017125D01*
X168008788Y-119722089D01*
X168004856Y-119716034D01*
X167803774Y-119442295D01*
X167799166Y-119436726D01*
X167793830Y-119430984D01*
X167780178Y-119422866D01*
X167779570Y-119422887D01*
X167771092Y-119428119D01*
X165852020Y-121347190D01*
X165844408Y-121361131D01*
X165844539Y-121362966D01*
X165848790Y-121369580D01*
X167766268Y-123287057D01*
X167779622Y-123294349D01*
X167789594Y-123287295D01*
X167896641Y-123159267D01*
X167900957Y-123153456D01*
X168087432Y-122869575D01*
X168091046Y-122863313D01*
X168232935Y-122581201D01*
X168281413Y-122529331D01*
X168350237Y-122511904D01*
X168417558Y-122534453D01*
X168462001Y-122589819D01*
X168471500Y-122637815D01*
X168471500Y-124225500D01*
X168451498Y-124293621D01*
X168397842Y-124340114D01*
X168345500Y-124351500D01*
X166749495Y-124351500D01*
X166681374Y-124331498D01*
X166634881Y-124277842D01*
X166624777Y-124207568D01*
X166654271Y-124142988D01*
X166698850Y-124110126D01*
X166844603Y-124046145D01*
X166851043Y-124042864D01*
X167144293Y-123871502D01*
X167150326Y-123867493D01*
X167408828Y-123673405D01*
X167417282Y-123662078D01*
X167410537Y-123649748D01*
X165492810Y-121732020D01*
X165478869Y-121724408D01*
X165477034Y-121724539D01*
X165470420Y-121728790D01*
X163551474Y-123647737D01*
X163543860Y-123661681D01*
X163543878Y-123661933D01*
X163549793Y-123670677D01*
X163581111Y-123699174D01*
X163586748Y-123703738D01*
X163862544Y-123901918D01*
X163868682Y-123905813D01*
X164165435Y-124070984D01*
X164171955Y-124074136D01*
X164256343Y-124109091D01*
X164311624Y-124153639D01*
X164334045Y-124221003D01*
X164316487Y-124289794D01*
X164264525Y-124338172D01*
X164208125Y-124351500D01*
X119614500Y-124351500D01*
X119546379Y-124331498D01*
X119499886Y-124277842D01*
X119488500Y-124225500D01*
X119488500Y-122000000D01*
X159486496Y-122000000D01*
X159506458Y-122189928D01*
X159565473Y-122371556D01*
X159660960Y-122536944D01*
X159665378Y-122541851D01*
X159665379Y-122541852D01*
X159784325Y-122673955D01*
X159788747Y-122678866D01*
X159943248Y-122791118D01*
X159949276Y-122793802D01*
X159949278Y-122793803D01*
X160105401Y-122863313D01*
X160117712Y-122868794D01*
X160211112Y-122888647D01*
X160298056Y-122907128D01*
X160298061Y-122907128D01*
X160304513Y-122908500D01*
X160495487Y-122908500D01*
X160501939Y-122907128D01*
X160501944Y-122907128D01*
X160588888Y-122888647D01*
X160682288Y-122868794D01*
X160694599Y-122863313D01*
X160850722Y-122793803D01*
X160850724Y-122793802D01*
X160856752Y-122791118D01*
X161011253Y-122678866D01*
X161015675Y-122673955D01*
X161134621Y-122541852D01*
X161134622Y-122541851D01*
X161139040Y-122536944D01*
X161234527Y-122371556D01*
X161293542Y-122189928D01*
X161313504Y-122000000D01*
X161293542Y-121810072D01*
X161234527Y-121628444D01*
X161227182Y-121615721D01*
X161142341Y-121468774D01*
X161139040Y-121463056D01*
X161047267Y-121361131D01*
X161015675Y-121326045D01*
X161015674Y-121326044D01*
X161011253Y-121321134D01*
X160939479Y-121268987D01*
X162468484Y-121268987D01*
X162477374Y-121608505D01*
X162477980Y-121615721D01*
X162525835Y-121951963D01*
X162527269Y-121959074D01*
X162613455Y-122287595D01*
X162615692Y-122294478D01*
X162739064Y-122610914D01*
X162742081Y-122617503D01*
X162901002Y-122917652D01*
X162904761Y-122923860D01*
X163097129Y-123203757D01*
X163101574Y-123209486D01*
X163168743Y-123286484D01*
X163181917Y-123294888D01*
X163191769Y-123289020D01*
X165107980Y-121372810D01*
X165115592Y-121358869D01*
X165115461Y-121357034D01*
X165111210Y-121350420D01*
X163192374Y-119431585D01*
X163179581Y-119424599D01*
X163168827Y-119432464D01*
X163008037Y-119637527D01*
X163003902Y-119643476D01*
X162826440Y-119933068D01*
X162823019Y-119939447D01*
X162680016Y-120247522D01*
X162677356Y-120254241D01*
X162570711Y-120576707D01*
X162568834Y-120583711D01*
X162499961Y-120916288D01*
X162498904Y-120923449D01*
X162468712Y-121261735D01*
X162468484Y-121268987D01*
X160939479Y-121268987D01*
X160856752Y-121208882D01*
X160850724Y-121206198D01*
X160850722Y-121206197D01*
X160688319Y-121133891D01*
X160688318Y-121133891D01*
X160682288Y-121131206D01*
X160588888Y-121111353D01*
X160501944Y-121092872D01*
X160501939Y-121092872D01*
X160495487Y-121091500D01*
X160304513Y-121091500D01*
X160298061Y-121092872D01*
X160298056Y-121092872D01*
X160211112Y-121111353D01*
X160117712Y-121131206D01*
X160111682Y-121133891D01*
X160111681Y-121133891D01*
X159949278Y-121206197D01*
X159949276Y-121206198D01*
X159943248Y-121208882D01*
X159788747Y-121321134D01*
X159784326Y-121326044D01*
X159784325Y-121326045D01*
X159752734Y-121361131D01*
X159660960Y-121463056D01*
X159657659Y-121468774D01*
X159572819Y-121615721D01*
X159565473Y-121628444D01*
X159506458Y-121810072D01*
X159486496Y-122000000D01*
X119488500Y-122000000D01*
X119488500Y-119682966D01*
X122148257Y-119682966D01*
X122178565Y-119817446D01*
X122181645Y-119827275D01*
X122261770Y-120024603D01*
X122266413Y-120033794D01*
X122377694Y-120215388D01*
X122383777Y-120223699D01*
X122523213Y-120384667D01*
X122530580Y-120391883D01*
X122694434Y-120527916D01*
X122702881Y-120533831D01*
X122886756Y-120641279D01*
X122896042Y-120645729D01*
X123095001Y-120721703D01*
X123104899Y-120724579D01*
X123208250Y-120745606D01*
X123222299Y-120744410D01*
X123226000Y-120734065D01*
X123226000Y-120733517D01*
X123734000Y-120733517D01*
X123738064Y-120747359D01*
X123751478Y-120749393D01*
X123758184Y-120748534D01*
X123768262Y-120746392D01*
X123972255Y-120685191D01*
X123981842Y-120681433D01*
X124173095Y-120587739D01*
X124181945Y-120582464D01*
X124355328Y-120458792D01*
X124363200Y-120452139D01*
X124514052Y-120301812D01*
X124520730Y-120293965D01*
X124645003Y-120121020D01*
X124650313Y-120112183D01*
X124744670Y-119921267D01*
X124748469Y-119911672D01*
X124810377Y-119707910D01*
X124812555Y-119697837D01*
X124813986Y-119686962D01*
X124813363Y-119682966D01*
X125898257Y-119682966D01*
X125928565Y-119817446D01*
X125931645Y-119827275D01*
X126011770Y-120024603D01*
X126016413Y-120033794D01*
X126127694Y-120215388D01*
X126133777Y-120223699D01*
X126273213Y-120384667D01*
X126280580Y-120391883D01*
X126444434Y-120527916D01*
X126452881Y-120533831D01*
X126636756Y-120641279D01*
X126646042Y-120645729D01*
X126845001Y-120721703D01*
X126854899Y-120724579D01*
X126958250Y-120745606D01*
X126972299Y-120744410D01*
X126976000Y-120734065D01*
X126976000Y-120733517D01*
X127484000Y-120733517D01*
X127488064Y-120747359D01*
X127501478Y-120749393D01*
X127508184Y-120748534D01*
X127518262Y-120746392D01*
X127722255Y-120685191D01*
X127731842Y-120681433D01*
X127923095Y-120587739D01*
X127931945Y-120582464D01*
X128105328Y-120458792D01*
X128113200Y-120452139D01*
X128264052Y-120301812D01*
X128270730Y-120293965D01*
X128395003Y-120121020D01*
X128400313Y-120112183D01*
X128494670Y-119921267D01*
X128498469Y-119911672D01*
X128560377Y-119707910D01*
X128562555Y-119697837D01*
X128563986Y-119686962D01*
X128563363Y-119682966D01*
X129648257Y-119682966D01*
X129678565Y-119817446D01*
X129681645Y-119827275D01*
X129761770Y-120024603D01*
X129766413Y-120033794D01*
X129877694Y-120215388D01*
X129883777Y-120223699D01*
X130023213Y-120384667D01*
X130030580Y-120391883D01*
X130194434Y-120527916D01*
X130202881Y-120533831D01*
X130386756Y-120641279D01*
X130396042Y-120645729D01*
X130595001Y-120721703D01*
X130604899Y-120724579D01*
X130708250Y-120745606D01*
X130722299Y-120744410D01*
X130726000Y-120734065D01*
X130726000Y-120733517D01*
X131234000Y-120733517D01*
X131238064Y-120747359D01*
X131251478Y-120749393D01*
X131258184Y-120748534D01*
X131268262Y-120746392D01*
X131472255Y-120685191D01*
X131481842Y-120681433D01*
X131673095Y-120587739D01*
X131681945Y-120582464D01*
X131855328Y-120458792D01*
X131863200Y-120452139D01*
X132014052Y-120301812D01*
X132020730Y-120293965D01*
X132145003Y-120121020D01*
X132150313Y-120112183D01*
X132244670Y-119921267D01*
X132248469Y-119911672D01*
X132310377Y-119707910D01*
X132312555Y-119697837D01*
X132313986Y-119686962D01*
X132313363Y-119682966D01*
X133398257Y-119682966D01*
X133428565Y-119817446D01*
X133431645Y-119827275D01*
X133511770Y-120024603D01*
X133516413Y-120033794D01*
X133627694Y-120215388D01*
X133633777Y-120223699D01*
X133773213Y-120384667D01*
X133780580Y-120391883D01*
X133944434Y-120527916D01*
X133952881Y-120533831D01*
X134136756Y-120641279D01*
X134146042Y-120645729D01*
X134345001Y-120721703D01*
X134354899Y-120724579D01*
X134458250Y-120745606D01*
X134472299Y-120744410D01*
X134476000Y-120734065D01*
X134476000Y-120733517D01*
X134984000Y-120733517D01*
X134988064Y-120747359D01*
X135001478Y-120749393D01*
X135008184Y-120748534D01*
X135018262Y-120746392D01*
X135222255Y-120685191D01*
X135231842Y-120681433D01*
X135423095Y-120587739D01*
X135431945Y-120582464D01*
X135605328Y-120458792D01*
X135613200Y-120452139D01*
X135764052Y-120301812D01*
X135770730Y-120293965D01*
X135895003Y-120121020D01*
X135900313Y-120112183D01*
X135994670Y-119921267D01*
X135998469Y-119911672D01*
X136060377Y-119707910D01*
X136062555Y-119697837D01*
X136063986Y-119686962D01*
X136063363Y-119682966D01*
X137148257Y-119682966D01*
X137178565Y-119817446D01*
X137181645Y-119827275D01*
X137261770Y-120024603D01*
X137266413Y-120033794D01*
X137377694Y-120215388D01*
X137383777Y-120223699D01*
X137523213Y-120384667D01*
X137530580Y-120391883D01*
X137694434Y-120527916D01*
X137702881Y-120533831D01*
X137886756Y-120641279D01*
X137896042Y-120645729D01*
X138095001Y-120721703D01*
X138104899Y-120724579D01*
X138208250Y-120745606D01*
X138222299Y-120744410D01*
X138226000Y-120734065D01*
X138226000Y-120733517D01*
X138734000Y-120733517D01*
X138738064Y-120747359D01*
X138751478Y-120749393D01*
X138758184Y-120748534D01*
X138768262Y-120746392D01*
X138972255Y-120685191D01*
X138981842Y-120681433D01*
X139173095Y-120587739D01*
X139181945Y-120582464D01*
X139355328Y-120458792D01*
X139363200Y-120452139D01*
X139514052Y-120301812D01*
X139520730Y-120293965D01*
X139645003Y-120121020D01*
X139650313Y-120112183D01*
X139744670Y-119921267D01*
X139748469Y-119911672D01*
X139810377Y-119707910D01*
X139812555Y-119697837D01*
X139813986Y-119686962D01*
X139813363Y-119682966D01*
X140898257Y-119682966D01*
X140928565Y-119817446D01*
X140931645Y-119827275D01*
X141011770Y-120024603D01*
X141016413Y-120033794D01*
X141127694Y-120215388D01*
X141133777Y-120223699D01*
X141273213Y-120384667D01*
X141280580Y-120391883D01*
X141444434Y-120527916D01*
X141452881Y-120533831D01*
X141636756Y-120641279D01*
X141646042Y-120645729D01*
X141845001Y-120721703D01*
X141854899Y-120724579D01*
X141958250Y-120745606D01*
X141972299Y-120744410D01*
X141976000Y-120734065D01*
X141976000Y-120733517D01*
X142484000Y-120733517D01*
X142488064Y-120747359D01*
X142501478Y-120749393D01*
X142508184Y-120748534D01*
X142518262Y-120746392D01*
X142722255Y-120685191D01*
X142731842Y-120681433D01*
X142923095Y-120587739D01*
X142931945Y-120582464D01*
X143105328Y-120458792D01*
X143113200Y-120452139D01*
X143264052Y-120301812D01*
X143270730Y-120293965D01*
X143395003Y-120121020D01*
X143400313Y-120112183D01*
X143494670Y-119921267D01*
X143498469Y-119911672D01*
X143560377Y-119707910D01*
X143562555Y-119697837D01*
X143563986Y-119686962D01*
X143561775Y-119672778D01*
X143548617Y-119669000D01*
X142502115Y-119669000D01*
X142486876Y-119673475D01*
X142485671Y-119674865D01*
X142484000Y-119682548D01*
X142484000Y-120733517D01*
X141976000Y-120733517D01*
X141976000Y-119687115D01*
X141971525Y-119671876D01*
X141970135Y-119670671D01*
X141962452Y-119669000D01*
X140913225Y-119669000D01*
X140899694Y-119672973D01*
X140898257Y-119682966D01*
X139813363Y-119682966D01*
X139811775Y-119672778D01*
X139798617Y-119669000D01*
X138752115Y-119669000D01*
X138736876Y-119673475D01*
X138735671Y-119674865D01*
X138734000Y-119682548D01*
X138734000Y-120733517D01*
X138226000Y-120733517D01*
X138226000Y-119687115D01*
X138221525Y-119671876D01*
X138220135Y-119670671D01*
X138212452Y-119669000D01*
X137163225Y-119669000D01*
X137149694Y-119672973D01*
X137148257Y-119682966D01*
X136063363Y-119682966D01*
X136061775Y-119672778D01*
X136048617Y-119669000D01*
X135002115Y-119669000D01*
X134986876Y-119673475D01*
X134985671Y-119674865D01*
X134984000Y-119682548D01*
X134984000Y-120733517D01*
X134476000Y-120733517D01*
X134476000Y-119687115D01*
X134471525Y-119671876D01*
X134470135Y-119670671D01*
X134462452Y-119669000D01*
X133413225Y-119669000D01*
X133399694Y-119672973D01*
X133398257Y-119682966D01*
X132313363Y-119682966D01*
X132311775Y-119672778D01*
X132298617Y-119669000D01*
X131252115Y-119669000D01*
X131236876Y-119673475D01*
X131235671Y-119674865D01*
X131234000Y-119682548D01*
X131234000Y-120733517D01*
X130726000Y-120733517D01*
X130726000Y-119687115D01*
X130721525Y-119671876D01*
X130720135Y-119670671D01*
X130712452Y-119669000D01*
X129663225Y-119669000D01*
X129649694Y-119672973D01*
X129648257Y-119682966D01*
X128563363Y-119682966D01*
X128561775Y-119672778D01*
X128548617Y-119669000D01*
X127502115Y-119669000D01*
X127486876Y-119673475D01*
X127485671Y-119674865D01*
X127484000Y-119682548D01*
X127484000Y-120733517D01*
X126976000Y-120733517D01*
X126976000Y-119687115D01*
X126971525Y-119671876D01*
X126970135Y-119670671D01*
X126962452Y-119669000D01*
X125913225Y-119669000D01*
X125899694Y-119672973D01*
X125898257Y-119682966D01*
X124813363Y-119682966D01*
X124811775Y-119672778D01*
X124798617Y-119669000D01*
X123752115Y-119669000D01*
X123736876Y-119673475D01*
X123735671Y-119674865D01*
X123734000Y-119682548D01*
X123734000Y-120733517D01*
X123226000Y-120733517D01*
X123226000Y-119687115D01*
X123221525Y-119671876D01*
X123220135Y-119670671D01*
X123212452Y-119669000D01*
X122163225Y-119669000D01*
X122149694Y-119672973D01*
X122148257Y-119682966D01*
X119488500Y-119682966D01*
X119488500Y-116841695D01*
X122117251Y-116841695D01*
X122117548Y-116846848D01*
X122117548Y-116846851D01*
X122123011Y-116941590D01*
X122130110Y-117064715D01*
X122131247Y-117069761D01*
X122131248Y-117069767D01*
X122151119Y-117157939D01*
X122179222Y-117282639D01*
X122263266Y-117489616D01*
X122379987Y-117680088D01*
X122526250Y-117848938D01*
X122698126Y-117991632D01*
X122771955Y-118034774D01*
X122820679Y-118086412D01*
X122833750Y-118156195D01*
X122807019Y-118221967D01*
X122766562Y-118255327D01*
X122758457Y-118259546D01*
X122749738Y-118265036D01*
X122579433Y-118392905D01*
X122571726Y-118399748D01*
X122424590Y-118553717D01*
X122418104Y-118561727D01*
X122298098Y-118737649D01*
X122293000Y-118746623D01*
X122203338Y-118939783D01*
X122199775Y-118949470D01*
X122144389Y-119149183D01*
X122145912Y-119157607D01*
X122158292Y-119161000D01*
X124798344Y-119161000D01*
X124811875Y-119157027D01*
X124813180Y-119147947D01*
X124771214Y-118980875D01*
X124767894Y-118971124D01*
X124682972Y-118775814D01*
X124678105Y-118766739D01*
X124562426Y-118587926D01*
X124556136Y-118579757D01*
X124412806Y-118422240D01*
X124405273Y-118415215D01*
X124238139Y-118283222D01*
X124229556Y-118277520D01*
X124192602Y-118257120D01*
X124142631Y-118206687D01*
X124127859Y-118137245D01*
X124152975Y-118070839D01*
X124180327Y-118044232D01*
X124203797Y-118027491D01*
X124359860Y-117916173D01*
X124518096Y-117758489D01*
X124577594Y-117675689D01*
X124645435Y-117581277D01*
X124648453Y-117577077D01*
X124747430Y-117376811D01*
X124812370Y-117163069D01*
X124841529Y-116941590D01*
X124843156Y-116875000D01*
X124840418Y-116841695D01*
X125867251Y-116841695D01*
X125867548Y-116846848D01*
X125867548Y-116846851D01*
X125873011Y-116941590D01*
X125880110Y-117064715D01*
X125881247Y-117069761D01*
X125881248Y-117069767D01*
X125901119Y-117157939D01*
X125929222Y-117282639D01*
X126013266Y-117489616D01*
X126129987Y-117680088D01*
X126276250Y-117848938D01*
X126448126Y-117991632D01*
X126521955Y-118034774D01*
X126570679Y-118086412D01*
X126583750Y-118156195D01*
X126557019Y-118221967D01*
X126516562Y-118255327D01*
X126508457Y-118259546D01*
X126499738Y-118265036D01*
X126329433Y-118392905D01*
X126321726Y-118399748D01*
X126174590Y-118553717D01*
X126168104Y-118561727D01*
X126048098Y-118737649D01*
X126043000Y-118746623D01*
X125953338Y-118939783D01*
X125949775Y-118949470D01*
X125894389Y-119149183D01*
X125895912Y-119157607D01*
X125908292Y-119161000D01*
X128548344Y-119161000D01*
X128561875Y-119157027D01*
X128563180Y-119147947D01*
X128521214Y-118980875D01*
X128517894Y-118971124D01*
X128432972Y-118775814D01*
X128428105Y-118766739D01*
X128312426Y-118587926D01*
X128306136Y-118579757D01*
X128162806Y-118422240D01*
X128155273Y-118415215D01*
X127988139Y-118283222D01*
X127979556Y-118277520D01*
X127942602Y-118257120D01*
X127892631Y-118206687D01*
X127877859Y-118137245D01*
X127902975Y-118070839D01*
X127930327Y-118044232D01*
X127953797Y-118027491D01*
X128109860Y-117916173D01*
X128268096Y-117758489D01*
X128327594Y-117675689D01*
X128395435Y-117581277D01*
X128398453Y-117577077D01*
X128497430Y-117376811D01*
X128562370Y-117163069D01*
X128591529Y-116941590D01*
X128593156Y-116875000D01*
X128590418Y-116841695D01*
X129617251Y-116841695D01*
X129617548Y-116846848D01*
X129617548Y-116846851D01*
X129623011Y-116941590D01*
X129630110Y-117064715D01*
X129631247Y-117069761D01*
X129631248Y-117069767D01*
X129651119Y-117157939D01*
X129679222Y-117282639D01*
X129763266Y-117489616D01*
X129879987Y-117680088D01*
X130026250Y-117848938D01*
X130198126Y-117991632D01*
X130271955Y-118034774D01*
X130320679Y-118086412D01*
X130333750Y-118156195D01*
X130307019Y-118221967D01*
X130266562Y-118255327D01*
X130258457Y-118259546D01*
X130249738Y-118265036D01*
X130079433Y-118392905D01*
X130071726Y-118399748D01*
X129924590Y-118553717D01*
X129918104Y-118561727D01*
X129798098Y-118737649D01*
X129793000Y-118746623D01*
X129703338Y-118939783D01*
X129699775Y-118949470D01*
X129644389Y-119149183D01*
X129645912Y-119157607D01*
X129658292Y-119161000D01*
X132298344Y-119161000D01*
X132311875Y-119157027D01*
X132313180Y-119147947D01*
X132271214Y-118980875D01*
X132267894Y-118971124D01*
X132182972Y-118775814D01*
X132178105Y-118766739D01*
X132062426Y-118587926D01*
X132056136Y-118579757D01*
X131912806Y-118422240D01*
X131905273Y-118415215D01*
X131738139Y-118283222D01*
X131729556Y-118277520D01*
X131692602Y-118257120D01*
X131642631Y-118206687D01*
X131627859Y-118137245D01*
X131652975Y-118070839D01*
X131680327Y-118044232D01*
X131703797Y-118027491D01*
X131859860Y-117916173D01*
X132018096Y-117758489D01*
X132077594Y-117675689D01*
X132145435Y-117581277D01*
X132148453Y-117577077D01*
X132247430Y-117376811D01*
X132312370Y-117163069D01*
X132341529Y-116941590D01*
X132343156Y-116875000D01*
X132340418Y-116841695D01*
X133367251Y-116841695D01*
X133367548Y-116846848D01*
X133367548Y-116846851D01*
X133373011Y-116941590D01*
X133380110Y-117064715D01*
X133381247Y-117069761D01*
X133381248Y-117069767D01*
X133401119Y-117157939D01*
X133429222Y-117282639D01*
X133513266Y-117489616D01*
X133629987Y-117680088D01*
X133776250Y-117848938D01*
X133948126Y-117991632D01*
X134021955Y-118034774D01*
X134070679Y-118086412D01*
X134083750Y-118156195D01*
X134057019Y-118221967D01*
X134016562Y-118255327D01*
X134008457Y-118259546D01*
X133999738Y-118265036D01*
X133829433Y-118392905D01*
X133821726Y-118399748D01*
X133674590Y-118553717D01*
X133668104Y-118561727D01*
X133548098Y-118737649D01*
X133543000Y-118746623D01*
X133453338Y-118939783D01*
X133449775Y-118949470D01*
X133394389Y-119149183D01*
X133395912Y-119157607D01*
X133408292Y-119161000D01*
X136048344Y-119161000D01*
X136061875Y-119157027D01*
X136063180Y-119147947D01*
X136021214Y-118980875D01*
X136017894Y-118971124D01*
X135932972Y-118775814D01*
X135928105Y-118766739D01*
X135812426Y-118587926D01*
X135806136Y-118579757D01*
X135662806Y-118422240D01*
X135655273Y-118415215D01*
X135488139Y-118283222D01*
X135479556Y-118277520D01*
X135442602Y-118257120D01*
X135392631Y-118206687D01*
X135377859Y-118137245D01*
X135402975Y-118070839D01*
X135430327Y-118044232D01*
X135453797Y-118027491D01*
X135609860Y-117916173D01*
X135768096Y-117758489D01*
X135827594Y-117675689D01*
X135895435Y-117581277D01*
X135898453Y-117577077D01*
X135997430Y-117376811D01*
X136062370Y-117163069D01*
X136091529Y-116941590D01*
X136093156Y-116875000D01*
X136090418Y-116841695D01*
X137117251Y-116841695D01*
X137117548Y-116846848D01*
X137117548Y-116846851D01*
X137123011Y-116941590D01*
X137130110Y-117064715D01*
X137131247Y-117069761D01*
X137131248Y-117069767D01*
X137151119Y-117157939D01*
X137179222Y-117282639D01*
X137263266Y-117489616D01*
X137379987Y-117680088D01*
X137526250Y-117848938D01*
X137698126Y-117991632D01*
X137771955Y-118034774D01*
X137820679Y-118086412D01*
X137833750Y-118156195D01*
X137807019Y-118221967D01*
X137766562Y-118255327D01*
X137758457Y-118259546D01*
X137749738Y-118265036D01*
X137579433Y-118392905D01*
X137571726Y-118399748D01*
X137424590Y-118553717D01*
X137418104Y-118561727D01*
X137298098Y-118737649D01*
X137293000Y-118746623D01*
X137203338Y-118939783D01*
X137199775Y-118949470D01*
X137144389Y-119149183D01*
X137145912Y-119157607D01*
X137158292Y-119161000D01*
X139798344Y-119161000D01*
X139811875Y-119157027D01*
X139813180Y-119147947D01*
X139771214Y-118980875D01*
X139767894Y-118971124D01*
X139682972Y-118775814D01*
X139678105Y-118766739D01*
X139562426Y-118587926D01*
X139556136Y-118579757D01*
X139412806Y-118422240D01*
X139405273Y-118415215D01*
X139238139Y-118283222D01*
X139229556Y-118277520D01*
X139192602Y-118257120D01*
X139142631Y-118206687D01*
X139127859Y-118137245D01*
X139152975Y-118070839D01*
X139180327Y-118044232D01*
X139203797Y-118027491D01*
X139359860Y-117916173D01*
X139518096Y-117758489D01*
X139577594Y-117675689D01*
X139645435Y-117581277D01*
X139648453Y-117577077D01*
X139747430Y-117376811D01*
X139812370Y-117163069D01*
X139841529Y-116941590D01*
X139843156Y-116875000D01*
X139840418Y-116841695D01*
X140867251Y-116841695D01*
X140867548Y-116846848D01*
X140867548Y-116846851D01*
X140873011Y-116941590D01*
X140880110Y-117064715D01*
X140881247Y-117069761D01*
X140881248Y-117069767D01*
X140901119Y-117157939D01*
X140929222Y-117282639D01*
X141013266Y-117489616D01*
X141129987Y-117680088D01*
X141276250Y-117848938D01*
X141448126Y-117991632D01*
X141521955Y-118034774D01*
X141570679Y-118086412D01*
X141583750Y-118156195D01*
X141557019Y-118221967D01*
X141516562Y-118255327D01*
X141508457Y-118259546D01*
X141499738Y-118265036D01*
X141329433Y-118392905D01*
X141321726Y-118399748D01*
X141174590Y-118553717D01*
X141168104Y-118561727D01*
X141048098Y-118737649D01*
X141043000Y-118746623D01*
X140953338Y-118939783D01*
X140949775Y-118949470D01*
X140894389Y-119149183D01*
X140895912Y-119157607D01*
X140908292Y-119161000D01*
X143548344Y-119161000D01*
X143561875Y-119157027D01*
X143563180Y-119147947D01*
X143541352Y-119061048D01*
X163545132Y-119061048D01*
X163551527Y-119072316D01*
X165467190Y-120987980D01*
X165481131Y-120995592D01*
X165482966Y-120995461D01*
X165489580Y-120991210D01*
X167407074Y-119073716D01*
X167414466Y-119060179D01*
X167407679Y-119050479D01*
X167304476Y-118962335D01*
X167298704Y-118957953D01*
X167016796Y-118768519D01*
X167010575Y-118764839D01*
X166708757Y-118609060D01*
X166702146Y-118606116D01*
X166384439Y-118486065D01*
X166377513Y-118483894D01*
X166048112Y-118401155D01*
X166041005Y-118399799D01*
X165704278Y-118355468D01*
X165697036Y-118354937D01*
X165357467Y-118349602D01*
X165350205Y-118349906D01*
X165012256Y-118383638D01*
X165005108Y-118384770D01*
X164673263Y-118457124D01*
X164666285Y-118459072D01*
X164344960Y-118569086D01*
X164338253Y-118571823D01*
X164031707Y-118718039D01*
X164025349Y-118721534D01*
X163737654Y-118902005D01*
X163731731Y-118906214D01*
X163553601Y-119048923D01*
X163545132Y-119061048D01*
X143541352Y-119061048D01*
X143521214Y-118980875D01*
X143517894Y-118971124D01*
X143432972Y-118775814D01*
X143428105Y-118766739D01*
X143312426Y-118587926D01*
X143306136Y-118579757D01*
X143162806Y-118422240D01*
X143155273Y-118415215D01*
X142988139Y-118283222D01*
X142979556Y-118277520D01*
X142942602Y-118257120D01*
X142892631Y-118206687D01*
X142877859Y-118137245D01*
X142902975Y-118070839D01*
X142930327Y-118044232D01*
X142953797Y-118027491D01*
X143109860Y-117916173D01*
X143268096Y-117758489D01*
X143327594Y-117675689D01*
X143395435Y-117581277D01*
X143398453Y-117577077D01*
X143497430Y-117376811D01*
X143562370Y-117163069D01*
X143591529Y-116941590D01*
X143593156Y-116875000D01*
X143574852Y-116652361D01*
X143520431Y-116435702D01*
X143431354Y-116230840D01*
X143310014Y-116043277D01*
X143306532Y-116039450D01*
X143162798Y-115881488D01*
X143131746Y-115817642D01*
X143140141Y-115747143D01*
X143185317Y-115692375D01*
X143211761Y-115678706D01*
X143318297Y-115638767D01*
X143326705Y-115635615D01*
X143443261Y-115548261D01*
X143480829Y-115498134D01*
X161066500Y-115498134D01*
X161073255Y-115560316D01*
X161124385Y-115696705D01*
X161211739Y-115813261D01*
X161328295Y-115900615D01*
X161464684Y-115951745D01*
X161526866Y-115958500D01*
X163323134Y-115958500D01*
X163385316Y-115951745D01*
X163521705Y-115900615D01*
X163638261Y-115813261D01*
X163725615Y-115696705D01*
X163776745Y-115560316D01*
X163783500Y-115498134D01*
X163783500Y-113701866D01*
X163776745Y-113639684D01*
X163725615Y-113503295D01*
X163638261Y-113386739D01*
X163521705Y-113299385D01*
X163402687Y-113254767D01*
X163345923Y-113212125D01*
X163321223Y-113145564D01*
X163336430Y-113076215D01*
X163357977Y-113047535D01*
X163459052Y-112946812D01*
X163465730Y-112938965D01*
X163590003Y-112766020D01*
X163595313Y-112757183D01*
X163689670Y-112566267D01*
X163693469Y-112556672D01*
X163755377Y-112352910D01*
X163757555Y-112342837D01*
X163758986Y-112331962D01*
X163756775Y-112317778D01*
X163743617Y-112314000D01*
X161108225Y-112314000D01*
X161094694Y-112317973D01*
X161093257Y-112327966D01*
X161123565Y-112462446D01*
X161126645Y-112472275D01*
X161206770Y-112669603D01*
X161211413Y-112678794D01*
X161322694Y-112860388D01*
X161328777Y-112868699D01*
X161468213Y-113029667D01*
X161475577Y-113036879D01*
X161480522Y-113040985D01*
X161520156Y-113099889D01*
X161521653Y-113170870D01*
X161484537Y-113231392D01*
X161444264Y-113255910D01*
X161336705Y-113296232D01*
X161336704Y-113296233D01*
X161328295Y-113299385D01*
X161211739Y-113386739D01*
X161124385Y-113503295D01*
X161073255Y-113639684D01*
X161066500Y-113701866D01*
X161066500Y-115498134D01*
X143480829Y-115498134D01*
X143530615Y-115431705D01*
X143581745Y-115295316D01*
X143588500Y-115233134D01*
X143588500Y-113436866D01*
X143581745Y-113374684D01*
X143530615Y-113238295D01*
X143443261Y-113121739D01*
X143326705Y-113034385D01*
X143190316Y-112983255D01*
X143128134Y-112976500D01*
X141331866Y-112976500D01*
X141269684Y-112983255D01*
X141133295Y-113034385D01*
X141016739Y-113121739D01*
X140929385Y-113238295D01*
X140878255Y-113374684D01*
X140871500Y-113436866D01*
X140871500Y-115233134D01*
X140878255Y-115295316D01*
X140929385Y-115431705D01*
X141016739Y-115548261D01*
X141133295Y-115635615D01*
X141141704Y-115638767D01*
X141141705Y-115638768D01*
X141250451Y-115679535D01*
X141307216Y-115722176D01*
X141331916Y-115788738D01*
X141316709Y-115858087D01*
X141297316Y-115884568D01*
X141170629Y-116017138D01*
X141044743Y-116201680D01*
X140950688Y-116404305D01*
X140890989Y-116619570D01*
X140867251Y-116841695D01*
X139840418Y-116841695D01*
X139824852Y-116652361D01*
X139770431Y-116435702D01*
X139681354Y-116230840D01*
X139560014Y-116043277D01*
X139556532Y-116039450D01*
X139412798Y-115881488D01*
X139381746Y-115817642D01*
X139390141Y-115747143D01*
X139435317Y-115692375D01*
X139461761Y-115678706D01*
X139568297Y-115638767D01*
X139576705Y-115635615D01*
X139693261Y-115548261D01*
X139780615Y-115431705D01*
X139831745Y-115295316D01*
X139838500Y-115233134D01*
X139838500Y-113436866D01*
X139831745Y-113374684D01*
X139780615Y-113238295D01*
X139693261Y-113121739D01*
X139576705Y-113034385D01*
X139440316Y-112983255D01*
X139378134Y-112976500D01*
X137581866Y-112976500D01*
X137519684Y-112983255D01*
X137383295Y-113034385D01*
X137266739Y-113121739D01*
X137179385Y-113238295D01*
X137128255Y-113374684D01*
X137121500Y-113436866D01*
X137121500Y-115233134D01*
X137128255Y-115295316D01*
X137179385Y-115431705D01*
X137266739Y-115548261D01*
X137383295Y-115635615D01*
X137391704Y-115638767D01*
X137391705Y-115638768D01*
X137500451Y-115679535D01*
X137557216Y-115722176D01*
X137581916Y-115788738D01*
X137566709Y-115858087D01*
X137547316Y-115884568D01*
X137420629Y-116017138D01*
X137294743Y-116201680D01*
X137200688Y-116404305D01*
X137140989Y-116619570D01*
X137117251Y-116841695D01*
X136090418Y-116841695D01*
X136074852Y-116652361D01*
X136020431Y-116435702D01*
X135931354Y-116230840D01*
X135810014Y-116043277D01*
X135806532Y-116039450D01*
X135662798Y-115881488D01*
X135631746Y-115817642D01*
X135640141Y-115747143D01*
X135685317Y-115692375D01*
X135711761Y-115678706D01*
X135818297Y-115638767D01*
X135826705Y-115635615D01*
X135943261Y-115548261D01*
X136030615Y-115431705D01*
X136081745Y-115295316D01*
X136088500Y-115233134D01*
X136088500Y-113436866D01*
X136081745Y-113374684D01*
X136030615Y-113238295D01*
X135943261Y-113121739D01*
X135826705Y-113034385D01*
X135690316Y-112983255D01*
X135628134Y-112976500D01*
X133831866Y-112976500D01*
X133769684Y-112983255D01*
X133633295Y-113034385D01*
X133516739Y-113121739D01*
X133429385Y-113238295D01*
X133378255Y-113374684D01*
X133371500Y-113436866D01*
X133371500Y-115233134D01*
X133378255Y-115295316D01*
X133429385Y-115431705D01*
X133516739Y-115548261D01*
X133633295Y-115635615D01*
X133641704Y-115638767D01*
X133641705Y-115638768D01*
X133750451Y-115679535D01*
X133807216Y-115722176D01*
X133831916Y-115788738D01*
X133816709Y-115858087D01*
X133797316Y-115884568D01*
X133670629Y-116017138D01*
X133544743Y-116201680D01*
X133450688Y-116404305D01*
X133390989Y-116619570D01*
X133367251Y-116841695D01*
X132340418Y-116841695D01*
X132324852Y-116652361D01*
X132270431Y-116435702D01*
X132181354Y-116230840D01*
X132060014Y-116043277D01*
X132056532Y-116039450D01*
X131912798Y-115881488D01*
X131881746Y-115817642D01*
X131890141Y-115747143D01*
X131935317Y-115692375D01*
X131961761Y-115678706D01*
X132068297Y-115638767D01*
X132076705Y-115635615D01*
X132193261Y-115548261D01*
X132280615Y-115431705D01*
X132331745Y-115295316D01*
X132338500Y-115233134D01*
X132338500Y-113436866D01*
X132331745Y-113374684D01*
X132280615Y-113238295D01*
X132193261Y-113121739D01*
X132076705Y-113034385D01*
X131940316Y-112983255D01*
X131878134Y-112976500D01*
X130081866Y-112976500D01*
X130019684Y-112983255D01*
X129883295Y-113034385D01*
X129766739Y-113121739D01*
X129679385Y-113238295D01*
X129628255Y-113374684D01*
X129621500Y-113436866D01*
X129621500Y-115233134D01*
X129628255Y-115295316D01*
X129679385Y-115431705D01*
X129766739Y-115548261D01*
X129883295Y-115635615D01*
X129891704Y-115638767D01*
X129891705Y-115638768D01*
X130000451Y-115679535D01*
X130057216Y-115722176D01*
X130081916Y-115788738D01*
X130066709Y-115858087D01*
X130047316Y-115884568D01*
X129920629Y-116017138D01*
X129794743Y-116201680D01*
X129700688Y-116404305D01*
X129640989Y-116619570D01*
X129617251Y-116841695D01*
X128590418Y-116841695D01*
X128574852Y-116652361D01*
X128520431Y-116435702D01*
X128431354Y-116230840D01*
X128310014Y-116043277D01*
X128306532Y-116039450D01*
X128162798Y-115881488D01*
X128131746Y-115817642D01*
X128140141Y-115747143D01*
X128185317Y-115692375D01*
X128211761Y-115678706D01*
X128318297Y-115638767D01*
X128326705Y-115635615D01*
X128443261Y-115548261D01*
X128530615Y-115431705D01*
X128581745Y-115295316D01*
X128588500Y-115233134D01*
X128588500Y-113436866D01*
X128581745Y-113374684D01*
X128530615Y-113238295D01*
X128443261Y-113121739D01*
X128326705Y-113034385D01*
X128190316Y-112983255D01*
X128128134Y-112976500D01*
X126331866Y-112976500D01*
X126269684Y-112983255D01*
X126133295Y-113034385D01*
X126016739Y-113121739D01*
X125929385Y-113238295D01*
X125878255Y-113374684D01*
X125871500Y-113436866D01*
X125871500Y-115233134D01*
X125878255Y-115295316D01*
X125929385Y-115431705D01*
X126016739Y-115548261D01*
X126133295Y-115635615D01*
X126141704Y-115638767D01*
X126141705Y-115638768D01*
X126250451Y-115679535D01*
X126307216Y-115722176D01*
X126331916Y-115788738D01*
X126316709Y-115858087D01*
X126297316Y-115884568D01*
X126170629Y-116017138D01*
X126044743Y-116201680D01*
X125950688Y-116404305D01*
X125890989Y-116619570D01*
X125867251Y-116841695D01*
X124840418Y-116841695D01*
X124824852Y-116652361D01*
X124770431Y-116435702D01*
X124681354Y-116230840D01*
X124560014Y-116043277D01*
X124556532Y-116039450D01*
X124412798Y-115881488D01*
X124381746Y-115817642D01*
X124390141Y-115747143D01*
X124435317Y-115692375D01*
X124461761Y-115678706D01*
X124568297Y-115638767D01*
X124576705Y-115635615D01*
X124693261Y-115548261D01*
X124780615Y-115431705D01*
X124831745Y-115295316D01*
X124838500Y-115233134D01*
X124838500Y-113436866D01*
X124831745Y-113374684D01*
X124780615Y-113238295D01*
X124693261Y-113121739D01*
X124576705Y-113034385D01*
X124440316Y-112983255D01*
X124378134Y-112976500D01*
X122581866Y-112976500D01*
X122519684Y-112983255D01*
X122383295Y-113034385D01*
X122266739Y-113121739D01*
X122179385Y-113238295D01*
X122128255Y-113374684D01*
X122121500Y-113436866D01*
X122121500Y-115233134D01*
X122128255Y-115295316D01*
X122179385Y-115431705D01*
X122266739Y-115548261D01*
X122383295Y-115635615D01*
X122391704Y-115638767D01*
X122391705Y-115638768D01*
X122500451Y-115679535D01*
X122557216Y-115722176D01*
X122581916Y-115788738D01*
X122566709Y-115858087D01*
X122547316Y-115884568D01*
X122420629Y-116017138D01*
X122294743Y-116201680D01*
X122200688Y-116404305D01*
X122140989Y-116619570D01*
X122117251Y-116841695D01*
X119488500Y-116841695D01*
X119488500Y-111794183D01*
X161089389Y-111794183D01*
X161090912Y-111802607D01*
X161103292Y-111806000D01*
X162152885Y-111806000D01*
X162168124Y-111801525D01*
X162169329Y-111800135D01*
X162171000Y-111792452D01*
X162171000Y-111787885D01*
X162679000Y-111787885D01*
X162683475Y-111803124D01*
X162684865Y-111804329D01*
X162692548Y-111806000D01*
X163743344Y-111806000D01*
X163756875Y-111802027D01*
X163758180Y-111792947D01*
X163716214Y-111625875D01*
X163712894Y-111616124D01*
X163627972Y-111420814D01*
X163623105Y-111411739D01*
X163507426Y-111232926D01*
X163501136Y-111224757D01*
X163357806Y-111067240D01*
X163350273Y-111060215D01*
X163183139Y-110928222D01*
X163174552Y-110922517D01*
X162988117Y-110819599D01*
X162978705Y-110815369D01*
X162777959Y-110744280D01*
X162767988Y-110741646D01*
X162696837Y-110728972D01*
X162683540Y-110730432D01*
X162679000Y-110744989D01*
X162679000Y-111787885D01*
X162171000Y-111787885D01*
X162171000Y-110743102D01*
X162167082Y-110729758D01*
X162152806Y-110727771D01*
X162114324Y-110733660D01*
X162104288Y-110736051D01*
X161901868Y-110802212D01*
X161892359Y-110806209D01*
X161703463Y-110904542D01*
X161694738Y-110910036D01*
X161524433Y-111037905D01*
X161516726Y-111044748D01*
X161369590Y-111198717D01*
X161363104Y-111206727D01*
X161243098Y-111382649D01*
X161238000Y-111391623D01*
X161148338Y-111584783D01*
X161144775Y-111594470D01*
X161089389Y-111794183D01*
X119488500Y-111794183D01*
X119488500Y-107586695D01*
X122117251Y-107586695D01*
X122117548Y-107591848D01*
X122117548Y-107591851D01*
X122125190Y-107724382D01*
X122130110Y-107809715D01*
X122131247Y-107814761D01*
X122131248Y-107814767D01*
X122153392Y-107913023D01*
X122179222Y-108027639D01*
X122240673Y-108178976D01*
X122261090Y-108229256D01*
X122263266Y-108234616D01*
X122270862Y-108247011D01*
X122365293Y-108401109D01*
X122379987Y-108425088D01*
X122526250Y-108593938D01*
X122530230Y-108597242D01*
X122534981Y-108601187D01*
X122574616Y-108660090D01*
X122576113Y-108731071D01*
X122538997Y-108791593D01*
X122498724Y-108816112D01*
X122383295Y-108859385D01*
X122266739Y-108946739D01*
X122179385Y-109063295D01*
X122128255Y-109199684D01*
X122121500Y-109261866D01*
X122121500Y-111058134D01*
X122128255Y-111120316D01*
X122179385Y-111256705D01*
X122266739Y-111373261D01*
X122383295Y-111460615D01*
X122519684Y-111511745D01*
X122581866Y-111518500D01*
X124378134Y-111518500D01*
X124440316Y-111511745D01*
X124576705Y-111460615D01*
X124693261Y-111373261D01*
X124780615Y-111256705D01*
X124831745Y-111120316D01*
X124838500Y-111058134D01*
X124838500Y-109261866D01*
X124831745Y-109199684D01*
X124780615Y-109063295D01*
X124693261Y-108946739D01*
X124576705Y-108859385D01*
X124564132Y-108854672D01*
X124458203Y-108814960D01*
X124401439Y-108772318D01*
X124376739Y-108705756D01*
X124391947Y-108636408D01*
X124413493Y-108607727D01*
X124514435Y-108507137D01*
X124518096Y-108503489D01*
X124577594Y-108420689D01*
X124583391Y-108412621D01*
X143154409Y-108412621D01*
X143174371Y-108602549D01*
X143233386Y-108784177D01*
X143236689Y-108789899D01*
X143236690Y-108789900D01*
X143243387Y-108801500D01*
X143328873Y-108949565D01*
X143333291Y-108954472D01*
X143333292Y-108954473D01*
X143431276Y-109063295D01*
X143456660Y-109091487D01*
X143611161Y-109203739D01*
X143617189Y-109206423D01*
X143617191Y-109206424D01*
X143779594Y-109278730D01*
X143785625Y-109281415D01*
X143879025Y-109301268D01*
X143965969Y-109319749D01*
X143965974Y-109319749D01*
X143972426Y-109321121D01*
X144163400Y-109321121D01*
X144169852Y-109319749D01*
X144169857Y-109319749D01*
X144256800Y-109301268D01*
X144350201Y-109281415D01*
X144356232Y-109278730D01*
X144518635Y-109206424D01*
X144518637Y-109206423D01*
X144524665Y-109203739D01*
X144679166Y-109091487D01*
X144704550Y-109063295D01*
X144802534Y-108954473D01*
X144802535Y-108954472D01*
X144806953Y-108949565D01*
X144892439Y-108801500D01*
X144899136Y-108789900D01*
X144899137Y-108789899D01*
X144902440Y-108784177D01*
X144961455Y-108602549D01*
X144981417Y-108412621D01*
X144980086Y-108399954D01*
X144962145Y-108229256D01*
X144962145Y-108229254D01*
X144961455Y-108222693D01*
X144902440Y-108041065D01*
X144894689Y-108027639D01*
X144850791Y-107951606D01*
X144806953Y-107875677D01*
X144763501Y-107827418D01*
X144683588Y-107738666D01*
X144683587Y-107738665D01*
X144679166Y-107733755D01*
X144524665Y-107621503D01*
X144518637Y-107618819D01*
X144518635Y-107618818D01*
X144356232Y-107546512D01*
X144356231Y-107546512D01*
X144350201Y-107543827D01*
X144256800Y-107523974D01*
X144169857Y-107505493D01*
X144169852Y-107505493D01*
X144163400Y-107504121D01*
X143972426Y-107504121D01*
X143965974Y-107505493D01*
X143965969Y-107505493D01*
X143879026Y-107523974D01*
X143785625Y-107543827D01*
X143779595Y-107546512D01*
X143779594Y-107546512D01*
X143617191Y-107618818D01*
X143617189Y-107618819D01*
X143611161Y-107621503D01*
X143456660Y-107733755D01*
X143452239Y-107738665D01*
X143452238Y-107738666D01*
X143372326Y-107827418D01*
X143328873Y-107875677D01*
X143285035Y-107951606D01*
X143241138Y-108027639D01*
X143233386Y-108041065D01*
X143174371Y-108222693D01*
X143173681Y-108229254D01*
X143173681Y-108229256D01*
X143155740Y-108399954D01*
X143154409Y-108412621D01*
X124583391Y-108412621D01*
X124645435Y-108326277D01*
X124648453Y-108322077D01*
X124675611Y-108267128D01*
X124745136Y-108126453D01*
X124745137Y-108126451D01*
X124747430Y-108121811D01*
X124801260Y-107944637D01*
X124810865Y-107913023D01*
X124810865Y-107913021D01*
X124812370Y-107908069D01*
X124841529Y-107686590D01*
X124842320Y-107654205D01*
X124843074Y-107623365D01*
X124843074Y-107623361D01*
X124843156Y-107620000D01*
X124824852Y-107397361D01*
X124815468Y-107360000D01*
X139566496Y-107360000D01*
X139567186Y-107366565D01*
X139585673Y-107542455D01*
X139586458Y-107549928D01*
X139645473Y-107731556D01*
X139740960Y-107896944D01*
X139745378Y-107901851D01*
X139745379Y-107901852D01*
X139864325Y-108033955D01*
X139868747Y-108038866D01*
X139966127Y-108109617D01*
X139982911Y-108121811D01*
X140023248Y-108151118D01*
X140029276Y-108153802D01*
X140029278Y-108153803D01*
X140191681Y-108226109D01*
X140197712Y-108228794D01*
X140274501Y-108245116D01*
X140378056Y-108267128D01*
X140378061Y-108267128D01*
X140384513Y-108268500D01*
X140575487Y-108268500D01*
X140581939Y-108267128D01*
X140581944Y-108267128D01*
X140685499Y-108245116D01*
X140762288Y-108228794D01*
X140768319Y-108226109D01*
X140930722Y-108153803D01*
X140930724Y-108153802D01*
X140936752Y-108151118D01*
X140977090Y-108121811D01*
X140993873Y-108109617D01*
X141091253Y-108038866D01*
X141095675Y-108033955D01*
X141214621Y-107901852D01*
X141214622Y-107901851D01*
X141219040Y-107896944D01*
X141314527Y-107731556D01*
X141373542Y-107549928D01*
X141374328Y-107542455D01*
X141392814Y-107366565D01*
X141393504Y-107360000D01*
X141373542Y-107170072D01*
X141314527Y-106988444D01*
X141309993Y-106980590D01*
X141246547Y-106870699D01*
X151771500Y-106870699D01*
X151771693Y-106873148D01*
X151771693Y-106873155D01*
X151773952Y-106901852D01*
X151786391Y-107059903D01*
X151787545Y-107064710D01*
X151787546Y-107064716D01*
X151815392Y-107180702D01*
X151845495Y-107306091D01*
X151847388Y-107310662D01*
X151847389Y-107310664D01*
X151927522Y-107504121D01*
X151942384Y-107540002D01*
X152074672Y-107755876D01*
X152239102Y-107948398D01*
X152431624Y-108112828D01*
X152647498Y-108245116D01*
X152652068Y-108247009D01*
X152652072Y-108247011D01*
X152833298Y-108322077D01*
X152881409Y-108342005D01*
X152966032Y-108362321D01*
X153122784Y-108399954D01*
X153122790Y-108399955D01*
X153127597Y-108401109D01*
X153380000Y-108420974D01*
X153632403Y-108401109D01*
X153637210Y-108399955D01*
X153637216Y-108399954D01*
X153793968Y-108362321D01*
X153878591Y-108342005D01*
X153926702Y-108322077D01*
X154107928Y-108247011D01*
X154107932Y-108247009D01*
X154112502Y-108245116D01*
X154328376Y-108112828D01*
X154520898Y-107948398D01*
X154523093Y-107945828D01*
X154585024Y-107912010D01*
X154625414Y-107909868D01*
X154678467Y-107915631D01*
X154678471Y-107915631D01*
X154681866Y-107916000D01*
X156278134Y-107916000D01*
X156340316Y-107909245D01*
X156476705Y-107858115D01*
X156593261Y-107770761D01*
X156617579Y-107738313D01*
X156674436Y-107695799D01*
X156745254Y-107690773D01*
X156788680Y-107709298D01*
X156866601Y-107761659D01*
X156866610Y-107761664D01*
X156871262Y-107764790D01*
X157076967Y-107855088D01*
X157082418Y-107856397D01*
X157082422Y-107856398D01*
X157289954Y-107906222D01*
X157295411Y-107907532D01*
X157373079Y-107912010D01*
X157514083Y-107920140D01*
X157514086Y-107920140D01*
X157519690Y-107920463D01*
X157742715Y-107893475D01*
X157957435Y-107827418D01*
X157962415Y-107824848D01*
X157962419Y-107824846D01*
X158152081Y-107726954D01*
X158152082Y-107726954D01*
X158157064Y-107724382D01*
X158335292Y-107587623D01*
X158339063Y-107583478D01*
X158339067Y-107583475D01*
X158386480Y-107531369D01*
X158447121Y-107494446D01*
X158518096Y-107496169D01*
X158567358Y-107525683D01*
X158598855Y-107556206D01*
X158670241Y-107625384D01*
X158684799Y-107639492D01*
X158871262Y-107764790D01*
X159076967Y-107855088D01*
X159082418Y-107856397D01*
X159082422Y-107856398D01*
X159289954Y-107906222D01*
X159295411Y-107907532D01*
X159373079Y-107912010D01*
X159514083Y-107920140D01*
X159514086Y-107920140D01*
X159519690Y-107920463D01*
X159742715Y-107893475D01*
X159957435Y-107827418D01*
X159962415Y-107824848D01*
X159962419Y-107824846D01*
X160131278Y-107737691D01*
X160200985Y-107724222D01*
X160266909Y-107750577D01*
X160284879Y-107767827D01*
X160435889Y-107944637D01*
X160435894Y-107944642D01*
X160439102Y-107948398D01*
X160631624Y-108112828D01*
X160847498Y-108245116D01*
X160852068Y-108247009D01*
X160852072Y-108247011D01*
X161033298Y-108322077D01*
X161081409Y-108342005D01*
X161166032Y-108362321D01*
X161322784Y-108399954D01*
X161322790Y-108399955D01*
X161327597Y-108401109D01*
X161580000Y-108420974D01*
X161832403Y-108401109D01*
X161837210Y-108399955D01*
X161837216Y-108399954D01*
X161993968Y-108362321D01*
X162078591Y-108342005D01*
X162126702Y-108322077D01*
X162307928Y-108247011D01*
X162307932Y-108247009D01*
X162312502Y-108245116D01*
X162528376Y-108112828D01*
X162720898Y-107948398D01*
X162885328Y-107755876D01*
X163017616Y-107540002D01*
X163032479Y-107504121D01*
X163112611Y-107310664D01*
X163112612Y-107310662D01*
X163114505Y-107306091D01*
X163144608Y-107180702D01*
X163172454Y-107064716D01*
X163172455Y-107064710D01*
X163173609Y-107059903D01*
X163186048Y-106901852D01*
X163188307Y-106873155D01*
X163188307Y-106873148D01*
X163188500Y-106870699D01*
X163188500Y-105444301D01*
X163173609Y-105255097D01*
X163151489Y-105162957D01*
X163124292Y-105049675D01*
X163114505Y-105008909D01*
X163097041Y-104966746D01*
X163019511Y-104779572D01*
X163019509Y-104779568D01*
X163017616Y-104774998D01*
X162885328Y-104559124D01*
X162720898Y-104366602D01*
X162528376Y-104202172D01*
X162312502Y-104069884D01*
X162307932Y-104067991D01*
X162307928Y-104067989D01*
X162083164Y-103974889D01*
X162083162Y-103974888D01*
X162078591Y-103972995D01*
X161993968Y-103952679D01*
X161837216Y-103915046D01*
X161837210Y-103915045D01*
X161832403Y-103913891D01*
X161580000Y-103894026D01*
X161327597Y-103913891D01*
X161322790Y-103915045D01*
X161322784Y-103915046D01*
X161166032Y-103952679D01*
X161081409Y-103972995D01*
X161076838Y-103974888D01*
X161076836Y-103974889D01*
X160852072Y-104067989D01*
X160852068Y-104067991D01*
X160847498Y-104069884D01*
X160631624Y-104202172D01*
X160439102Y-104366602D01*
X160435894Y-104370358D01*
X160284617Y-104547480D01*
X160225166Y-104586289D01*
X160154172Y-104586795D01*
X160118534Y-104570233D01*
X160088738Y-104550210D01*
X159883033Y-104459912D01*
X159877582Y-104458603D01*
X159877578Y-104458602D01*
X159670046Y-104408778D01*
X159670045Y-104408778D01*
X159664589Y-104407468D01*
X159580525Y-104402621D01*
X159445917Y-104394860D01*
X159445914Y-104394860D01*
X159440310Y-104394537D01*
X159217285Y-104421525D01*
X159002565Y-104487582D01*
X158997585Y-104490152D01*
X158997581Y-104490154D01*
X158855790Y-104563338D01*
X158802936Y-104590618D01*
X158624708Y-104727377D01*
X158620937Y-104731522D01*
X158620933Y-104731525D01*
X158573520Y-104783631D01*
X158512879Y-104820554D01*
X158441904Y-104818831D01*
X158392642Y-104789317D01*
X158275201Y-104675508D01*
X158088738Y-104550210D01*
X157883033Y-104459912D01*
X157877582Y-104458603D01*
X157877578Y-104458602D01*
X157670046Y-104408778D01*
X157670045Y-104408778D01*
X157664589Y-104407468D01*
X157580525Y-104402621D01*
X157445917Y-104394860D01*
X157445914Y-104394860D01*
X157440310Y-104394537D01*
X157217285Y-104421525D01*
X157002565Y-104487582D01*
X156997585Y-104490152D01*
X156997581Y-104490154D01*
X156855790Y-104563338D01*
X156802936Y-104590618D01*
X156798488Y-104594031D01*
X156798482Y-104594035D01*
X156792986Y-104598252D01*
X156726766Y-104623852D01*
X156657217Y-104609587D01*
X156615458Y-104573856D01*
X156598641Y-104551418D01*
X156593261Y-104544239D01*
X156476705Y-104456885D01*
X156340316Y-104405755D01*
X156278134Y-104399000D01*
X154681866Y-104399000D01*
X154678471Y-104399369D01*
X154678467Y-104399369D01*
X154625414Y-104405132D01*
X154555531Y-104392603D01*
X154523240Y-104369345D01*
X154520898Y-104366602D01*
X154328376Y-104202172D01*
X154112502Y-104069884D01*
X154107932Y-104067991D01*
X154107928Y-104067989D01*
X153883164Y-103974889D01*
X153883162Y-103974888D01*
X153878591Y-103972995D01*
X153793968Y-103952679D01*
X153637216Y-103915046D01*
X153637210Y-103915045D01*
X153632403Y-103913891D01*
X153380000Y-103894026D01*
X153127597Y-103913891D01*
X153122790Y-103915045D01*
X153122784Y-103915046D01*
X152966032Y-103952679D01*
X152881409Y-103972995D01*
X152876838Y-103974888D01*
X152876836Y-103974889D01*
X152652072Y-104067989D01*
X152652068Y-104067991D01*
X152647498Y-104069884D01*
X152431624Y-104202172D01*
X152239102Y-104366602D01*
X152074672Y-104559124D01*
X151942384Y-104774998D01*
X151940491Y-104779568D01*
X151940489Y-104779572D01*
X151862959Y-104966746D01*
X151845495Y-105008909D01*
X151835708Y-105049675D01*
X151808512Y-105162957D01*
X151786391Y-105255097D01*
X151771500Y-105444301D01*
X151771500Y-106870699D01*
X141246547Y-106870699D01*
X141222341Y-106828774D01*
X141219040Y-106823056D01*
X141184286Y-106784457D01*
X141095675Y-106686045D01*
X141095674Y-106686044D01*
X141091253Y-106681134D01*
X140980456Y-106600635D01*
X140942094Y-106572763D01*
X140942093Y-106572762D01*
X140936752Y-106568882D01*
X140930724Y-106566198D01*
X140930722Y-106566197D01*
X140768319Y-106493891D01*
X140768318Y-106493891D01*
X140762288Y-106491206D01*
X140660697Y-106469612D01*
X140581944Y-106452872D01*
X140581939Y-106452872D01*
X140575487Y-106451500D01*
X140384513Y-106451500D01*
X140378061Y-106452872D01*
X140378056Y-106452872D01*
X140299303Y-106469612D01*
X140197712Y-106491206D01*
X140191682Y-106493891D01*
X140191681Y-106493891D01*
X140029278Y-106566197D01*
X140029276Y-106566198D01*
X140023248Y-106568882D01*
X140017907Y-106572762D01*
X140017906Y-106572763D01*
X139979544Y-106600635D01*
X139868747Y-106681134D01*
X139864326Y-106686044D01*
X139864325Y-106686045D01*
X139775715Y-106784457D01*
X139740960Y-106823056D01*
X139737659Y-106828774D01*
X139650008Y-106980590D01*
X139645473Y-106988444D01*
X139586458Y-107170072D01*
X139566496Y-107360000D01*
X124815468Y-107360000D01*
X124770431Y-107180702D01*
X124681354Y-106975840D01*
X124582514Y-106823056D01*
X124562822Y-106792617D01*
X124562820Y-106792614D01*
X124560014Y-106788277D01*
X124409670Y-106623051D01*
X124405619Y-106619852D01*
X124405615Y-106619848D01*
X124238414Y-106487800D01*
X124238410Y-106487798D01*
X124234359Y-106484598D01*
X124193053Y-106461796D01*
X124143084Y-106411364D01*
X124132158Y-106360000D01*
X132066496Y-106360000D01*
X132067186Y-106366565D01*
X132082353Y-106510867D01*
X132086458Y-106549928D01*
X132145473Y-106731556D01*
X132148776Y-106737278D01*
X132148777Y-106737279D01*
X132176015Y-106784457D01*
X132240960Y-106896944D01*
X132245378Y-106901851D01*
X132245379Y-106901852D01*
X132285742Y-106946680D01*
X132368747Y-107038866D01*
X132467843Y-107110864D01*
X132514291Y-107144610D01*
X132523248Y-107151118D01*
X132529276Y-107153802D01*
X132529278Y-107153803D01*
X132691681Y-107226109D01*
X132697712Y-107228794D01*
X132791112Y-107248647D01*
X132878056Y-107267128D01*
X132878061Y-107267128D01*
X132884513Y-107268500D01*
X133075487Y-107268500D01*
X133081939Y-107267128D01*
X133081944Y-107267128D01*
X133168888Y-107248647D01*
X133262288Y-107228794D01*
X133268319Y-107226109D01*
X133430722Y-107153803D01*
X133430724Y-107153802D01*
X133436752Y-107151118D01*
X133445710Y-107144610D01*
X133492157Y-107110864D01*
X133591253Y-107038866D01*
X133674258Y-106946680D01*
X133714621Y-106901852D01*
X133714622Y-106901851D01*
X133719040Y-106896944D01*
X133783985Y-106784457D01*
X133811223Y-106737279D01*
X133811224Y-106737278D01*
X133814527Y-106731556D01*
X133873542Y-106549928D01*
X133877648Y-106510867D01*
X133892814Y-106366565D01*
X133893504Y-106360000D01*
X135066496Y-106360000D01*
X135067186Y-106366565D01*
X135082353Y-106510867D01*
X135086458Y-106549928D01*
X135145473Y-106731556D01*
X135148776Y-106737278D01*
X135148777Y-106737279D01*
X135176015Y-106784457D01*
X135240960Y-106896944D01*
X135245378Y-106901851D01*
X135245379Y-106901852D01*
X135285742Y-106946680D01*
X135368747Y-107038866D01*
X135467843Y-107110864D01*
X135514291Y-107144610D01*
X135523248Y-107151118D01*
X135529276Y-107153802D01*
X135529278Y-107153803D01*
X135691681Y-107226109D01*
X135697712Y-107228794D01*
X135791112Y-107248647D01*
X135878056Y-107267128D01*
X135878061Y-107267128D01*
X135884513Y-107268500D01*
X136075487Y-107268500D01*
X136081939Y-107267128D01*
X136081944Y-107267128D01*
X136168888Y-107248647D01*
X136262288Y-107228794D01*
X136268319Y-107226109D01*
X136430722Y-107153803D01*
X136430724Y-107153802D01*
X136436752Y-107151118D01*
X136445710Y-107144610D01*
X136492157Y-107110864D01*
X136591253Y-107038866D01*
X136674258Y-106946680D01*
X136714621Y-106901852D01*
X136714622Y-106901851D01*
X136719040Y-106896944D01*
X136783985Y-106784457D01*
X136811223Y-106737279D01*
X136811224Y-106737278D01*
X136814527Y-106731556D01*
X136873542Y-106549928D01*
X136877648Y-106510867D01*
X136892814Y-106366565D01*
X136893504Y-106360000D01*
X136886264Y-106291114D01*
X136874232Y-106176635D01*
X136874232Y-106176633D01*
X136873542Y-106170072D01*
X136814527Y-105988444D01*
X136802226Y-105967137D01*
X136727040Y-105836912D01*
X146427532Y-105836912D01*
X146428222Y-105843477D01*
X146440836Y-105963489D01*
X146447494Y-106026840D01*
X146506509Y-106208468D01*
X146509812Y-106214190D01*
X146509813Y-106214191D01*
X146529858Y-106248909D01*
X146601996Y-106373856D01*
X146606414Y-106378763D01*
X146606415Y-106378764D01*
X146706423Y-106489834D01*
X146729783Y-106515778D01*
X146785427Y-106556206D01*
X146842305Y-106597530D01*
X146884284Y-106628030D01*
X146890312Y-106630714D01*
X146890314Y-106630715D01*
X147003558Y-106681134D01*
X147058748Y-106705706D01*
X147150794Y-106725271D01*
X147239092Y-106744040D01*
X147239097Y-106744040D01*
X147245549Y-106745412D01*
X147436523Y-106745412D01*
X147442975Y-106744040D01*
X147442980Y-106744040D01*
X147531278Y-106725271D01*
X147623324Y-106705706D01*
X147678514Y-106681134D01*
X147791758Y-106630715D01*
X147791760Y-106630714D01*
X147797788Y-106628030D01*
X147839768Y-106597530D01*
X147896645Y-106556206D01*
X147952289Y-106515778D01*
X147975649Y-106489834D01*
X148075657Y-106378764D01*
X148075658Y-106378763D01*
X148080076Y-106373856D01*
X148152214Y-106248909D01*
X148172259Y-106214191D01*
X148172260Y-106214190D01*
X148175563Y-106208468D01*
X148234578Y-106026840D01*
X148241237Y-105963489D01*
X148253850Y-105843477D01*
X148254540Y-105836912D01*
X148239081Y-105689829D01*
X148235268Y-105653547D01*
X148235268Y-105653545D01*
X148234578Y-105646984D01*
X148175563Y-105465356D01*
X148168356Y-105452872D01*
X148083377Y-105305686D01*
X148080076Y-105299968D01*
X148035341Y-105250284D01*
X147956711Y-105162957D01*
X147956710Y-105162956D01*
X147952289Y-105158046D01*
X147797788Y-105045794D01*
X147791760Y-105043110D01*
X147791758Y-105043109D01*
X147629355Y-104970803D01*
X147629354Y-104970803D01*
X147623324Y-104968118D01*
X147529923Y-104948265D01*
X147442980Y-104929784D01*
X147442975Y-104929784D01*
X147436523Y-104928412D01*
X147245549Y-104928412D01*
X147239097Y-104929784D01*
X147239092Y-104929784D01*
X147152149Y-104948265D01*
X147058748Y-104968118D01*
X147052718Y-104970803D01*
X147052717Y-104970803D01*
X146890314Y-105043109D01*
X146890312Y-105043110D01*
X146884284Y-105045794D01*
X146729783Y-105158046D01*
X146725362Y-105162956D01*
X146725361Y-105162957D01*
X146646732Y-105250284D01*
X146601996Y-105299968D01*
X146598695Y-105305686D01*
X146513717Y-105452872D01*
X146506509Y-105465356D01*
X146447494Y-105646984D01*
X146446804Y-105653545D01*
X146446804Y-105653547D01*
X146442991Y-105689829D01*
X146427532Y-105836912D01*
X136727040Y-105836912D01*
X136722341Y-105828774D01*
X136719040Y-105823056D01*
X136682143Y-105782077D01*
X136595675Y-105686045D01*
X136595674Y-105686044D01*
X136591253Y-105681134D01*
X136436752Y-105568882D01*
X136430724Y-105566198D01*
X136430722Y-105566197D01*
X136268319Y-105493891D01*
X136268318Y-105493891D01*
X136262288Y-105491206D01*
X136168888Y-105471353D01*
X136081944Y-105452872D01*
X136081939Y-105452872D01*
X136075487Y-105451500D01*
X135884513Y-105451500D01*
X135878061Y-105452872D01*
X135878056Y-105452872D01*
X135791113Y-105471353D01*
X135697712Y-105491206D01*
X135691682Y-105493891D01*
X135691681Y-105493891D01*
X135529278Y-105566197D01*
X135529276Y-105566198D01*
X135523248Y-105568882D01*
X135368747Y-105681134D01*
X135364326Y-105686044D01*
X135364325Y-105686045D01*
X135277858Y-105782077D01*
X135240960Y-105823056D01*
X135237659Y-105828774D01*
X135157775Y-105967137D01*
X135145473Y-105988444D01*
X135086458Y-106170072D01*
X135085768Y-106176633D01*
X135085768Y-106176635D01*
X135073736Y-106291114D01*
X135066496Y-106360000D01*
X133893504Y-106360000D01*
X133886264Y-106291114D01*
X133874232Y-106176635D01*
X133874232Y-106176633D01*
X133873542Y-106170072D01*
X133814527Y-105988444D01*
X133802226Y-105967137D01*
X133722341Y-105828774D01*
X133719040Y-105823056D01*
X133682143Y-105782077D01*
X133595675Y-105686045D01*
X133595674Y-105686044D01*
X133591253Y-105681134D01*
X133436752Y-105568882D01*
X133430724Y-105566198D01*
X133430722Y-105566197D01*
X133268319Y-105493891D01*
X133268318Y-105493891D01*
X133262288Y-105491206D01*
X133168888Y-105471353D01*
X133081944Y-105452872D01*
X133081939Y-105452872D01*
X133075487Y-105451500D01*
X132884513Y-105451500D01*
X132878061Y-105452872D01*
X132878056Y-105452872D01*
X132791113Y-105471353D01*
X132697712Y-105491206D01*
X132691682Y-105493891D01*
X132691681Y-105493891D01*
X132529278Y-105566197D01*
X132529276Y-105566198D01*
X132523248Y-105568882D01*
X132368747Y-105681134D01*
X132364326Y-105686044D01*
X132364325Y-105686045D01*
X132277858Y-105782077D01*
X132240960Y-105823056D01*
X132237659Y-105828774D01*
X132157775Y-105967137D01*
X132145473Y-105988444D01*
X132086458Y-106170072D01*
X132085768Y-106176633D01*
X132085768Y-106176635D01*
X132073736Y-106291114D01*
X132066496Y-106360000D01*
X124132158Y-106360000D01*
X124128312Y-106341921D01*
X124153428Y-106275516D01*
X124180780Y-106248909D01*
X124237476Y-106208468D01*
X124359860Y-106121173D01*
X124518096Y-105963489D01*
X124577594Y-105880689D01*
X124645435Y-105786277D01*
X124648453Y-105782077D01*
X124718323Y-105640706D01*
X124745136Y-105586453D01*
X124745137Y-105586451D01*
X124747430Y-105581811D01*
X124812370Y-105368069D01*
X124841529Y-105146590D01*
X124843156Y-105080000D01*
X124824852Y-104857361D01*
X124770431Y-104640702D01*
X124681354Y-104435840D01*
X124560014Y-104248277D01*
X124409670Y-104083051D01*
X124405619Y-104079852D01*
X124405615Y-104079848D01*
X124238414Y-103947800D01*
X124238410Y-103947798D01*
X124234359Y-103944598D01*
X124225900Y-103939928D01*
X124192569Y-103921529D01*
X124142598Y-103871097D01*
X124127826Y-103801654D01*
X124147363Y-103750000D01*
X132086496Y-103750000D01*
X132087186Y-103756565D01*
X132104338Y-103919754D01*
X132106458Y-103939928D01*
X132165473Y-104121556D01*
X132260960Y-104286944D01*
X132265378Y-104291851D01*
X132265379Y-104291852D01*
X132370660Y-104408778D01*
X132388747Y-104428866D01*
X132543248Y-104541118D01*
X132549276Y-104543802D01*
X132549278Y-104543803D01*
X132711681Y-104616109D01*
X132717712Y-104618794D01*
X132798443Y-104635954D01*
X132898056Y-104657128D01*
X132898061Y-104657128D01*
X132904513Y-104658500D01*
X133095487Y-104658500D01*
X133101939Y-104657128D01*
X133101944Y-104657128D01*
X133201557Y-104635954D01*
X133282288Y-104618794D01*
X133288319Y-104616109D01*
X133450722Y-104543803D01*
X133450724Y-104543802D01*
X133456752Y-104541118D01*
X133611253Y-104428866D01*
X133629340Y-104408778D01*
X133734621Y-104291852D01*
X133734622Y-104291851D01*
X133739040Y-104286944D01*
X133834527Y-104121556D01*
X133893542Y-103939928D01*
X133895663Y-103919754D01*
X133912814Y-103756565D01*
X133913504Y-103750000D01*
X133893542Y-103560072D01*
X133834527Y-103378444D01*
X133739040Y-103213056D01*
X133685689Y-103153803D01*
X133615675Y-103076045D01*
X133615674Y-103076044D01*
X133611253Y-103071134D01*
X133456752Y-102958882D01*
X133450724Y-102956198D01*
X133450722Y-102956197D01*
X133288319Y-102883891D01*
X133288318Y-102883891D01*
X133282288Y-102881206D01*
X133188887Y-102861353D01*
X133101944Y-102842872D01*
X133101939Y-102842872D01*
X133095487Y-102841500D01*
X132904513Y-102841500D01*
X132898061Y-102842872D01*
X132898056Y-102842872D01*
X132811113Y-102861353D01*
X132717712Y-102881206D01*
X132711682Y-102883891D01*
X132711681Y-102883891D01*
X132549278Y-102956197D01*
X132549276Y-102956198D01*
X132543248Y-102958882D01*
X132388747Y-103071134D01*
X132384326Y-103076044D01*
X132384325Y-103076045D01*
X132314312Y-103153803D01*
X132260960Y-103213056D01*
X132165473Y-103378444D01*
X132106458Y-103560072D01*
X132086496Y-103750000D01*
X124147363Y-103750000D01*
X124152942Y-103735248D01*
X124180294Y-103708641D01*
X124355328Y-103583792D01*
X124363200Y-103577139D01*
X124514052Y-103426812D01*
X124520730Y-103418965D01*
X124645003Y-103246020D01*
X124650313Y-103237183D01*
X124744670Y-103046267D01*
X124748469Y-103036672D01*
X124810377Y-102832910D01*
X124812555Y-102822837D01*
X124813986Y-102811962D01*
X124811775Y-102797778D01*
X124798617Y-102794000D01*
X122163225Y-102794000D01*
X122149694Y-102797973D01*
X122148257Y-102807966D01*
X122178565Y-102942446D01*
X122181645Y-102952275D01*
X122261770Y-103149603D01*
X122266413Y-103158794D01*
X122377694Y-103340388D01*
X122383777Y-103348699D01*
X122523213Y-103509667D01*
X122530580Y-103516883D01*
X122694434Y-103652916D01*
X122702881Y-103658831D01*
X122771969Y-103699203D01*
X122820693Y-103750842D01*
X122833764Y-103820625D01*
X122807033Y-103886396D01*
X122766584Y-103919752D01*
X122753607Y-103926507D01*
X122749474Y-103929610D01*
X122749471Y-103929612D01*
X122689168Y-103974889D01*
X122574965Y-104060635D01*
X122420629Y-104222138D01*
X122294743Y-104406680D01*
X122279003Y-104440590D01*
X122205819Y-104598252D01*
X122200688Y-104609305D01*
X122140989Y-104824570D01*
X122117251Y-105046695D01*
X122117548Y-105051848D01*
X122117548Y-105051851D01*
X122123011Y-105146590D01*
X122130110Y-105269715D01*
X122131247Y-105274761D01*
X122131248Y-105274767D01*
X122151119Y-105362939D01*
X122179222Y-105487639D01*
X122217461Y-105581811D01*
X122257792Y-105681134D01*
X122263266Y-105694616D01*
X122379987Y-105885088D01*
X122526250Y-106053938D01*
X122698126Y-106196632D01*
X122718381Y-106208468D01*
X122771445Y-106239476D01*
X122820169Y-106291114D01*
X122833240Y-106360897D01*
X122806509Y-106426669D01*
X122766055Y-106460027D01*
X122753607Y-106466507D01*
X122749474Y-106469610D01*
X122749471Y-106469612D01*
X122620832Y-106566197D01*
X122574965Y-106600635D01*
X122420629Y-106762138D01*
X122417715Y-106766410D01*
X122417714Y-106766411D01*
X122375173Y-106828774D01*
X122294743Y-106946680D01*
X122200688Y-107149305D01*
X122140989Y-107364570D01*
X122117251Y-107586695D01*
X119488500Y-107586695D01*
X119488500Y-102360000D01*
X143066496Y-102360000D01*
X143086458Y-102549928D01*
X143145473Y-102731556D01*
X143240960Y-102896944D01*
X143245378Y-102901851D01*
X143245379Y-102901852D01*
X143364325Y-103033955D01*
X143368747Y-103038866D01*
X143523248Y-103151118D01*
X143529276Y-103153802D01*
X143529278Y-103153803D01*
X143691681Y-103226109D01*
X143697712Y-103228794D01*
X143778754Y-103246020D01*
X143878056Y-103267128D01*
X143878061Y-103267128D01*
X143884513Y-103268500D01*
X144075487Y-103268500D01*
X144081939Y-103267128D01*
X144081944Y-103267128D01*
X144181246Y-103246020D01*
X144262288Y-103228794D01*
X144268319Y-103226109D01*
X144430722Y-103153803D01*
X144430724Y-103153802D01*
X144436752Y-103151118D01*
X144591253Y-103038866D01*
X144595675Y-103033955D01*
X144714621Y-102901852D01*
X144714622Y-102901851D01*
X144719040Y-102896944D01*
X144814527Y-102731556D01*
X144873542Y-102549928D01*
X144893504Y-102360000D01*
X144884484Y-102274183D01*
X144874232Y-102176635D01*
X144874232Y-102176633D01*
X144873542Y-102170072D01*
X144814527Y-101988444D01*
X144776743Y-101923000D01*
X144760005Y-101854005D01*
X144776743Y-101797000D01*
X144811223Y-101737279D01*
X144811224Y-101737278D01*
X144814527Y-101731556D01*
X144873542Y-101549928D01*
X144876189Y-101524748D01*
X144892814Y-101366565D01*
X144893504Y-101360000D01*
X144879314Y-101224989D01*
X144874232Y-101176635D01*
X144874232Y-101176633D01*
X144873542Y-101170072D01*
X144814527Y-100988444D01*
X144719040Y-100823056D01*
X144591253Y-100681134D01*
X144436752Y-100568882D01*
X144430724Y-100566198D01*
X144430722Y-100566197D01*
X144268319Y-100493891D01*
X144268318Y-100493891D01*
X144262288Y-100491206D01*
X144168888Y-100471353D01*
X144081944Y-100452872D01*
X144081939Y-100452872D01*
X144075487Y-100451500D01*
X143884513Y-100451500D01*
X143878061Y-100452872D01*
X143878056Y-100452872D01*
X143791112Y-100471353D01*
X143697712Y-100491206D01*
X143691682Y-100493891D01*
X143691681Y-100493891D01*
X143529278Y-100566197D01*
X143529276Y-100566198D01*
X143523248Y-100568882D01*
X143368747Y-100681134D01*
X143240960Y-100823056D01*
X143145473Y-100988444D01*
X143086458Y-101170072D01*
X143085768Y-101176633D01*
X143085768Y-101176635D01*
X143080686Y-101224989D01*
X143066496Y-101360000D01*
X143067186Y-101366565D01*
X143083812Y-101524748D01*
X143086458Y-101549928D01*
X143145473Y-101731556D01*
X143148776Y-101737278D01*
X143148777Y-101737279D01*
X143183257Y-101797000D01*
X143199995Y-101865995D01*
X143183257Y-101923000D01*
X143145473Y-101988444D01*
X143086458Y-102170072D01*
X143085768Y-102176633D01*
X143085768Y-102176635D01*
X143075516Y-102274183D01*
X143066496Y-102360000D01*
X119488500Y-102360000D01*
X119488500Y-102274183D01*
X122144389Y-102274183D01*
X122145912Y-102282607D01*
X122158292Y-102286000D01*
X123207885Y-102286000D01*
X123223124Y-102281525D01*
X123224329Y-102280135D01*
X123226000Y-102272452D01*
X123226000Y-102267885D01*
X123734000Y-102267885D01*
X123738475Y-102283124D01*
X123739865Y-102284329D01*
X123747548Y-102286000D01*
X124798344Y-102286000D01*
X124811875Y-102282027D01*
X124813180Y-102272947D01*
X124771214Y-102105875D01*
X124767894Y-102096124D01*
X124682972Y-101900814D01*
X124678105Y-101891739D01*
X124562426Y-101712926D01*
X124556136Y-101704757D01*
X124412806Y-101547240D01*
X124405273Y-101540215D01*
X124238139Y-101408222D01*
X124229552Y-101402517D01*
X124043117Y-101299599D01*
X124033705Y-101295369D01*
X123832959Y-101224280D01*
X123822988Y-101221646D01*
X123751837Y-101208972D01*
X123738540Y-101210432D01*
X123734000Y-101224989D01*
X123734000Y-102267885D01*
X123226000Y-102267885D01*
X123226000Y-101223102D01*
X123222082Y-101209758D01*
X123207806Y-101207771D01*
X123169324Y-101213660D01*
X123159288Y-101216051D01*
X122956868Y-101282212D01*
X122947359Y-101286209D01*
X122758463Y-101384542D01*
X122749738Y-101390036D01*
X122579433Y-101517905D01*
X122571726Y-101524748D01*
X122424590Y-101678717D01*
X122418104Y-101686727D01*
X122298098Y-101862649D01*
X122293000Y-101871623D01*
X122203338Y-102064783D01*
X122199775Y-102074470D01*
X122144389Y-102274183D01*
X119488500Y-102274183D01*
X119488500Y-95586695D01*
X122117251Y-95586695D01*
X122117548Y-95591848D01*
X122117548Y-95591851D01*
X122123011Y-95686590D01*
X122130110Y-95809715D01*
X122131247Y-95814761D01*
X122131248Y-95814767D01*
X122151119Y-95902939D01*
X122179222Y-96027639D01*
X122263266Y-96234616D01*
X122379987Y-96425088D01*
X122526250Y-96593938D01*
X122530230Y-96597242D01*
X122534981Y-96601187D01*
X122574616Y-96660090D01*
X122576113Y-96731071D01*
X122538997Y-96791593D01*
X122498724Y-96816112D01*
X122383295Y-96859385D01*
X122266739Y-96946739D01*
X122179385Y-97063295D01*
X122128255Y-97199684D01*
X122121500Y-97261866D01*
X122121500Y-99058134D01*
X122128255Y-99120316D01*
X122179385Y-99256705D01*
X122266739Y-99373261D01*
X122383295Y-99460615D01*
X122519684Y-99511745D01*
X122581866Y-99518500D01*
X124378134Y-99518500D01*
X124440316Y-99511745D01*
X124576705Y-99460615D01*
X124693261Y-99373261D01*
X124780615Y-99256705D01*
X124831745Y-99120316D01*
X124838500Y-99058134D01*
X124838500Y-99052925D01*
X163966645Y-99052925D01*
X163984570Y-99249888D01*
X164040410Y-99439619D01*
X164043263Y-99445077D01*
X164043265Y-99445081D01*
X164078117Y-99511745D01*
X164132040Y-99614890D01*
X164255968Y-99769025D01*
X164260692Y-99772989D01*
X164267933Y-99779065D01*
X164407474Y-99896154D01*
X164412872Y-99899121D01*
X164412877Y-99899125D01*
X164556180Y-99977905D01*
X164580787Y-99991433D01*
X164586654Y-99993294D01*
X164586656Y-99993295D01*
X164763436Y-100049373D01*
X164769306Y-100051235D01*
X164923227Y-100068500D01*
X165029769Y-100068500D01*
X165032825Y-100068200D01*
X165032832Y-100068200D01*
X165091340Y-100062463D01*
X165176833Y-100054080D01*
X165182734Y-100052298D01*
X165182736Y-100052298D01*
X165256053Y-100030162D01*
X165366169Y-99996916D01*
X165540796Y-99904066D01*
X165627062Y-99833709D01*
X165689287Y-99782960D01*
X165689290Y-99782957D01*
X165694062Y-99779065D01*
X165706344Y-99764219D01*
X165816201Y-99631425D01*
X165816203Y-99631421D01*
X165820130Y-99626675D01*
X165914198Y-99452701D01*
X165972682Y-99263768D01*
X165993355Y-99067075D01*
X165975430Y-98870112D01*
X165919590Y-98680381D01*
X165909919Y-98661881D01*
X165830813Y-98510568D01*
X165827960Y-98505110D01*
X165704032Y-98350975D01*
X165697727Y-98345684D01*
X165681334Y-98331929D01*
X165552526Y-98223846D01*
X165547128Y-98220879D01*
X165547123Y-98220875D01*
X165384608Y-98131533D01*
X165384609Y-98131533D01*
X165379213Y-98128567D01*
X165373346Y-98126706D01*
X165373344Y-98126705D01*
X165196564Y-98070627D01*
X165196563Y-98070627D01*
X165190694Y-98068765D01*
X165036773Y-98051500D01*
X164930231Y-98051500D01*
X164927175Y-98051800D01*
X164927168Y-98051800D01*
X164868660Y-98057537D01*
X164783167Y-98065920D01*
X164777266Y-98067702D01*
X164777264Y-98067702D01*
X164703947Y-98089838D01*
X164593831Y-98123084D01*
X164419204Y-98215934D01*
X164332938Y-98286291D01*
X164270713Y-98337040D01*
X164270710Y-98337043D01*
X164265938Y-98340935D01*
X164262011Y-98345682D01*
X164262009Y-98345684D01*
X164143799Y-98488575D01*
X164143797Y-98488579D01*
X164139870Y-98493325D01*
X164045802Y-98667299D01*
X163987318Y-98856232D01*
X163966645Y-99052925D01*
X124838500Y-99052925D01*
X124838500Y-97261866D01*
X124831745Y-97199684D01*
X124780615Y-97063295D01*
X124693261Y-96946739D01*
X124576705Y-96859385D01*
X124564132Y-96854672D01*
X124458203Y-96814960D01*
X124401439Y-96772318D01*
X124376739Y-96705756D01*
X124391947Y-96636408D01*
X124413493Y-96607727D01*
X124514435Y-96507137D01*
X124518096Y-96503489D01*
X124577594Y-96420689D01*
X124645435Y-96326277D01*
X124648453Y-96322077D01*
X124747430Y-96121811D01*
X124812370Y-95908069D01*
X124841529Y-95686590D01*
X124842309Y-95654681D01*
X124843074Y-95623365D01*
X124843074Y-95623361D01*
X124843156Y-95620000D01*
X124824852Y-95397361D01*
X124770431Y-95180702D01*
X124681354Y-94975840D01*
X124606414Y-94860000D01*
X126066496Y-94860000D01*
X126086458Y-95049928D01*
X126145473Y-95231556D01*
X126240960Y-95396944D01*
X126368747Y-95538866D01*
X126523248Y-95651118D01*
X126529276Y-95653802D01*
X126529278Y-95653803D01*
X126610372Y-95689908D01*
X126697712Y-95728794D01*
X126791112Y-95748647D01*
X126878056Y-95767128D01*
X126878061Y-95767128D01*
X126884513Y-95768500D01*
X127075487Y-95768500D01*
X127081939Y-95767128D01*
X127081944Y-95767128D01*
X127168887Y-95748647D01*
X127262288Y-95728794D01*
X127349628Y-95689908D01*
X127430722Y-95653803D01*
X127430724Y-95653802D01*
X127436752Y-95651118D01*
X127591253Y-95538866D01*
X127719040Y-95396944D01*
X127814527Y-95231556D01*
X127873542Y-95049928D01*
X127893504Y-94860000D01*
X141566496Y-94860000D01*
X141586458Y-95049928D01*
X141645473Y-95231556D01*
X141740960Y-95396944D01*
X141868747Y-95538866D01*
X142023248Y-95651118D01*
X142029276Y-95653802D01*
X142029278Y-95653803D01*
X142110372Y-95689908D01*
X142197712Y-95728794D01*
X142291112Y-95748647D01*
X142378056Y-95767128D01*
X142378061Y-95767128D01*
X142384513Y-95768500D01*
X142575487Y-95768500D01*
X142581939Y-95767128D01*
X142581944Y-95767128D01*
X142668887Y-95748647D01*
X142762288Y-95728794D01*
X142849628Y-95689908D01*
X142930722Y-95653803D01*
X142930724Y-95653802D01*
X142936752Y-95651118D01*
X143091253Y-95538866D01*
X143219040Y-95396944D01*
X143314527Y-95231556D01*
X143373542Y-95049928D01*
X143393504Y-94860000D01*
X143383668Y-94766411D01*
X143374232Y-94676635D01*
X143374232Y-94676633D01*
X143373542Y-94670072D01*
X143367971Y-94652925D01*
X163966645Y-94652925D01*
X163984570Y-94849888D01*
X164040410Y-95039619D01*
X164043263Y-95045077D01*
X164043265Y-95045081D01*
X164090720Y-95135853D01*
X164132040Y-95214890D01*
X164255968Y-95369025D01*
X164260692Y-95372989D01*
X164267933Y-95379065D01*
X164407474Y-95496154D01*
X164412872Y-95499121D01*
X164412877Y-95499125D01*
X164556180Y-95577905D01*
X164580787Y-95591433D01*
X164586654Y-95593294D01*
X164586656Y-95593295D01*
X164763436Y-95649373D01*
X164769306Y-95651235D01*
X164923227Y-95668500D01*
X165029769Y-95668500D01*
X165032825Y-95668200D01*
X165032832Y-95668200D01*
X165091340Y-95662463D01*
X165176833Y-95654080D01*
X165182734Y-95652298D01*
X165182736Y-95652298D01*
X165300820Y-95616646D01*
X165366169Y-95596916D01*
X165540796Y-95504066D01*
X165665301Y-95402522D01*
X165689287Y-95382960D01*
X165689290Y-95382957D01*
X165694062Y-95379065D01*
X165702368Y-95369025D01*
X165816201Y-95231425D01*
X165816203Y-95231421D01*
X165820130Y-95226675D01*
X165914198Y-95052701D01*
X165972682Y-94863768D01*
X165983364Y-94762138D01*
X165992711Y-94673204D01*
X165992711Y-94673202D01*
X165993355Y-94667075D01*
X165985847Y-94584576D01*
X165975989Y-94476251D01*
X165975988Y-94476248D01*
X165975430Y-94470112D01*
X165961565Y-94423000D01*
X165921330Y-94286294D01*
X165919590Y-94280381D01*
X165912662Y-94267128D01*
X165853416Y-94153803D01*
X165827960Y-94105110D01*
X165704032Y-93950975D01*
X165697727Y-93945684D01*
X165681334Y-93931929D01*
X165552526Y-93823846D01*
X165547128Y-93820879D01*
X165547123Y-93820875D01*
X165384608Y-93731533D01*
X165384609Y-93731533D01*
X165379213Y-93728567D01*
X165373346Y-93726706D01*
X165373344Y-93726705D01*
X165196564Y-93670627D01*
X165196563Y-93670627D01*
X165190694Y-93668765D01*
X165036773Y-93651500D01*
X164930231Y-93651500D01*
X164927175Y-93651800D01*
X164927168Y-93651800D01*
X164868660Y-93657537D01*
X164783167Y-93665920D01*
X164777266Y-93667702D01*
X164777264Y-93667702D01*
X164747677Y-93676635D01*
X164593831Y-93723084D01*
X164419204Y-93815934D01*
X164339807Y-93880689D01*
X164270713Y-93937040D01*
X164270710Y-93937043D01*
X164265938Y-93940935D01*
X164262011Y-93945682D01*
X164262009Y-93945684D01*
X164143799Y-94088575D01*
X164143797Y-94088579D01*
X164139870Y-94093325D01*
X164045802Y-94267299D01*
X163987318Y-94456232D01*
X163966645Y-94652925D01*
X143367971Y-94652925D01*
X143314527Y-94488444D01*
X143307488Y-94476251D01*
X143270025Y-94411364D01*
X143219040Y-94323056D01*
X143185940Y-94286294D01*
X143095675Y-94186045D01*
X143095674Y-94186044D01*
X143091253Y-94181134D01*
X142936752Y-94068882D01*
X142930724Y-94066198D01*
X142930722Y-94066197D01*
X142768319Y-93993891D01*
X142768318Y-93993891D01*
X142762288Y-93991206D01*
X142649053Y-93967137D01*
X142581944Y-93952872D01*
X142581939Y-93952872D01*
X142575487Y-93951500D01*
X142384513Y-93951500D01*
X142378061Y-93952872D01*
X142378056Y-93952872D01*
X142310947Y-93967137D01*
X142197712Y-93991206D01*
X142191682Y-93993891D01*
X142191681Y-93993891D01*
X142029278Y-94066197D01*
X142029276Y-94066198D01*
X142023248Y-94068882D01*
X141868747Y-94181134D01*
X141864326Y-94186044D01*
X141864325Y-94186045D01*
X141774061Y-94286294D01*
X141740960Y-94323056D01*
X141689975Y-94411364D01*
X141652513Y-94476251D01*
X141645473Y-94488444D01*
X141586458Y-94670072D01*
X141585768Y-94676633D01*
X141585768Y-94676635D01*
X141576332Y-94766411D01*
X141566496Y-94860000D01*
X127893504Y-94860000D01*
X127883668Y-94766411D01*
X127874232Y-94676635D01*
X127874232Y-94676633D01*
X127873542Y-94670072D01*
X127814527Y-94488444D01*
X127807488Y-94476251D01*
X127776743Y-94423000D01*
X127760005Y-94354005D01*
X127776743Y-94297000D01*
X127811223Y-94237279D01*
X127811224Y-94237278D01*
X127814527Y-94231556D01*
X127873542Y-94049928D01*
X127884998Y-93940935D01*
X127892814Y-93866565D01*
X127893504Y-93860000D01*
X127888873Y-93815934D01*
X127874232Y-93676635D01*
X127874232Y-93676633D01*
X127873542Y-93670072D01*
X127814527Y-93488444D01*
X127740370Y-93360000D01*
X134066496Y-93360000D01*
X134086458Y-93549928D01*
X134145473Y-93731556D01*
X134240960Y-93896944D01*
X134245378Y-93901851D01*
X134245379Y-93901852D01*
X134286040Y-93947011D01*
X134368747Y-94038866D01*
X134523248Y-94151118D01*
X134529276Y-94153802D01*
X134529278Y-94153803D01*
X134689799Y-94225271D01*
X134697712Y-94228794D01*
X134791113Y-94248647D01*
X134878056Y-94267128D01*
X134878061Y-94267128D01*
X134884513Y-94268500D01*
X135075487Y-94268500D01*
X135081939Y-94267128D01*
X135081944Y-94267128D01*
X135168887Y-94248647D01*
X135262288Y-94228794D01*
X135270201Y-94225271D01*
X135430722Y-94153803D01*
X135430724Y-94153802D01*
X135436752Y-94151118D01*
X135591253Y-94038866D01*
X135673960Y-93947011D01*
X135714621Y-93901852D01*
X135714622Y-93901851D01*
X135719040Y-93896944D01*
X135814527Y-93731556D01*
X135873542Y-93549928D01*
X135893504Y-93360000D01*
X135889105Y-93318148D01*
X135874232Y-93176635D01*
X135874232Y-93176633D01*
X135873542Y-93170072D01*
X135814527Y-92988444D01*
X135793990Y-92952872D01*
X135750346Y-92877279D01*
X135719040Y-92823056D01*
X135591253Y-92681134D01*
X135436752Y-92568882D01*
X135430724Y-92566198D01*
X135430722Y-92566197D01*
X135282040Y-92500000D01*
X148086496Y-92500000D01*
X148087186Y-92506565D01*
X148105126Y-92677251D01*
X148106458Y-92689928D01*
X148165473Y-92871556D01*
X148260960Y-93036944D01*
X148265378Y-93041851D01*
X148265379Y-93041852D01*
X148362673Y-93149908D01*
X148388747Y-93178866D01*
X148543248Y-93291118D01*
X148549276Y-93293802D01*
X148549278Y-93293803D01*
X148614982Y-93323056D01*
X148717712Y-93368794D01*
X148811113Y-93388647D01*
X148898056Y-93407128D01*
X148898061Y-93407128D01*
X148904513Y-93408500D01*
X149095487Y-93408500D01*
X149101939Y-93407128D01*
X149101944Y-93407128D01*
X149188888Y-93388647D01*
X149282288Y-93368794D01*
X149385018Y-93323056D01*
X149450722Y-93293803D01*
X149450724Y-93293802D01*
X149456752Y-93291118D01*
X149611253Y-93178866D01*
X149637327Y-93149908D01*
X149734621Y-93041852D01*
X149734622Y-93041851D01*
X149739040Y-93036944D01*
X149834527Y-92871556D01*
X149893542Y-92689928D01*
X149894875Y-92677251D01*
X149912814Y-92506565D01*
X149913504Y-92500000D01*
X149893542Y-92310072D01*
X149834527Y-92128444D01*
X149739040Y-91963056D01*
X149725304Y-91947800D01*
X149615675Y-91826045D01*
X149615674Y-91826044D01*
X149611253Y-91821134D01*
X149456752Y-91708882D01*
X149450724Y-91706198D01*
X149450722Y-91706197D01*
X149288319Y-91633891D01*
X149288318Y-91633891D01*
X149282288Y-91631206D01*
X149188887Y-91611353D01*
X149101944Y-91592872D01*
X149101939Y-91592872D01*
X149095487Y-91591500D01*
X148904513Y-91591500D01*
X148898061Y-91592872D01*
X148898056Y-91592872D01*
X148811113Y-91611353D01*
X148717712Y-91631206D01*
X148711682Y-91633891D01*
X148711681Y-91633891D01*
X148549278Y-91706197D01*
X148549276Y-91706198D01*
X148543248Y-91708882D01*
X148388747Y-91821134D01*
X148384326Y-91826044D01*
X148384325Y-91826045D01*
X148274697Y-91947800D01*
X148260960Y-91963056D01*
X148165473Y-92128444D01*
X148106458Y-92310072D01*
X148086496Y-92500000D01*
X135282040Y-92500000D01*
X135268319Y-92493891D01*
X135268318Y-92493891D01*
X135262288Y-92491206D01*
X135168888Y-92471353D01*
X135081944Y-92452872D01*
X135081939Y-92452872D01*
X135075487Y-92451500D01*
X134884513Y-92451500D01*
X134878061Y-92452872D01*
X134878056Y-92452872D01*
X134791112Y-92471353D01*
X134697712Y-92491206D01*
X134691682Y-92493891D01*
X134691681Y-92493891D01*
X134529278Y-92566197D01*
X134529276Y-92566198D01*
X134523248Y-92568882D01*
X134368747Y-92681134D01*
X134240960Y-92823056D01*
X134209654Y-92877279D01*
X134166011Y-92952872D01*
X134145473Y-92988444D01*
X134086458Y-93170072D01*
X134085768Y-93176633D01*
X134085768Y-93176635D01*
X134070895Y-93318148D01*
X134066496Y-93360000D01*
X127740370Y-93360000D01*
X127719040Y-93323056D01*
X127686789Y-93287237D01*
X127595675Y-93186045D01*
X127595674Y-93186044D01*
X127591253Y-93181134D01*
X127436752Y-93068882D01*
X127430724Y-93066198D01*
X127430722Y-93066197D01*
X127268319Y-92993891D01*
X127268318Y-92993891D01*
X127262288Y-92991206D01*
X127168887Y-92971353D01*
X127081944Y-92952872D01*
X127081939Y-92952872D01*
X127075487Y-92951500D01*
X126884513Y-92951500D01*
X126878061Y-92952872D01*
X126878056Y-92952872D01*
X126791113Y-92971353D01*
X126697712Y-92991206D01*
X126691682Y-92993891D01*
X126691681Y-92993891D01*
X126529278Y-93066197D01*
X126529276Y-93066198D01*
X126523248Y-93068882D01*
X126368747Y-93181134D01*
X126364326Y-93186044D01*
X126364325Y-93186045D01*
X126273212Y-93287237D01*
X126240960Y-93323056D01*
X126145473Y-93488444D01*
X126086458Y-93670072D01*
X126085768Y-93676633D01*
X126085768Y-93676635D01*
X126071127Y-93815934D01*
X126066496Y-93860000D01*
X126067186Y-93866565D01*
X126075003Y-93940935D01*
X126086458Y-94049928D01*
X126145473Y-94231556D01*
X126148776Y-94237278D01*
X126148777Y-94237279D01*
X126183257Y-94297000D01*
X126199995Y-94365995D01*
X126183257Y-94423000D01*
X126152513Y-94476251D01*
X126145473Y-94488444D01*
X126086458Y-94670072D01*
X126085768Y-94676633D01*
X126085768Y-94676635D01*
X126076332Y-94766411D01*
X126066496Y-94860000D01*
X124606414Y-94860000D01*
X124599872Y-94849888D01*
X124562822Y-94792617D01*
X124562820Y-94792614D01*
X124560014Y-94788277D01*
X124409670Y-94623051D01*
X124405619Y-94619852D01*
X124405615Y-94619848D01*
X124238414Y-94487800D01*
X124238410Y-94487798D01*
X124234359Y-94484598D01*
X124193053Y-94461796D01*
X124143084Y-94411364D01*
X124128312Y-94341921D01*
X124153428Y-94275516D01*
X124180780Y-94248909D01*
X124224603Y-94217650D01*
X124359860Y-94121173D01*
X124387806Y-94093325D01*
X124447383Y-94033955D01*
X124518096Y-93963489D01*
X124537102Y-93937040D01*
X124645435Y-93786277D01*
X124648453Y-93782077D01*
X124670594Y-93737279D01*
X124745136Y-93586453D01*
X124745137Y-93586451D01*
X124747430Y-93581811D01*
X124812370Y-93368069D01*
X124841529Y-93146590D01*
X124843156Y-93080000D01*
X124824852Y-92857361D01*
X124770431Y-92640702D01*
X124681354Y-92435840D01*
X124560014Y-92248277D01*
X124409670Y-92083051D01*
X124405619Y-92079852D01*
X124405615Y-92079848D01*
X124238414Y-91947800D01*
X124238410Y-91947798D01*
X124234359Y-91944598D01*
X124192569Y-91921529D01*
X124142598Y-91871097D01*
X124127826Y-91801654D01*
X124152942Y-91735248D01*
X124180294Y-91708641D01*
X124355328Y-91583792D01*
X124363200Y-91577139D01*
X124514052Y-91426812D01*
X124520730Y-91418965D01*
X124645003Y-91246020D01*
X124650313Y-91237183D01*
X124744670Y-91046267D01*
X124748469Y-91036672D01*
X124810377Y-90832910D01*
X124812555Y-90822837D01*
X124813986Y-90811962D01*
X124811775Y-90797778D01*
X124798617Y-90794000D01*
X122163225Y-90794000D01*
X122149694Y-90797973D01*
X122148257Y-90807966D01*
X122178565Y-90942446D01*
X122181645Y-90952275D01*
X122261770Y-91149603D01*
X122266413Y-91158794D01*
X122377694Y-91340388D01*
X122383777Y-91348699D01*
X122523213Y-91509667D01*
X122530580Y-91516883D01*
X122694434Y-91652916D01*
X122702881Y-91658831D01*
X122771969Y-91699203D01*
X122820693Y-91750842D01*
X122833764Y-91820625D01*
X122807033Y-91886396D01*
X122766584Y-91919752D01*
X122753607Y-91926507D01*
X122749474Y-91929610D01*
X122749471Y-91929612D01*
X122579100Y-92057530D01*
X122574965Y-92060635D01*
X122420629Y-92222138D01*
X122417715Y-92226410D01*
X122417714Y-92226411D01*
X122332556Y-92351249D01*
X122294743Y-92406680D01*
X122248378Y-92506565D01*
X122219452Y-92568882D01*
X122200688Y-92609305D01*
X122140989Y-92824570D01*
X122117251Y-93046695D01*
X122117548Y-93051848D01*
X122117548Y-93051851D01*
X122125096Y-93182749D01*
X122130110Y-93269715D01*
X122131247Y-93274761D01*
X122131248Y-93274767D01*
X122148977Y-93353435D01*
X122179222Y-93487639D01*
X122217461Y-93581811D01*
X122252491Y-93668079D01*
X122263266Y-93694616D01*
X122282930Y-93726705D01*
X122337610Y-93815934D01*
X122379987Y-93885088D01*
X122526250Y-94053938D01*
X122698126Y-94196632D01*
X122747136Y-94225271D01*
X122771445Y-94239476D01*
X122820169Y-94291114D01*
X122833240Y-94360897D01*
X122806509Y-94426669D01*
X122766055Y-94460027D01*
X122753607Y-94466507D01*
X122749474Y-94469610D01*
X122749471Y-94469612D01*
X122579100Y-94597530D01*
X122574965Y-94600635D01*
X122420629Y-94762138D01*
X122294743Y-94946680D01*
X122200688Y-95149305D01*
X122140989Y-95364570D01*
X122117251Y-95586695D01*
X119488500Y-95586695D01*
X119488500Y-90274183D01*
X122144389Y-90274183D01*
X122145912Y-90282607D01*
X122158292Y-90286000D01*
X123207885Y-90286000D01*
X123223124Y-90281525D01*
X123224329Y-90280135D01*
X123226000Y-90272452D01*
X123226000Y-90267885D01*
X123734000Y-90267885D01*
X123738475Y-90283124D01*
X123739865Y-90284329D01*
X123747548Y-90286000D01*
X124798344Y-90286000D01*
X124811875Y-90282027D01*
X124813180Y-90272947D01*
X124771214Y-90105875D01*
X124767894Y-90096124D01*
X124682972Y-89900814D01*
X124678105Y-89891739D01*
X124657572Y-89860000D01*
X137066496Y-89860000D01*
X137086458Y-90049928D01*
X137145473Y-90231556D01*
X137148776Y-90237278D01*
X137148777Y-90237279D01*
X137174947Y-90282607D01*
X137240960Y-90396944D01*
X137368747Y-90538866D01*
X137523248Y-90651118D01*
X137529276Y-90653802D01*
X137529278Y-90653803D01*
X137691681Y-90726109D01*
X137697712Y-90728794D01*
X137791112Y-90748647D01*
X137878056Y-90767128D01*
X137878061Y-90767128D01*
X137884513Y-90768500D01*
X138075487Y-90768500D01*
X138081939Y-90767128D01*
X138081944Y-90767128D01*
X138168887Y-90748647D01*
X138262288Y-90728794D01*
X138268319Y-90726109D01*
X138430722Y-90653803D01*
X138430724Y-90653802D01*
X138436752Y-90651118D01*
X138591253Y-90538866D01*
X138719040Y-90396944D01*
X138785053Y-90282607D01*
X138811223Y-90237279D01*
X138811224Y-90237278D01*
X138814527Y-90231556D01*
X138873542Y-90049928D01*
X138893504Y-89860000D01*
X138878046Y-89712926D01*
X138874232Y-89676635D01*
X138874232Y-89676633D01*
X138873542Y-89670072D01*
X138814527Y-89488444D01*
X138740370Y-89360000D01*
X142066496Y-89360000D01*
X142067186Y-89366565D01*
X142083812Y-89524748D01*
X142086458Y-89549928D01*
X142145473Y-89731556D01*
X142240960Y-89896944D01*
X142368747Y-90038866D01*
X142523248Y-90151118D01*
X142529276Y-90153802D01*
X142529278Y-90153803D01*
X142689799Y-90225271D01*
X142697712Y-90228794D01*
X142791113Y-90248647D01*
X142878056Y-90267128D01*
X142878061Y-90267128D01*
X142884513Y-90268500D01*
X143075487Y-90268500D01*
X143081939Y-90267128D01*
X143081944Y-90267128D01*
X143168887Y-90248647D01*
X143262288Y-90228794D01*
X143270201Y-90225271D01*
X143430722Y-90153803D01*
X143430724Y-90153802D01*
X143436752Y-90151118D01*
X143591253Y-90038866D01*
X143719040Y-89896944D01*
X143814527Y-89731556D01*
X143873542Y-89549928D01*
X143876189Y-89524748D01*
X143890347Y-89390036D01*
X143891262Y-89381329D01*
X143918275Y-89315673D01*
X143976497Y-89275043D01*
X144016572Y-89268500D01*
X144075487Y-89268500D01*
X144081939Y-89267128D01*
X144081944Y-89267128D01*
X144168888Y-89248647D01*
X144262288Y-89228794D01*
X144270835Y-89224989D01*
X144306809Y-89208972D01*
X144396528Y-89169027D01*
X144466893Y-89159593D01*
X144531190Y-89189699D01*
X144569003Y-89249788D01*
X144573085Y-89297303D01*
X144569778Y-89328774D01*
X144566496Y-89360000D01*
X144567186Y-89366565D01*
X144583812Y-89524748D01*
X144586458Y-89549928D01*
X144645473Y-89731556D01*
X144740960Y-89896944D01*
X144868747Y-90038866D01*
X145023248Y-90151118D01*
X145029276Y-90153802D01*
X145029278Y-90153803D01*
X145189799Y-90225271D01*
X145197712Y-90228794D01*
X145291113Y-90248647D01*
X145378056Y-90267128D01*
X145378061Y-90267128D01*
X145384513Y-90268500D01*
X145575487Y-90268500D01*
X145581939Y-90267128D01*
X145581944Y-90267128D01*
X145668887Y-90248647D01*
X145762288Y-90228794D01*
X145770201Y-90225271D01*
X145930722Y-90153803D01*
X145930724Y-90153802D01*
X145936752Y-90151118D01*
X146091253Y-90038866D01*
X146219040Y-89896944D01*
X146314527Y-89731556D01*
X146373542Y-89549928D01*
X146376189Y-89524748D01*
X146392814Y-89366565D01*
X146393504Y-89360000D01*
X146383743Y-89267128D01*
X146374232Y-89176635D01*
X146374232Y-89176633D01*
X146373542Y-89170072D01*
X146314527Y-88988444D01*
X146293990Y-88952872D01*
X146222341Y-88828774D01*
X146219040Y-88823056D01*
X146169387Y-88767910D01*
X146095675Y-88686045D01*
X146095674Y-88686044D01*
X146091253Y-88681134D01*
X145992157Y-88609136D01*
X145942094Y-88572763D01*
X145942093Y-88572762D01*
X145936752Y-88568882D01*
X145930724Y-88566198D01*
X145930722Y-88566197D01*
X145768319Y-88493891D01*
X145768318Y-88493891D01*
X145762288Y-88491206D01*
X145663520Y-88470212D01*
X145581944Y-88452872D01*
X145581939Y-88452872D01*
X145575487Y-88451500D01*
X145384513Y-88451500D01*
X145378061Y-88452872D01*
X145378056Y-88452872D01*
X145296480Y-88470212D01*
X145197712Y-88491206D01*
X145063472Y-88550973D01*
X144993107Y-88560407D01*
X144928810Y-88530301D01*
X144890997Y-88470212D01*
X144886915Y-88422697D01*
X144892814Y-88366567D01*
X144892814Y-88366565D01*
X144893504Y-88360000D01*
X144891262Y-88338670D01*
X144874232Y-88176635D01*
X144874232Y-88176633D01*
X144873542Y-88170072D01*
X144814527Y-87988444D01*
X144719040Y-87823056D01*
X144680018Y-87779717D01*
X144595675Y-87686045D01*
X144595674Y-87686044D01*
X144591253Y-87681134D01*
X144436752Y-87568882D01*
X144430724Y-87566198D01*
X144430722Y-87566197D01*
X144268319Y-87493891D01*
X144268318Y-87493891D01*
X144262288Y-87491206D01*
X144168887Y-87471353D01*
X144081944Y-87452872D01*
X144081939Y-87452872D01*
X144075487Y-87451500D01*
X143884513Y-87451500D01*
X143878061Y-87452872D01*
X143878056Y-87452872D01*
X143791113Y-87471353D01*
X143697712Y-87491206D01*
X143691682Y-87493891D01*
X143691681Y-87493891D01*
X143529278Y-87566197D01*
X143529276Y-87566198D01*
X143523248Y-87568882D01*
X143368747Y-87681134D01*
X143364326Y-87686044D01*
X143364325Y-87686045D01*
X143279983Y-87779717D01*
X143240960Y-87823056D01*
X143145473Y-87988444D01*
X143086458Y-88170072D01*
X143085768Y-88176633D01*
X143085768Y-88176635D01*
X143068738Y-88338670D01*
X143041725Y-88404327D01*
X142983503Y-88444957D01*
X142943428Y-88451500D01*
X142884513Y-88451500D01*
X142878061Y-88452872D01*
X142878056Y-88452872D01*
X142796480Y-88470212D01*
X142697712Y-88491206D01*
X142691682Y-88493891D01*
X142691681Y-88493891D01*
X142529278Y-88566197D01*
X142529276Y-88566198D01*
X142523248Y-88568882D01*
X142517907Y-88572762D01*
X142517906Y-88572763D01*
X142467843Y-88609136D01*
X142368747Y-88681134D01*
X142364326Y-88686044D01*
X142364325Y-88686045D01*
X142290614Y-88767910D01*
X142240960Y-88823056D01*
X142237659Y-88828774D01*
X142166011Y-88952872D01*
X142145473Y-88988444D01*
X142086458Y-89170072D01*
X142085768Y-89176633D01*
X142085768Y-89176635D01*
X142076257Y-89267128D01*
X142066496Y-89360000D01*
X138740370Y-89360000D01*
X138719040Y-89323056D01*
X138712393Y-89315673D01*
X138595675Y-89186045D01*
X138595674Y-89186044D01*
X138591253Y-89181134D01*
X138436752Y-89068882D01*
X138430724Y-89066198D01*
X138430722Y-89066197D01*
X138268319Y-88993891D01*
X138268318Y-88993891D01*
X138262288Y-88991206D01*
X138168887Y-88971353D01*
X138081944Y-88952872D01*
X138081939Y-88952872D01*
X138075487Y-88951500D01*
X137884513Y-88951500D01*
X137878061Y-88952872D01*
X137878056Y-88952872D01*
X137791112Y-88971353D01*
X137697712Y-88991206D01*
X137691682Y-88993891D01*
X137691681Y-88993891D01*
X137529278Y-89066197D01*
X137529276Y-89066198D01*
X137523248Y-89068882D01*
X137368747Y-89181134D01*
X137364326Y-89186044D01*
X137364325Y-89186045D01*
X137247608Y-89315673D01*
X137240960Y-89323056D01*
X137145473Y-89488444D01*
X137086458Y-89670072D01*
X137085768Y-89676633D01*
X137085768Y-89676635D01*
X137081954Y-89712926D01*
X137066496Y-89860000D01*
X124657572Y-89860000D01*
X124562426Y-89712926D01*
X124556136Y-89704757D01*
X124412806Y-89547240D01*
X124405273Y-89540215D01*
X124238139Y-89408222D01*
X124229552Y-89402517D01*
X124043117Y-89299599D01*
X124033705Y-89295369D01*
X123832959Y-89224280D01*
X123822988Y-89221646D01*
X123751837Y-89208972D01*
X123738540Y-89210432D01*
X123734000Y-89224989D01*
X123734000Y-90267885D01*
X123226000Y-90267885D01*
X123226000Y-89223102D01*
X123222082Y-89209758D01*
X123207806Y-89207771D01*
X123169324Y-89213660D01*
X123159288Y-89216051D01*
X122956868Y-89282212D01*
X122947359Y-89286209D01*
X122758463Y-89384542D01*
X122749738Y-89390036D01*
X122579433Y-89517905D01*
X122571726Y-89524748D01*
X122424590Y-89678717D01*
X122418104Y-89686727D01*
X122298098Y-89862649D01*
X122293000Y-89871623D01*
X122203338Y-90064783D01*
X122199775Y-90074470D01*
X122144389Y-90274183D01*
X119488500Y-90274183D01*
X119488500Y-87460000D01*
X129216526Y-87460000D01*
X129236391Y-87712403D01*
X129237545Y-87717210D01*
X129237546Y-87717216D01*
X129266414Y-87837460D01*
X129295495Y-87958591D01*
X129297388Y-87963162D01*
X129297389Y-87963164D01*
X129385812Y-88176635D01*
X129392384Y-88192502D01*
X129524672Y-88408376D01*
X129689102Y-88600898D01*
X129881624Y-88765328D01*
X130097498Y-88897616D01*
X130102068Y-88899509D01*
X130102072Y-88899511D01*
X130326836Y-88992611D01*
X130331409Y-88994505D01*
X130416032Y-89014821D01*
X130572784Y-89052454D01*
X130572790Y-89052455D01*
X130577597Y-89053609D01*
X130677416Y-89061465D01*
X130764345Y-89068307D01*
X130764352Y-89068307D01*
X130766801Y-89068500D01*
X132193199Y-89068500D01*
X132195648Y-89068307D01*
X132195655Y-89068307D01*
X132282584Y-89061465D01*
X132382403Y-89053609D01*
X132387210Y-89052455D01*
X132387216Y-89052454D01*
X132543968Y-89014821D01*
X132628591Y-88994505D01*
X132633164Y-88992611D01*
X132857928Y-88899511D01*
X132857932Y-88899509D01*
X132862502Y-88897616D01*
X133078376Y-88765328D01*
X133270898Y-88600898D01*
X133435328Y-88408376D01*
X133567616Y-88192502D01*
X133574189Y-88176635D01*
X133662611Y-87963164D01*
X133662612Y-87963162D01*
X133664505Y-87958591D01*
X133693586Y-87837460D01*
X133722454Y-87717216D01*
X133722455Y-87717210D01*
X133723609Y-87712403D01*
X133743474Y-87460000D01*
X133723609Y-87207597D01*
X133664505Y-86961409D01*
X133619060Y-86851695D01*
X154352251Y-86851695D01*
X154365110Y-87074715D01*
X154366247Y-87079761D01*
X154366248Y-87079767D01*
X154390304Y-87186508D01*
X154414222Y-87292639D01*
X154475673Y-87443976D01*
X154484182Y-87464930D01*
X154498266Y-87499616D01*
X154500965Y-87504020D01*
X154607121Y-87677251D01*
X154614987Y-87690088D01*
X154761250Y-87858938D01*
X154933126Y-88001632D01*
X155126000Y-88114338D01*
X155334692Y-88194030D01*
X155339760Y-88195061D01*
X155339763Y-88195062D01*
X155447017Y-88216883D01*
X155553597Y-88238567D01*
X155558772Y-88238757D01*
X155558774Y-88238757D01*
X155771673Y-88246564D01*
X155771677Y-88246564D01*
X155776837Y-88246753D01*
X155781957Y-88246097D01*
X155781959Y-88246097D01*
X155993288Y-88219025D01*
X155993289Y-88219025D01*
X155998416Y-88218368D01*
X156003366Y-88216883D01*
X156207429Y-88155661D01*
X156207434Y-88155659D01*
X156212384Y-88154174D01*
X156412994Y-88055896D01*
X156594860Y-87926173D01*
X156703091Y-87818319D01*
X156765462Y-87784404D01*
X156836268Y-87789592D01*
X156893030Y-87832238D01*
X156910012Y-87863341D01*
X156954385Y-87981705D01*
X157041739Y-88098261D01*
X157158295Y-88185615D01*
X157294684Y-88236745D01*
X157356866Y-88243500D01*
X159153134Y-88243500D01*
X159215316Y-88236745D01*
X159351705Y-88185615D01*
X159468261Y-88098261D01*
X159555615Y-87981705D01*
X159606745Y-87845316D01*
X159613500Y-87783134D01*
X159613500Y-85986866D01*
X159606745Y-85924684D01*
X159555615Y-85788295D01*
X159468261Y-85671739D01*
X159351705Y-85584385D01*
X159232687Y-85539767D01*
X159175923Y-85497125D01*
X159151223Y-85430564D01*
X159166430Y-85361215D01*
X159187977Y-85332535D01*
X159289052Y-85231812D01*
X159295730Y-85223965D01*
X159420003Y-85051020D01*
X159425313Y-85042183D01*
X159519670Y-84851267D01*
X159523469Y-84841672D01*
X159585377Y-84637910D01*
X159587555Y-84627837D01*
X159588986Y-84616962D01*
X159586775Y-84602778D01*
X159573617Y-84599000D01*
X158127000Y-84599000D01*
X158058879Y-84578998D01*
X158012386Y-84525342D01*
X158001000Y-84473000D01*
X158001000Y-84217000D01*
X158021002Y-84148879D01*
X158074658Y-84102386D01*
X158127000Y-84091000D01*
X159573344Y-84091000D01*
X159586875Y-84087027D01*
X159588180Y-84077947D01*
X159546214Y-83910875D01*
X159542894Y-83901124D01*
X159457972Y-83705814D01*
X159453105Y-83696739D01*
X159337426Y-83517926D01*
X159331136Y-83509757D01*
X159187806Y-83352240D01*
X159180273Y-83345215D01*
X159013139Y-83213222D01*
X159004556Y-83207520D01*
X158967602Y-83187120D01*
X158917631Y-83136687D01*
X158902859Y-83067245D01*
X158927975Y-83000839D01*
X158955327Y-82974232D01*
X158986733Y-82951830D01*
X159134860Y-82846173D01*
X159293096Y-82688489D01*
X159352594Y-82605689D01*
X159420435Y-82511277D01*
X159423453Y-82507077D01*
X159429196Y-82495458D01*
X159520136Y-82311453D01*
X159520137Y-82311451D01*
X159522430Y-82306811D01*
X159587370Y-82093069D01*
X159616529Y-81871590D01*
X159618156Y-81805000D01*
X159599852Y-81582361D01*
X159545431Y-81365702D01*
X159456354Y-81160840D01*
X159398224Y-81070984D01*
X159337822Y-80977617D01*
X159337820Y-80977614D01*
X159335014Y-80973277D01*
X159184670Y-80808051D01*
X159180619Y-80804852D01*
X159180615Y-80804848D01*
X159013414Y-80672800D01*
X159013410Y-80672798D01*
X159009359Y-80669598D01*
X158995737Y-80662078D01*
X158995018Y-80661681D01*
X163543860Y-80661681D01*
X163543878Y-80661933D01*
X163549793Y-80670677D01*
X163581111Y-80699174D01*
X163586748Y-80703738D01*
X163862544Y-80901918D01*
X163868682Y-80905813D01*
X164165435Y-81070984D01*
X164171955Y-81074136D01*
X164485738Y-81204109D01*
X164492589Y-81206495D01*
X164819212Y-81299536D01*
X164826301Y-81301120D01*
X165161465Y-81356006D01*
X165168671Y-81356763D01*
X165507926Y-81372762D01*
X165515176Y-81372686D01*
X165854010Y-81349587D01*
X165861219Y-81348676D01*
X166195160Y-81286784D01*
X166202190Y-81285057D01*
X166526819Y-81185187D01*
X166533597Y-81182667D01*
X166844603Y-81046145D01*
X166851043Y-81042864D01*
X167144293Y-80871502D01*
X167150326Y-80867493D01*
X167408828Y-80673405D01*
X167417282Y-80662078D01*
X167410537Y-80649748D01*
X165492810Y-78732020D01*
X165478869Y-78724408D01*
X165477034Y-78724539D01*
X165470420Y-78728790D01*
X163551474Y-80647737D01*
X163543860Y-80661681D01*
X158995018Y-80661681D01*
X158957136Y-80640769D01*
X158813789Y-80561638D01*
X158808920Y-80559914D01*
X158808916Y-80559912D01*
X158608087Y-80488795D01*
X158608083Y-80488794D01*
X158603212Y-80487069D01*
X158598119Y-80486162D01*
X158598116Y-80486161D01*
X158388373Y-80448800D01*
X158388367Y-80448799D01*
X158383284Y-80447894D01*
X158309452Y-80446992D01*
X158165081Y-80445228D01*
X158165079Y-80445228D01*
X158159911Y-80445165D01*
X157939091Y-80478955D01*
X157726756Y-80548357D01*
X157696443Y-80564137D01*
X157536810Y-80647237D01*
X157528607Y-80651507D01*
X157524474Y-80654610D01*
X157524471Y-80654612D01*
X157354100Y-80782530D01*
X157349965Y-80785635D01*
X157346393Y-80789373D01*
X157267909Y-80871502D01*
X157195629Y-80947138D01*
X157088201Y-81104621D01*
X157033293Y-81149621D01*
X156962768Y-81157792D01*
X156899021Y-81126538D01*
X156878324Y-81102054D01*
X156797822Y-80977617D01*
X156797820Y-80977614D01*
X156795014Y-80973277D01*
X156644670Y-80808051D01*
X156640619Y-80804852D01*
X156640615Y-80804848D01*
X156473414Y-80672800D01*
X156473410Y-80672798D01*
X156469359Y-80669598D01*
X156455737Y-80662078D01*
X156417136Y-80640769D01*
X156273789Y-80561638D01*
X156268920Y-80559914D01*
X156268916Y-80559912D01*
X156068087Y-80488795D01*
X156068083Y-80488794D01*
X156063212Y-80487069D01*
X156058119Y-80486162D01*
X156058116Y-80486161D01*
X155848373Y-80448800D01*
X155848367Y-80448799D01*
X155843284Y-80447894D01*
X155769452Y-80446992D01*
X155625081Y-80445228D01*
X155625079Y-80445228D01*
X155619911Y-80445165D01*
X155399091Y-80478955D01*
X155186756Y-80548357D01*
X155156443Y-80564137D01*
X154996810Y-80647237D01*
X154988607Y-80651507D01*
X154984474Y-80654610D01*
X154984471Y-80654612D01*
X154814100Y-80782530D01*
X154809965Y-80785635D01*
X154806393Y-80789373D01*
X154727909Y-80871502D01*
X154655629Y-80947138D01*
X154529743Y-81131680D01*
X154435688Y-81334305D01*
X154375989Y-81549570D01*
X154352251Y-81771695D01*
X154352548Y-81776848D01*
X154352548Y-81776851D01*
X154358011Y-81871590D01*
X154365110Y-81994715D01*
X154366247Y-81999761D01*
X154366248Y-81999767D01*
X154382876Y-82073548D01*
X154414222Y-82212639D01*
X154498266Y-82419616D01*
X154541296Y-82489834D01*
X154612291Y-82605688D01*
X154614987Y-82610088D01*
X154761250Y-82778938D01*
X154933126Y-82921632D01*
X154984804Y-82951830D01*
X155006445Y-82964476D01*
X155055169Y-83016114D01*
X155068240Y-83085897D01*
X155041509Y-83151669D01*
X155001055Y-83185027D01*
X154988607Y-83191507D01*
X154984474Y-83194610D01*
X154984471Y-83194612D01*
X154960247Y-83212800D01*
X154809965Y-83325635D01*
X154655629Y-83487138D01*
X154652715Y-83491410D01*
X154652714Y-83491411D01*
X154612716Y-83550046D01*
X154529743Y-83671680D01*
X154435688Y-83874305D01*
X154375989Y-84089570D01*
X154352251Y-84311695D01*
X154352548Y-84316848D01*
X154352548Y-84316851D01*
X154360449Y-84453880D01*
X154365110Y-84534715D01*
X154366247Y-84539761D01*
X154366248Y-84539767D01*
X154379597Y-84599000D01*
X154414222Y-84752639D01*
X154475673Y-84903976D01*
X154495528Y-84952872D01*
X154498266Y-84959616D01*
X154614987Y-85150088D01*
X154761250Y-85318938D01*
X154933126Y-85461632D01*
X154989765Y-85494729D01*
X155006445Y-85504476D01*
X155055169Y-85556114D01*
X155068240Y-85625897D01*
X155041509Y-85691669D01*
X155001055Y-85725027D01*
X154988607Y-85731507D01*
X154984474Y-85734610D01*
X154984471Y-85734612D01*
X154817470Y-85860000D01*
X154809965Y-85865635D01*
X154770525Y-85906907D01*
X154716280Y-85963671D01*
X154655629Y-86027138D01*
X154529743Y-86211680D01*
X154482715Y-86312993D01*
X154443747Y-86396944D01*
X154435688Y-86414305D01*
X154375989Y-86629570D01*
X154352251Y-86851695D01*
X133619060Y-86851695D01*
X133584600Y-86768500D01*
X133569511Y-86732072D01*
X133569509Y-86732068D01*
X133567616Y-86727498D01*
X133435328Y-86511624D01*
X133270898Y-86319102D01*
X133089637Y-86164290D01*
X133050828Y-86104839D01*
X133050322Y-86033845D01*
X133066888Y-85998201D01*
X133083721Y-85973152D01*
X133089105Y-85963358D01*
X133134476Y-85860000D01*
X148066496Y-85860000D01*
X148067186Y-85866565D01*
X148084768Y-86033845D01*
X148086458Y-86049928D01*
X148145473Y-86231556D01*
X148240960Y-86396944D01*
X148245378Y-86401851D01*
X148245379Y-86401852D01*
X148364325Y-86533955D01*
X148368747Y-86538866D01*
X148523248Y-86651118D01*
X148529276Y-86653802D01*
X148529278Y-86653803D01*
X148691681Y-86726109D01*
X148697712Y-86728794D01*
X148791112Y-86748647D01*
X148878056Y-86767128D01*
X148878061Y-86767128D01*
X148884513Y-86768500D01*
X149075487Y-86768500D01*
X149081939Y-86767128D01*
X149081944Y-86767128D01*
X149168888Y-86748647D01*
X149262288Y-86728794D01*
X149268319Y-86726109D01*
X149430722Y-86653803D01*
X149430724Y-86653802D01*
X149436752Y-86651118D01*
X149591253Y-86538866D01*
X149595675Y-86533955D01*
X149714621Y-86401852D01*
X149714622Y-86401851D01*
X149719040Y-86396944D01*
X149814527Y-86231556D01*
X149873542Y-86049928D01*
X149875233Y-86033845D01*
X149892814Y-85866565D01*
X149893504Y-85860000D01*
X149882237Y-85752800D01*
X149874232Y-85676635D01*
X149874232Y-85676633D01*
X149873542Y-85670072D01*
X149814527Y-85488444D01*
X149719040Y-85323056D01*
X149591253Y-85181134D01*
X149482190Y-85101895D01*
X149442094Y-85072763D01*
X149442093Y-85072762D01*
X149436752Y-85068882D01*
X149430724Y-85066198D01*
X149430722Y-85066197D01*
X149268319Y-84993891D01*
X149268318Y-84993891D01*
X149262288Y-84991206D01*
X149168887Y-84971353D01*
X149081944Y-84952872D01*
X149081939Y-84952872D01*
X149075487Y-84951500D01*
X148884513Y-84951500D01*
X148878061Y-84952872D01*
X148878056Y-84952872D01*
X148791113Y-84971353D01*
X148697712Y-84991206D01*
X148691682Y-84993891D01*
X148691681Y-84993891D01*
X148529278Y-85066197D01*
X148529276Y-85066198D01*
X148523248Y-85068882D01*
X148517907Y-85072762D01*
X148517906Y-85072763D01*
X148477810Y-85101895D01*
X148368747Y-85181134D01*
X148240960Y-85323056D01*
X148145473Y-85488444D01*
X148086458Y-85670072D01*
X148085768Y-85676633D01*
X148085768Y-85676635D01*
X148077763Y-85752800D01*
X148066496Y-85860000D01*
X133134476Y-85860000D01*
X133174857Y-85768010D01*
X133178422Y-85757418D01*
X133208624Y-85631616D01*
X133207919Y-85617530D01*
X133199040Y-85614000D01*
X129761589Y-85614000D01*
X129747607Y-85618105D01*
X129746114Y-85627728D01*
X129746166Y-85627973D01*
X129808898Y-85831883D01*
X129813121Y-85842234D01*
X129900199Y-86010945D01*
X129913668Y-86080652D01*
X129887312Y-86146575D01*
X129870064Y-86164545D01*
X129791605Y-86231556D01*
X129689102Y-86319102D01*
X129524672Y-86511624D01*
X129392384Y-86727498D01*
X129390491Y-86732068D01*
X129390489Y-86732072D01*
X129375400Y-86768500D01*
X129295495Y-86961409D01*
X129236391Y-87207597D01*
X129216526Y-87460000D01*
X119488500Y-87460000D01*
X119488500Y-80661681D01*
X120543860Y-80661681D01*
X120543878Y-80661933D01*
X120549793Y-80670677D01*
X120581111Y-80699174D01*
X120586748Y-80703738D01*
X120862544Y-80901918D01*
X120868682Y-80905813D01*
X121165435Y-81070984D01*
X121171955Y-81074136D01*
X121485738Y-81204109D01*
X121492589Y-81206495D01*
X121819212Y-81299536D01*
X121826301Y-81301120D01*
X122161465Y-81356006D01*
X122168671Y-81356763D01*
X122507926Y-81372762D01*
X122515176Y-81372686D01*
X122854010Y-81349587D01*
X122861219Y-81348676D01*
X123195160Y-81286784D01*
X123202190Y-81285057D01*
X123526819Y-81185187D01*
X123533597Y-81182667D01*
X123844603Y-81046145D01*
X123851043Y-81042864D01*
X124144293Y-80871502D01*
X124150326Y-80867493D01*
X124408828Y-80673405D01*
X124417282Y-80662078D01*
X124410537Y-80649748D01*
X122492810Y-78732020D01*
X122478869Y-78724408D01*
X122477034Y-78724539D01*
X122470420Y-78728790D01*
X120551474Y-80647737D01*
X120543860Y-80661681D01*
X119488500Y-80661681D01*
X119488500Y-79638291D01*
X119508502Y-79570170D01*
X119562158Y-79523677D01*
X119632432Y-79513573D01*
X119697012Y-79543067D01*
X119731893Y-79592521D01*
X119739066Y-79610919D01*
X119742081Y-79617503D01*
X119901002Y-79917652D01*
X119904761Y-79923860D01*
X120097129Y-80203757D01*
X120101574Y-80209486D01*
X120168743Y-80286484D01*
X120181917Y-80294888D01*
X120191769Y-80289020D01*
X122107980Y-78372810D01*
X122114357Y-78361131D01*
X122844408Y-78361131D01*
X122844539Y-78362966D01*
X122848790Y-78369580D01*
X124766268Y-80287057D01*
X124779622Y-80294349D01*
X124789594Y-80287295D01*
X124896641Y-80159267D01*
X124900957Y-80153456D01*
X125087432Y-79869575D01*
X125091046Y-79863313D01*
X125243658Y-79559882D01*
X125246530Y-79553244D01*
X125353842Y-79260000D01*
X129216526Y-79260000D01*
X129236391Y-79512403D01*
X129237545Y-79517210D01*
X129237546Y-79517216D01*
X129252908Y-79581201D01*
X129295495Y-79758591D01*
X129297388Y-79763162D01*
X129297389Y-79763164D01*
X129363952Y-79923860D01*
X129392384Y-79992502D01*
X129524672Y-80208376D01*
X129689102Y-80400898D01*
X129691672Y-80403093D01*
X129725490Y-80465024D01*
X129727632Y-80505414D01*
X129722708Y-80550747D01*
X129721500Y-80561866D01*
X129721500Y-82158134D01*
X129728255Y-82220316D01*
X129779385Y-82356705D01*
X129866739Y-82473261D01*
X129899187Y-82497579D01*
X129941701Y-82554436D01*
X129946727Y-82625254D01*
X129928202Y-82668680D01*
X129875841Y-82746601D01*
X129875836Y-82746610D01*
X129872710Y-82751262D01*
X129782412Y-82956967D01*
X129781103Y-82962418D01*
X129781102Y-82962422D01*
X129731278Y-83169954D01*
X129729968Y-83175411D01*
X129729645Y-83181016D01*
X129721070Y-83329748D01*
X129717037Y-83399690D01*
X129744025Y-83622715D01*
X129810082Y-83837435D01*
X129812652Y-83842415D01*
X129812654Y-83842419D01*
X129877852Y-83968738D01*
X129913118Y-84037064D01*
X130049877Y-84215292D01*
X130054016Y-84219058D01*
X130054025Y-84219068D01*
X130106502Y-84266818D01*
X130143424Y-84327458D01*
X130141701Y-84398434D01*
X130112186Y-84447696D01*
X130002307Y-84561082D01*
X129995265Y-84569779D01*
X129876281Y-84746844D01*
X129870895Y-84756642D01*
X129785143Y-84951990D01*
X129781578Y-84962582D01*
X129751376Y-85088384D01*
X129752081Y-85102470D01*
X129760960Y-85106000D01*
X133198411Y-85106000D01*
X133212393Y-85101895D01*
X133213886Y-85092272D01*
X133213834Y-85092027D01*
X133151102Y-84888117D01*
X133146881Y-84877771D01*
X133086095Y-84760000D01*
X144080000Y-84760000D01*
X146880000Y-84760000D01*
X146880000Y-82060000D01*
X144080000Y-82060000D01*
X144080000Y-84760000D01*
X133086095Y-84760000D01*
X133049029Y-84688186D01*
X133043043Y-84678755D01*
X132913168Y-84509499D01*
X132905602Y-84501270D01*
X132853521Y-84453880D01*
X132816598Y-84393239D01*
X132818321Y-84322264D01*
X132847836Y-84273001D01*
X132958089Y-84159229D01*
X132958091Y-84159226D01*
X132961992Y-84155201D01*
X133087290Y-83968738D01*
X133177588Y-83763033D01*
X133192520Y-83700840D01*
X133228722Y-83550046D01*
X133228722Y-83550045D01*
X133230032Y-83544589D01*
X133240675Y-83360000D01*
X141066496Y-83360000D01*
X141067186Y-83366565D01*
X141079859Y-83487138D01*
X141086458Y-83549928D01*
X141145473Y-83731556D01*
X141240960Y-83896944D01*
X141245378Y-83901851D01*
X141245379Y-83901852D01*
X141309792Y-83973390D01*
X141368747Y-84038866D01*
X141422537Y-84077947D01*
X141483668Y-84122361D01*
X141523248Y-84151118D01*
X141529276Y-84153802D01*
X141529278Y-84153803D01*
X141671222Y-84217000D01*
X141697712Y-84228794D01*
X141791112Y-84248647D01*
X141878056Y-84267128D01*
X141878061Y-84267128D01*
X141884513Y-84268500D01*
X142075487Y-84268500D01*
X142081939Y-84267128D01*
X142081944Y-84267128D01*
X142168887Y-84248647D01*
X142262288Y-84228794D01*
X142288778Y-84217000D01*
X142430722Y-84153803D01*
X142430724Y-84153802D01*
X142436752Y-84151118D01*
X142476333Y-84122361D01*
X142537463Y-84077947D01*
X142591253Y-84038866D01*
X142650208Y-83973390D01*
X142714621Y-83901852D01*
X142714622Y-83901851D01*
X142719040Y-83896944D01*
X142814527Y-83731556D01*
X142873542Y-83549928D01*
X142880142Y-83487138D01*
X142892814Y-83366565D01*
X142893504Y-83360000D01*
X142889566Y-83322530D01*
X142874232Y-83176635D01*
X142874232Y-83176633D01*
X142873542Y-83170072D01*
X142814527Y-82988444D01*
X142807283Y-82975896D01*
X142756493Y-82887927D01*
X142719040Y-82823056D01*
X142654397Y-82751262D01*
X142595675Y-82686045D01*
X142595674Y-82686044D01*
X142591253Y-82681134D01*
X142436752Y-82568882D01*
X142430724Y-82566198D01*
X142430722Y-82566197D01*
X142268319Y-82493891D01*
X142268318Y-82493891D01*
X142262288Y-82491206D01*
X142144085Y-82466081D01*
X142081944Y-82452872D01*
X142081939Y-82452872D01*
X142075487Y-82451500D01*
X141884513Y-82451500D01*
X141878061Y-82452872D01*
X141878056Y-82452872D01*
X141815915Y-82466081D01*
X141697712Y-82491206D01*
X141691682Y-82493891D01*
X141691681Y-82493891D01*
X141529278Y-82566197D01*
X141529276Y-82566198D01*
X141523248Y-82568882D01*
X141368747Y-82681134D01*
X141364326Y-82686044D01*
X141364325Y-82686045D01*
X141305604Y-82751262D01*
X141240960Y-82823056D01*
X141203507Y-82887927D01*
X141152718Y-82975896D01*
X141145473Y-82988444D01*
X141086458Y-83170072D01*
X141085768Y-83176633D01*
X141085768Y-83176635D01*
X141070434Y-83322530D01*
X141066496Y-83360000D01*
X133240675Y-83360000D01*
X133241122Y-83352240D01*
X133242640Y-83325917D01*
X133242640Y-83325914D01*
X133242963Y-83320310D01*
X133215975Y-83097285D01*
X133149918Y-82882565D01*
X133122155Y-82828774D01*
X133049454Y-82687919D01*
X133049454Y-82687918D01*
X133046882Y-82682936D01*
X133043468Y-82678487D01*
X133043465Y-82678482D01*
X133039248Y-82672986D01*
X133013648Y-82606766D01*
X133027913Y-82537217D01*
X133063644Y-82495458D01*
X133086082Y-82478641D01*
X133093261Y-82473261D01*
X133180615Y-82356705D01*
X133231745Y-82220316D01*
X133238500Y-82158134D01*
X133238500Y-80561866D01*
X133237292Y-80550747D01*
X133232368Y-80505414D01*
X133244897Y-80435531D01*
X133268155Y-80403240D01*
X133270898Y-80400898D01*
X133435328Y-80208376D01*
X133567616Y-79992502D01*
X133596049Y-79923860D01*
X133622500Y-79860000D01*
X147566496Y-79860000D01*
X147567186Y-79866565D01*
X147579942Y-79987928D01*
X147586458Y-80049928D01*
X147645473Y-80231556D01*
X147740960Y-80396944D01*
X147745378Y-80401851D01*
X147745379Y-80401852D01*
X147787651Y-80448800D01*
X147868747Y-80538866D01*
X148023248Y-80651118D01*
X148029276Y-80653802D01*
X148029278Y-80653803D01*
X148131184Y-80699174D01*
X148197712Y-80728794D01*
X148291112Y-80748647D01*
X148378056Y-80767128D01*
X148378061Y-80767128D01*
X148384513Y-80768500D01*
X148575487Y-80768500D01*
X148581939Y-80767128D01*
X148581944Y-80767128D01*
X148668888Y-80748647D01*
X148762288Y-80728794D01*
X148828816Y-80699174D01*
X148930722Y-80653803D01*
X148930724Y-80653802D01*
X148936752Y-80651118D01*
X149091253Y-80538866D01*
X149172349Y-80448800D01*
X149214621Y-80401852D01*
X149214622Y-80401851D01*
X149219040Y-80396944D01*
X149314527Y-80231556D01*
X149373542Y-80049928D01*
X149380059Y-79987928D01*
X149392814Y-79866565D01*
X149393504Y-79860000D01*
X149373542Y-79670072D01*
X149314527Y-79488444D01*
X149219040Y-79323056D01*
X149091253Y-79181134D01*
X148936752Y-79068882D01*
X148930724Y-79066198D01*
X148930722Y-79066197D01*
X148768319Y-78993891D01*
X148768318Y-78993891D01*
X148762288Y-78991206D01*
X148668887Y-78971353D01*
X148581944Y-78952872D01*
X148581939Y-78952872D01*
X148575487Y-78951500D01*
X148384513Y-78951500D01*
X148378061Y-78952872D01*
X148378056Y-78952872D01*
X148291113Y-78971353D01*
X148197712Y-78991206D01*
X148191682Y-78993891D01*
X148191681Y-78993891D01*
X148029278Y-79066197D01*
X148029276Y-79066198D01*
X148023248Y-79068882D01*
X147868747Y-79181134D01*
X147740960Y-79323056D01*
X147645473Y-79488444D01*
X147586458Y-79670072D01*
X147566496Y-79860000D01*
X133622500Y-79860000D01*
X133662611Y-79763164D01*
X133662612Y-79763162D01*
X133664505Y-79758591D01*
X133707092Y-79581201D01*
X133722454Y-79517216D01*
X133722455Y-79517210D01*
X133723609Y-79512403D01*
X133743474Y-79260000D01*
X133723609Y-79007597D01*
X133710142Y-78951500D01*
X133665660Y-78766221D01*
X133664505Y-78761409D01*
X133567616Y-78527498D01*
X133435328Y-78311624D01*
X133398912Y-78268987D01*
X162468484Y-78268987D01*
X162477374Y-78608505D01*
X162477980Y-78615721D01*
X162525835Y-78951963D01*
X162527269Y-78959074D01*
X162613455Y-79287595D01*
X162615692Y-79294478D01*
X162739064Y-79610914D01*
X162742081Y-79617503D01*
X162901002Y-79917652D01*
X162904761Y-79923860D01*
X163097129Y-80203757D01*
X163101574Y-80209486D01*
X163168743Y-80286484D01*
X163181917Y-80294888D01*
X163191769Y-80289020D01*
X165107980Y-78372810D01*
X165115592Y-78358869D01*
X165115461Y-78357034D01*
X165111210Y-78350420D01*
X163192374Y-76431585D01*
X163179581Y-76424599D01*
X163168827Y-76432464D01*
X163008037Y-76637527D01*
X163003902Y-76643476D01*
X162826440Y-76933068D01*
X162823019Y-76939447D01*
X162680016Y-77247522D01*
X162677356Y-77254241D01*
X162570711Y-77576707D01*
X162568834Y-77583711D01*
X162499961Y-77916288D01*
X162498904Y-77923449D01*
X162468712Y-78261735D01*
X162468484Y-78268987D01*
X133398912Y-78268987D01*
X133270898Y-78119102D01*
X133078376Y-77954672D01*
X132862502Y-77822384D01*
X132857932Y-77820491D01*
X132857928Y-77820489D01*
X132633164Y-77727389D01*
X132633162Y-77727388D01*
X132628591Y-77725495D01*
X132543968Y-77705179D01*
X132387216Y-77667546D01*
X132387210Y-77667545D01*
X132382403Y-77666391D01*
X132282584Y-77658535D01*
X132195655Y-77651693D01*
X132195648Y-77651693D01*
X132193199Y-77651500D01*
X130766801Y-77651500D01*
X130764352Y-77651693D01*
X130764345Y-77651693D01*
X130677416Y-77658535D01*
X130577597Y-77666391D01*
X130572790Y-77667545D01*
X130572784Y-77667546D01*
X130416032Y-77705179D01*
X130331409Y-77725495D01*
X130326838Y-77727388D01*
X130326836Y-77727389D01*
X130102072Y-77820489D01*
X130102068Y-77820491D01*
X130097498Y-77822384D01*
X129881624Y-77954672D01*
X129689102Y-78119102D01*
X129524672Y-78311624D01*
X129392384Y-78527498D01*
X129295495Y-78761409D01*
X129294340Y-78766221D01*
X129249859Y-78951500D01*
X129236391Y-79007597D01*
X129216526Y-79260000D01*
X125353842Y-79260000D01*
X125363249Y-79234293D01*
X125365345Y-79227351D01*
X125444631Y-78897103D01*
X125445915Y-78889964D01*
X125486816Y-78551973D01*
X125487240Y-78546403D01*
X125493010Y-78362797D01*
X125492937Y-78357204D01*
X125473338Y-78017303D01*
X125472506Y-78010113D01*
X125414113Y-77675529D01*
X125412458Y-77668474D01*
X125315998Y-77342834D01*
X125313540Y-77336006D01*
X125180290Y-77023608D01*
X125177073Y-77017125D01*
X125008788Y-76722089D01*
X125004856Y-76716034D01*
X124803774Y-76442295D01*
X124799166Y-76436726D01*
X124793830Y-76430984D01*
X124780178Y-76422866D01*
X124779570Y-76422887D01*
X124771092Y-76428119D01*
X122852020Y-78347190D01*
X122844408Y-78361131D01*
X122114357Y-78361131D01*
X122115592Y-78358869D01*
X122115461Y-78357034D01*
X122111210Y-78350420D01*
X120192374Y-76431585D01*
X120179581Y-76424599D01*
X120168827Y-76432464D01*
X120008037Y-76637527D01*
X120003902Y-76643476D01*
X119826440Y-76933068D01*
X119823023Y-76939441D01*
X119728788Y-77142452D01*
X119681964Y-77195818D01*
X119613720Y-77215399D01*
X119545725Y-77194975D01*
X119499565Y-77141033D01*
X119488500Y-77089401D01*
X119488500Y-75494500D01*
X119508502Y-75426379D01*
X119562158Y-75379886D01*
X119614500Y-75368500D01*
X121207690Y-75368500D01*
X121275811Y-75388502D01*
G37*
%TD.AperFunction*%
%TD*%
M02*
