%TF.GenerationSoftware,KiCad,Pcbnew,(6.0.5)*%
%TF.CreationDate,2022-06-08T19:33:45-04:00*%
%TF.ProjectId,FlightController,466c6967-6874-4436-9f6e-74726f6c6c65,rev?*%
%TF.SameCoordinates,Original*%
%TF.FileFunction,Legend,Top*%
%TF.FilePolarity,Positive*%
%FSLAX46Y46*%
G04 Gerber Fmt 4.6, Leading zero omitted, Abs format (unit mm)*
G04 Created by KiCad (PCBNEW (6.0.5)) date 2022-06-08 19:33:45*
%MOMM*%
%LPD*%
G01*
G04 APERTURE LIST*
G04 Aperture macros list*
%AMRoundRect*
0 Rectangle with rounded corners*
0 $1 Rounding radius*
0 $2 $3 $4 $5 $6 $7 $8 $9 X,Y pos of 4 corners*
0 Add a 4 corners polygon primitive as box body*
4,1,4,$2,$3,$4,$5,$6,$7,$8,$9,$2,$3,0*
0 Add four circle primitives for the rounded corners*
1,1,$1+$1,$2,$3*
1,1,$1+$1,$4,$5*
1,1,$1+$1,$6,$7*
1,1,$1+$1,$8,$9*
0 Add four rect primitives between the rounded corners*
20,1,$1+$1,$2,$3,$4,$5,0*
20,1,$1+$1,$4,$5,$6,$7,0*
20,1,$1+$1,$6,$7,$8,$9,0*
20,1,$1+$1,$8,$9,$2,$3,0*%
G04 Aperture macros list end*
%ADD10C,0.150000*%
%ADD11C,0.300000*%
%ADD12C,0.120000*%
%ADD13C,5.000000*%
%ADD14R,1.700000X1.700000*%
%ADD15O,1.700000X1.700000*%
%ADD16RoundRect,0.140000X0.140000X0.170000X-0.140000X0.170000X-0.140000X-0.170000X0.140000X-0.170000X0*%
%ADD17RoundRect,0.135000X-0.185000X0.135000X-0.185000X-0.135000X0.185000X-0.135000X0.185000X0.135000X0*%
%ADD18RoundRect,0.147500X-0.147500X-0.172500X0.147500X-0.172500X0.147500X0.172500X-0.147500X0.172500X0*%
%ADD19O,2.500000X1.500000*%
%ADD20R,2.500000X1.500000*%
%ADD21O,3.500000X2.200000*%
%ADD22RoundRect,0.140000X-0.140000X-0.170000X0.140000X-0.170000X0.140000X0.170000X-0.140000X0.170000X0*%
%ADD23RoundRect,0.135000X-0.135000X-0.185000X0.135000X-0.185000X0.135000X0.185000X-0.135000X0.185000X0*%
%ADD24R,0.500000X0.500000*%
%ADD25RoundRect,0.140000X-0.170000X0.140000X-0.170000X-0.140000X0.170000X-0.140000X0.170000X0.140000X0*%
%ADD26RoundRect,0.150000X-0.825000X-0.150000X0.825000X-0.150000X0.825000X0.150000X-0.825000X0.150000X0*%
%ADD27RoundRect,0.147500X-0.172500X0.147500X-0.172500X-0.147500X0.172500X-0.147500X0.172500X0.147500X0*%
%ADD28RoundRect,0.140000X0.170000X-0.140000X0.170000X0.140000X-0.170000X0.140000X-0.170000X-0.140000X0*%
%ADD29R,1.700000X2.000000*%
%ADD30R,2.000000X0.500000*%
%ADD31C,1.000000*%
%ADD32RoundRect,0.075000X-0.075000X0.350000X-0.075000X-0.350000X0.075000X-0.350000X0.075000X0.350000X0*%
%ADD33RoundRect,0.075000X0.350000X0.075000X-0.350000X0.075000X-0.350000X-0.075000X0.350000X-0.075000X0*%
%ADD34O,1.500000X2.500000*%
%ADD35R,1.500000X2.500000*%
%ADD36O,2.200000X3.500000*%
%ADD37RoundRect,0.135000X0.135000X0.185000X-0.135000X0.185000X-0.135000X-0.185000X0.135000X-0.185000X0*%
%ADD38RoundRect,0.075000X-0.700000X-0.075000X0.700000X-0.075000X0.700000X0.075000X-0.700000X0.075000X0*%
%ADD39RoundRect,0.075000X-0.075000X-0.700000X0.075000X-0.700000X0.075000X0.700000X-0.075000X0.700000X0*%
%ADD40RoundRect,0.150000X0.512500X0.150000X-0.512500X0.150000X-0.512500X-0.150000X0.512500X-0.150000X0*%
%ADD41R,1.200000X1.400000*%
G04 APERTURE END LIST*
D10*
X131595238Y-124202380D02*
X131595238Y-123202380D01*
X131976190Y-123202380D01*
X132071428Y-123250000D01*
X132119047Y-123297619D01*
X132166666Y-123392857D01*
X132166666Y-123535714D01*
X132119047Y-123630952D01*
X132071428Y-123678571D01*
X131976190Y-123726190D01*
X131595238Y-123726190D01*
X132500000Y-123202380D02*
X132738095Y-124202380D01*
X132928571Y-123488095D01*
X133119047Y-124202380D01*
X133357142Y-123202380D01*
X133738095Y-124202380D02*
X133738095Y-123202380D01*
X134071428Y-123916666D01*
X134404761Y-123202380D01*
X134404761Y-124202380D01*
X142440476Y-121452380D02*
X142250000Y-121452380D01*
X142154761Y-121500000D01*
X142107142Y-121547619D01*
X142011904Y-121690476D01*
X141964285Y-121880952D01*
X141964285Y-122261904D01*
X142011904Y-122357142D01*
X142059523Y-122404761D01*
X142154761Y-122452380D01*
X142345238Y-122452380D01*
X142440476Y-122404761D01*
X142488095Y-122357142D01*
X142535714Y-122261904D01*
X142535714Y-122023809D01*
X142488095Y-121928571D01*
X142440476Y-121880952D01*
X142345238Y-121833333D01*
X142154761Y-121833333D01*
X142059523Y-121880952D01*
X142011904Y-121928571D01*
X141964285Y-122023809D01*
X138738095Y-121452380D02*
X138261904Y-121452380D01*
X138214285Y-121928571D01*
X138261904Y-121880952D01*
X138357142Y-121833333D01*
X138595238Y-121833333D01*
X138690476Y-121880952D01*
X138738095Y-121928571D01*
X138785714Y-122023809D01*
X138785714Y-122261904D01*
X138738095Y-122357142D01*
X138690476Y-122404761D01*
X138595238Y-122452380D01*
X138357142Y-122452380D01*
X138261904Y-122404761D01*
X138214285Y-122357142D01*
X134940476Y-121785714D02*
X134940476Y-122452380D01*
X134702380Y-121404761D02*
X134464285Y-122119047D01*
X135083333Y-122119047D01*
X130666666Y-121452380D02*
X131285714Y-121452380D01*
X130952380Y-121833333D01*
X131095238Y-121833333D01*
X131190476Y-121880952D01*
X131238095Y-121928571D01*
X131285714Y-122023809D01*
X131285714Y-122261904D01*
X131238095Y-122357142D01*
X131190476Y-122404761D01*
X131095238Y-122452380D01*
X130809523Y-122452380D01*
X130714285Y-122404761D01*
X130666666Y-122357142D01*
X126964285Y-121547619D02*
X127011904Y-121500000D01*
X127107142Y-121452380D01*
X127345238Y-121452380D01*
X127440476Y-121500000D01*
X127488095Y-121547619D01*
X127535714Y-121642857D01*
X127535714Y-121738095D01*
X127488095Y-121880952D01*
X126916666Y-122452380D01*
X127535714Y-122452380D01*
X123785714Y-122452380D02*
X123214285Y-122452380D01*
X123500000Y-122452380D02*
X123500000Y-121452380D01*
X123404761Y-121595238D01*
X123309523Y-121690476D01*
X123214285Y-121738095D01*
X119589285Y-95803571D02*
X119696428Y-95839285D01*
X119875000Y-95839285D01*
X119946428Y-95803571D01*
X119982142Y-95767857D01*
X120017857Y-95696428D01*
X120017857Y-95625000D01*
X119982142Y-95553571D01*
X119946428Y-95517857D01*
X119875000Y-95482142D01*
X119732142Y-95446428D01*
X119660714Y-95410714D01*
X119625000Y-95375000D01*
X119589285Y-95303571D01*
X119589285Y-95232142D01*
X119625000Y-95160714D01*
X119660714Y-95125000D01*
X119732142Y-95089285D01*
X119910714Y-95089285D01*
X120017857Y-95125000D01*
X120339285Y-95839285D02*
X120339285Y-95089285D01*
X120517857Y-95089285D01*
X120625000Y-95125000D01*
X120696428Y-95196428D01*
X120732142Y-95267857D01*
X120767857Y-95410714D01*
X120767857Y-95517857D01*
X120732142Y-95660714D01*
X120696428Y-95732142D01*
X120625000Y-95803571D01*
X120517857Y-95839285D01*
X120339285Y-95839285D01*
X121053571Y-95625000D02*
X121410714Y-95625000D01*
X120982142Y-95839285D02*
X121232142Y-95089285D01*
X121482142Y-95839285D01*
X119607142Y-93303571D02*
X119714285Y-93339285D01*
X119892857Y-93339285D01*
X119964285Y-93303571D01*
X120000000Y-93267857D01*
X120035714Y-93196428D01*
X120035714Y-93125000D01*
X120000000Y-93053571D01*
X119964285Y-93017857D01*
X119892857Y-92982142D01*
X119750000Y-92946428D01*
X119678571Y-92910714D01*
X119642857Y-92875000D01*
X119607142Y-92803571D01*
X119607142Y-92732142D01*
X119642857Y-92660714D01*
X119678571Y-92625000D01*
X119750000Y-92589285D01*
X119928571Y-92589285D01*
X120035714Y-92625000D01*
X120785714Y-93267857D02*
X120750000Y-93303571D01*
X120642857Y-93339285D01*
X120571428Y-93339285D01*
X120464285Y-93303571D01*
X120392857Y-93232142D01*
X120357142Y-93160714D01*
X120321428Y-93017857D01*
X120321428Y-92910714D01*
X120357142Y-92767857D01*
X120392857Y-92696428D01*
X120464285Y-92625000D01*
X120571428Y-92589285D01*
X120642857Y-92589285D01*
X120750000Y-92625000D01*
X120785714Y-92660714D01*
X121464285Y-93339285D02*
X121107142Y-93339285D01*
X121107142Y-92589285D01*
X120952380Y-107904761D02*
X120476190Y-108238095D01*
X120952380Y-108476190D02*
X119952380Y-108476190D01*
X119952380Y-108095238D01*
X120000000Y-108000000D01*
X120047619Y-107952380D01*
X120142857Y-107904761D01*
X120285714Y-107904761D01*
X120380952Y-107952380D01*
X120428571Y-108000000D01*
X120476190Y-108095238D01*
X120476190Y-108476190D01*
X119952380Y-107571428D02*
X120952380Y-106904761D01*
X119952380Y-106904761D02*
X120952380Y-107571428D01*
X119952380Y-105904761D02*
X119952380Y-105333333D01*
X120952380Y-105619047D02*
X119952380Y-105619047D01*
X119952380Y-105095238D02*
X120952380Y-104428571D01*
X119952380Y-104428571D02*
X120952380Y-105095238D01*
X120571428Y-90880952D02*
X120571428Y-90119047D01*
X120571428Y-102880952D02*
X120571428Y-102119047D01*
X120119047Y-110071428D02*
X120880952Y-110071428D01*
X120500000Y-110452380D02*
X120500000Y-109690476D01*
X120119047Y-98071428D02*
X120880952Y-98071428D01*
X120500000Y-98452380D02*
X120500000Y-97690476D01*
X126214285Y-85952380D02*
X125738095Y-85952380D01*
X125738095Y-84952380D01*
X126738095Y-84952380D02*
X126928571Y-84952380D01*
X127023809Y-85000000D01*
X127119047Y-85095238D01*
X127166666Y-85285714D01*
X127166666Y-85619047D01*
X127119047Y-85809523D01*
X127023809Y-85904761D01*
X126928571Y-85952380D01*
X126738095Y-85952380D01*
X126642857Y-85904761D01*
X126547619Y-85809523D01*
X126500000Y-85619047D01*
X126500000Y-85285714D01*
X126547619Y-85095238D01*
X126642857Y-85000000D01*
X126738095Y-84952380D01*
X127500000Y-84952380D02*
X127738095Y-85952380D01*
X127928571Y-85238095D01*
X128119047Y-85952380D01*
X128357142Y-84952380D01*
X125452380Y-81952380D02*
X125452380Y-80952380D01*
X125452380Y-81428571D02*
X126023809Y-81428571D01*
X126023809Y-81952380D02*
X126023809Y-80952380D01*
X126500000Y-81952380D02*
X126500000Y-80952380D01*
X127500000Y-81000000D02*
X127404761Y-80952380D01*
X127261904Y-80952380D01*
X127119047Y-81000000D01*
X127023809Y-81095238D01*
X126976190Y-81190476D01*
X126928571Y-81380952D01*
X126928571Y-81523809D01*
X126976190Y-81714285D01*
X127023809Y-81809523D01*
X127119047Y-81904761D01*
X127261904Y-81952380D01*
X127357142Y-81952380D01*
X127500000Y-81904761D01*
X127547619Y-81857142D01*
X127547619Y-81523809D01*
X127357142Y-81523809D01*
X127976190Y-81952380D02*
X127976190Y-80952380D01*
X127976190Y-81428571D02*
X128547619Y-81428571D01*
X128547619Y-81952380D02*
X128547619Y-80952380D01*
X149380952Y-87404761D02*
X149523809Y-87452380D01*
X149761904Y-87452380D01*
X149857142Y-87404761D01*
X149904761Y-87357142D01*
X149952380Y-87261904D01*
X149952380Y-87166666D01*
X149904761Y-87071428D01*
X149857142Y-87023809D01*
X149761904Y-86976190D01*
X149571428Y-86928571D01*
X149476190Y-86880952D01*
X149428571Y-86833333D01*
X149380952Y-86738095D01*
X149380952Y-86642857D01*
X149428571Y-86547619D01*
X149476190Y-86500000D01*
X149571428Y-86452380D01*
X149809523Y-86452380D01*
X149952380Y-86500000D01*
X150285714Y-86452380D02*
X150523809Y-87452380D01*
X150714285Y-86738095D01*
X150904761Y-87452380D01*
X151142857Y-86452380D01*
X151523809Y-87452380D02*
X151523809Y-86452380D01*
X151761904Y-86452380D01*
X151904761Y-86500000D01*
X152000000Y-86595238D01*
X152047619Y-86690476D01*
X152095238Y-86880952D01*
X152095238Y-87023809D01*
X152047619Y-87214285D01*
X152000000Y-87309523D01*
X151904761Y-87404761D01*
X151761904Y-87452380D01*
X151523809Y-87452380D01*
X152523809Y-87452380D02*
X152523809Y-86452380D01*
X153190476Y-86452380D02*
X153380952Y-86452380D01*
X153476190Y-86500000D01*
X153571428Y-86595238D01*
X153619047Y-86785714D01*
X153619047Y-87119047D01*
X153571428Y-87309523D01*
X153476190Y-87404761D01*
X153380952Y-87452380D01*
X153190476Y-87452380D01*
X153095238Y-87404761D01*
X153000000Y-87309523D01*
X152952380Y-87119047D01*
X152952380Y-86785714D01*
X153000000Y-86595238D01*
X153095238Y-86500000D01*
X153190476Y-86452380D01*
X150053571Y-84553571D02*
X150160714Y-84589285D01*
X150339285Y-84589285D01*
X150410714Y-84553571D01*
X150446428Y-84517857D01*
X150482142Y-84446428D01*
X150482142Y-84375000D01*
X150446428Y-84303571D01*
X150410714Y-84267857D01*
X150339285Y-84232142D01*
X150196428Y-84196428D01*
X150125000Y-84160714D01*
X150089285Y-84125000D01*
X150053571Y-84053571D01*
X150053571Y-83982142D01*
X150089285Y-83910714D01*
X150125000Y-83875000D01*
X150196428Y-83839285D01*
X150375000Y-83839285D01*
X150482142Y-83875000D01*
X150732142Y-83839285D02*
X150910714Y-84589285D01*
X151053571Y-84053571D01*
X151196428Y-84589285D01*
X151375000Y-83839285D01*
X152089285Y-84517857D02*
X152053571Y-84553571D01*
X151946428Y-84589285D01*
X151875000Y-84589285D01*
X151767857Y-84553571D01*
X151696428Y-84482142D01*
X151660714Y-84410714D01*
X151625000Y-84267857D01*
X151625000Y-84160714D01*
X151660714Y-84017857D01*
X151696428Y-83946428D01*
X151767857Y-83875000D01*
X151875000Y-83839285D01*
X151946428Y-83839285D01*
X152053571Y-83875000D01*
X152089285Y-83910714D01*
X152767857Y-84589285D02*
X152410714Y-84589285D01*
X152410714Y-83839285D01*
X153017857Y-84589285D02*
X153017857Y-83839285D01*
X153446428Y-84589285D02*
X153125000Y-84160714D01*
X153446428Y-83839285D02*
X153017857Y-84267857D01*
X150619047Y-82154761D02*
X150761904Y-82202380D01*
X151000000Y-82202380D01*
X151095238Y-82154761D01*
X151142857Y-82107142D01*
X151190476Y-82011904D01*
X151190476Y-81916666D01*
X151142857Y-81821428D01*
X151095238Y-81773809D01*
X151000000Y-81726190D01*
X150809523Y-81678571D01*
X150714285Y-81630952D01*
X150666666Y-81583333D01*
X150619047Y-81488095D01*
X150619047Y-81392857D01*
X150666666Y-81297619D01*
X150714285Y-81250000D01*
X150809523Y-81202380D01*
X151047619Y-81202380D01*
X151190476Y-81250000D01*
X151523809Y-81202380D02*
X151761904Y-82202380D01*
X151952380Y-81488095D01*
X152142857Y-82202380D01*
X152380952Y-81202380D01*
X152952380Y-81202380D02*
X153142857Y-81202380D01*
X153238095Y-81250000D01*
X153333333Y-81345238D01*
X153380952Y-81535714D01*
X153380952Y-81869047D01*
X153333333Y-82059523D01*
X153238095Y-82154761D01*
X153142857Y-82202380D01*
X152952380Y-82202380D01*
X152857142Y-82154761D01*
X152761904Y-82059523D01*
X152714285Y-81869047D01*
X152714285Y-81535714D01*
X152761904Y-81345238D01*
X152857142Y-81250000D01*
X152952380Y-81202380D01*
X160607142Y-82202380D02*
X160607142Y-81202380D01*
X161178571Y-82202380D01*
X161178571Y-81202380D01*
X162226190Y-82202380D02*
X161892857Y-81726190D01*
X161654761Y-82202380D02*
X161654761Y-81202380D01*
X162035714Y-81202380D01*
X162130952Y-81250000D01*
X162178571Y-81297619D01*
X162226190Y-81392857D01*
X162226190Y-81535714D01*
X162178571Y-81630952D01*
X162130952Y-81678571D01*
X162035714Y-81726190D01*
X161654761Y-81726190D01*
X162607142Y-82154761D02*
X162750000Y-82202380D01*
X162988095Y-82202380D01*
X163083333Y-82154761D01*
X163130952Y-82107142D01*
X163178571Y-82011904D01*
X163178571Y-81916666D01*
X163130952Y-81821428D01*
X163083333Y-81773809D01*
X162988095Y-81726190D01*
X162797619Y-81678571D01*
X162702380Y-81630952D01*
X162654761Y-81583333D01*
X162607142Y-81488095D01*
X162607142Y-81392857D01*
X162654761Y-81297619D01*
X162702380Y-81250000D01*
X162797619Y-81202380D01*
X163035714Y-81202380D01*
X163178571Y-81250000D01*
X163464285Y-81202380D02*
X164035714Y-81202380D01*
X163750000Y-82202380D02*
X163750000Y-81202380D01*
X161238095Y-83750000D02*
X161142857Y-83702380D01*
X161000000Y-83702380D01*
X160857142Y-83750000D01*
X160761904Y-83845238D01*
X160714285Y-83940476D01*
X160666666Y-84130952D01*
X160666666Y-84273809D01*
X160714285Y-84464285D01*
X160761904Y-84559523D01*
X160857142Y-84654761D01*
X161000000Y-84702380D01*
X161095238Y-84702380D01*
X161238095Y-84654761D01*
X161285714Y-84607142D01*
X161285714Y-84273809D01*
X161095238Y-84273809D01*
X161714285Y-84702380D02*
X161714285Y-83702380D01*
X162285714Y-84702380D01*
X162285714Y-83702380D01*
X162761904Y-84702380D02*
X162761904Y-83702380D01*
X163000000Y-83702380D01*
X163142857Y-83750000D01*
X163238095Y-83845238D01*
X163285714Y-83940476D01*
X163333333Y-84130952D01*
X163333333Y-84273809D01*
X163285714Y-84464285D01*
X163238095Y-84559523D01*
X163142857Y-84654761D01*
X163000000Y-84702380D01*
X162761904Y-84702380D01*
X160666666Y-86452380D02*
X161000000Y-87452380D01*
X161333333Y-86452380D01*
X162238095Y-87357142D02*
X162190476Y-87404761D01*
X162047619Y-87452380D01*
X161952380Y-87452380D01*
X161809523Y-87404761D01*
X161714285Y-87309523D01*
X161666666Y-87214285D01*
X161619047Y-87023809D01*
X161619047Y-86880952D01*
X161666666Y-86690476D01*
X161714285Y-86595238D01*
X161809523Y-86500000D01*
X161952380Y-86452380D01*
X162047619Y-86452380D01*
X162190476Y-86500000D01*
X162238095Y-86547619D01*
X163238095Y-87357142D02*
X163190476Y-87404761D01*
X163047619Y-87452380D01*
X162952380Y-87452380D01*
X162809523Y-87404761D01*
X162714285Y-87309523D01*
X162666666Y-87214285D01*
X162619047Y-87023809D01*
X162619047Y-86880952D01*
X162666666Y-86690476D01*
X162714285Y-86595238D01*
X162809523Y-86500000D01*
X162952380Y-86452380D01*
X163047619Y-86452380D01*
X163190476Y-86500000D01*
X163238095Y-86547619D01*
X159952380Y-103011904D02*
X158952380Y-103011904D01*
X158952380Y-102630952D01*
X159000000Y-102535714D01*
X159047619Y-102488095D01*
X159142857Y-102440476D01*
X159285714Y-102440476D01*
X159380952Y-102488095D01*
X159428571Y-102535714D01*
X159476190Y-102630952D01*
X159476190Y-103011904D01*
X159952380Y-102011904D02*
X158952380Y-102011904D01*
X158952380Y-101773809D01*
X159000000Y-101630952D01*
X159095238Y-101535714D01*
X159190476Y-101488095D01*
X159380952Y-101440476D01*
X159523809Y-101440476D01*
X159714285Y-101488095D01*
X159809523Y-101535714D01*
X159904761Y-101630952D01*
X159952380Y-101773809D01*
X159952380Y-102011904D01*
X159428571Y-100678571D02*
X159476190Y-100535714D01*
X159523809Y-100488095D01*
X159619047Y-100440476D01*
X159761904Y-100440476D01*
X159857142Y-100488095D01*
X159904761Y-100535714D01*
X159952380Y-100630952D01*
X159952380Y-101011904D01*
X158952380Y-101011904D01*
X158952380Y-100678571D01*
X159000000Y-100583333D01*
X159047619Y-100535714D01*
X159142857Y-100488095D01*
X159238095Y-100488095D01*
X159333333Y-100535714D01*
X159380952Y-100583333D01*
X159428571Y-100678571D01*
X159428571Y-101011904D01*
X154952380Y-111511904D02*
X155761904Y-111511904D01*
X155857142Y-111464285D01*
X155904761Y-111416666D01*
X155952380Y-111321428D01*
X155952380Y-111130952D01*
X155904761Y-111035714D01*
X155857142Y-110988095D01*
X155761904Y-110940476D01*
X154952380Y-110940476D01*
X155904761Y-110511904D02*
X155952380Y-110369047D01*
X155952380Y-110130952D01*
X155904761Y-110035714D01*
X155857142Y-109988095D01*
X155761904Y-109940476D01*
X155666666Y-109940476D01*
X155571428Y-109988095D01*
X155523809Y-110035714D01*
X155476190Y-110130952D01*
X155428571Y-110321428D01*
X155380952Y-110416666D01*
X155333333Y-110464285D01*
X155238095Y-110511904D01*
X155142857Y-110511904D01*
X155047619Y-110464285D01*
X155000000Y-110416666D01*
X154952380Y-110321428D01*
X154952380Y-110083333D01*
X155000000Y-109940476D01*
X155428571Y-109178571D02*
X155476190Y-109035714D01*
X155523809Y-108988095D01*
X155619047Y-108940476D01*
X155761904Y-108940476D01*
X155857142Y-108988095D01*
X155904761Y-109035714D01*
X155952380Y-109130952D01*
X155952380Y-109511904D01*
X154952380Y-109511904D01*
X154952380Y-109178571D01*
X155000000Y-109083333D01*
X155047619Y-109035714D01*
X155142857Y-108988095D01*
X155238095Y-108988095D01*
X155333333Y-109035714D01*
X155380952Y-109083333D01*
X155428571Y-109178571D01*
X155428571Y-109511904D01*
D11*
X161928571Y-117357142D02*
X163071428Y-117357142D01*
X162500000Y-117928571D02*
X162500000Y-116785714D01*
X120589285Y-119797619D02*
X120589285Y-118845238D01*
X120589285Y-117297619D02*
X120589285Y-116345238D01*
X121065476Y-116821428D02*
X120113095Y-116821428D01*
X121005952Y-114857142D02*
X121065476Y-114678571D01*
X121065476Y-114380952D01*
X121005952Y-114261904D01*
X120946428Y-114202380D01*
X120827380Y-114142857D01*
X120708333Y-114142857D01*
X120589285Y-114202380D01*
X120529761Y-114261904D01*
X120470238Y-114380952D01*
X120410714Y-114619047D01*
X120351190Y-114738095D01*
X120291666Y-114797619D01*
X120172619Y-114857142D01*
X120053571Y-114857142D01*
X119934523Y-114797619D01*
X119875000Y-114738095D01*
X119815476Y-114619047D01*
X119815476Y-114321428D01*
X119875000Y-114142857D01*
D12*
%TO.C,J1*%
X172515000Y-115930000D02*
X163885000Y-115930000D01*
X172515000Y-113448100D02*
X163885000Y-113448100D01*
X172515000Y-115691905D02*
X163885000Y-115691905D01*
X163885000Y-115930000D02*
X163885000Y-110730000D01*
X163885000Y-111700000D02*
X163475000Y-111700000D01*
X172515000Y-114510955D02*
X163885000Y-114510955D01*
X172515000Y-114156670D02*
X163885000Y-114156670D01*
X172515000Y-114392860D02*
X163885000Y-114392860D01*
X172515000Y-115455715D02*
X163885000Y-115455715D01*
X172515000Y-110730000D02*
X163885000Y-110730000D01*
X172515000Y-114629050D02*
X163885000Y-114629050D01*
X172515000Y-113684290D02*
X163885000Y-113684290D01*
X172515000Y-115930000D02*
X172515000Y-110730000D01*
X172515000Y-115337620D02*
X163885000Y-115337620D01*
X172515000Y-114274765D02*
X163885000Y-114274765D01*
X162425000Y-115930000D02*
X161315000Y-115930000D01*
X172515000Y-114983335D02*
X163885000Y-114983335D01*
X172515000Y-113330000D02*
X163885000Y-113330000D01*
X163885000Y-112420000D02*
X163475000Y-112420000D01*
X172515000Y-114038575D02*
X163885000Y-114038575D01*
X161315000Y-115930000D02*
X161315000Y-114600000D01*
X172515000Y-113920480D02*
X163885000Y-113920480D01*
X172515000Y-113802385D02*
X163885000Y-113802385D01*
X172515000Y-115219525D02*
X163885000Y-115219525D01*
X172515000Y-114865240D02*
X163885000Y-114865240D01*
X172515000Y-114747145D02*
X163885000Y-114747145D01*
X163885000Y-114240000D02*
X163535000Y-114240000D01*
X163885000Y-114960000D02*
X163535000Y-114960000D01*
X172515000Y-115101430D02*
X163885000Y-115101430D01*
X172515000Y-115573810D02*
X163885000Y-115573810D01*
X172515000Y-113566195D02*
X163885000Y-113566195D01*
X172515000Y-115810000D02*
X163885000Y-115810000D01*
%TO.C,C17*%
X134587836Y-102220000D02*
X134372164Y-102220000D01*
X134587836Y-101500000D02*
X134372164Y-101500000D01*
%TO.C,C24*%
X143587836Y-86500000D02*
X143372164Y-86500000D01*
X143587836Y-87220000D02*
X143372164Y-87220000D01*
%TO.C,R8*%
X143714333Y-106798707D02*
X143714333Y-107105989D01*
X144474333Y-106798707D02*
X144474333Y-107105989D01*
%TO.C,J8*%
X133400000Y-120745000D02*
X136060000Y-120745000D01*
X136060000Y-115605000D02*
X136060000Y-120745000D01*
X133400000Y-115605000D02*
X133400000Y-120745000D01*
X133400000Y-115605000D02*
X136060000Y-115605000D01*
X133400000Y-113005000D02*
X134730000Y-113005000D01*
X133400000Y-114335000D02*
X133400000Y-113005000D01*
%TO.C,J11*%
X122150000Y-96890000D02*
X122150000Y-89210000D01*
X124810000Y-89210000D02*
X122150000Y-89210000D01*
X124810000Y-96890000D02*
X124810000Y-89210000D01*
X124810000Y-98160000D02*
X124810000Y-99490000D01*
X124810000Y-96890000D02*
X122150000Y-96890000D01*
X124810000Y-99490000D02*
X123480000Y-99490000D01*
%TO.C,SW1*%
X129220000Y-87770000D02*
X129220000Y-78950000D01*
X134440000Y-81860000D02*
X134440000Y-80860000D01*
X134440000Y-80860000D02*
X133940000Y-81360000D01*
X133940000Y-81360000D02*
X134440000Y-81860000D01*
X129220000Y-87770000D02*
X129530000Y-87770000D01*
X133740000Y-87770000D02*
X133430000Y-87770000D01*
X133430000Y-78950000D02*
X133740000Y-78950000D01*
X129220000Y-78950000D02*
X129530000Y-78950000D01*
X133740000Y-78950000D02*
X133740000Y-87770000D01*
%TO.C,C14*%
X138545031Y-91220000D02*
X138760703Y-91220000D01*
X138545031Y-90500000D02*
X138760703Y-90500000D01*
%TO.C,R7*%
X155538295Y-119095527D02*
X155845577Y-119095527D01*
X155538295Y-119855527D02*
X155845577Y-119855527D01*
%TO.C,C5*%
X148584100Y-114085527D02*
X148799772Y-114085527D01*
X148584100Y-113365527D02*
X148799772Y-113365527D01*
%TO.C,D1*%
X152441936Y-112900000D02*
X154991936Y-112900000D01*
X152441936Y-112900000D02*
X152441936Y-114600000D01*
X152441936Y-114600000D02*
X154991936Y-114600000D01*
%TO.C,C10*%
X146554598Y-106824431D02*
X146554598Y-107040103D01*
X145834598Y-106824431D02*
X145834598Y-107040103D01*
%TO.C,J4*%
X122150000Y-108890000D02*
X122150000Y-101210000D01*
X124810000Y-101210000D02*
X122150000Y-101210000D01*
X124810000Y-108890000D02*
X122150000Y-108890000D01*
X124810000Y-110160000D02*
X124810000Y-111490000D01*
X124810000Y-108890000D02*
X124810000Y-101210000D01*
X124810000Y-111490000D02*
X123480000Y-111490000D01*
%TO.C,R9*%
X144714333Y-106798707D02*
X144714333Y-107105989D01*
X145474333Y-106798707D02*
X145474333Y-107105989D01*
%TO.C,C3*%
X157081936Y-116867691D02*
X157081936Y-117083363D01*
X157801936Y-116867691D02*
X157801936Y-117083363D01*
%TO.C,C21*%
X146372164Y-80220000D02*
X146587836Y-80220000D01*
X146372164Y-79500000D02*
X146587836Y-79500000D01*
%TO.C,C16*%
X134587836Y-101220000D02*
X134372164Y-101220000D01*
X134587836Y-100500000D02*
X134372164Y-100500000D01*
%TO.C,C4*%
X148584100Y-121585527D02*
X148799772Y-121585527D01*
X148584100Y-120865527D02*
X148799772Y-120865527D01*
%TO.C,C22*%
X141454392Y-82451091D02*
X141670064Y-82451091D01*
X141454392Y-81731091D02*
X141670064Y-81731091D01*
%TO.C,U3*%
X150691936Y-114915527D02*
X147241936Y-114915527D01*
X150691936Y-120035527D02*
X148741936Y-120035527D01*
X150691936Y-120035527D02*
X152641936Y-120035527D01*
X150691936Y-114915527D02*
X152641936Y-114915527D01*
%TO.C,J7*%
X129650000Y-115605000D02*
X132310000Y-115605000D01*
X129650000Y-120745000D02*
X132310000Y-120745000D01*
X129650000Y-114335000D02*
X129650000Y-113005000D01*
X129650000Y-113005000D02*
X130980000Y-113005000D01*
X132310000Y-115605000D02*
X132310000Y-120745000D01*
X129650000Y-115605000D02*
X129650000Y-120745000D01*
%TO.C,C9*%
X139513043Y-105683876D02*
X139297371Y-105683876D01*
X139513043Y-106403876D02*
X139297371Y-106403876D01*
%TO.C,C15*%
X157851157Y-120358390D02*
X157851157Y-120142718D01*
X157131157Y-120358390D02*
X157131157Y-120142718D01*
%TO.C,J2*%
X166720000Y-100770000D02*
X163490000Y-100770000D01*
X161570000Y-94750000D02*
X161570000Y-93670000D01*
X161570000Y-98970000D02*
X161140000Y-98970000D01*
X161570000Y-100050000D02*
X161570000Y-98970000D01*
X170890000Y-100770000D02*
X168940000Y-100770000D01*
X170890000Y-92950000D02*
X168940000Y-92950000D01*
X166720000Y-92950000D02*
X163490000Y-92950000D01*
X170890000Y-92950000D02*
X170890000Y-100770000D01*
%TO.C,C8*%
X136340000Y-92967836D02*
X136340000Y-92752164D01*
X135620000Y-92967836D02*
X135620000Y-92752164D01*
D10*
%TO.C,U2*%
X147630000Y-81210000D02*
X147105000Y-81210000D01*
X143330000Y-81210000D02*
X143330000Y-81735000D01*
X143330000Y-85510000D02*
X143330000Y-84985000D01*
X147630000Y-81210000D02*
X147630000Y-81735000D01*
X143330000Y-85510000D02*
X143855000Y-85510000D01*
X143330000Y-81210000D02*
X143855000Y-81210000D01*
X147630000Y-85510000D02*
X147105000Y-85510000D01*
D12*
%TO.C,R6*%
X147326359Y-87240000D02*
X147633641Y-87240000D01*
X147326359Y-86480000D02*
X147633641Y-86480000D01*
%TO.C,SW2*%
X161890000Y-103897500D02*
X161890000Y-104207500D01*
X153070000Y-104207500D02*
X153070000Y-103897500D01*
X161890000Y-108417500D02*
X153070000Y-108417500D01*
X155480000Y-103697500D02*
X155980000Y-103197500D01*
X154980000Y-103197500D02*
X155480000Y-103697500D01*
X161890000Y-108417500D02*
X161890000Y-108107500D01*
X153070000Y-108417500D02*
X153070000Y-108107500D01*
X155980000Y-103197500D02*
X154980000Y-103197500D01*
X153070000Y-103897500D02*
X161890000Y-103897500D01*
%TO.C,C18*%
X159103383Y-120358390D02*
X159103383Y-120142718D01*
X158383383Y-120358390D02*
X158383383Y-120142718D01*
%TO.C,C2*%
X155584100Y-117615527D02*
X155799772Y-117615527D01*
X155584100Y-118335527D02*
X155799772Y-118335527D01*
%TO.C,C11*%
X147872164Y-105220000D02*
X148087836Y-105220000D01*
X147872164Y-104500000D02*
X148087836Y-104500000D01*
%TO.C,C6*%
X131255225Y-94573999D02*
X131470897Y-94573999D01*
X131255225Y-93853999D02*
X131470897Y-93853999D01*
%TO.C,R5*%
X145623641Y-87240000D02*
X145316359Y-87240000D01*
X145623641Y-86480000D02*
X145316359Y-86480000D01*
%TO.C,C1*%
X146376872Y-117185935D02*
X146376872Y-117401607D01*
X145656872Y-117185935D02*
X145656872Y-117401607D01*
%TO.C,C12*%
X150372164Y-94500000D02*
X150587836Y-94500000D01*
X150372164Y-95220000D02*
X150587836Y-95220000D01*
%TO.C,J5*%
X122150000Y-120745000D02*
X124810000Y-120745000D01*
X124810000Y-115605000D02*
X124810000Y-120745000D01*
X122150000Y-113005000D02*
X123480000Y-113005000D01*
X122150000Y-115605000D02*
X124810000Y-115605000D01*
X122150000Y-115605000D02*
X122150000Y-120745000D01*
X122150000Y-114335000D02*
X122150000Y-113005000D01*
%TO.C,J10*%
X140900000Y-115605000D02*
X143560000Y-115605000D01*
X143560000Y-115605000D02*
X143560000Y-120745000D01*
X140900000Y-113005000D02*
X142230000Y-113005000D01*
X140900000Y-120745000D02*
X143560000Y-120745000D01*
X140900000Y-114335000D02*
X140900000Y-113005000D01*
X140900000Y-115605000D02*
X140900000Y-120745000D01*
%TO.C,J9*%
X137150000Y-120745000D02*
X139810000Y-120745000D01*
X137150000Y-115605000D02*
X137150000Y-120745000D01*
X137150000Y-115605000D02*
X139810000Y-115605000D01*
X137150000Y-113005000D02*
X138480000Y-113005000D01*
X139810000Y-115605000D02*
X139810000Y-120745000D01*
X137150000Y-114335000D02*
X137150000Y-113005000D01*
%TO.C,U1*%
X146540000Y-93400000D02*
X147490000Y-93400000D01*
X147490000Y-93400000D02*
X147490000Y-94350000D01*
X138220000Y-103620000D02*
X137270000Y-103620000D01*
X137270000Y-103620000D02*
X137270000Y-102670000D01*
X137270000Y-93400000D02*
X137270000Y-94350000D01*
X138220000Y-93400000D02*
X137270000Y-93400000D01*
X146540000Y-103620000D02*
X147490000Y-103620000D01*
X137270000Y-94350000D02*
X135930000Y-94350000D01*
X147490000Y-103620000D02*
X147490000Y-102670000D01*
%TO.C,C13*%
X148492164Y-94060000D02*
X148707836Y-94060000D01*
X148492164Y-93340000D02*
X148707836Y-93340000D01*
%TO.C,C7*%
X131470897Y-99214404D02*
X131255225Y-99214404D01*
X131470897Y-99934404D02*
X131255225Y-99934404D01*
%TO.C,R2*%
X155845577Y-121105527D02*
X155538295Y-121105527D01*
X155845577Y-120345527D02*
X155538295Y-120345527D01*
%TO.C,J6*%
X128560000Y-115605000D02*
X128560000Y-120745000D01*
X125900000Y-115605000D02*
X125900000Y-120745000D01*
X125900000Y-113005000D02*
X127230000Y-113005000D01*
X125900000Y-115605000D02*
X128560000Y-115605000D01*
X125900000Y-114335000D02*
X125900000Y-113005000D01*
X125900000Y-120745000D02*
X128560000Y-120745000D01*
%TO.C,C23*%
X144372164Y-80220000D02*
X144587836Y-80220000D01*
X144372164Y-79500000D02*
X144587836Y-79500000D01*
%TO.C,R3*%
X140283367Y-88477033D02*
X139976085Y-88477033D01*
X140283367Y-89237033D02*
X139976085Y-89237033D01*
%TO.C,R1*%
X155538295Y-116095527D02*
X155845577Y-116095527D01*
X155538295Y-116855527D02*
X155845577Y-116855527D01*
%TO.C,U4*%
X155980000Y-95300000D02*
X156780000Y-95300000D01*
X155980000Y-98420000D02*
X157780000Y-98420000D01*
X155980000Y-98420000D02*
X155180000Y-98420000D01*
X155980000Y-95300000D02*
X155180000Y-95300000D01*
%TO.C,Y1*%
X130080000Y-94860000D02*
X130080000Y-98860000D01*
X133380000Y-94860000D02*
X130080000Y-94860000D01*
%TO.C,R4*%
X134633641Y-98240000D02*
X134326359Y-98240000D01*
X134633641Y-97480000D02*
X134326359Y-97480000D01*
%TO.C,J3*%
X156985000Y-88215000D02*
X154385000Y-88215000D01*
X159585000Y-88215000D02*
X158255000Y-88215000D01*
X159585000Y-86885000D02*
X159585000Y-88215000D01*
X159585000Y-85615000D02*
X159585000Y-80475000D01*
X154385000Y-88215000D02*
X154385000Y-80475000D01*
X156985000Y-85615000D02*
X156985000Y-88215000D01*
X159585000Y-85615000D02*
X156985000Y-85615000D01*
X159585000Y-80475000D02*
X154385000Y-80475000D01*
%TD*%
%LPC*%
D13*
%TO.C,H3*%
X165480000Y-78360000D03*
%TD*%
%TO.C,H2*%
X122480000Y-78360000D03*
%TD*%
%TO.C,H1*%
X165480000Y-121360000D03*
%TD*%
D14*
%TO.C,J1*%
X162425000Y-114600000D03*
D15*
X162425000Y-112060000D03*
%TD*%
D16*
%TO.C,C17*%
X134000000Y-101860000D03*
X134960000Y-101860000D03*
%TD*%
%TO.C,C24*%
X143000000Y-86860000D03*
X143960000Y-86860000D03*
%TD*%
D17*
%TO.C,R8*%
X144094333Y-107462348D03*
X144094333Y-106442348D03*
%TD*%
D14*
%TO.C,J8*%
X134730000Y-114335000D03*
D15*
X134730000Y-116875000D03*
X134730000Y-119415000D03*
%TD*%
%TO.C,J11*%
X123480000Y-90540000D03*
X123480000Y-93080000D03*
X123480000Y-95620000D03*
D14*
X123480000Y-98160000D03*
%TD*%
D18*
%TO.C,L2*%
X134980000Y-102860000D03*
X134010000Y-102860000D03*
%TD*%
D19*
%TO.C,SW1*%
X131480000Y-85360000D03*
X131480000Y-83360000D03*
D20*
X131480000Y-81360000D03*
D21*
X131480000Y-79260000D03*
X131480000Y-87460000D03*
%TD*%
D22*
%TO.C,C14*%
X139132867Y-90860000D03*
X138172867Y-90860000D03*
%TD*%
D23*
%TO.C,R7*%
X156201936Y-119475527D03*
X155181936Y-119475527D03*
%TD*%
D22*
%TO.C,C5*%
X149171936Y-113725527D03*
X148211936Y-113725527D03*
%TD*%
D24*
%TO.C,D1*%
X155041936Y-113750000D03*
X152841936Y-113750000D03*
%TD*%
D25*
%TO.C,C10*%
X146194598Y-107412267D03*
X146194598Y-106452267D03*
%TD*%
D15*
%TO.C,J4*%
X123480000Y-102540000D03*
X123480000Y-105080000D03*
X123480000Y-107620000D03*
D14*
X123480000Y-110160000D03*
%TD*%
D17*
%TO.C,R9*%
X145094333Y-107462348D03*
X145094333Y-106442348D03*
%TD*%
D25*
%TO.C,C3*%
X157441936Y-117455527D03*
X157441936Y-116495527D03*
%TD*%
D22*
%TO.C,C21*%
X146960000Y-79860000D03*
X146000000Y-79860000D03*
%TD*%
D16*
%TO.C,C16*%
X134000000Y-100860000D03*
X134960000Y-100860000D03*
%TD*%
D22*
%TO.C,C4*%
X149171936Y-121225527D03*
X148211936Y-121225527D03*
%TD*%
%TO.C,C22*%
X142042228Y-82091091D03*
X141082228Y-82091091D03*
%TD*%
D26*
%TO.C,U3*%
X153166936Y-115570527D03*
X153166936Y-116840527D03*
X153166936Y-118110527D03*
X153166936Y-119380527D03*
X148216936Y-119380527D03*
X148216936Y-118110527D03*
X148216936Y-116840527D03*
X148216936Y-115570527D03*
%TD*%
D27*
%TO.C,L1*%
X158721414Y-116526017D03*
X158721414Y-115556017D03*
%TD*%
D14*
%TO.C,J7*%
X130980000Y-114335000D03*
D15*
X130980000Y-116875000D03*
X130980000Y-119415000D03*
%TD*%
D16*
%TO.C,C9*%
X138925207Y-106043876D03*
X139885207Y-106043876D03*
%TD*%
D28*
%TO.C,C15*%
X157491157Y-119770554D03*
X157491157Y-120730554D03*
%TD*%
D29*
%TO.C,J2*%
X162380000Y-101310000D03*
X162380000Y-92410000D03*
X167830000Y-101310000D03*
X167830000Y-92410000D03*
D30*
X162280000Y-95260000D03*
X162280000Y-96060000D03*
X162280000Y-96860000D03*
X162280000Y-97660000D03*
X162280000Y-98460000D03*
D31*
X164980000Y-94660000D03*
X164980000Y-99060000D03*
%TD*%
D28*
%TO.C,C8*%
X135980000Y-92380000D03*
X135980000Y-93340000D03*
%TD*%
D32*
%TO.C,U2*%
X146730000Y-85310000D03*
X146230000Y-85310000D03*
X145730000Y-85310000D03*
X145230000Y-85310000D03*
X144730000Y-85310000D03*
X144230000Y-85310000D03*
D33*
X143530000Y-84610000D03*
X143530000Y-84110000D03*
X143530000Y-83610000D03*
X143530000Y-83110000D03*
X143530000Y-82610000D03*
X143530000Y-82110000D03*
D32*
X144230000Y-81410000D03*
X144730000Y-81410000D03*
X145230000Y-81410000D03*
X145730000Y-81410000D03*
X146230000Y-81410000D03*
X146730000Y-81410000D03*
D33*
X147430000Y-82110000D03*
X147430000Y-82610000D03*
X147430000Y-83110000D03*
X147430000Y-83610000D03*
X147430000Y-84110000D03*
X147430000Y-84610000D03*
%TD*%
D23*
%TO.C,R6*%
X147990000Y-86860000D03*
X146970000Y-86860000D03*
%TD*%
D34*
%TO.C,SW2*%
X159480000Y-106157500D03*
X157480000Y-106157500D03*
D35*
X155480000Y-106157500D03*
D36*
X153380000Y-106157500D03*
X161580000Y-106157500D03*
%TD*%
D28*
%TO.C,C18*%
X158743383Y-119770554D03*
X158743383Y-120730554D03*
%TD*%
D22*
%TO.C,C2*%
X156171936Y-117975527D03*
X155211936Y-117975527D03*
%TD*%
D27*
%TO.C,F1*%
X160441936Y-120746538D03*
X160441936Y-119776538D03*
%TD*%
D22*
%TO.C,C11*%
X148460000Y-104860000D03*
X147500000Y-104860000D03*
%TD*%
%TO.C,C6*%
X131843061Y-94213999D03*
X130883061Y-94213999D03*
%TD*%
D37*
%TO.C,R5*%
X144960000Y-86860000D03*
X145980000Y-86860000D03*
%TD*%
D25*
%TO.C,C1*%
X146016872Y-117773771D03*
X146016872Y-116813771D03*
%TD*%
D22*
%TO.C,C12*%
X150960000Y-94860000D03*
X150000000Y-94860000D03*
%TD*%
D14*
%TO.C,J5*%
X123480000Y-114335000D03*
D15*
X123480000Y-116875000D03*
X123480000Y-119415000D03*
%TD*%
%TO.C,J10*%
X142230000Y-119415000D03*
X142230000Y-116875000D03*
D14*
X142230000Y-114335000D03*
%TD*%
D15*
%TO.C,J9*%
X138480000Y-119415000D03*
X138480000Y-116875000D03*
D14*
X138480000Y-114335000D03*
%TD*%
D38*
%TO.C,U1*%
X136705000Y-94760000D03*
X136705000Y-95260000D03*
X136705000Y-95760000D03*
X136705000Y-96260000D03*
X136705000Y-96760000D03*
X136705000Y-97260000D03*
X136705000Y-97760000D03*
X136705000Y-98260000D03*
X136705000Y-98760000D03*
X136705000Y-99260000D03*
X136705000Y-99760000D03*
X136705000Y-100260000D03*
X136705000Y-100760000D03*
X136705000Y-101260000D03*
X136705000Y-101760000D03*
X136705000Y-102260000D03*
D39*
X138630000Y-104185000D03*
X139130000Y-104185000D03*
X139630000Y-104185000D03*
X140130000Y-104185000D03*
X140630000Y-104185000D03*
X141130000Y-104185000D03*
X141630000Y-104185000D03*
X142130000Y-104185000D03*
X142630000Y-104185000D03*
X143130000Y-104185000D03*
X143630000Y-104185000D03*
X144130000Y-104185000D03*
X144630000Y-104185000D03*
X145130000Y-104185000D03*
X145630000Y-104185000D03*
X146130000Y-104185000D03*
D38*
X148055000Y-102260000D03*
X148055000Y-101760000D03*
X148055000Y-101260000D03*
X148055000Y-100760000D03*
X148055000Y-100260000D03*
X148055000Y-99760000D03*
X148055000Y-99260000D03*
X148055000Y-98760000D03*
X148055000Y-98260000D03*
X148055000Y-97760000D03*
X148055000Y-97260000D03*
X148055000Y-96760000D03*
X148055000Y-96260000D03*
X148055000Y-95760000D03*
X148055000Y-95260000D03*
X148055000Y-94760000D03*
D39*
X146130000Y-92835000D03*
X145630000Y-92835000D03*
X145130000Y-92835000D03*
X144630000Y-92835000D03*
X144130000Y-92835000D03*
X143630000Y-92835000D03*
X143130000Y-92835000D03*
X142630000Y-92835000D03*
X142130000Y-92835000D03*
X141630000Y-92835000D03*
X141130000Y-92835000D03*
X140630000Y-92835000D03*
X140130000Y-92835000D03*
X139630000Y-92835000D03*
X139130000Y-92835000D03*
X138630000Y-92835000D03*
%TD*%
D22*
%TO.C,C13*%
X149080000Y-93700000D03*
X148120000Y-93700000D03*
%TD*%
D16*
%TO.C,C7*%
X130883061Y-99574404D03*
X131843061Y-99574404D03*
%TD*%
D37*
%TO.C,R2*%
X155181936Y-120725527D03*
X156201936Y-120725527D03*
%TD*%
D14*
%TO.C,J6*%
X127230000Y-114335000D03*
D15*
X127230000Y-116875000D03*
X127230000Y-119415000D03*
%TD*%
D22*
%TO.C,C23*%
X144960000Y-79860000D03*
X144000000Y-79860000D03*
%TD*%
D37*
%TO.C,R3*%
X139619726Y-88857033D03*
X140639726Y-88857033D03*
%TD*%
D23*
%TO.C,R1*%
X156201936Y-116475527D03*
X155181936Y-116475527D03*
%TD*%
D40*
%TO.C,U4*%
X154842500Y-97810000D03*
X154842500Y-96860000D03*
X154842500Y-95910000D03*
X157117500Y-95910000D03*
X157117500Y-96860000D03*
X157117500Y-97810000D03*
%TD*%
D41*
%TO.C,Y1*%
X132580000Y-95760000D03*
X132580000Y-97960000D03*
X130880000Y-97960000D03*
X130880000Y-95760000D03*
%TD*%
D37*
%TO.C,R4*%
X133970000Y-97860000D03*
X134990000Y-97860000D03*
%TD*%
D15*
%TO.C,J3*%
X155715000Y-81805000D03*
X158255000Y-81805000D03*
X155715000Y-84345000D03*
X158255000Y-84345000D03*
X155715000Y-86885000D03*
D14*
X158255000Y-86885000D03*
%TD*%
M02*
