%TF.GenerationSoftware,KiCad,Pcbnew,(6.0.5)*%
%TF.CreationDate,2022-06-08T19:33:45-04:00*%
%TF.ProjectId,FlightController,466c6967-6874-4436-9f6e-74726f6c6c65,rev?*%
%TF.SameCoordinates,Original*%
%TF.FileFunction,Soldermask,Bot*%
%TF.FilePolarity,Negative*%
%FSLAX46Y46*%
G04 Gerber Fmt 4.6, Leading zero omitted, Abs format (unit mm)*
G04 Created by KiCad (PCBNEW (6.0.5)) date 2022-06-08 19:33:45*
%MOMM*%
%LPD*%
G01*
G04 APERTURE LIST*
%ADD10C,5.000000*%
%ADD11R,1.700000X1.700000*%
%ADD12O,1.700000X1.700000*%
%ADD13O,2.500000X1.500000*%
%ADD14R,2.500000X1.500000*%
%ADD15O,3.500000X2.200000*%
%ADD16C,1.000000*%
%ADD17O,1.500000X2.500000*%
%ADD18R,1.500000X2.500000*%
%ADD19O,2.200000X3.500000*%
G04 APERTURE END LIST*
D10*
%TO.C,H3*%
X165480000Y-78360000D03*
%TD*%
%TO.C,H2*%
X122480000Y-78360000D03*
%TD*%
%TO.C,H1*%
X165480000Y-121360000D03*
%TD*%
D11*
%TO.C,J1*%
X162425000Y-114600000D03*
D12*
X162425000Y-112060000D03*
%TD*%
D11*
%TO.C,J8*%
X134730000Y-114335000D03*
D12*
X134730000Y-116875000D03*
X134730000Y-119415000D03*
%TD*%
%TO.C,J11*%
X123480000Y-90540000D03*
X123480000Y-93080000D03*
X123480000Y-95620000D03*
D11*
X123480000Y-98160000D03*
%TD*%
D13*
%TO.C,SW1*%
X131480000Y-85360000D03*
X131480000Y-83360000D03*
D14*
X131480000Y-81360000D03*
D15*
X131480000Y-79260000D03*
X131480000Y-87460000D03*
%TD*%
D12*
%TO.C,J4*%
X123480000Y-102540000D03*
X123480000Y-105080000D03*
X123480000Y-107620000D03*
D11*
X123480000Y-110160000D03*
%TD*%
%TO.C,J7*%
X130980000Y-114335000D03*
D12*
X130980000Y-116875000D03*
X130980000Y-119415000D03*
%TD*%
D16*
%TO.C,J2*%
X164980000Y-94660000D03*
X164980000Y-99060000D03*
%TD*%
D17*
%TO.C,SW2*%
X159480000Y-106157500D03*
X157480000Y-106157500D03*
D18*
X155480000Y-106157500D03*
D19*
X153380000Y-106157500D03*
X161580000Y-106157500D03*
%TD*%
D11*
%TO.C,J5*%
X123480000Y-114335000D03*
D12*
X123480000Y-116875000D03*
X123480000Y-119415000D03*
%TD*%
%TO.C,J10*%
X142230000Y-119415000D03*
X142230000Y-116875000D03*
D11*
X142230000Y-114335000D03*
%TD*%
D12*
%TO.C,J9*%
X138480000Y-119415000D03*
X138480000Y-116875000D03*
D11*
X138480000Y-114335000D03*
%TD*%
%TO.C,J6*%
X127230000Y-114335000D03*
D12*
X127230000Y-116875000D03*
X127230000Y-119415000D03*
%TD*%
%TO.C,J3*%
X155715000Y-81805000D03*
X158255000Y-81805000D03*
X155715000Y-84345000D03*
X158255000Y-84345000D03*
X155715000Y-86885000D03*
D11*
X158255000Y-86885000D03*
%TD*%
M02*
