%FSLAX45Y45*%
G04 Gerber Fmt 4.5, Leading zero omitted, Abs format (unit mm)*
G04 Created by KiCad (PCBNEW (6.0.5)) date 2022-06-20 22:35:55*
%MOMM*%
%LPD*%
G01*
G04 APERTURE LIST*
%TA.AperFunction,Profile*%
%ADD10C,0.100000*%
%TD*%
%ADD11C,0.200000*%
%ADD12C,0.040000*%
%ADD13C,0.090000*%
%ADD14C,0.100000*%
%ADD15C,0.250000*%
G04 APERTURE END LIST*
D10*
X17000000Y-12750000D02*
X11750000Y-12750000D01*
X17000000Y-12750000D02*
G75*
G03*
X17500000Y-12250000I0J500000D01*
G01*
X11750000Y-7250000D02*
X17000000Y-7250000D01*
X11250000Y-12250000D02*
X11250000Y-7750000D01*
X11750000Y-7250000D02*
G75*
G03*
X11250000Y-7750000I0J-500000D01*
G01*
X11250000Y-12250000D02*
G75*
G03*
X11750000Y-12750000I500000J0D01*
G01*
X17500000Y-7750000D02*
G75*
G03*
X17000000Y-7250000I-500000J0D01*
G01*
X17500000Y-7750000D02*
X17500000Y-12250000D01*
D11*
D12*
X12800000Y-8760000D02*
X12840000Y-8800000D01*
X12840000Y-8760000D02*
X12800000Y-8800000D01*
X12820000Y-11140000D02*
X12860000Y-11180000D01*
X12860000Y-11140000D02*
X12820000Y-11180000D01*
X12828000Y-10616000D02*
X12868000Y-10656000D01*
X12868000Y-10616000D02*
X12828000Y-10656000D01*
X12970000Y-9940000D02*
X13010000Y-9980000D01*
X13010000Y-9940000D02*
X12970000Y-9980000D01*
X13170000Y-11140000D02*
X13210000Y-11180000D01*
X13210000Y-11140000D02*
X13170000Y-11180000D01*
X13220000Y-8380000D02*
X13260000Y-8420000D01*
X13260000Y-8380000D02*
X13220000Y-8420000D01*
X13278000Y-10616000D02*
X13318000Y-10656000D01*
X13318000Y-10616000D02*
X13278000Y-10656000D01*
X13300000Y-10160000D02*
X13340000Y-10200000D01*
X13340000Y-10160000D02*
X13300000Y-10200000D01*
X13420000Y-9150000D02*
X13460000Y-9190000D01*
X13460000Y-9150000D02*
X13420000Y-9190000D01*
X13440000Y-10225000D02*
X13480000Y-10265000D01*
X13480000Y-10225000D02*
X13440000Y-10265000D01*
X13478000Y-9316000D02*
X13518000Y-9356000D01*
X13518000Y-9316000D02*
X13478000Y-9356000D01*
X13578000Y-10616000D02*
X13618000Y-10656000D01*
X13618000Y-10616000D02*
X13578000Y-10656000D01*
X13600000Y-9010000D02*
X13640000Y-9050000D01*
X13640000Y-9010000D02*
X13600000Y-9050000D01*
X13655000Y-11180000D02*
X13695000Y-11220000D01*
X13695000Y-11180000D02*
X13655000Y-11220000D01*
X13780000Y-8960000D02*
X13820000Y-9000000D01*
X13820000Y-8960000D02*
X13780000Y-9000000D01*
X13828000Y-10716000D02*
X13868000Y-10756000D01*
X13868000Y-10716000D02*
X13828000Y-10756000D01*
X13830000Y-10030000D02*
X13870000Y-10070000D01*
X13870000Y-10030000D02*
X13830000Y-10070000D01*
X13886607Y-9910179D02*
X13926607Y-9950179D01*
X13926607Y-9910179D02*
X13886607Y-9950179D01*
X13900000Y-8960000D02*
X13940000Y-9000000D01*
X13940000Y-8960000D02*
X13900000Y-9000000D01*
X13910000Y-8380000D02*
X13950000Y-8420000D01*
X13950000Y-8380000D02*
X13910000Y-8420000D01*
X13920000Y-8630000D02*
X13960000Y-8670000D01*
X13960000Y-8630000D02*
X13920000Y-8670000D01*
X13990000Y-10240000D02*
X14030000Y-10280000D01*
X14030000Y-10240000D02*
X13990000Y-10280000D01*
X14020000Y-8190000D02*
X14060000Y-8230000D01*
X14060000Y-8190000D02*
X14020000Y-8230000D01*
X14028000Y-10716000D02*
X14068000Y-10756000D01*
X14068000Y-10716000D02*
X14028000Y-10756000D01*
X14054998Y-9744998D02*
X14094998Y-9784998D01*
X14094998Y-9744998D02*
X14054998Y-9784998D01*
X14140000Y-8520000D02*
X14180000Y-8560000D01*
X14180000Y-8520000D02*
X14140000Y-8560000D01*
X14170000Y-9410000D02*
X14210000Y-9450000D01*
X14210000Y-9410000D02*
X14170000Y-9450000D01*
X14220000Y-8900000D02*
X14260000Y-8940000D01*
X14260000Y-8900000D02*
X14220000Y-8940000D01*
X14240000Y-9580000D02*
X14280000Y-9620000D01*
X14280000Y-9580000D02*
X14240000Y-9620000D01*
X14260000Y-9960000D02*
X14300000Y-10000000D01*
X14300000Y-9960000D02*
X14260000Y-10000000D01*
X14270000Y-9410000D02*
X14310000Y-9450000D01*
X14310000Y-9410000D02*
X14270000Y-9450000D01*
X14386791Y-10821262D02*
X14426791Y-10861262D01*
X14426791Y-10821262D02*
X14386791Y-10861262D01*
X14420000Y-8780000D02*
X14460000Y-8820000D01*
X14460000Y-8780000D02*
X14420000Y-8820000D01*
X14428000Y-9666000D02*
X14468000Y-9706000D01*
X14468000Y-9666000D02*
X14428000Y-9706000D01*
X14478000Y-11516000D02*
X14518000Y-11556000D01*
X14518000Y-11516000D02*
X14478000Y-11556000D01*
X14528000Y-8916000D02*
X14568000Y-8956000D01*
X14568000Y-8916000D02*
X14528000Y-8956000D01*
X14543819Y-9098122D02*
X14583819Y-9138122D01*
X14583819Y-9098122D02*
X14543819Y-9138122D01*
X14550000Y-11960000D02*
X14590000Y-12000000D01*
X14590000Y-11960000D02*
X14550000Y-12000000D01*
X14710000Y-10720000D02*
X14750000Y-10760000D01*
X14750000Y-10720000D02*
X14710000Y-10760000D01*
X14714104Y-10563691D02*
X14754104Y-10603691D01*
X14754104Y-10563691D02*
X14714104Y-10603691D01*
X14736728Y-10985909D02*
X14776728Y-11025909D01*
X14776728Y-10985909D02*
X14736728Y-11025909D01*
X14850000Y-8440000D02*
X14890000Y-8480000D01*
X14890000Y-8440000D02*
X14850000Y-8480000D01*
X14878000Y-8566000D02*
X14918000Y-8606000D01*
X14918000Y-8566000D02*
X14878000Y-8606000D01*
X14880000Y-9230000D02*
X14920000Y-9270000D01*
X14920000Y-9230000D02*
X14880000Y-9270000D01*
X14930000Y-7920000D02*
X14970000Y-7960000D01*
X14970000Y-7920000D02*
X14930000Y-7960000D01*
X15000000Y-9870000D02*
X15040000Y-9910000D01*
X15040000Y-9870000D02*
X15000000Y-9910000D01*
X15000000Y-11665000D02*
X15040000Y-11705000D01*
X15040000Y-11665000D02*
X15000000Y-11705000D01*
X15070675Y-9797550D02*
X15110675Y-9837550D01*
X15110675Y-9797550D02*
X15070675Y-9837550D01*
X15075000Y-9330000D02*
X15115000Y-9370000D01*
X15115000Y-9330000D02*
X15075000Y-9370000D01*
X15080000Y-12100000D02*
X15120000Y-12140000D01*
X15120000Y-12100000D02*
X15080000Y-12140000D01*
X15240000Y-9040000D02*
X15280000Y-9080000D01*
X15280000Y-9040000D02*
X15240000Y-9080000D01*
X15288000Y-10076000D02*
X15328000Y-10116000D01*
X15328000Y-10076000D02*
X15288000Y-10116000D01*
X15580000Y-9460000D02*
X15620000Y-9500000D01*
X15620000Y-9460000D02*
X15580000Y-9500000D01*
X15910000Y-11280000D02*
X15950000Y-11320000D01*
X15950000Y-11280000D02*
X15910000Y-11320000D01*
X16030000Y-11730000D02*
X16070000Y-11770000D01*
X16070000Y-11730000D02*
X16030000Y-11770000D01*
X16040000Y-8620000D02*
X16080000Y-8660000D01*
X16080000Y-8620000D02*
X16040000Y-8660000D01*
X16190000Y-12090000D02*
X16230000Y-12130000D01*
X16230000Y-12090000D02*
X16190000Y-12130000D01*
X16320000Y-9500000D02*
X16360000Y-9540000D01*
X16360000Y-9500000D02*
X16320000Y-9540000D01*
X16350000Y-12230000D02*
X16390000Y-12270000D01*
X16390000Y-12230000D02*
X16350000Y-12270000D01*
D13*
X12545000Y-7900000D02*
G75*
G03*
X12545000Y-7900000I-45000J0D01*
G01*
X12545000Y-8150000D02*
G75*
G03*
X12545000Y-8150000I-45000J0D01*
G01*
X12545000Y-8400000D02*
G75*
G03*
X12545000Y-8400000I-45000J0D01*
G01*
X15593000Y-10615750D02*
G75*
G03*
X15593000Y-10615750I-45000J0D01*
G01*
X15843000Y-10615750D02*
G75*
G03*
X15843000Y-10615750I-45000J0D01*
G01*
X16093000Y-10615750D02*
G75*
G03*
X16093000Y-10615750I-45000J0D01*
G01*
D14*
X12348000Y-9004000D02*
X12348000Y-9104000D01*
X12298000Y-9054000D02*
X12398000Y-9054000D01*
X12348000Y-9258000D02*
X12348000Y-9358000D01*
X12298000Y-9308000D02*
X12398000Y-9308000D01*
X12348000Y-9512000D02*
X12348000Y-9612000D01*
X12298000Y-9562000D02*
X12398000Y-9562000D01*
X12348000Y-9766000D02*
X12348000Y-9866000D01*
X12298000Y-9816000D02*
X12398000Y-9816000D01*
X12348000Y-10204000D02*
X12348000Y-10304000D01*
X12298000Y-10254000D02*
X12398000Y-10254000D01*
X12348000Y-10458000D02*
X12348000Y-10558000D01*
X12298000Y-10508000D02*
X12398000Y-10508000D01*
X12348000Y-10712000D02*
X12348000Y-10812000D01*
X12298000Y-10762000D02*
X12398000Y-10762000D01*
X12348000Y-10966000D02*
X12348000Y-11066000D01*
X12298000Y-11016000D02*
X12398000Y-11016000D01*
X12348000Y-11383500D02*
X12348000Y-11483500D01*
X12298000Y-11433500D02*
X12398000Y-11433500D01*
X12348000Y-11637500D02*
X12348000Y-11737500D01*
X12298000Y-11687500D02*
X12398000Y-11687500D01*
X12348000Y-11891500D02*
X12348000Y-11991500D01*
X12298000Y-11941500D02*
X12398000Y-11941500D01*
X12723000Y-11383500D02*
X12723000Y-11483500D01*
X12673000Y-11433500D02*
X12773000Y-11433500D01*
X12723000Y-11637500D02*
X12723000Y-11737500D01*
X12673000Y-11687500D02*
X12773000Y-11687500D01*
X12723000Y-11891500D02*
X12723000Y-11991500D01*
X12673000Y-11941500D02*
X12773000Y-11941500D01*
X13098000Y-11383500D02*
X13098000Y-11483500D01*
X13048000Y-11433500D02*
X13148000Y-11433500D01*
X13098000Y-11637500D02*
X13098000Y-11737500D01*
X13048000Y-11687500D02*
X13148000Y-11687500D01*
X13098000Y-11891500D02*
X13098000Y-11991500D01*
X13048000Y-11941500D02*
X13148000Y-11941500D01*
X13473000Y-11383500D02*
X13473000Y-11483500D01*
X13423000Y-11433500D02*
X13523000Y-11433500D01*
X13473000Y-11637500D02*
X13473000Y-11737500D01*
X13423000Y-11687500D02*
X13523000Y-11687500D01*
X13473000Y-11891500D02*
X13473000Y-11991500D01*
X13423000Y-11941500D02*
X13523000Y-11941500D01*
X13848000Y-11383500D02*
X13848000Y-11483500D01*
X13798000Y-11433500D02*
X13898000Y-11433500D01*
X13848000Y-11637500D02*
X13848000Y-11737500D01*
X13798000Y-11687500D02*
X13898000Y-11687500D01*
X13848000Y-11891500D02*
X13848000Y-11991500D01*
X13798000Y-11941500D02*
X13898000Y-11941500D01*
X14223000Y-11383500D02*
X14223000Y-11483500D01*
X14173000Y-11433500D02*
X14273000Y-11433500D01*
X14223000Y-11637500D02*
X14223000Y-11737500D01*
X14173000Y-11687500D02*
X14273000Y-11687500D01*
X14223000Y-11891500D02*
X14223000Y-11991500D01*
X14173000Y-11941500D02*
X14273000Y-11941500D01*
X15623500Y-7644500D02*
X15623500Y-7744500D01*
X15573500Y-7694500D02*
X15673500Y-7694500D01*
X15623500Y-7898500D02*
X15623500Y-7998500D01*
X15573500Y-7948500D02*
X15673500Y-7948500D01*
X15623500Y-8152500D02*
X15623500Y-8252500D01*
X15573500Y-8202500D02*
X15673500Y-8202500D01*
X15877500Y-7644500D02*
X15877500Y-7744500D01*
X15827500Y-7694500D02*
X15927500Y-7694500D01*
X15877500Y-7898500D02*
X15877500Y-7998500D01*
X15827500Y-7948500D02*
X15927500Y-7948500D01*
X15877500Y-8152500D02*
X15877500Y-8252500D01*
X15827500Y-8202500D02*
X15927500Y-8202500D01*
X16400000Y-8320000D02*
X16400000Y-8420000D01*
X16350000Y-8370000D02*
X16450000Y-8370000D01*
X16400000Y-8574000D02*
X16400000Y-8674000D01*
X16350000Y-8624000D02*
X16450000Y-8624000D01*
X16400000Y-8828000D02*
X16400000Y-8928000D01*
X16350000Y-8878000D02*
X16450000Y-8878000D01*
X16690000Y-10813500D02*
X16690000Y-10913500D01*
X16640000Y-10863500D02*
X16740000Y-10863500D01*
X16690000Y-11067500D02*
X16690000Y-11167500D01*
X16640000Y-11117500D02*
X16740000Y-11117500D01*
X16776558Y-8569164D02*
X16776558Y-8669164D01*
X16726558Y-8619164D02*
X16826558Y-8619164D01*
X16776558Y-8823164D02*
X16776558Y-8923164D01*
X16726558Y-8873164D02*
X16826558Y-8873164D01*
D15*
X11838389Y-7838389D02*
X11838389Y-7661611D01*
X11661611Y-7661611D01*
X11661611Y-7838389D01*
X11838389Y-7838389D01*
X11838389Y-12338389D02*
X11838389Y-12161611D01*
X11661611Y-12161611D01*
X11661611Y-12338389D01*
X11838389Y-12338389D01*
X17088389Y-7838389D02*
X17088389Y-7661611D01*
X16911611Y-7661611D01*
X16911611Y-7838389D01*
X17088389Y-7838389D01*
X17088389Y-12338389D02*
X17088389Y-12161611D01*
X16911611Y-12161611D01*
X16911611Y-12338389D01*
X17088389Y-12338389D01*
D11*
X11502619Y-13065476D02*
X11502619Y-12865476D01*
X11550238Y-12865476D01*
X11578809Y-12875000D01*
X11597857Y-12894048D01*
X11607381Y-12913095D01*
X11616905Y-12951190D01*
X11616905Y-12979762D01*
X11607381Y-13017857D01*
X11597857Y-13036905D01*
X11578809Y-13055952D01*
X11550238Y-13065476D01*
X11502619Y-13065476D01*
X11702619Y-13065476D02*
X11702619Y-12932143D01*
X11702619Y-12970238D02*
X11712143Y-12951190D01*
X11721667Y-12941667D01*
X11740714Y-12932143D01*
X11759762Y-12932143D01*
X11826428Y-13065476D02*
X11826428Y-12932143D01*
X11826428Y-12865476D02*
X11816905Y-12875000D01*
X11826428Y-12884524D01*
X11835952Y-12875000D01*
X11826428Y-12865476D01*
X11826428Y-12884524D01*
X11950238Y-13065476D02*
X11931190Y-13055952D01*
X11921667Y-13036905D01*
X11921667Y-12865476D01*
X12055000Y-13065476D02*
X12035952Y-13055952D01*
X12026428Y-13036905D01*
X12026428Y-12865476D01*
X12283571Y-13065476D02*
X12283571Y-12865476D01*
X12350238Y-13008333D01*
X12416905Y-12865476D01*
X12416905Y-13065476D01*
X12597857Y-13065476D02*
X12597857Y-12960714D01*
X12588333Y-12941667D01*
X12569286Y-12932143D01*
X12531190Y-12932143D01*
X12512143Y-12941667D01*
X12597857Y-13055952D02*
X12578809Y-13065476D01*
X12531190Y-13065476D01*
X12512143Y-13055952D01*
X12502619Y-13036905D01*
X12502619Y-13017857D01*
X12512143Y-12998809D01*
X12531190Y-12989286D01*
X12578809Y-12989286D01*
X12597857Y-12979762D01*
X12693095Y-12932143D02*
X12693095Y-13132143D01*
X12693095Y-12941667D02*
X12712143Y-12932143D01*
X12750238Y-12932143D01*
X12769286Y-12941667D01*
X12778809Y-12951190D01*
X12788333Y-12970238D01*
X12788333Y-13027381D01*
X12778809Y-13046428D01*
X12769286Y-13055952D01*
X12750238Y-13065476D01*
X12712143Y-13065476D01*
X12693095Y-13055952D01*
X12874048Y-13046428D02*
X12883571Y-13055952D01*
X12874048Y-13065476D01*
X12864524Y-13055952D01*
X12874048Y-13046428D01*
X12874048Y-13065476D01*
X12874048Y-12941667D02*
X12883571Y-12951190D01*
X12874048Y-12960714D01*
X12864524Y-12951190D01*
X12874048Y-12941667D01*
X12874048Y-12960714D01*
D12*
X11205000Y-13375000D02*
X11245000Y-13415000D01*
X11245000Y-13375000D02*
X11205000Y-13415000D01*
D11*
X11540714Y-13285476D02*
X11559762Y-13285476D01*
X11578809Y-13295000D01*
X11588333Y-13304524D01*
X11597857Y-13323571D01*
X11607381Y-13361667D01*
X11607381Y-13409286D01*
X11597857Y-13447381D01*
X11588333Y-13466428D01*
X11578809Y-13475952D01*
X11559762Y-13485476D01*
X11540714Y-13485476D01*
X11521667Y-13475952D01*
X11512143Y-13466428D01*
X11502619Y-13447381D01*
X11493095Y-13409286D01*
X11493095Y-13361667D01*
X11502619Y-13323571D01*
X11512143Y-13304524D01*
X11521667Y-13295000D01*
X11540714Y-13285476D01*
X11693095Y-13466428D02*
X11702619Y-13475952D01*
X11693095Y-13485476D01*
X11683571Y-13475952D01*
X11693095Y-13466428D01*
X11693095Y-13485476D01*
X11874048Y-13352143D02*
X11874048Y-13485476D01*
X11826428Y-13275952D02*
X11778809Y-13418809D01*
X11902619Y-13418809D01*
X12016905Y-13285476D02*
X12035952Y-13285476D01*
X12055000Y-13295000D01*
X12064524Y-13304524D01*
X12074048Y-13323571D01*
X12083571Y-13361667D01*
X12083571Y-13409286D01*
X12074048Y-13447381D01*
X12064524Y-13466428D01*
X12055000Y-13475952D01*
X12035952Y-13485476D01*
X12016905Y-13485476D01*
X11997857Y-13475952D01*
X11988333Y-13466428D01*
X11978809Y-13447381D01*
X11969286Y-13409286D01*
X11969286Y-13361667D01*
X11978809Y-13323571D01*
X11988333Y-13304524D01*
X11997857Y-13295000D01*
X12016905Y-13285476D01*
X12207381Y-13285476D02*
X12226428Y-13285476D01*
X12245476Y-13295000D01*
X12255000Y-13304524D01*
X12264524Y-13323571D01*
X12274048Y-13361667D01*
X12274048Y-13409286D01*
X12264524Y-13447381D01*
X12255000Y-13466428D01*
X12245476Y-13475952D01*
X12226428Y-13485476D01*
X12207381Y-13485476D01*
X12188333Y-13475952D01*
X12178809Y-13466428D01*
X12169286Y-13447381D01*
X12159762Y-13409286D01*
X12159762Y-13361667D01*
X12169286Y-13323571D01*
X12178809Y-13304524D01*
X12188333Y-13295000D01*
X12207381Y-13285476D01*
X12359762Y-13485476D02*
X12359762Y-13352143D01*
X12359762Y-13371190D02*
X12369286Y-13361667D01*
X12388333Y-13352143D01*
X12416905Y-13352143D01*
X12435952Y-13361667D01*
X12445476Y-13380714D01*
X12445476Y-13485476D01*
X12445476Y-13380714D02*
X12455000Y-13361667D01*
X12474048Y-13352143D01*
X12502619Y-13352143D01*
X12521667Y-13361667D01*
X12531190Y-13380714D01*
X12531190Y-13485476D01*
X12626428Y-13485476D02*
X12626428Y-13352143D01*
X12626428Y-13371190D02*
X12635952Y-13361667D01*
X12655000Y-13352143D01*
X12683571Y-13352143D01*
X12702619Y-13361667D01*
X12712143Y-13380714D01*
X12712143Y-13485476D01*
X12712143Y-13380714D02*
X12721667Y-13361667D01*
X12740714Y-13352143D01*
X12769286Y-13352143D01*
X12788333Y-13361667D01*
X12797857Y-13380714D01*
X12797857Y-13485476D01*
X13188333Y-13275952D02*
X13016905Y-13533095D01*
X13445476Y-13285476D02*
X13464524Y-13285476D01*
X13483571Y-13295000D01*
X13493095Y-13304524D01*
X13502619Y-13323571D01*
X13512143Y-13361667D01*
X13512143Y-13409286D01*
X13502619Y-13447381D01*
X13493095Y-13466428D01*
X13483571Y-13475952D01*
X13464524Y-13485476D01*
X13445476Y-13485476D01*
X13426428Y-13475952D01*
X13416905Y-13466428D01*
X13407381Y-13447381D01*
X13397857Y-13409286D01*
X13397857Y-13361667D01*
X13407381Y-13323571D01*
X13416905Y-13304524D01*
X13426428Y-13295000D01*
X13445476Y-13285476D01*
X13597857Y-13466428D02*
X13607381Y-13475952D01*
X13597857Y-13485476D01*
X13588333Y-13475952D01*
X13597857Y-13466428D01*
X13597857Y-13485476D01*
X13731190Y-13285476D02*
X13750238Y-13285476D01*
X13769286Y-13295000D01*
X13778809Y-13304524D01*
X13788333Y-13323571D01*
X13797857Y-13361667D01*
X13797857Y-13409286D01*
X13788333Y-13447381D01*
X13778809Y-13466428D01*
X13769286Y-13475952D01*
X13750238Y-13485476D01*
X13731190Y-13485476D01*
X13712143Y-13475952D01*
X13702619Y-13466428D01*
X13693095Y-13447381D01*
X13683571Y-13409286D01*
X13683571Y-13361667D01*
X13693095Y-13323571D01*
X13702619Y-13304524D01*
X13712143Y-13295000D01*
X13731190Y-13285476D01*
X13988333Y-13485476D02*
X13874048Y-13485476D01*
X13931190Y-13485476D02*
X13931190Y-13285476D01*
X13912143Y-13314048D01*
X13893095Y-13333095D01*
X13874048Y-13342619D01*
X14169286Y-13285476D02*
X14074048Y-13285476D01*
X14064524Y-13380714D01*
X14074048Y-13371190D01*
X14093095Y-13361667D01*
X14140714Y-13361667D01*
X14159762Y-13371190D01*
X14169286Y-13380714D01*
X14178809Y-13399762D01*
X14178809Y-13447381D01*
X14169286Y-13466428D01*
X14159762Y-13475952D01*
X14140714Y-13485476D01*
X14093095Y-13485476D01*
X14074048Y-13475952D01*
X14064524Y-13466428D01*
X14245476Y-13285476D02*
X14378809Y-13285476D01*
X14293095Y-13485476D01*
X14445476Y-13285476D02*
X14445476Y-13323571D01*
X14521667Y-13285476D02*
X14521667Y-13323571D01*
X14816905Y-13561667D02*
X14807381Y-13552143D01*
X14788333Y-13523571D01*
X14778809Y-13504524D01*
X14769286Y-13475952D01*
X14759762Y-13428333D01*
X14759762Y-13390238D01*
X14769286Y-13342619D01*
X14778809Y-13314048D01*
X14788333Y-13295000D01*
X14807381Y-13266428D01*
X14816905Y-13256905D01*
X14988333Y-13285476D02*
X14893095Y-13285476D01*
X14883571Y-13380714D01*
X14893095Y-13371190D01*
X14912143Y-13361667D01*
X14959762Y-13361667D01*
X14978809Y-13371190D01*
X14988333Y-13380714D01*
X14997857Y-13399762D01*
X14997857Y-13447381D01*
X14988333Y-13466428D01*
X14978809Y-13475952D01*
X14959762Y-13485476D01*
X14912143Y-13485476D01*
X14893095Y-13475952D01*
X14883571Y-13466428D01*
X15093095Y-13485476D02*
X15131190Y-13485476D01*
X15150238Y-13475952D01*
X15159762Y-13466428D01*
X15178809Y-13437857D01*
X15188333Y-13399762D01*
X15188333Y-13323571D01*
X15178809Y-13304524D01*
X15169286Y-13295000D01*
X15150238Y-13285476D01*
X15112143Y-13285476D01*
X15093095Y-13295000D01*
X15083571Y-13304524D01*
X15074048Y-13323571D01*
X15074048Y-13371190D01*
X15083571Y-13390238D01*
X15093095Y-13399762D01*
X15112143Y-13409286D01*
X15150238Y-13409286D01*
X15169286Y-13399762D01*
X15178809Y-13390238D01*
X15188333Y-13371190D01*
X15426428Y-13485476D02*
X15426428Y-13285476D01*
X15512143Y-13485476D02*
X15512143Y-13380714D01*
X15502619Y-13361667D01*
X15483571Y-13352143D01*
X15455000Y-13352143D01*
X15435952Y-13361667D01*
X15426428Y-13371190D01*
X15635952Y-13485476D02*
X15616905Y-13475952D01*
X15607381Y-13466428D01*
X15597857Y-13447381D01*
X15597857Y-13390238D01*
X15607381Y-13371190D01*
X15616905Y-13361667D01*
X15635952Y-13352143D01*
X15664524Y-13352143D01*
X15683571Y-13361667D01*
X15693095Y-13371190D01*
X15702619Y-13390238D01*
X15702619Y-13447381D01*
X15693095Y-13466428D01*
X15683571Y-13475952D01*
X15664524Y-13485476D01*
X15635952Y-13485476D01*
X15816905Y-13485476D02*
X15797857Y-13475952D01*
X15788333Y-13456905D01*
X15788333Y-13285476D01*
X15969286Y-13475952D02*
X15950238Y-13485476D01*
X15912143Y-13485476D01*
X15893095Y-13475952D01*
X15883571Y-13456905D01*
X15883571Y-13380714D01*
X15893095Y-13361667D01*
X15912143Y-13352143D01*
X15950238Y-13352143D01*
X15969286Y-13361667D01*
X15978809Y-13380714D01*
X15978809Y-13399762D01*
X15883571Y-13418809D01*
X16055000Y-13475952D02*
X16074048Y-13485476D01*
X16112143Y-13485476D01*
X16131190Y-13475952D01*
X16140714Y-13456905D01*
X16140714Y-13447381D01*
X16131190Y-13428333D01*
X16112143Y-13418809D01*
X16083571Y-13418809D01*
X16064524Y-13409286D01*
X16055000Y-13390238D01*
X16055000Y-13380714D01*
X16064524Y-13361667D01*
X16083571Y-13352143D01*
X16112143Y-13352143D01*
X16131190Y-13361667D01*
X16207381Y-13561667D02*
X16216905Y-13552143D01*
X16235952Y-13523571D01*
X16245476Y-13504524D01*
X16255000Y-13475952D01*
X16264524Y-13428333D01*
X16264524Y-13390238D01*
X16255000Y-13342619D01*
X16245476Y-13314048D01*
X16235952Y-13295000D01*
X16216905Y-13266428D01*
X16207381Y-13256905D01*
D13*
X11245000Y-13659000D02*
G75*
G03*
X11245000Y-13659000I-45000J0D01*
G01*
D11*
X11540714Y-13549476D02*
X11559762Y-13549476D01*
X11578809Y-13559000D01*
X11588333Y-13568524D01*
X11597857Y-13587571D01*
X11607381Y-13625667D01*
X11607381Y-13673286D01*
X11597857Y-13711381D01*
X11588333Y-13730428D01*
X11578809Y-13739952D01*
X11559762Y-13749476D01*
X11540714Y-13749476D01*
X11521667Y-13739952D01*
X11512143Y-13730428D01*
X11502619Y-13711381D01*
X11493095Y-13673286D01*
X11493095Y-13625667D01*
X11502619Y-13587571D01*
X11512143Y-13568524D01*
X11521667Y-13559000D01*
X11540714Y-13549476D01*
X11693095Y-13730428D02*
X11702619Y-13739952D01*
X11693095Y-13749476D01*
X11683571Y-13739952D01*
X11693095Y-13730428D01*
X11693095Y-13749476D01*
X11797857Y-13749476D02*
X11835952Y-13749476D01*
X11855000Y-13739952D01*
X11864524Y-13730428D01*
X11883571Y-13701857D01*
X11893095Y-13663762D01*
X11893095Y-13587571D01*
X11883571Y-13568524D01*
X11874048Y-13559000D01*
X11855000Y-13549476D01*
X11816905Y-13549476D01*
X11797857Y-13559000D01*
X11788333Y-13568524D01*
X11778809Y-13587571D01*
X11778809Y-13635190D01*
X11788333Y-13654238D01*
X11797857Y-13663762D01*
X11816905Y-13673286D01*
X11855000Y-13673286D01*
X11874048Y-13663762D01*
X11883571Y-13654238D01*
X11893095Y-13635190D01*
X12016905Y-13549476D02*
X12035952Y-13549476D01*
X12055000Y-13559000D01*
X12064524Y-13568524D01*
X12074048Y-13587571D01*
X12083571Y-13625667D01*
X12083571Y-13673286D01*
X12074048Y-13711381D01*
X12064524Y-13730428D01*
X12055000Y-13739952D01*
X12035952Y-13749476D01*
X12016905Y-13749476D01*
X11997857Y-13739952D01*
X11988333Y-13730428D01*
X11978809Y-13711381D01*
X11969286Y-13673286D01*
X11969286Y-13625667D01*
X11978809Y-13587571D01*
X11988333Y-13568524D01*
X11997857Y-13559000D01*
X12016905Y-13549476D01*
X12207381Y-13549476D02*
X12226428Y-13549476D01*
X12245476Y-13559000D01*
X12255000Y-13568524D01*
X12264524Y-13587571D01*
X12274048Y-13625667D01*
X12274048Y-13673286D01*
X12264524Y-13711381D01*
X12255000Y-13730428D01*
X12245476Y-13739952D01*
X12226428Y-13749476D01*
X12207381Y-13749476D01*
X12188333Y-13739952D01*
X12178809Y-13730428D01*
X12169286Y-13711381D01*
X12159762Y-13673286D01*
X12159762Y-13625667D01*
X12169286Y-13587571D01*
X12178809Y-13568524D01*
X12188333Y-13559000D01*
X12207381Y-13549476D01*
X12359762Y-13749476D02*
X12359762Y-13616143D01*
X12359762Y-13635190D02*
X12369286Y-13625667D01*
X12388333Y-13616143D01*
X12416905Y-13616143D01*
X12435952Y-13625667D01*
X12445476Y-13644714D01*
X12445476Y-13749476D01*
X12445476Y-13644714D02*
X12455000Y-13625667D01*
X12474048Y-13616143D01*
X12502619Y-13616143D01*
X12521667Y-13625667D01*
X12531190Y-13644714D01*
X12531190Y-13749476D01*
X12626428Y-13749476D02*
X12626428Y-13616143D01*
X12626428Y-13635190D02*
X12635952Y-13625667D01*
X12655000Y-13616143D01*
X12683571Y-13616143D01*
X12702619Y-13625667D01*
X12712143Y-13644714D01*
X12712143Y-13749476D01*
X12712143Y-13644714D02*
X12721667Y-13625667D01*
X12740714Y-13616143D01*
X12769286Y-13616143D01*
X12788333Y-13625667D01*
X12797857Y-13644714D01*
X12797857Y-13749476D01*
X13188333Y-13539952D02*
X13016905Y-13797095D01*
X13445476Y-13549476D02*
X13464524Y-13549476D01*
X13483571Y-13559000D01*
X13493095Y-13568524D01*
X13502619Y-13587571D01*
X13512143Y-13625667D01*
X13512143Y-13673286D01*
X13502619Y-13711381D01*
X13493095Y-13730428D01*
X13483571Y-13739952D01*
X13464524Y-13749476D01*
X13445476Y-13749476D01*
X13426428Y-13739952D01*
X13416905Y-13730428D01*
X13407381Y-13711381D01*
X13397857Y-13673286D01*
X13397857Y-13625667D01*
X13407381Y-13587571D01*
X13416905Y-13568524D01*
X13426428Y-13559000D01*
X13445476Y-13549476D01*
X13597857Y-13730428D02*
X13607381Y-13739952D01*
X13597857Y-13749476D01*
X13588333Y-13739952D01*
X13597857Y-13730428D01*
X13597857Y-13749476D01*
X13731190Y-13549476D02*
X13750238Y-13549476D01*
X13769286Y-13559000D01*
X13778809Y-13568524D01*
X13788333Y-13587571D01*
X13797857Y-13625667D01*
X13797857Y-13673286D01*
X13788333Y-13711381D01*
X13778809Y-13730428D01*
X13769286Y-13739952D01*
X13750238Y-13749476D01*
X13731190Y-13749476D01*
X13712143Y-13739952D01*
X13702619Y-13730428D01*
X13693095Y-13711381D01*
X13683571Y-13673286D01*
X13683571Y-13625667D01*
X13693095Y-13587571D01*
X13702619Y-13568524D01*
X13712143Y-13559000D01*
X13731190Y-13549476D01*
X13864524Y-13549476D02*
X13988333Y-13549476D01*
X13921667Y-13625667D01*
X13950238Y-13625667D01*
X13969286Y-13635190D01*
X13978809Y-13644714D01*
X13988333Y-13663762D01*
X13988333Y-13711381D01*
X13978809Y-13730428D01*
X13969286Y-13739952D01*
X13950238Y-13749476D01*
X13893095Y-13749476D01*
X13874048Y-13739952D01*
X13864524Y-13730428D01*
X14169286Y-13549476D02*
X14074048Y-13549476D01*
X14064524Y-13644714D01*
X14074048Y-13635190D01*
X14093095Y-13625667D01*
X14140714Y-13625667D01*
X14159762Y-13635190D01*
X14169286Y-13644714D01*
X14178809Y-13663762D01*
X14178809Y-13711381D01*
X14169286Y-13730428D01*
X14159762Y-13739952D01*
X14140714Y-13749476D01*
X14093095Y-13749476D01*
X14074048Y-13739952D01*
X14064524Y-13730428D01*
X14350238Y-13616143D02*
X14350238Y-13749476D01*
X14302619Y-13539952D02*
X14255000Y-13682809D01*
X14378809Y-13682809D01*
X14445476Y-13549476D02*
X14445476Y-13587571D01*
X14521667Y-13549476D02*
X14521667Y-13587571D01*
X14816905Y-13825667D02*
X14807381Y-13816143D01*
X14788333Y-13787571D01*
X14778809Y-13768524D01*
X14769286Y-13739952D01*
X14759762Y-13692333D01*
X14759762Y-13654238D01*
X14769286Y-13606619D01*
X14778809Y-13578048D01*
X14788333Y-13559000D01*
X14807381Y-13530428D01*
X14816905Y-13520905D01*
X14978809Y-13549476D02*
X14940714Y-13549476D01*
X14921667Y-13559000D01*
X14912143Y-13568524D01*
X14893095Y-13597095D01*
X14883571Y-13635190D01*
X14883571Y-13711381D01*
X14893095Y-13730428D01*
X14902619Y-13739952D01*
X14921667Y-13749476D01*
X14959762Y-13749476D01*
X14978809Y-13739952D01*
X14988333Y-13730428D01*
X14997857Y-13711381D01*
X14997857Y-13663762D01*
X14988333Y-13644714D01*
X14978809Y-13635190D01*
X14959762Y-13625667D01*
X14921667Y-13625667D01*
X14902619Y-13635190D01*
X14893095Y-13644714D01*
X14883571Y-13663762D01*
X15235952Y-13749476D02*
X15235952Y-13549476D01*
X15321667Y-13749476D02*
X15321667Y-13644714D01*
X15312143Y-13625667D01*
X15293095Y-13616143D01*
X15264524Y-13616143D01*
X15245476Y-13625667D01*
X15235952Y-13635190D01*
X15445476Y-13749476D02*
X15426428Y-13739952D01*
X15416905Y-13730428D01*
X15407381Y-13711381D01*
X15407381Y-13654238D01*
X15416905Y-13635190D01*
X15426428Y-13625667D01*
X15445476Y-13616143D01*
X15474048Y-13616143D01*
X15493095Y-13625667D01*
X15502619Y-13635190D01*
X15512143Y-13654238D01*
X15512143Y-13711381D01*
X15502619Y-13730428D01*
X15493095Y-13739952D01*
X15474048Y-13749476D01*
X15445476Y-13749476D01*
X15626428Y-13749476D02*
X15607381Y-13739952D01*
X15597857Y-13720905D01*
X15597857Y-13549476D01*
X15778809Y-13739952D02*
X15759762Y-13749476D01*
X15721667Y-13749476D01*
X15702619Y-13739952D01*
X15693095Y-13720905D01*
X15693095Y-13644714D01*
X15702619Y-13625667D01*
X15721667Y-13616143D01*
X15759762Y-13616143D01*
X15778809Y-13625667D01*
X15788333Y-13644714D01*
X15788333Y-13663762D01*
X15693095Y-13682809D01*
X15864524Y-13739952D02*
X15883571Y-13749476D01*
X15921667Y-13749476D01*
X15940714Y-13739952D01*
X15950238Y-13720905D01*
X15950238Y-13711381D01*
X15940714Y-13692333D01*
X15921667Y-13682809D01*
X15893095Y-13682809D01*
X15874048Y-13673286D01*
X15864524Y-13654238D01*
X15864524Y-13644714D01*
X15874048Y-13625667D01*
X15893095Y-13616143D01*
X15921667Y-13616143D01*
X15940714Y-13625667D01*
X16016905Y-13825667D02*
X16026428Y-13816143D01*
X16045476Y-13787571D01*
X16055000Y-13768524D01*
X16064524Y-13739952D01*
X16074048Y-13692333D01*
X16074048Y-13654238D01*
X16064524Y-13606619D01*
X16055000Y-13578048D01*
X16045476Y-13559000D01*
X16026428Y-13530428D01*
X16016905Y-13520905D01*
D14*
X11195000Y-13873000D02*
X11195000Y-13973000D01*
X11145000Y-13923000D02*
X11245000Y-13923000D01*
D11*
X11607381Y-14013476D02*
X11493095Y-14013476D01*
X11550238Y-14013476D02*
X11550238Y-13813476D01*
X11531190Y-13842048D01*
X11512143Y-13861095D01*
X11493095Y-13870619D01*
X11693095Y-13994428D02*
X11702619Y-14003952D01*
X11693095Y-14013476D01*
X11683571Y-14003952D01*
X11693095Y-13994428D01*
X11693095Y-14013476D01*
X11826428Y-13813476D02*
X11845476Y-13813476D01*
X11864524Y-13823000D01*
X11874048Y-13832524D01*
X11883571Y-13851571D01*
X11893095Y-13889667D01*
X11893095Y-13937286D01*
X11883571Y-13975381D01*
X11874048Y-13994428D01*
X11864524Y-14003952D01*
X11845476Y-14013476D01*
X11826428Y-14013476D01*
X11807381Y-14003952D01*
X11797857Y-13994428D01*
X11788333Y-13975381D01*
X11778809Y-13937286D01*
X11778809Y-13889667D01*
X11788333Y-13851571D01*
X11797857Y-13832524D01*
X11807381Y-13823000D01*
X11826428Y-13813476D01*
X12016905Y-13813476D02*
X12035952Y-13813476D01*
X12055000Y-13823000D01*
X12064524Y-13832524D01*
X12074048Y-13851571D01*
X12083571Y-13889667D01*
X12083571Y-13937286D01*
X12074048Y-13975381D01*
X12064524Y-13994428D01*
X12055000Y-14003952D01*
X12035952Y-14013476D01*
X12016905Y-14013476D01*
X11997857Y-14003952D01*
X11988333Y-13994428D01*
X11978809Y-13975381D01*
X11969286Y-13937286D01*
X11969286Y-13889667D01*
X11978809Y-13851571D01*
X11988333Y-13832524D01*
X11997857Y-13823000D01*
X12016905Y-13813476D01*
X12207381Y-13813476D02*
X12226428Y-13813476D01*
X12245476Y-13823000D01*
X12255000Y-13832524D01*
X12264524Y-13851571D01*
X12274048Y-13889667D01*
X12274048Y-13937286D01*
X12264524Y-13975381D01*
X12255000Y-13994428D01*
X12245476Y-14003952D01*
X12226428Y-14013476D01*
X12207381Y-14013476D01*
X12188333Y-14003952D01*
X12178809Y-13994428D01*
X12169286Y-13975381D01*
X12159762Y-13937286D01*
X12159762Y-13889667D01*
X12169286Y-13851571D01*
X12178809Y-13832524D01*
X12188333Y-13823000D01*
X12207381Y-13813476D01*
X12359762Y-14013476D02*
X12359762Y-13880143D01*
X12359762Y-13899190D02*
X12369286Y-13889667D01*
X12388333Y-13880143D01*
X12416905Y-13880143D01*
X12435952Y-13889667D01*
X12445476Y-13908714D01*
X12445476Y-14013476D01*
X12445476Y-13908714D02*
X12455000Y-13889667D01*
X12474048Y-13880143D01*
X12502619Y-13880143D01*
X12521667Y-13889667D01*
X12531190Y-13908714D01*
X12531190Y-14013476D01*
X12626428Y-14013476D02*
X12626428Y-13880143D01*
X12626428Y-13899190D02*
X12635952Y-13889667D01*
X12655000Y-13880143D01*
X12683571Y-13880143D01*
X12702619Y-13889667D01*
X12712143Y-13908714D01*
X12712143Y-14013476D01*
X12712143Y-13908714D02*
X12721667Y-13889667D01*
X12740714Y-13880143D01*
X12769286Y-13880143D01*
X12788333Y-13889667D01*
X12797857Y-13908714D01*
X12797857Y-14013476D01*
X13188333Y-13803952D02*
X13016905Y-14061095D01*
X13445476Y-13813476D02*
X13464524Y-13813476D01*
X13483571Y-13823000D01*
X13493095Y-13832524D01*
X13502619Y-13851571D01*
X13512143Y-13889667D01*
X13512143Y-13937286D01*
X13502619Y-13975381D01*
X13493095Y-13994428D01*
X13483571Y-14003952D01*
X13464524Y-14013476D01*
X13445476Y-14013476D01*
X13426428Y-14003952D01*
X13416905Y-13994428D01*
X13407381Y-13975381D01*
X13397857Y-13937286D01*
X13397857Y-13889667D01*
X13407381Y-13851571D01*
X13416905Y-13832524D01*
X13426428Y-13823000D01*
X13445476Y-13813476D01*
X13597857Y-13994428D02*
X13607381Y-14003952D01*
X13597857Y-14013476D01*
X13588333Y-14003952D01*
X13597857Y-13994428D01*
X13597857Y-14013476D01*
X13731190Y-13813476D02*
X13750238Y-13813476D01*
X13769286Y-13823000D01*
X13778809Y-13832524D01*
X13788333Y-13851571D01*
X13797857Y-13889667D01*
X13797857Y-13937286D01*
X13788333Y-13975381D01*
X13778809Y-13994428D01*
X13769286Y-14003952D01*
X13750238Y-14013476D01*
X13731190Y-14013476D01*
X13712143Y-14003952D01*
X13702619Y-13994428D01*
X13693095Y-13975381D01*
X13683571Y-13937286D01*
X13683571Y-13889667D01*
X13693095Y-13851571D01*
X13702619Y-13832524D01*
X13712143Y-13823000D01*
X13731190Y-13813476D01*
X13864524Y-13813476D02*
X13988333Y-13813476D01*
X13921667Y-13889667D01*
X13950238Y-13889667D01*
X13969286Y-13899190D01*
X13978809Y-13908714D01*
X13988333Y-13927762D01*
X13988333Y-13975381D01*
X13978809Y-13994428D01*
X13969286Y-14003952D01*
X13950238Y-14013476D01*
X13893095Y-14013476D01*
X13874048Y-14003952D01*
X13864524Y-13994428D01*
X14083571Y-14013476D02*
X14121667Y-14013476D01*
X14140714Y-14003952D01*
X14150238Y-13994428D01*
X14169286Y-13965857D01*
X14178809Y-13927762D01*
X14178809Y-13851571D01*
X14169286Y-13832524D01*
X14159762Y-13823000D01*
X14140714Y-13813476D01*
X14102619Y-13813476D01*
X14083571Y-13823000D01*
X14074048Y-13832524D01*
X14064524Y-13851571D01*
X14064524Y-13899190D01*
X14074048Y-13918238D01*
X14083571Y-13927762D01*
X14102619Y-13937286D01*
X14140714Y-13937286D01*
X14159762Y-13927762D01*
X14169286Y-13918238D01*
X14178809Y-13899190D01*
X14350238Y-13880143D02*
X14350238Y-14013476D01*
X14302619Y-13803952D02*
X14255000Y-13946809D01*
X14378809Y-13946809D01*
X14445476Y-13813476D02*
X14445476Y-13851571D01*
X14521667Y-13813476D02*
X14521667Y-13851571D01*
X14816905Y-14089667D02*
X14807381Y-14080143D01*
X14788333Y-14051571D01*
X14778809Y-14032524D01*
X14769286Y-14003952D01*
X14759762Y-13956333D01*
X14759762Y-13918238D01*
X14769286Y-13870619D01*
X14778809Y-13842048D01*
X14788333Y-13823000D01*
X14807381Y-13794428D01*
X14816905Y-13784905D01*
X14874048Y-13813476D02*
X14997857Y-13813476D01*
X14931190Y-13889667D01*
X14959762Y-13889667D01*
X14978809Y-13899190D01*
X14988333Y-13908714D01*
X14997857Y-13927762D01*
X14997857Y-13975381D01*
X14988333Y-13994428D01*
X14978809Y-14003952D01*
X14959762Y-14013476D01*
X14902619Y-14013476D01*
X14883571Y-14003952D01*
X14874048Y-13994428D01*
X15093095Y-14013476D02*
X15131190Y-14013476D01*
X15150238Y-14003952D01*
X15159762Y-13994428D01*
X15178809Y-13965857D01*
X15188333Y-13927762D01*
X15188333Y-13851571D01*
X15178809Y-13832524D01*
X15169286Y-13823000D01*
X15150238Y-13813476D01*
X15112143Y-13813476D01*
X15093095Y-13823000D01*
X15083571Y-13832524D01*
X15074048Y-13851571D01*
X15074048Y-13899190D01*
X15083571Y-13918238D01*
X15093095Y-13927762D01*
X15112143Y-13937286D01*
X15150238Y-13937286D01*
X15169286Y-13927762D01*
X15178809Y-13918238D01*
X15188333Y-13899190D01*
X15426428Y-14013476D02*
X15426428Y-13813476D01*
X15512143Y-14013476D02*
X15512143Y-13908714D01*
X15502619Y-13889667D01*
X15483571Y-13880143D01*
X15455000Y-13880143D01*
X15435952Y-13889667D01*
X15426428Y-13899190D01*
X15635952Y-14013476D02*
X15616905Y-14003952D01*
X15607381Y-13994428D01*
X15597857Y-13975381D01*
X15597857Y-13918238D01*
X15607381Y-13899190D01*
X15616905Y-13889667D01*
X15635952Y-13880143D01*
X15664524Y-13880143D01*
X15683571Y-13889667D01*
X15693095Y-13899190D01*
X15702619Y-13918238D01*
X15702619Y-13975381D01*
X15693095Y-13994428D01*
X15683571Y-14003952D01*
X15664524Y-14013476D01*
X15635952Y-14013476D01*
X15816905Y-14013476D02*
X15797857Y-14003952D01*
X15788333Y-13984905D01*
X15788333Y-13813476D01*
X15969286Y-14003952D02*
X15950238Y-14013476D01*
X15912143Y-14013476D01*
X15893095Y-14003952D01*
X15883571Y-13984905D01*
X15883571Y-13908714D01*
X15893095Y-13889667D01*
X15912143Y-13880143D01*
X15950238Y-13880143D01*
X15969286Y-13889667D01*
X15978809Y-13908714D01*
X15978809Y-13927762D01*
X15883571Y-13946809D01*
X16055000Y-14003952D02*
X16074048Y-14013476D01*
X16112143Y-14013476D01*
X16131190Y-14003952D01*
X16140714Y-13984905D01*
X16140714Y-13975381D01*
X16131190Y-13956333D01*
X16112143Y-13946809D01*
X16083571Y-13946809D01*
X16064524Y-13937286D01*
X16055000Y-13918238D01*
X16055000Y-13908714D01*
X16064524Y-13889667D01*
X16083571Y-13880143D01*
X16112143Y-13880143D01*
X16131190Y-13889667D01*
X16207381Y-14089667D02*
X16216905Y-14080143D01*
X16235952Y-14051571D01*
X16245476Y-14032524D01*
X16255000Y-14003952D01*
X16264524Y-13956333D01*
X16264524Y-13918238D01*
X16255000Y-13870619D01*
X16245476Y-13842048D01*
X16235952Y-13823000D01*
X16216905Y-13794428D01*
X16207381Y-13784905D01*
X11215711Y-14257711D02*
X11215711Y-14116289D01*
X11074289Y-14116289D01*
X11074289Y-14257711D01*
X11215711Y-14257711D01*
X11493095Y-14096524D02*
X11502619Y-14087000D01*
X11521667Y-14077476D01*
X11569286Y-14077476D01*
X11588333Y-14087000D01*
X11597857Y-14096524D01*
X11607381Y-14115571D01*
X11607381Y-14134619D01*
X11597857Y-14163190D01*
X11483571Y-14277476D01*
X11607381Y-14277476D01*
X11693095Y-14258428D02*
X11702619Y-14267952D01*
X11693095Y-14277476D01*
X11683571Y-14267952D01*
X11693095Y-14258428D01*
X11693095Y-14277476D01*
X11883571Y-14077476D02*
X11788333Y-14077476D01*
X11778809Y-14172714D01*
X11788333Y-14163190D01*
X11807381Y-14153667D01*
X11855000Y-14153667D01*
X11874048Y-14163190D01*
X11883571Y-14172714D01*
X11893095Y-14191762D01*
X11893095Y-14239381D01*
X11883571Y-14258428D01*
X11874048Y-14267952D01*
X11855000Y-14277476D01*
X11807381Y-14277476D01*
X11788333Y-14267952D01*
X11778809Y-14258428D01*
X12016905Y-14077476D02*
X12035952Y-14077476D01*
X12055000Y-14087000D01*
X12064524Y-14096524D01*
X12074048Y-14115571D01*
X12083571Y-14153667D01*
X12083571Y-14201286D01*
X12074048Y-14239381D01*
X12064524Y-14258428D01*
X12055000Y-14267952D01*
X12035952Y-14277476D01*
X12016905Y-14277476D01*
X11997857Y-14267952D01*
X11988333Y-14258428D01*
X11978809Y-14239381D01*
X11969286Y-14201286D01*
X11969286Y-14153667D01*
X11978809Y-14115571D01*
X11988333Y-14096524D01*
X11997857Y-14087000D01*
X12016905Y-14077476D01*
X12207381Y-14077476D02*
X12226428Y-14077476D01*
X12245476Y-14087000D01*
X12255000Y-14096524D01*
X12264524Y-14115571D01*
X12274048Y-14153667D01*
X12274048Y-14201286D01*
X12264524Y-14239381D01*
X12255000Y-14258428D01*
X12245476Y-14267952D01*
X12226428Y-14277476D01*
X12207381Y-14277476D01*
X12188333Y-14267952D01*
X12178809Y-14258428D01*
X12169286Y-14239381D01*
X12159762Y-14201286D01*
X12159762Y-14153667D01*
X12169286Y-14115571D01*
X12178809Y-14096524D01*
X12188333Y-14087000D01*
X12207381Y-14077476D01*
X12359762Y-14277476D02*
X12359762Y-14144143D01*
X12359762Y-14163190D02*
X12369286Y-14153667D01*
X12388333Y-14144143D01*
X12416905Y-14144143D01*
X12435952Y-14153667D01*
X12445476Y-14172714D01*
X12445476Y-14277476D01*
X12445476Y-14172714D02*
X12455000Y-14153667D01*
X12474048Y-14144143D01*
X12502619Y-14144143D01*
X12521667Y-14153667D01*
X12531190Y-14172714D01*
X12531190Y-14277476D01*
X12626428Y-14277476D02*
X12626428Y-14144143D01*
X12626428Y-14163190D02*
X12635952Y-14153667D01*
X12655000Y-14144143D01*
X12683571Y-14144143D01*
X12702619Y-14153667D01*
X12712143Y-14172714D01*
X12712143Y-14277476D01*
X12712143Y-14172714D02*
X12721667Y-14153667D01*
X12740714Y-14144143D01*
X12769286Y-14144143D01*
X12788333Y-14153667D01*
X12797857Y-14172714D01*
X12797857Y-14277476D01*
X13188333Y-14067952D02*
X13016905Y-14325095D01*
X13445476Y-14077476D02*
X13464524Y-14077476D01*
X13483571Y-14087000D01*
X13493095Y-14096524D01*
X13502619Y-14115571D01*
X13512143Y-14153667D01*
X13512143Y-14201286D01*
X13502619Y-14239381D01*
X13493095Y-14258428D01*
X13483571Y-14267952D01*
X13464524Y-14277476D01*
X13445476Y-14277476D01*
X13426428Y-14267952D01*
X13416905Y-14258428D01*
X13407381Y-14239381D01*
X13397857Y-14201286D01*
X13397857Y-14153667D01*
X13407381Y-14115571D01*
X13416905Y-14096524D01*
X13426428Y-14087000D01*
X13445476Y-14077476D01*
X13597857Y-14258428D02*
X13607381Y-14267952D01*
X13597857Y-14277476D01*
X13588333Y-14267952D01*
X13597857Y-14258428D01*
X13597857Y-14277476D01*
X13731190Y-14077476D02*
X13750238Y-14077476D01*
X13769286Y-14087000D01*
X13778809Y-14096524D01*
X13788333Y-14115571D01*
X13797857Y-14153667D01*
X13797857Y-14201286D01*
X13788333Y-14239381D01*
X13778809Y-14258428D01*
X13769286Y-14267952D01*
X13750238Y-14277476D01*
X13731190Y-14277476D01*
X13712143Y-14267952D01*
X13702619Y-14258428D01*
X13693095Y-14239381D01*
X13683571Y-14201286D01*
X13683571Y-14153667D01*
X13693095Y-14115571D01*
X13702619Y-14096524D01*
X13712143Y-14087000D01*
X13731190Y-14077476D01*
X13893095Y-14277476D02*
X13931190Y-14277476D01*
X13950238Y-14267952D01*
X13959762Y-14258428D01*
X13978809Y-14229857D01*
X13988333Y-14191762D01*
X13988333Y-14115571D01*
X13978809Y-14096524D01*
X13969286Y-14087000D01*
X13950238Y-14077476D01*
X13912143Y-14077476D01*
X13893095Y-14087000D01*
X13883571Y-14096524D01*
X13874048Y-14115571D01*
X13874048Y-14163190D01*
X13883571Y-14182238D01*
X13893095Y-14191762D01*
X13912143Y-14201286D01*
X13950238Y-14201286D01*
X13969286Y-14191762D01*
X13978809Y-14182238D01*
X13988333Y-14163190D01*
X14102619Y-14163190D02*
X14083571Y-14153667D01*
X14074048Y-14144143D01*
X14064524Y-14125095D01*
X14064524Y-14115571D01*
X14074048Y-14096524D01*
X14083571Y-14087000D01*
X14102619Y-14077476D01*
X14140714Y-14077476D01*
X14159762Y-14087000D01*
X14169286Y-14096524D01*
X14178809Y-14115571D01*
X14178809Y-14125095D01*
X14169286Y-14144143D01*
X14159762Y-14153667D01*
X14140714Y-14163190D01*
X14102619Y-14163190D01*
X14083571Y-14172714D01*
X14074048Y-14182238D01*
X14064524Y-14201286D01*
X14064524Y-14239381D01*
X14074048Y-14258428D01*
X14083571Y-14267952D01*
X14102619Y-14277476D01*
X14140714Y-14277476D01*
X14159762Y-14267952D01*
X14169286Y-14258428D01*
X14178809Y-14239381D01*
X14178809Y-14201286D01*
X14169286Y-14182238D01*
X14159762Y-14172714D01*
X14140714Y-14163190D01*
X14350238Y-14144143D02*
X14350238Y-14277476D01*
X14302619Y-14067952D02*
X14255000Y-14210809D01*
X14378809Y-14210809D01*
X14445476Y-14077476D02*
X14445476Y-14115571D01*
X14521667Y-14077476D02*
X14521667Y-14115571D01*
X14816905Y-14353667D02*
X14807381Y-14344143D01*
X14788333Y-14315571D01*
X14778809Y-14296524D01*
X14769286Y-14267952D01*
X14759762Y-14220333D01*
X14759762Y-14182238D01*
X14769286Y-14134619D01*
X14778809Y-14106048D01*
X14788333Y-14087000D01*
X14807381Y-14058428D01*
X14816905Y-14048905D01*
X14978809Y-14144143D02*
X14978809Y-14277476D01*
X14931190Y-14067952D02*
X14883571Y-14210809D01*
X15007381Y-14210809D01*
X15235952Y-14277476D02*
X15235952Y-14077476D01*
X15321667Y-14277476D02*
X15321667Y-14172714D01*
X15312143Y-14153667D01*
X15293095Y-14144143D01*
X15264524Y-14144143D01*
X15245476Y-14153667D01*
X15235952Y-14163190D01*
X15445476Y-14277476D02*
X15426428Y-14267952D01*
X15416905Y-14258428D01*
X15407381Y-14239381D01*
X15407381Y-14182238D01*
X15416905Y-14163190D01*
X15426428Y-14153667D01*
X15445476Y-14144143D01*
X15474048Y-14144143D01*
X15493095Y-14153667D01*
X15502619Y-14163190D01*
X15512143Y-14182238D01*
X15512143Y-14239381D01*
X15502619Y-14258428D01*
X15493095Y-14267952D01*
X15474048Y-14277476D01*
X15445476Y-14277476D01*
X15626428Y-14277476D02*
X15607381Y-14267952D01*
X15597857Y-14248905D01*
X15597857Y-14077476D01*
X15778809Y-14267952D02*
X15759762Y-14277476D01*
X15721667Y-14277476D01*
X15702619Y-14267952D01*
X15693095Y-14248905D01*
X15693095Y-14172714D01*
X15702619Y-14153667D01*
X15721667Y-14144143D01*
X15759762Y-14144143D01*
X15778809Y-14153667D01*
X15788333Y-14172714D01*
X15788333Y-14191762D01*
X15693095Y-14210809D01*
X15864524Y-14267952D02*
X15883571Y-14277476D01*
X15921667Y-14277476D01*
X15940714Y-14267952D01*
X15950238Y-14248905D01*
X15950238Y-14239381D01*
X15940714Y-14220333D01*
X15921667Y-14210809D01*
X15893095Y-14210809D01*
X15874048Y-14201286D01*
X15864524Y-14182238D01*
X15864524Y-14172714D01*
X15874048Y-14153667D01*
X15893095Y-14144143D01*
X15921667Y-14144143D01*
X15940714Y-14153667D01*
X16016905Y-14353667D02*
X16026428Y-14344143D01*
X16045476Y-14315571D01*
X16055000Y-14296524D01*
X16064524Y-14267952D01*
X16074048Y-14220333D01*
X16074048Y-14182238D01*
X16064524Y-14134619D01*
X16055000Y-14106048D01*
X16045476Y-14087000D01*
X16026428Y-14058428D01*
X16016905Y-14048905D01*
M02*
